<svg id="Слой_1" data-name="Слой 1" xmlns="http://www.w3.org/2000/svg" xmlns:xlink="http://www.w3.org/1999/xlink" viewBox="0 0 3277.26 2000">
  <defs>
    <style>
      .cls-1 {
        mask: url(#mask);
        filter: url(#luminosity-noclip-2);
      }

      .cls-2 {
        mix-blend-mode: multiply;
        fill: url(#linear-gradient);
      }

      .cls-3 {
        fill: #fff;
      }

      .cls-4 {
        fill: #3a89c7;
      }

      .cls-5 {
        fill: #4aafff;
      }

      .cls-6, .cls-7, .cls-8 {
        opacity: 0.72;
      }

      .cls-6 {
        fill: url(#linear-gradient-2);
      }

      .cls-7 {
        fill: url(#linear-gradient-3);
      }

      .cls-8 {
        fill: url(#linear-gradient-4);
      }

      .cls-9 {
        fill: #ebebeb;
      }

      .cls-10 {
        fill: #eea886;
      }

      .cls-11 {
        fill: #fccca2;
      }

      .cls-12 {
        fill: #1e3a5e;
      }

      .cls-13 {
        fill: #a77860;
      }

      .cls-14 {
        fill: #eb4747;
      }

      .cls-15 {
        fill: #13243b;
      }

      .cls-16 {
        fill: #48484d;
      }

      .cls-17 {
        fill: #344052;
      }

      .cls-18 {
        fill: #214361;
      }

      .cls-19 {
        fill: #eddad3;
      }

      .cls-20 {
        fill: #eea987;
      }

      .cls-21 {
        fill: #393d63;
      }

      .cls-22 {
        fill: #202338;
      }

      .cls-23 {
        fill: #81807e;
      }

      .cls-24 {
        fill: #292c47;
      }

      .cls-25 {
        fill: #8f95c9;
      }

      .cls-26 {
        fill: #5d676c;
      }

      .cls-27 {
        fill: #323657;
      }

      .cls-28 {
        fill: #434343;
      }

      .cls-29 {
        fill: #5a5c5a;
      }

      .cls-30 {
        fill: #e2d2ca;
      }

      .cls-31 {
        fill: #45403d;
      }

      .cls-32 {
        fill: #5c5552;
      }

      .cls-33 {
        fill: #7a716d;
      }

      .cls-34 {
        fill: #454a78;
      }

      .cls-35 {
        fill: #1d2033;
      }

      .cls-36 {
        fill: #50558a;
      }

      .cls-37 {
        fill: #d9c7c1;
      }

      .cls-38 {
        fill: #c78d71;
      }

      .cls-39 {
        fill: #5073ab;
      }

      .cls-40 {
        fill: #3a4066;
      }

      .cls-41 {
        opacity: 0.8;
        fill:#623694;
        <!-- fill: url(#linear-gradient-5); -->
      }

      .cls-42 {
        mask: url(#mask-2);
      }

      .cls-43 {
        fill: url(#linear-gradient-6);
      }

      .cls-44 {
        fill: #b8b8b8;
        opacity: 0.17;
      }

      .cls-45 {
        fill: #5c544d;
      }

      .cls-46 {
        fill: #0f2536;
      }

      .cls-47 {
        fill: #183a54;
      }

      .cls-48 {
        fill: #2656a1;
      }

      .cls-49 {
        fill: #3a3f47;
      }

      .cls-50 {
        fill: #6495ed;
      }

      .cls-51 {
        fill: #3072a6;
      }

      .cls-52 {
        fill: #424773;
      }

      .cls-53 {
        fill: #ffdf69;
      }

      .cls-54 {
        fill: #ab9546;
      }

      .cls-55 {
        filter: url(#luminosity-noclip);
      }
    </style>
    <filter id="luminosity-noclip" x="838.03" y="-9192" width="1309.91" height="32766" filterUnits="userSpaceOnUse" color-interpolation-filters="sRGB">
      <feFlood flood-color="#fff" result="bg"/>
      <feBlend in="SourceGraphic" in2="bg"/>
    </filter>
    <mask id="mask" x="838.03" y="-9192" width="1309.91" height="32766" maskUnits="userSpaceOnUse">
      <g class="cls-55"/>
    </mask>
    <linearGradient id="linear-gradient" x1="1234.59" y1="1210.95" x2="1714.05" y2="354.22" gradientUnits="userSpaceOnUse">
      <stop offset="0"/>
      <stop offset="1" stop-color="#fff"/>
    </linearGradient>
    <linearGradient id="linear-gradient-2" x1="3186.48" y1="2688.47" x2="2678.2" y2="1671.92" gradientUnits="userSpaceOnUse">
      <stop offset="0.01" stop-color="#112157"/>
      <stop offset="1" stop-color="#4cdef2"/>
    </linearGradient>
    <linearGradient id="linear-gradient-3" x1="2619.24" y1="749.26" x2="3113.49" y2="749.26" gradientTransform="translate(1369.35 -1807.37) rotate(45)" xlink:href="#linear-gradient-2"/>
    <linearGradient id="linear-gradient-4" x1="1422.26" y1="1056.75" x2="2405.54" y2="1056.75" xlink:href="#linear-gradient-2"/>
    <linearGradient id="linear-gradient-5" x1="1638.63" y1="1850.34" x2="1638.63" y2="-640.55" gradientUnits="userSpaceOnUse">
      <stop offset="0.01" stop-color="#311a57"/>
      <stop offset="1" stop-color="#5e60f2"/>
    </linearGradient>
    <filter id="luminosity-noclip-2" x="838.03" y="0" width="1309.91" height="1365.91" filterUnits="userSpaceOnUse" color-interpolation-filters="sRGB">
      <feFlood flood-color="#fff" result="bg"/>
      <feBlend in="SourceGraphic" in2="bg"/>
    </filter>
    <mask id="mask-2" x="838.03" y="0" width="1309.91" height="1365.91" maskUnits="userSpaceOnUse">
      <g class="cls-1">
        <polygon class="cls-2" points="1982.26 0 838.03 989.02 1275.26 1200.39 1668.63 1365.91 2147.94 0 1982.26 0"/>
      </g>
    </mask>
    <linearGradient id="linear-gradient-6" x1="1234.59" y1="1210.95" x2="1714.05" y2="354.22" gradientUnits="userSpaceOnUse">
      <stop offset="0" stop-color="#e6e6e6"/>
      <stop offset="1" stop-color="#bdd5ff"/>
    </linearGradient>
  </defs>
  <title>21241</title>
  <g>
    <rect class="cls-3" y="0.01" width="3277.26" height="1999.99"/>
    <g>
      <ellipse class="cls-4" cx="1304.86" cy="1740.34" rx="230.52" ry="60.37"/>
      <path class="cls-5" d="M1521.45,1725.47c0,31.32-97,56.72-216.58,56.72s-216.59-25.4-216.59-56.72,97-56.72,216.59-56.72S1521.45,1694.14,1521.45,1725.47Z"/>
    </g>
    <path class="cls-6" d="M3277.26,1836.45V2000H2325.44c80.48-211.2,284.91-361.26,524.37-361.26C3021.05,1638.74,3174.35,1715.5,3277.26,1836.45Z"/>
    <g>
      <ellipse class="cls-4" cx="1922.26" cy="1735.42" rx="186.69" ry="48.89"/>
      <path class="cls-5" d="M2097.67,1723.38c0,25.37-78.54,45.93-175.41,45.93s-175.41-20.56-175.41-45.93,78.53-45.94,175.41-45.94S2097.67,1698,2097.67,1723.38Z"/>
    </g>
    <g>
      <ellipse class="cls-4" cx="2396.61" cy="1735.42" rx="186.69" ry="48.89"/>
      <path class="cls-5" d="M2572,1723.38c0,25.37-78.53,45.93-175.41,45.93s-175.41-20.56-175.41-45.93,78.54-45.94,175.41-45.94S2572,1698,2572,1723.38Z"/>
    </g>
    <g>
      <ellipse class="cls-4" cx="2860.16" cy="1735.42" rx="186.69" ry="48.89"/>
      <path class="cls-5" d="M3035.57,1723.38c0,25.37-78.53,45.93-175.41,45.93s-175.4-20.56-175.4-45.93,78.53-45.94,175.4-45.94S3035.57,1698,3035.57,1723.38Z"/>
    </g>
    <circle class="cls-7" cx="2866.36" cy="749.26" r="247.13" transform="translate(309.73 2246.28) rotate(-45)"/>
    <circle class="cls-8" cx="1913.9" cy="1056.75" r="491.64"/>
    <g>
      <rect class="cls-9" x="2389.68" y="1562.04" width="117.42" height="8.23" transform="translate(4896.78 3132.3) rotate(180)"/>
      <rect class="cls-9" x="2389.68" y="1577.55" width="117.42" height="34.61" transform="translate(4896.78 3189.7) rotate(180)"/>
      <rect class="cls-9" x="2526.39" y="1517.67" width="5.17" height="96.96" transform="translate(5057.94 3132.3) rotate(180)"/>
    </g>
    <g>
      <g>
        <path class="cls-10" d="M1464.8,1241.25s-4.42,11.92-7.85,13.83-4.37,28.48-4.65,31.65c-.25,2.66,1.7,5.24,2.73,4.84s3.33-14.31,5.43-18.59c1.77-3.59,3-4.86,3.52-3.56s-1.24,15.7-2.15,23.47c-.81,6.85.28,28.77,4,27s11.59-35.15,12.34-45.73-1.1-24.21-1.1-24.21Z"/>
        <path class="cls-11" d="M1293.25,893.74s-12.42-23.59-6.37-48.7,36.42-52.36,70.31-40.19c24,8.63,34,39.2,30.31,55.63-8,36,19,54.55,12.7,73.64-5.51,16.76-6.16,29.82-2,33.21s17.77,15.49,16.27,29.81-66.2-41.74-66.2-41.74S1313.06,884.58,1293.25,893.74Z"/>
        <path class="cls-11" d="M1195.06,1715.46s-21.59,29.07-18.63,33.68,25.67,5.26,39.49,0,14.15-39.34,20.4-54c2.62-6.13-3-24.22-10.86-25.53s-16.44,2.54-16.44,2.54S1217.19,1692.8,1195.06,1715.46Z"/>
        <path class="cls-10" d="M1208.87,1672a226.23,226.23,0,0,0-4.8,23.55c-1.38,9.8-16.78,31.26-16.12,33.89s18.42,5,25.66-1.77,11.9-26.52,13.5-38.33c1.48-11,3.36-16.43,3.36-16.43S1215.78,1664.71,1208.87,1672Z"/>
        <polygon class="cls-11" points="1236.32 1695.17 1236.32 1725.6 1232.37 1725.6 1232.37 1702.08 1236.32 1695.17"/>
        <path class="cls-11" d="M1383,1716s-20.81,28.58-17.85,33.19,25.67,5.26,39.49,0,14.15-39.34,20.4-54c2.62-6.13-3-24.22-10.86-25.53s-17.11,2.82-17.11,2.82S1405.13,1693.28,1383,1716Z"/>
        <path class="cls-10" d="M1397.07,1672.46s-1.64,13.49-4.28,23-16.78,31.26-16.12,33.89,18.43,5,25.67-1.77,12.83-26.43,13.49-38.33-1.65-19.65-1.65-19.65S1404,1665.22,1397.07,1672.46Z"/>
        <polygon class="cls-11" points="1425.05 1695.17 1425.05 1725.6 1421.1 1725.6 1421.1 1702.08 1425.05 1695.17"/>
        <path class="cls-10" d="M1290.28,1198.66s-15.75,86.75-20,108.45-16.17,126.81-17.45,144.68-19.33,85.22-18.48,91.6S1207.57,1678,1207.57,1678s9.44,7.59,19.38.68c5.12-3.55,47-109.93,55-140.82,7.83-30.15,41.61-94.37,44.59-104.68s22-137.47,27.13-143.43,12.76,3.41,15.74,16.6,9.36,127.23,13.19,141.7.85,63.41,3,88.09,11.47,136.32,11.47,136.32,15.68,3,17.39.3,17.52-124.37,18-153.73.88-69.86,1.7-82.55c7.88-121.68,22.77-137.6-3.26-225.17C1367.16,997,1290.28,1198.66,1290.28,1198.66Z"/>
        <path class="cls-12" d="M1292.84,1181.23l125.78-5.76s31,48.34,29.38,136.29c-1.34,74.52-9.43,101.84-9.43,101.84s-50.27,39.13-132,32.75-83.55-21.37-103.13-13.29c0,0,23.42-42.14,49-84.68,22.83-37.93,20.06-97.14,24.74-113.74S1285,1197.48,1292.84,1181.23Z"/>
        <path class="cls-12" d="M1478.44,1254c-1.57.35-23-5.5-21.2-6.85.71-.54-14.29-89.15-22.21-127.45-5-24.26-18.06-74.31-18.06-74.31s-2.37,6.33-6.06,35c-2.35,18.24-2,32.32-1.08,53.8.82,18.88,5.05,32.23,8.8,41.26l-128.35,23.19c1-3.39,3.8-24.62,5.13-47.46h0c.16-2.64.29-5.3.41-8,.91-22.24.11-44.23-5.34-51.33-14-18.3-15.31-44.26-14.47-58.73,0,0-38.84,70.24-41.27,75.54-8.23,17.94,16.18,11.85,29.43,13.1l28.47-3.33-7.08,18.62-59.76-3.25c-27.86-3.32-38.22-19.57-18.23-59.14,6.09-12,43.72-83.66,50.25-90.47s33.84-22.58,60.79-31.09,49.41-2.83,49.41-2.83,32.8,6.19,58.39,16.33c16.57,6.56,40.52,132.76,41.62,139C1473.63,1137.16,1481.41,1253.36,1478.44,1254Z"/>
        <path class="cls-10" d="M1380,952.85s-14.88,65.17-42,77.6c0,0-29.58-37.65-19.38-77.3C1318.61,953.15,1350.05,940.83,1380,952.85Z"/>
        <path class="cls-10" d="M1342.36,972.41c-21.63-4.09-17-16.11-17-16.11s1-6.79,1.4-15.36c.09-2.2.16-4.52.14-6.86a93,93,0,0,0-.59-10.64c-1.77-14.51,39.24-5.85,39.24-5.85s-2.36,29.36,3.29,38.16S1364,976.49,1342.36,972.41Z"/>
        <path class="cls-10" d="M1302.3,835s-22.65,43.64-.19,85,66.59-18,69.45-25,18-46.34-12.11-58.3S1308.71,823.19,1302.3,835Z"/>
        <path class="cls-10" d="M1333.87,1115.38s11.83-12.13,13.62-11.42-5,13.38-5,13.38Z"/>
        <path class="cls-11" d="M1309.83,850.51s-15.59,20.48-17.44,35.61c0,0-6.21-28.61,11.34-56.09s62.17-1.31,68.15,9.67,23.49,20.66-5.93,67.85C1366,907.55,1313,870.79,1309.83,850.51Z"/>
        <path class="cls-13" d="M1346,924.35s-3.93,8.6-19.29,16.59c.09-2.2.16-4.52.14-6.86A36.72,36.72,0,0,0,1346,924.35Z"/>
        <path class="cls-11" d="M1349.24,878.48s8.71,13.55.66,25.24,2,23.17,3.78,35.53-31.93,52.58,7.35,69.12,46.5-24.29,40.68-41.41c-5.58-16.42-17.7-19-18.55-40.49S1375.26,871.56,1349.24,878.48Z"/>
        <path class="cls-14" d="M1356.34,1161.46l-19.22-5.72a6.08,6.08,0,0,1-4.09-7.57l14.65-49.21a6.08,6.08,0,0,1,7.57-4.09l19.22,5.72a6.08,6.08,0,0,1,4.09,7.57l-14.65,49.2A6.08,6.08,0,0,1,1356.34,1161.46Z"/>
        <path class="cls-10" d="M1317.94,1119.37a10.26,10.26,0,0,0,5.74.74c4.63-1.13,8.7-7.08,14.66-3.94s.48,23.72-2.65,26.72-12.49,1.13-24.07-6.86S1317.94,1119.37,1317.94,1119.37Z"/>
        <path class="cls-10" d="M1336.17,1115.38a212.51,212.51,0,0,1,21.37,3c9.82,1.94,20.83,5.94,21.21,7.94.41,2.24-10.15-.54-20-1.84-9.1-1.2-7.54.48-7.54.48s-.41-.5,9.21,2.63c10.36,3.36,20.59,7.81,20.75,10.23.07,1.18-.56,1.69-4.53,1.05,2.2.83,2.26,1.52,2,2.42-1.51,4.67-17.56,2-23.94.9,4.89.85,8.38,2,5.49,4.29-3.31,2.64-25.81-2.14-34.05-3.12C1317.09,1142.3,1336.17,1115.38,1336.17,1115.38Z"/>
        <path class="cls-12" d="M1322.73,1144.22l-95.48-3.52c-31.24-6.23-39.68-26.42-19.68-66,3.39-6.7,15.53-29.45,26.76-49.48l37.86,14.85c-9.85,17.84-27.41,45.69-29.37,50-8.23,17.94,6.92,17.69,21.35,19.66l56.9,5Z"/>
        <path class="cls-11" d="M1397,1671s5.06,2.73,18,0l1,2.79s-12.26,3.91-19,0A3.36,3.36,0,0,1,1397,1671Z"/>
        <path class="cls-11" d="M1208.87,1672s5.62,3.49,21.51,1l.85,2.71s-15.21,4.73-23.18-.45A9.45,9.45,0,0,1,1208.87,1672Z"/>
        <path class="cls-15" d="M1322.73,1144.23l-27.31,7v0h0c.16-2.64.29-5.3.41-8Z"/>
      </g>
      <path class="cls-16" d="M1356.73,1102.29a2.89,2.89,0,1,1-2.89-2.89A2.89,2.89,0,0,1,1356.73,1102.29Z"/>
    </g>
    <g>
      <path class="cls-17" d="M2436.25,795.7s30.2,16.58,20.61,57.36-13.23,46.16-5.44,62.64,14.64,85.53,6.33,98.16-92.55-61.61-101.92-121,11.72-84.63,19.19-94.05S2409.61,780.56,2436.25,795.7Z"/>
      <path class="cls-10" d="M2427.83,939.54s-23.33,7.21-21.76,25.11,13.54,36.89,16.61,44,35.7,92.72,35.22,95.43,3.77,31.1,5.41,64.53c1.87,37.91,1.83,56.66,1.83,56.66l26,.32s5.45-98.79-1.25-123.65S2470,988.73,2470,988.73,2459.31,945.17,2427.83,939.54Z"/>
      <path class="cls-18" d="M2476.68,1010l-48.15,20.3s-44.26-109.83-7.16-97.56S2475,968,2476.68,1010Z"/>
      <path class="cls-19" d="M2509.53,1721.15c-9.72-7.05-31.56-48.42-31.56-48.42s-9.57-28.39-27.81-20.36c-11.14,4.91-12.54,17.36-10.32,27.1l3.93,47.75,3.31.31.58-32.82c4.66,9.7,7.3,28.9,13.17,36.24,6.88,8.59,40,7.79,46.47,8.09S2522.71,1730.72,2509.53,1721.15Z"/>
      <path class="cls-19" d="M2311.22,1703.54c-5.56-10.63-6.7-57.4-6.7-57.4s4.08-29.68-15.83-30.61c-12.16-.57-19,10-21.3,19.67l-17.75,44.5,2.83,1.75,15.13-29.12c-.15,10.75-6.33,29.13-4.34,38.31,2.33,10.76,32.35,24.79,38,27.93S2318.77,1718,2311.22,1703.54Z"/>
      <path class="cls-20" d="M2392,1276.35c.91,5.77,7.35,30,14.57,57h0c6.58,24.58,13.82,51.4,18.11,68.5,1.6,6.38,2.79,11.41,3.38,14.46,3.94,20.19-3,51.25-6,77.33s28,174.52,28,174.52c6.51,3.42,20-17,20-17-4.44-9.54,4.06-174.91,7.21-185s6.26-38.38,4.12-49.6a43,43,0,0,1-.45-8.94c.43-14,4.41-37,7.37-62.31,3.73-31.83-4.94-111.82-6.37-119-.14-.66-.35-1.59-.63-2.74-2.74-11.29-11.77-43.4-11.77-43.4-21-7.36-37.05-9.27-49.16-7.39-16,2.49-25.21,11.6-30.15,23.49C2378.43,1224.71,2390.81,1268.87,2392,1276.35Z"/>
      <path class="cls-20" d="M2286,1619.22l20.79,9.68c5.38-17.31,104.93-132.43,111.6-145.6s15-39.14,15.92-48.86c.17-1.74.58-4.66,1.2-8.43,2.39-14.65,7.81-42.18,13.8-63.43,1.12-4,2.26-7.71,3.4-11.12,6.11-18.24,13.1-81.91,16.83-119.39,1.65-16.68,2.67-28.18,2.67-28.18l-1-.92c-7.46-6.89-76.36-58.08-97.79-25.09-5.66,8.72-9.89,21.34-12.79,31.43-8.87,30.94-4.27,65.08,3.11,97.06,8.17,35.42,13,47.54,18.35,96.61,1.76,16-3.24,38-7.46,43.9-11.9,16.68-23.31,30.67-50,91C2316,1557.55,2286,1619.22,2286,1619.22Z"/>
      <path class="cls-18" d="M2481.31,1223.63c-20,2.91-150.39-24-150.72-29.66s17.37-69,23-87.69.23-23.7-2.62-38.66c-1.12-5.87-5-17-9.26-29.55-1.42-4.21-2.89-8.57-4.29-13-5.11-15.84-7.48-32-9-41.44-7-44.66,27.36-49,27.36-49,12.75-2.35,35.07-9.25,35.07-9.25l34.92,7.28a37.92,37.92,0,0,1,8.18,4.82l0,0a64,64,0,0,1,7.85,6.89c3.81,3.92,11.42,15.14,19,27.46,2.33,3.78,4.65,7.67,6.86,11.48,7.11,12.3,12.14,22.21,12,33.39-.15,11-12.33,34-13.74,44.92s-7.17,49.52-5.88,60S2481.31,1223.63,2481.31,1223.63Z"/>
      <path class="cls-18" d="M2342.09,1301c17.88,56.18,28.49,71.93,16.67,96.86,0,0,4.41-6.12,37.22-.5,8.88,1.52,18.52,3,28.69,4.46,17.6,2.45,43,6.46,62.5,7.7.44-14,2.71-69.4,2.86-94.87.21-37.79-6.66-81.14-8.09-88.32-.14-.66-.35-1.59-.63-2.74-15.55-9.54-38.16-16.55-61.14-21.64-10.1-2.24-20.27-4.11-29.94-5.66-30.22-4.84-55.57-6.57-58.69-6.77C2324.24,1220.9,2326.67,1252.59,2342.09,1301Z"/>
      <path class="cls-10" d="M2425.81,932.74s21.89,37.4,13.75,40.19-51-6.65-67.78-42C2371.78,931,2399.93,918.15,2425.81,932.74Z"/>
      <path class="cls-10" d="M2422.68,949.82s-19.44,8.23-37-18.85c0,0,4.73-30.75-5.27-48.53s43.71,21.32,43.71,21.32-.87,3.66-1.77,9.08c-.46,2.77-.94,6-1.3,9.41-.3,2.85-.53,5.84-.64,8.82C2420.15,938,2420.64,944.85,2422.68,949.82Z"/>
      <path class="cls-20" d="M2470.06,1651.2s23.43,51.76,27.79,59-9.16,6.53-17.37,2.83-28.36-38.26-30.42-44.81.1-15.8.1-15.8Z"/>
      <path class="cls-20" d="M2306.78,1621.08s-2.06,56.78-1.36,65.15-11.1,1.78-16.81-5.19-8.36-46.89-7.29-53.67,7.13-14.1,7.13-14.1Z"/>
      <path class="cls-21" d="M2374.42,991.71c-4,20.58-32.71,46.36-32.71,46.36-1.42-4.21-2.89-8.57-4.29-13C2357.22,1012.48,2374.42,991.71,2374.42,991.71Z"/>
      <rect class="cls-3" x="2346.34" y="1162.43" width="154.86" height="99.46" transform="translate(-133.37 314.92) rotate(-7.24)"/>
      <path class="cls-10" d="M2350.48,940.89s24.22,3.17,25.68,21.07-7.12,38.65-8.94,46.14-10.2,83.46-9.28,86.06,12.63,54.25,16.23,79.8,17,60.78,17,60.78l-19.36,5.06s-50.64-110.39-48.23-136-6.3-107.3-6.3-107.3S2309.47,947.06,2350.48,940.89Z"/>
      <path class="cls-10" d="M2378.24,1277.1s-2.41-2.41-2.95-4c0,0-.76-2.93-1.43-5a15.35,15.35,0,0,0-.59-1.56c-.7-1.45-2.67-4.45-3.37-8.42s.7-21.87.7-21.87l9.89-2,9-3.18s16.21,18.62,17.29,22.25a10.62,10.62,0,0,1,.25,1.05c.62,3.15-.25,5.76-.12,7.45,0,.63.09,6.84-1.34,8a6.1,6.1,0,0,1-5.71,1.5s-4,3.07-7.41,3c0,0-3.61,3-7.8,1.62C2384.64,1276,2380.65,1278.57,2378.24,1277.1Z"/>
      <path class="cls-18" d="M2314.22,1018.58l50.89,11.89s40.37-78.38,4-92.69C2330.8,922.7,2305,975.83,2314.22,1018.58Z"/>
      <path class="cls-10" d="M2491.1,1266.07s2-2.79,2.24-4.42c0,0,.26-3,.57-5.15a15.84,15.84,0,0,1,.31-1.64c.45-1.55,1.89-4.83,1.9-8.87s-4.37-21.44-4.37-21.44l-10.08-.3-9.41-1.62s-12.83,21.09-13.29,24.85a10.1,10.1,0,0,0-.07,1.07c-.07,3.22,1.23,5.64,1.38,7.34.06.62,1.07,6.75,2.68,7.69a6.05,6.05,0,0,0,5.88.51s4.47,2.36,7.8,1.68c0,0,4.06,2.3,8,.27C2484.6,1266,2489,1267.92,2491.1,1266.07Z"/>
      <path class="cls-10" d="M2472.26,1222.63s1.89-35.38-4.44-61.91,25.41-7.94,25.41-7.94l-1,74.61Z"/>
      <path class="cls-20" d="M2431.55,800.05s44.22,16.23,16.19,92.54-85.25-13-76.61-59.92S2431.55,800.05,2431.55,800.05Z"/>
      <path class="cls-17" d="M2454.52,846.44s-23.34,20.83-60.8,21.8c0,0-8.75,21.34-10.17,27.89,0,0-37-63.54,5.55-95.63S2470.23,833.12,2454.52,846.44Z"/>
      <path class="cls-20" d="M2398.78,872.82c0-5.65-2.89-18.65-11.44-15.45s-.89,29.74,4.75,28.4C2392.09,885.77,2398.84,886.19,2398.78,872.82Z"/>
      <path class="cls-13" d="M2420.43,929.77c-20.78-5.75-28.82-25.56-29.07-26.22,16.9,21.84,29.65,18.7,29.65,18.7C2420.71,925.1,2420.69,926.88,2420.43,929.77Z"/>
    </g>
    <g>
      <path class="cls-22" d="M2795,1697.82s-14.12,15.77-28.46,19.07-24.38,7.52-24.49,16.57,41.28,15,57.69,5.9c24.5-13.62,27-9.52,29.7-16.32s-3.26-25-3.08-27.18C2826.57,1693.19,2795,1697.82,2795,1697.82Z"/>
      <path class="cls-22" d="M2939.14,1701.93s-10.39,15.36-24.29,18.91c-13.71,3.49-22.59,10.14-23.26,18.94s32.31,20.31,55.49,4.86c15.23-10.15,20.91-9.57,24-16s-1.6-24.53-1.3-26.63C2970.13,1699.4,2939.14,1701.93,2939.14,1701.93Z"/>
      <path class="cls-23" d="M2796.59,1690.27s-1.86,7.39-1.59,7.55,32.32,4,31.36-2c-.79-4.81-1.91-10-1.91-10Z"/>
      <path class="cls-23" d="M2939.56,1694.33s-.68,7.43-.42,7.6,30.8,5.91,30.61.06a47.51,47.51,0,0,0-1.93-10.43Z"/>
      <path class="cls-24" d="M2825.73,1247.93s-11.66,113.17-17.72,151.91c-7.08,45.3-9.49,82.72-11.46,106.17-2.49,29.49-3,174.54-4.71,183.17s38.6,2.38,38.6,2.38,19.85-189.54,27.25-220.94c6.89-29.24,32.48-155.14,38.77-147.15s14.09,146.92,18.74,170S2934,1697.07,2934,1697.07s32.1,6.39,40.64-.84c0,0,3.89-155.6.92-198.84-1.13-16.48,19.31-197.58-6.9-270.49C2954.84,1188.37,2825.73,1247.93,2825.73,1247.93Z"/>
      <path class="cls-25" d="M3025.46,1264s-19.65,6-27.88,4.46-4.07-102.48-4.39-123.49c-.25-17-9.58-62-9.58-62a.42.42,0,0,1,0,.07.11.11,0,0,0,0,0s0,0,0,.08c-.92,3.37-13.5,50.06-13.94,72.49-.46,23.28,3,112.34,3,112.34l-31.27,14.73-108.13,3.11-15.76.23s2.49-52.79,3.41-70.88c.58-11.49,2.81-32.08,2.24-52.13,0,0,.36-21.13-1.74-30.23-.22-40.17-2.66-80-2.66-80q-2-27.31-2.82-51.13c4.4-2.32,9.68-5.05,13.91-7.06,13.08-6.22,31.31-14.61,43-20,6.86-3.15,13.56-5.44,13.56-5.44s46.75-4.49,50.55-4.25c1.2.08,7,2.11,14.7,5,16.58,6.29,48.54,19.1,53.63,22.76,7.47,5.34,23.25,132.32,24,141.21C3030.52,1150,3025.46,1264,3025.46,1264Z"/>
      <path class="cls-10" d="M2936.71,964.88c-3.43,31.51-38.42,31.51-38.42,31.51s-14.49-12.67-14-22c0-.2,0-.41.05-.61.21-1.72,2.17-3.87,2.37-7.33,0-.93.06-1.88.06-2.83,0-2.4-.15-4.76-.29-6.4-.12-1.44-.23-2.38-.23-2.38s5.64-5.94,12.81-13c12.52-12.38,29.74-28.25,29.77-21.94a5.84,5.84,0,0,1-.15,1.2C2925.64,935.23,2936.71,964.88,2936.71,964.88Z"/>
      <path class="cls-13" d="M2919.51,945.82s-4.4,23-33.33,28.2l-1.91.32c0-.2,0-.41.05-.61.21-1.72,2.17-3.87,2.37-7.33,0-.93.06-1.88.06-2.83C2887.94,963.87,2905.78,968,2919.51,945.82Z"/>
      <path class="cls-26" d="M2933.44,1225.1s2.83,17.86,3.08,22.52l6-1.2s-1.65-18.9-2.63-22.07Z"/>
      <path class="cls-10" d="M2929.51,917.88c-1.64,8-3.58,14-4,16.26h0a26.57,26.57,0,0,1-3.08,7.09c-4.75,8.29-14.43,20-26.07,22.38a20.65,20.65,0,0,1-3.93.43c-4.9.06-10.92-.83-15.34-6.07-34.84-41.36-26.39-83.76-26.39-83.76s61.23-33.72,76.06-16.37C2937.16,870,2933.38,899.09,2929.51,917.88Z"/>
      <path class="cls-27" d="M2850.7,874.21s-6.16,1.08-10.35-10.11-1.85-14.91-1.85-14.91,24.42-17.6,33.8-21.33,32.93-10.68,40-5.57c0,0,12.87-6.32,21.81,15.41,14.19,34.46-3.66,75.27-3.66,75.27s-5.2-23.46-11.09-25.37-8.62,6.51-8.62,6.51l-10.12,4.34s8-38.35-11.53-35.17S2862.18,873.67,2850.7,874.21Z"/>
      <path class="cls-10" d="M2908.88,884.71c-1.38-10.55,16.35-18.81,17.61-7.71s-5.52,23.61-9.84,24.23S2909.94,892.75,2908.88,884.71Z"/>
      <path class="cls-28" d="M3031.67,1329.12s-1.84-25-8.53-28.83-2.74,3.9-2.74,3.9,4,18.14,4.93,25.49C3025.38,1330,3031.67,1329.12,3031.67,1329.12Z"/>
      <polygon class="cls-29" points="2965.5 1346.8 3053.75 1320.32 3055.14 1429.48 2967.73 1483.66 2965.5 1346.8"/>
      <polygon class="cls-29" points="2967.73 1483.66 2978.86 1485.55 3063.85 1430.9 3061.13 1320.71 3053.75 1320.32 2967.73 1483.66"/>
      <path class="cls-30" d="M2824.42,1069.08c-.09.24-1,2.68-2.28,7.08A27.9,27.9,0,0,1,2824.42,1069.08Z"/>
      <path class="cls-31" d="M2912.85,983.43l-14.56,13s16.81-1.12,19.95-3.92Z"/>
      <path class="cls-24" d="M2820.51,1269.07s68.41,5.83,128.33,0v19.66s-90,13-131.34-3.75Z"/>
      <path class="cls-27" d="M2872.84,974.67c-3.78,1.73-8.25,3.78-13,6-9.95,4.59-21.16,9.8-30,14-4.69,2.24-9.44,4.27-13.93,6.17q.78,24.24,2.84,52s2.81,45.89,2.67,88.88a85.32,85.32,0,0,1,.84,18.89c-.65,8.4-1.56,17.58-2.66,27.15a3.6,3.6,0,0,1,0,.36c-.26,2.28-.53,4.56-.81,6.87,0,0,0,.06,0,.1-5.82,47.87-15.67,102.8-20.81,119.42-1.09,3.47,2.66,6.67,5.33,9.15l18.71,11.79s7.72-71,10.28-95.12c2.47-23.27,10.25-54.47,13.66-84.86v0c4.31-38.56,10.26-76.34,13.47-98.79,8.35-58.43,19.48-84.58,19.48-84.58Z"/>
      <path class="cls-10" d="M2794.55,1132.2s14.25.84,22.56.57c6.43-.21,23.61,7.11,27,11s10.38,25.8,12.53,27.59-2,4.47-5.87,2.17c0,0-5.43,9.48-14.29,4.2s-17.35-11.64-22.07-13.88-30.69-12.92-30.69-12.92S2787.51,1128.56,2794.55,1132.2Z"/>
      <path class="cls-27" d="M2991.76,1145.92c1.45,19.5-6.8,127.39,1.43,128.9s38.48-5.13,38.48-5.13,3.79-116.34,2.58-128.54c-.89-8.88-15-142-22.48-147.37-4.31-3.1-36.24-14.42-51.91-20.59-2.87-1.13-5.64-2.21-8.21-3.18-3.32,3.7-38.57,68.91-41.33,121.9-.83,16.14,2.95,50.2,5.82,78,3.07,29.69,6.47,52.86,9,77.69,4.91,48.91,8.34,87.83,8.34,87.83l48.68-21.67c7.88-3.94,18.78-20.11,15.82-28.41-11.25-31.52-25.42-85.37-25.44-113,0,0,5.43-67.73,9.74-82.62C2982.24,1089.72,2989.91,1121.13,2991.76,1145.92Z"/>
      <path class="cls-10" d="M3000.83,1273.55s-2.41,10.87-5.65,21.76-6.32,14.38-4.87,20.57c1.11,4.67,6.46,8.1,7.78,6.58s1.68-19.75,9.23-19.78-1.91,22.6,2.55,20.88,21.62-11.45,20.4-20.62-8.25-15.69-8-29.42c.22-12.45-3.74-17.58-3.74-17.58Z"/>
      <path class="cls-29" d="M3006.57,1301.93s-10,2.72-8.91,36.71l11.35-2.07s-.49-18.79,2.76-29.08C3011.77,1307.49,3011.09,1300.85,3006.57,1301.93Z"/>
      <path class="cls-27" d="M2990.47,1200.46l.5,85.74s17.12-.76,40.7-9.47l1.63-120.9Z"/>
      <path class="cls-32" d="M2882.37,985.72s-1.25,17.89,13.89,18.31,27.15-14.12,27.15-14.12l-25.12,6.48-15.3-13Z"/>
      <path class="cls-33" d="M2934.69,959s-14.35,18.4-21.84,24.44l12.28,20.6,21.17-36Z"/>
      <path class="cls-31" d="M2885.33,986.81l13,9.58s-11.38-20.75-11.61-30Z"/>
      <polygon class="cls-33" points="2886.68 966.4 2878.37 972.28 2869.11 999.92 2885.33 986.81 2886.68 966.4"/>
      <path class="cls-33" d="M2791.85,1131.16l5.32,1.18s-8.69,12.45-8.48,23l-6-1.6S2782.75,1136.07,2791.85,1131.16Z"/>
      <path class="cls-27" d="M2719.38,1123c19.52,13.94,63.58,40.86,63.58,40.86s4.36-30.64,8.89-32.73c0,0-30.15-22.38-39.45-32.33,0,0,31.56-21.47,52.29-35.95,5.11-3.56,9.37-6.57,12-8.52.84-.62,1.53-1.13,2-1.52,8.47-6.63,32.29-41.62,48.31-74.65,0,0-41.17,11.87-57.44,24.53-19.58,15.23-32.6,28.15-37.83,31.81s-63.8,48.64-66.24,55.61S2699.86,1109.08,2719.38,1123Z"/>
      <path class="cls-24" d="M2797.17,1132.34s-6,3.39-8.72,20.57c0,0,.51.93,5.94,2.46,0,0,2.79-19.16,9.34-22.74C2803.73,1132.63,2802.08,1132.05,2797.17,1132.34Z"/>
      <path class="cls-24" d="M2792.74,1136.21l9.43,1.26a1,1,0,0,0,1-.52l1.64-3a1,1,0,0,0-.76-1.5l-9.43-1.26a1,1,0,0,0-1,.52l-1.64,3A1,1,0,0,0,2792.74,1136.21Z"/>
      <path class="cls-34" d="M2794.17,1135.45l7.06.94a.75.75,0,0,0,.77-.39l1.23-2.26a.76.76,0,0,0-.57-1.12l-7.06-.95a.78.78,0,0,0-.77.39l-1.23,2.26A.77.77,0,0,0,2794.17,1135.45Z"/>
    </g>
    <g>
      <path class="cls-35" d="M1885.1,1659.52s3.28,22,5.48,31.43,22.52,36.36,22.16,40.94-9,10-13.28,6.3-33-33.2-39.18-45.84-26.45-29.12-28.52-34.73,24-22,30.65-24.65S1885.1,1659.52,1885.1,1659.52Z"/>
      <path class="cls-10" d="M1834.2,1267.41s2.69,14,4.67,16.65,7.32,15.67,7.86,17.51,3.82,15,4.38,16.7-3.2,4.27-5.77.75c-1.59-2.19-4.39-10.74-5.53-13.49s-4.64-11.48-5.59-9.89-.71,13.29-.87,16.3,1.76,12.26,2.65,16.09,6,19.88,4,20.75-3.77.62-6.41-3.69c0,0-4.17,2.34-6.61-2.94,0,0-3.74,1.35-6-5.54a9.28,9.28,0,0,1-3.69-3.93c-1-2.47-7.08-23.59-7-32.21s2.07-14.61,1.71-20.69-3.49-19.09-3.49-19.09Z"/>
      <polygon class="cls-36" points="1870.23 1629.51 1862.41 1632.97 1885.1 1659.52 1892.62 1651.2 1870.23 1629.51"/>
      <path class="cls-35" d="M1949.53,1685.13s-5,12.18-9.31,17-20.56,13.45-20.65,27.78c-.1,15.54,27.48,11.22,38.27,10.66s11.6-8.87,16.14-17.67,9.12-7.31,10-14.41-3.47-23-3.47-23Z"/>
      <path class="cls-36" d="M1949.06,1680.64l-.79,7.37s17,6.1,33,.64l-.89-10.07Z"/>
      <path class="cls-24" d="M2043.14,1493.38c0-19.16-14-186.33-13.35-192.71.42-4.17-4-44.19-7.17-71.53l-.09-.7s0-.11,0-.16c-.89-7.68-1.67-14.3-2.19-18.75-.24-2-.43-3.64-.54-4.65-.11-.84-.16-1.28-.16-1.28s-90.22-17.79-137-1c-2,.7-3.83,1.46-5.62,2.29l-.32,2.29c-.47,3.46-1.44,10.67-2.74,20.47-.23,1.65-.46,3.38-.7,5.17-6.65,50.4-2.38,105.17,9.28,161.25,11.42,55,17.72,96.14,18.9,104.13,1.55,10.48,6.14,39.32,11.21,71-24.83,30.62-46,56.67-44.42,59.25,3.93,6.4,38.76,42.47,40.68,36.08,0,0,6.29-7.12,16.14-18.47l5.28,32.55s38.19,9.12,52.24.81c0,0-5.52-42-11.28-87.58C2006.35,1549.85,2043.14,1503.41,2043.14,1493.38Zm-84.68-13.84c-.48-25.73-11.92-169.87-10.71-169.87,5.63,0,37.35,137.27,38.53,156.59.24,4-4.71,12.81-12.7,24.45-3.6,5.25-7.81,11-12.45,17.23h0C1959.55,1493.83,1958.53,1483.43,1958.46,1479.54Z"/>
      <path class="cls-37" d="M2058.2,964.5l-24.26,87c-.83,2.81-1.82,6.29-2.88,10.33l0,.15,0,.11a342.38,342.38,0,0,0-10.54,65.44c-1,17.91,2.3,89.92,2.3,89.92s-36.71,13.7-91.64,10.23c0,0-59.09-1.39-54.27-37.61,12.75-95.89.28-135.42-1.39-145,0,0-8-46.57-13.76-85.59,16.63-6.19,87.65-30.07,87.65-30.07l36.8,2.75S2042.05,945.92,2058.2,964.5Z"/>
      <path class="cls-20" d="M1967.8,806.36s35.91,6.06,29.82,62.28-37.79,51.27-39.91,51.19-31.89.68-33.46-68.07C1924.25,851.76,1923.79,800.93,1967.8,806.36Z"/>
      <path class="cls-20" d="M1983.53,903.53s-1.23,23.14,1,28.17-28.84,21-48.11,2.82c0,0,3.9-25.29,2.68-34.22S1983.53,903.53,1983.53,903.53Z"/>
      <path class="cls-20" d="M1998.35,852.75s4-4.17,5.38.11-6.36,23.23-5.88,24.09c0,0-.73,1.64-1.67.72S1998.35,852.75,1998.35,852.75Z"/>
      <path class="cls-20" d="M1924.66,851.23s-3.81-4.32-5.38-.11,4.17,23.14,4.89,24.31c0,0,1.23,1.94,2.21,1.06S1924.66,851.23,1924.66,851.23Z"/>
      <path class="cls-17" d="M2000.65,848c-1.24,7.69-2.41,13.41-2.41,13.41l-5.23,6.83s.31-15.09-.48-17.47c-.31-.89-.66-2.49-1-4.21-.6-2.84-1.21-6-1.63-7.12-.68-1.71-30.79-10.5-57.6,1.84,0,0,.23,2.32.21,4.91,0,3-.34,6.39-1.72,6.9-2.57.94-1.5,17.66-1.5,17.66l-4.18-4.82s-1.21-8.74-2.4-18.78a.42.42,0,0,0,0-.07c-.27-2.34-.54-4.75-.8-7.14-.6-10.1.4-28.44,13.55-39.21,8.87-3.8,23-7,46.66.2,0,0,5.42.36,6.93,1.83C2003.72,818.91,2000.65,848,2000.65,848Z"/>
      <path class="cls-38" d="M1941.52,912.31s5.73,8,19,7.66,19.1-7.24,19.1-7.24-6.31,13.18-19.17,13S1941.52,912.31,1941.52,912.31Z"/>
      <path class="cls-20" d="M1932.71,935s9.62,16.76,27.88,18.34c11.59,1,21.62-13.68,26.32-20.89A70.14,70.14,0,0,0,1932.71,935Z"/>
      <path class="cls-19" d="M1983.58,927.16s-7.35,9.62-23,19.91l9.73,15,16.59-29.6Z"/>
      <path class="cls-19" d="M1937.1,929.4s9.34,11.71,23.49,17.67l-10.67,15.44-18.67-27Z"/>
      <path class="cls-39" d="M1960.59,947.07l8.34,12.68s-8.75,5-16.89-.31Z"/>
      <path class="cls-35" d="M1874.83,1234.24s45.06,16.62,147,1l-1.36-18.46s-59.07,17.43-143.81,2.51Z"/>
      <path class="cls-27" d="M1986.91,932.46s-10.54,78.71-9.1,146.6,52.72,191.18,52.72,191.18,22.42-21.67,32.18-34c0,0-34.9-100.69-34.26-118.85s39.38-155.31,39.38-155.31S2046.31,948.09,1986.91,932.46Z"/>
      <path class="cls-27" d="M1930.33,935.78s.09,75.39-1.36,143.28-10.38,194.28-10.38,194.28-50.19-7.94-59.95-20.22c0,0,20.34-117.52,19.69-135.68s-32.69-151.77-32.69-151.77S1864.3,953.4,1930.33,935.78Z"/>
      <rect class="cls-40" x="1936.28" y="1222.44" width="27.69" height="20.58"/>
      <path class="cls-39" d="M1956.68,956.55s-12.37,42.2-13.44,126,1.51,107.86,1.51,107.86l9.66,19.1,12.86-19.93s-4.12-192.89-1.74-231.6Z"/>
      <path class="cls-10" d="M2027.74,1271s3-2,3.86-3.46c0,0,1.28-2.71,2.32-4.59a13.49,13.49,0,0,1,.88-1.42c1-1.31,3.62-3.94,5-7.66s2.51-21,2.51-21l-10.61-3.12-9.45-4.15s-20.69,15.86-22.43,19.2c-.16.33-.31.65-.43,1-1.15,3-.58,5.55-1,7.16-.14.59-1.11,6.54.28,7.86a7.26,7.26,0,0,0,6.08,2.13s4,3.44,7.73,3.75a10.8,10.8,0,0,0,8.37,2.5S2024.87,1272.07,2027.74,1271Z"/>
      <path class="cls-27" d="M2012.72,1226.18a183.1,183.1,0,0,0,36,16.84s66.69-108.67,67.53-116.51c.78-7.26-35.76-156.61-51-166l-25.08,82.85c1.84-.53,31.59,61.74,31.7,69.75C2071.94,1123.89,2012.72,1226.18,2012.72,1226.18Z"/>
      <path class="cls-27" d="M1842.06,1282.11s-15,2.79-36.67,1.56c0,0,8.45-139.49,7.61-147.33-.78-7.26,17.37-161.32,32.64-170.67l27.26,82.12c-1.84-.54-18.27,84-18.39,92C1854.35,1150.54,1842.06,1282.11,1842.06,1282.11Z"/>
      <polygon class="cls-24" points="1994.58 1237.93 2039.59 1261.28 2022.75 1292.46 1986.28 1253.46 1994.58 1237.93"/>
      <path class="cls-35" d="M1973.58,1490.71l-4.33,84.81-8.12-67.57h0C1965.77,1501.76,1970,1496,1973.58,1490.71Z"/>
    </g>
    <rect class="cls-41" y="0.01" width="3277.26" height="1999.99"/>
    <g class="cls-42">
      <polygon class="cls-43" points="1982.26 0 838.03 989.02 1275.26 1200.39 1668.63 1365.91 2147.94 0 1982.26 0"/>
    </g>
    <g>
      <rect class="cls-9" x="115.77" y="1591.98" width="81.85" height="5.74" transform="translate(313.39 3189.7) rotate(180)"/>
      <rect class="cls-9" x="115.77" y="1602.8" width="81.85" height="24.12" transform="translate(313.39 3229.72) rotate(180)"/>
      <rect class="cls-9" x="211.06" y="1561.06" width="3.6" height="67.59" transform="translate(425.73 3189.7) rotate(180)"/>
    </g>
    <g>
      <polygon class="cls-9" points="1982.24 559.24 2033.82 559.24 2018.03 526.5 1966.46 526.5 1982.24 559.24"/>
      <polygon class="cls-9" points="1958.11 559.24 1970.4 559.24 1954.61 526.5 1942.33 526.5 1958.11 559.24"/>
      <polygon class="cls-9" points="1779.93 520.25 1988.76 520.25 1981.83 503.88 1773 503.88 1779.93 520.25"/>
    </g>
    <g>
      <polygon class="cls-9" points="1614.12 1666.44 1683.21 1666.44 1662.06 1622.58 1592.97 1622.58 1614.12 1666.44"/>
      <polygon class="cls-9" points="1581.79 1666.44 1598.25 1666.44 1577.1 1622.58 1560.64 1622.58 1581.79 1666.44"/>
    </g>
    <g>
      <g>
        <path class="cls-10" d="M1464.8,1241.25s-4.42,11.92-7.85,13.83-4.37,28.48-4.65,31.65c-.25,2.66,1.7,5.24,2.73,4.84s3.33-14.31,5.43-18.59c1.77-3.59,3-4.86,3.52-3.56s-1.24,15.7-2.15,23.47c-.81,6.85.28,28.77,4,27s11.59-35.15,12.34-45.73-1.1-24.21-1.1-24.21Z"/>
        <path class="cls-11" d="M1293.25,893.74s-12.42-23.59-6.37-48.7,36.42-52.36,70.31-40.19c24,8.63,34,39.2,30.31,55.63-8,36,19,54.55,12.7,73.64-5.51,16.76-6.16,29.82-2,33.21s17.77,15.49,16.27,29.81-66.2-41.74-66.2-41.74S1313.06,884.58,1293.25,893.74Z"/>
        <path class="cls-10" d="M1434.09,1436.47c-.37,5.86-.67,17.57-.91,31.38-.3,16.21-.54,35.33-.78,51.16-.1,6.47-.91,17.4-2.2,30.56q-20.81,7-42.43,11.92c-1-11.07-1.73-20.14-2.17-25.35-1.15-13.27-.81-33.54-.85-51.68,0-15.67-.37-29.71-2.13-36.41-3.82-14.45-10.22-128.5-13.2-141.7s-10.62-22.57-15.73-16.61-24.17,133.13-27.14,143.45c-1.93,6.7-16.92,36.21-29.28,64.3-6.63,15.13-12.55,29.81-15.29,40.37-2,7.82-3.28,12.09-8.49,26.71-13.67-.4-27.75-4.11-41.12-5.7,2.78-14.42,2.23-13.76,2-15.49-.47-3.52,4.81-25.65,9.88-47.78,4.1-17.91,8-35.81,8.6-43.8,1.25-17.86,13.2-123,17.43-144.7s20-108.43,20-108.43,76.89-201.62,140.58,12.62C1456.87,1298.88,1442,1314.81,1434.09,1436.47Z"/>
        <path class="cls-12" d="M1292.84,1181.23l125.78-5.76s31,48.34,29.38,136.29c-1.34,74.52-9.43,101.84-9.43,101.84s-50.27,39.13-132,32.75-83.55-21.37-103.13-13.29c0,0,23.42-42.14,49-84.68,22.83-37.93,20.06-97.14,24.74-113.74S1285,1197.48,1292.84,1181.23Z"/>
        <path class="cls-12" d="M1478.44,1254c-1.57.35-23-5.5-21.2-6.85.71-.54-14.29-89.15-22.21-127.45-5-24.26-18.06-74.31-18.06-74.31s-2.37,6.33-6.06,35c-2.35,18.24-2,32.32-1.08,53.8.82,18.88,5.05,32.23,8.8,41.26l-128.35,23.19c1-3.39,3.8-24.62,5.13-47.46h0c.16-2.64.29-5.3.41-8,.91-22.24.11-44.23-5.34-51.33-14-18.3-15.31-44.26-14.47-58.73,0,0-38.84,70.24-41.27,75.54-8.23,17.94,16.18,11.85,29.43,13.1l28.47-3.33-7.08,18.62-59.76-3.25c-27.86-3.32-38.22-19.57-18.23-59.14,6.09-12,43.72-83.66,50.25-90.47s33.84-22.58,60.79-31.09,49.41-2.83,49.41-2.83,32.8,6.19,58.39,16.33c16.57,6.56,40.52,132.76,41.62,139C1473.63,1137.16,1481.41,1253.36,1478.44,1254Z"/>
        <path class="cls-10" d="M1380,952.85s-14.88,65.17-42,77.6c0,0-29.58-37.65-19.38-77.3C1318.61,953.15,1350.05,940.83,1380,952.85Z"/>
        <path class="cls-10" d="M1342.36,972.41c-21.63-4.09-17-16.11-17-16.11s1-6.79,1.4-15.36c.09-2.2.16-4.52.14-6.86a93,93,0,0,0-.59-10.64c-1.77-14.51,39.24-5.85,39.24-5.85s-2.36,29.36,3.29,38.16S1364,976.49,1342.36,972.41Z"/>
        <path class="cls-10" d="M1302.3,835s-22.65,43.64-.19,85,66.59-18,69.45-25,18-46.34-12.11-58.3S1308.71,823.19,1302.3,835Z"/>
        <path class="cls-10" d="M1333.87,1115.38s11.83-12.13,13.62-11.42-5,13.38-5,13.38Z"/>
        <path class="cls-11" d="M1309.83,850.51s-15.59,20.48-17.44,35.61c0,0-6.21-28.61,11.34-56.09s62.17-1.31,68.15,9.67,23.49,20.66-5.93,67.85C1366,907.55,1313,870.79,1309.83,850.51Z"/>
        <path class="cls-13" d="M1346,924.35s-3.93,8.6-19.29,16.59c.09-2.2.16-4.52.14-6.86A36.72,36.72,0,0,0,1346,924.35Z"/>
        <path class="cls-11" d="M1349.24,878.48s8.71,13.55.66,25.24,2,23.17,3.78,35.53-31.93,52.58,7.35,69.12,46.5-24.29,40.68-41.41c-5.58-16.42-17.7-19-18.55-40.49S1375.26,871.56,1349.24,878.48Z"/>
        <path class="cls-14" d="M1356.34,1161.46l-19.22-5.72a6.08,6.08,0,0,1-4.09-7.57l14.65-49.21a6.08,6.08,0,0,1,7.57-4.09l19.22,5.72a6.08,6.08,0,0,1,4.09,7.57l-14.65,49.2A6.08,6.08,0,0,1,1356.34,1161.46Z"/>
        <path class="cls-10" d="M1317.94,1119.37a10.26,10.26,0,0,0,5.74.74c4.63-1.13,8.7-7.08,14.66-3.94s.48,23.72-2.65,26.72-12.49,1.13-24.07-6.86S1317.94,1119.37,1317.94,1119.37Z"/>
        <path class="cls-10" d="M1336.17,1115.38a212.51,212.51,0,0,1,21.37,3c9.82,1.94,20.83,5.94,21.21,7.94.41,2.24-10.15-.54-20-1.84-9.1-1.2-7.54.48-7.54.48s-.41-.5,9.21,2.63c10.36,3.36,20.59,7.81,20.75,10.23.07,1.18-.56,1.69-4.53,1.05,2.2.83,2.26,1.52,2,2.42-1.51,4.67-17.56,2-23.94.9,4.89.85,8.38,2,5.49,4.29-3.31,2.64-25.81-2.14-34.05-3.12C1317.09,1142.3,1336.17,1115.38,1336.17,1115.38Z"/>
        <path class="cls-12" d="M1322.73,1144.22l-95.48-3.52c-31.24-6.23-39.68-26.42-19.68-66,3.39-6.7,15.53-29.45,26.76-49.48l37.86,14.85c-9.85,17.84-27.41,45.69-29.37,50-8.23,17.94,6.92,17.69,21.35,19.66l56.9,5Z"/>
        <path class="cls-15" d="M1322.73,1144.23l-27.31,7v0h0c.16-2.64.29-5.3.41-8Z"/>
      </g>
      <path class="cls-16" d="M1356.73,1102.29a2.89,2.89,0,1,1-2.89-2.89A2.89,2.89,0,0,1,1356.73,1102.29Z"/>
    </g>
    <g>
      <circle class="cls-44" cx="1336.71" cy="1113.49" r="395.88" transform="translate(-395.85 1271.33) rotate(-45)"/>
      <rect class="cls-3" x="145.95" y="1233.07" width="724.46" height="123.17" transform="translate(1226.47 2485.64) rotate(170.34)"/>
      <path class="cls-45" d="M334.54,1844.08s-3.07,22.51-3.45,25.89-34.16-2-34.16-2l-2.73-26.8S330.32,1840.9,334.54,1844.08Z"/>
      <path class="cls-46" d="M331.45,1867.11s10.7,13.56,21.05,19.47,26.61,8.26,32.73,14.38c4.42,4.42,16.1,23.44-26.89,23s-63.71,2.69-68.32-4.6,6.67-53.83,6.67-53.83S306.87,1869.45,331.45,1867.11Z"/>
      <path class="cls-45" d="M576.54,1844.08s-3.07,22.51-3.45,25.89-34.16-2-34.16-2l-2.73-26.8S572.32,1840.9,576.54,1844.08Z"/>
      <path class="cls-46" d="M573.45,1867.11s10.7,13.56,21,19.47,48.44,10.77,54.56,16.89c4.42,4.42,11.76,22.21-48.72,20.54-43-1.18-63.71,2.69-68.32-4.6s6.67-53.83,6.67-53.83S548.28,1869.71,573.45,1867.11Z"/>
      <path class="cls-47" d="M346.54,1262.9s-18,55.86-15.61,104-9.29,100.82-14.06,151.11c-5.31,56.06-27.06,188.78-27.85,218.77s3.37,125.75,3.37,125.75l43.54,1s36.57-232,46-255.7,56.43-192.46,58-211.4S346.54,1262.9,346.54,1262.9Z"/>
      <path class="cls-47" d="M529.57,1272.84s23.92,132,27.08,161.41,5.26,142.58,6.84,161,10.52,241,18.94,268.33H533.88S484,1701.79,484,1625.24s-33-166.42-54.32-216.93-70.08-51.7-83.18-145.41C346.54,1262.9,511.84,1243.12,529.57,1272.84Z"/>
      <path class="cls-10" d="M442.3,832.87s44.55-9.12,58.93,26,2.45,98.91-20,103.47-53.66-4.56-61.38-26.31-13-52.26-9.47-71.55S430.37,836.73,442.3,832.87Z"/>
      <path class="cls-10" d="M686.74,1306.77s13.46,14.45,17.93,16,13.5-5.79,45.74-6.92c2.84-.1,7.7,2.64,6.38,6.32s-12.84,18.66-18.89,20-37.61,6-51.16,0-22.23-23.94-22.23-23.94Z"/>
      <rect class="cls-48" x="865" y="1183.86" width="38.7" height="93.49" transform="translate(1962.7 2295.32) rotate(170.34)"/>
      <path class="cls-3" d="M1339.79,653.83c-253.88,0-459.67,205.79-459.67,459.66,0,235.47,177,429.55,405.22,456.46q20.06,2.38,40.54,3,7,.19,13.91.2a460.57,460.57,0,0,0,103.32-11.67q21.62-4.93,42.43-11.92c182.44-60.94,313.92-233.13,313.92-436.08C1799.46,859.62,1593.67,653.83,1339.79,653.83Zm339.36,639.9a385.9,385.9,0,0,1-190.63,174.12,383.16,383.16,0,0,1-135.91,29.64c-4.26.14-8.52.2-12.82.2a387.23,387.23,0,0,1-40.2-2.09c-193.31-20.07-344-183.49-344-382.11a384.25,384.25,0,0,1,384.2-384.2c212.18,0,384.2,172,384.2,384.2a382.5,382.5,0,0,1-44.81,180.21A0,0,0,0,0,1679.15,1293.73Z"/>
      <path class="cls-10" d="M476.44,963.05s-3.54,11.09-1.52,17.14-55.42-2.81-55.42-2.81.11-31.17-4.69-58.28S476.44,963.05,476.44,963.05Z"/>
      <path class="cls-49" d="M414.81,919.1s2.94,7.16,19.51,7.16,39.68-18.43,46.8-19.73,7.82-5.26,7.82-5.26l3.25,6.84,7.11,1.58s-3.53-20.28,7.57-26.58-.47-63.92-55.19-53.92c0,0-41.56,4.73-43.67,27.62S407.66,906.42,414.81,919.1Z"/>
      <path class="cls-50" d="M474.92,980.19a202.46,202.46,0,0,1,60.19,30.1s36.63,17.07,40.53,56.8c2.07,21.08,20.64,101.46,24.85,110.93s90.67,128.73,92.43,131.89-22.28,19.81-25.08,18.41S568.57,1222.92,564,1212.75c0,0-29.76-60.25-30.46-72.53,0,0-.76,35-2.16,44.82s18.82,173.64,18.12,178.9-97.14,21-141.69,16.14-82.77-11.23-82.77-11.23,22.19-130.85,19.39-147.34-8.07-110.84-8.07-110.84l-30.52,44.55,48.76,73.31L343,1276.23s-84.53-108.38-87.34-120.31,1.76-23.5,6.32-33.32,30.51-55.77,37.53-66.29,26.66-43.15,56.82-53.32,63.14-25.61,63.14-25.61Z"/>
      <path class="cls-5" d="M479.83,982.31s-.18-10.83-5.09-11.87-54.16-5.77-60.18-3.4v12.61S426.16,986.79,479.83,982.31Z"/>
      <path class="cls-10" d="M489.16,892.86c-.32-3.94-8.28-16.32-13.8-5.27s1.31,28.15,6.71,27.62S489.94,902.86,489.16,892.86Z"/>
      <path class="cls-51" d="M339.08,1265.8s8.67-41.07,4.14-54.39l-7.33-11S340.16,1223.71,339.08,1265.8Z"/>
    </g>
    <g>
      <polygon class="cls-24" points="998.63 1097.58 1100.84 1153.76 1203.49 992.23 1079.34 949.11 998.63 1097.58"/>
      <polygon class="cls-30" points="1005.11 1092.72 1100.7 1145.27 1196.69 994.21 1080.59 953.88 1005.11 1092.72"/>
      <path class="cls-10" d="M970.11,1064.47s17.79-8.51,25.6-13,27.89-10.55,29.51-12,59.55-5,63.06-8.06,6.93,7.11-8.08,10.39-35.91,11.33-37,17.2,15.42,7.26,17.1,12.09-.47,3.75-2.85,4.79-19.69-8.56-27.31-5.84-19.27-1-25.11,1-34.23,11.55-34.23,11.55Z"/>
      <path class="cls-10" d="M1105.83,1133.49s14.94-13.45,22.17-19.08,20.81-22.18,22.81-23.14,27.92-54.16,32.14-56.29-4-9.29-12.94,3.57-24.66,29.43-30.63,28.22-.84-17.36-4.74-20.82-3.71-1-5.61.82.39,21.89-5.14,28-6.52,18.57-10.67,23.29-24.22,27.76-24.22,27.76Z"/>
      <path class="cls-52" d="M784,1852.46s-3.23,22.45-3.63,25.82-36-2-36-2l-2.88-26.71S779.51,1849.3,784,1852.46Z"/>
      <path class="cls-24" d="M780.7,1875.42s11.26,13.52,22.16,19.42,28,8.23,34.46,14.33c4.66,4.4,16.95,23.36-28.31,23s-67.08,2.68-71.93-4.59,7-53.66,7-53.66S754.81,1877.76,780.7,1875.42Z"/>
      <path class="cls-52" d="M1038.75,1852.46s-3.24,22.45-3.64,25.82-36-2-36-2l-2.88-26.71S1034.3,1849.3,1038.75,1852.46Z"/>
      <path class="cls-24" d="M1035.49,1875.42s11.27,13.52,22.16,19.42,51,10.73,57.44,16.83c4.66,4.41,12.39,22.14-51.29,20.48-45.24-1.18-67.08,2.68-71.93-4.59s7-53.66,7-53.66S1009,1878,1035.49,1875.42Z"/>
      <path class="cls-24" d="M813.4,1275.85s-33.41,53.09-30.92,101.08-12.11,100.37-17.13,150.5c-5.6,55.89-28.5,188.19-29.33,218.08s3.55,125.35,3.55,125.35l45.84,1.05s38.5-231.29,48.47-254.89S893.3,1425.17,895,1406.29,813.4,1275.85,813.4,1275.85Z"/>
      <path class="cls-24" d="M989.29,1283s25.18,131.53,28.51,160.9,5.54,142.13,7.2,160.49,11.08,240.21,19.94,267.48h-58.6s-45-161.28-45-237.59-34.75-165.89-57.19-216.23-73.78-51.54-87.57-144.95C796.59,1273.14,970.62,1253.42,989.29,1283Z"/>
      <path class="cls-10" d="M869.16,829.53s44.85-16.75,65.52,17.39,18.69,102.48-3.91,110.89-56.57,4-68.14-17.35-22-52.25-21.52-72.89S857.38,835.49,869.16,829.53Z"/>
      <path class="cls-10" d="M925.9,959.37s-1.87,12.11,1.22,18.08S869,983.57,869,983.57s-5-32.45-14.38-59.86S925.9,959.37,925.9,959.37Z"/>
      <path class="cls-49" d="M854.63,923.71s4.22,7,21.46,4.26,38.27-25.64,45.47-28.15,7.26-6.75,7.26-6.75l4.51,6.58,7.64.49s-7-20.52,3.55-28.89-10.92-66.4-66.2-47.08c0,0-42.47,11.7-40.92,35.85S845.13,911.68,854.63,923.71Z"/>
      <path class="cls-30" d="M930.75,976.73s-.2-11.4-5.36-12.49-57-6.08-63.36-3.59v13.28S874.24,981.45,930.75,976.73Z"/>
      <path class="cls-10" d="M927.68,884.29c-1-4-11.27-15.63-15.21-3.24s6,29.07,11.48,27.64S930.13,894.56,927.68,884.29Z"/>
      <path class="cls-27" d="M1136.55,1111.38a.14.14,0,0,0-.09,0C1136.82,1111.53,1136.87,1111.54,1136.55,1111.38Z"/>
      <path class="cls-53" d="M775.71,1402.32s27.5,8.1,74.4,13.27,164.09-1.87,164.83-7.41-25.21-206.33-23.73-216.67,2.27-47.18,2.27-47.18c.57,10.09,10.86,51.33,23.27,73.81,4.49,8.12,19.54,33.57,26.79,27.78,35.11-28,89.47-133.65,92.92-134.54-2.9-1.26-25.77-11.79-29-12.86-2.82-.94-28.14,25.88-43.49,42.5-6.84,7.41-11.7,12.79-11.7,12.79-4.43-10-20.57-72.78-25.59-94.52-11.31-49-9.57-51.06-9.57-51.06-34.31-10.38-86.39-31.5-86.39-31.5L862,973.93S799,987.81,774.12,999c-2.36,1.06-2.37,56.27-8.84,70.74l20.6,43.45s11.89,86.06,14.36,124.34C801.38,1255.13,775.71,1402.32,775.71,1402.32Z"/>
      <path class="cls-53" d="M762.43,1141.44c1.79,5.79,9.94,10.69,15.23,12.83a19.71,19.71,0,0,0,11,1.1l2.69-.49h0l47.09-8.73S848.76,1027.46,774.12,999C772.14,999.68,746,1088.31,762.43,1141.44Z"/>
      <path class="cls-54" d="M777.66,1154.26h0a19.71,19.71,0,0,0,11,1.1l2.69-.49h0l-4.65-60.64Z"/>
      <path class="cls-54" d="M1052.3,1153.81l5.76,24.38s6.24-24.46,5.94-37.17C1057.16,1148.43,1052.3,1153.81,1052.3,1153.81Z"/>
      <path class="cls-49" d="M856.38,833.56s-58.77-7.36-1,90.82Z"/>
      <polygon class="cls-24" points="1156.23 983.57 1162.21 973.3 1115.15 957.06 1109.18 967.27 1156.23 983.57"/>
    </g>
  </g>
</svg>
