<svg xmlns="http://www.w3.org/2000/svg" xmlns:xlink="http://www.w3.org/1999/xlink" viewBox="0 0 500 543.07">
  <defs>
    <style>
      .cls-1, .cls-11 {
        fill: none;
      }

      .cls-18, .cls-2 {
        fill: #f9f9fc;
      }

      .cls-3 {
        clip-path: url(#clip-path);
      }

      .cls-4 {
        fill: #aaa5ba;
      }

      .cls-5 {
        fill: #001552;
      }

      .cls-6 {
        fill: #623694;
      }

      .cls-7 {
        fill: #c0c0de;
      }

      .cls-8 {
        fill: #fff;
      }

      .cls-9 {
        fill: #e2353f;
      }

      .cls-10 {
        fill: #ffcd4c;
      }

      .cls-11 {
        stroke: #623694;
        stroke-miterlimit: 10;
        stroke-width: 2px;
      }

      .cls-12 {
        clip-path: url(#clip-path-2);
      }

      .cls-13 {
        fill: #3d0b34;
      }

      .cls-14 {
        fill: #eaada9;
      }

      .cls-15 {
        fill: #591808;
      }

      .cls-16 {
        fill: #fe656d;
      }

      .cls-17 {
        fill: #360700;
      }

      .cls-18 {
        font-size: 40.53px;
        font-family: Montserrat-SemiBold, Montserrat SemiBold;
        font-weight: 600;
      }
    </style>
    <clipPath id="clip-path">
      <rect class="cls-1" width="500" height="500"/>
    </clipPath>
    <clipPath id="clip-path-2">
      <path class="cls-1" d="M491,316l-5.16-154.32-76,2.45A169,169,0,0,0,217.45,61.74V28.55l-57.29,1-63,10.84s-11.35,44.39-8.25,64.52c1.41,9.16,10.73,22,20.47,33.19a167.74,167.74,0,0,0-21.5,53.74c-4,.54-7.53,1.3-9.3,2.36C73.45,197.32,59,220,55.39,231.9s4.13,39.75,12.38,49c4.4,4.94,16.39,4.77,26.65,3.52a168.82,168.82,0,0,0,303.27,29.31Z"/>
    </clipPath>
  </defs>
  <g id="OBJECTS">
    <g class="cls-3">
      <g>
        <circle class="cls-2" cx="253.06" cy="226.74" r="168.77"/>
        <path class="cls-4" d="M92,230.58a164.93,164.93,0,0,1,329.84-1.92c0-.64,0-1.28,0-1.92A168.78,168.78,0,1,0,253.06,395.52c.65,0,1.28,0,1.92,0A164.92,164.92,0,0,1,92,230.58Z"/>
        <g>
          <path class="cls-7" d="M253.06,37.84c-104.32,0-188.9,84.57-188.9,188.9s84.58,188.91,188.9,188.91S442,331.07,442,226.74,357.39,37.84,253.06,37.84Zm0,357.68A168.78,168.78,0,1,1,421.84,226.74,168.78,168.78,0,0,1,253.06,395.52Z"/>
          <path class="cls-8" d="M86.12,428.09a1.55,1.55,0,0,1-.89-.29,1.51,1.51,0,0,1-.32-2.1L96,410.63a1.5,1.5,0,0,1,2.42,1.77L87.33,427.47A1.48,1.48,0,0,1,86.12,428.09Z"/>
          <path class="cls-8" d="M29.32,505.4a1.48,1.48,0,0,1-.89-.29,1.5,1.5,0,0,1-.32-2.09L75,439.22A1.5,1.5,0,0,1,77.4,441l-46.87,63.8A1.49,1.49,0,0,1,29.32,505.4Z"/>
        </g>
      </g>
    </g>
    <g>
      <path class="cls-9" d="M323.71,41.91a1.61,1.61,0,0,1-.53-.1A198.92,198.92,0,0,0,204,35.15a1.5,1.5,0,0,1-.74-2.91,202,202,0,0,1,121,6.76,1.5,1.5,0,0,1-.53,2.91Z"/>
      <path class="cls-9" d="M392.92,370.13a1.5,1.5,0,0,1-1.05-2.57,199.47,199.47,0,0,0,23.89-28.42,1.5,1.5,0,0,1,2.47,1.71A203.05,203.05,0,0,1,394,369.69,1.49,1.49,0,0,1,392.92,370.13Z"/>
      <path class="cls-9" d="M253.06,427.47c-6.11,0-12.29-.28-18.36-.83a1.5,1.5,0,1,1,.27-3c6,.54,12.07.82,18.09.82a196.23,196.23,0,0,0,116.88-38.22,1.5,1.5,0,0,1,1.77,2.41A199.12,199.12,0,0,1,253.06,427.47Z"/>
      <path class="cls-9" d="M60.31,316.93a1.49,1.49,0,0,1-1.36-.87,211.81,211.81,0,0,1-19.51-89.32,215.65,215.65,0,0,1,2.72-34.21,1.5,1.5,0,1,1,3,.48,213.13,213.13,0,0,0-2.68,33.73A208.92,208.92,0,0,0,61.67,314.8a1.5,1.5,0,0,1-.73,2A1.6,1.6,0,0,1,60.31,316.93Z"/>
      <path class="cls-9" d="M312.16,432a1.5,1.5,0,0,1-.41-2.94,209,209,0,0,0,38.61-15.49,1.5,1.5,0,1,1,1.38,2.66A212.31,212.31,0,0,1,312.58,432,1.52,1.52,0,0,1,312.16,432Z"/>
    </g>
    <g>
      <polygon class="cls-10" points="364.55 126.87 438.1 61.06 460.55 97.45 364.55 126.87"/>
      <polygon class="cls-9" points="291.04 122.17 306.1 68.16 329.1 82.81 291.04 122.17"/>
      <polygon class="cls-9" points="385.34 393.36 409.09 451.21 440.79 419.4 385.34 393.36"/>
      <polygon class="cls-10" points="115.77 319.4 36.5 342.29 36.5 342.29 52.03 372.16 115.77 319.4"/>
      <polygon class="cls-9" points="88.94 171 37.84 158.1 37.84 158.1 52.29 132.81 88.94 171"/>
    </g>
    <g>
      <circle class="cls-11" cx="215.13" cy="463.39" r="9.55"/>
      <circle class="cls-11" cx="453.32" cy="351.65" r="11.35" transform="translate(6.52 711.53) rotate(-76.65)"/>
      <circle class="cls-6" cx="32.68" cy="288.68" r="5.68"/>
      <circle class="cls-11" cx="52.55" cy="61.84" r="10.58" transform="translate(-28.34 55.27) rotate(-45)"/>
      <path class="cls-6" d="M277.84,455.39a4.65,4.65,0,1,1-4.65-4.65A4.65,4.65,0,0,1,277.84,455.39Z"/>
      <path class="cls-6" d="M380,31.65a4.13,4.13,0,1,1-4.13-4.13A4.12,4.12,0,0,1,380,31.65Z"/>
    </g>
    <g class="cls-12">
      <g>
        <g>
          <path class="cls-6" d="M307.65,412.16l-77.42,9.29-14.71-35.61-12.39,28.64-5.58-2.23-1.4-.56-62.7-25.08,6.2-29s139.74-24.77,143.22-19.35S307.65,412.16,307.65,412.16Z"/>
          <path class="cls-5" d="M289.75,356.55c-3.19-9.41-5.84-16.7-6.88-18.32-3.48-5.42-143.22,19.35-143.22,19.35S246.77,363.08,289.75,356.55Z"/>
          <path class="cls-5" d="M209.26,379.12l-11.71,33.13-1.4-.56,11.69-33.07a.75.75,0,0,1,1.42.5Z"/>
          <path class="cls-5" d="M194.74,399.62a.44.44,0,0,1-.16,0,.75.75,0,0,1-.57-.89l3.35-15.23a.76.76,0,0,1,.9-.57.76.76,0,0,1,.57.9L195.47,399A.74.74,0,0,1,194.74,399.62Z"/>
        </g>
        <g>
          <path class="cls-9" d="M217.45,139.65s21.29,8.51,31.36,15.09,26.71,28.65,26.71,28.65l-33.29,10.45Z"/>
          <g>
            <path class="cls-9" d="M146.23,156.29s-27.49,15.87-32.13,21.29,16.25,86.71,19.74,99.87,5.81,80.13,5.81,80.13,110.32-3.87,150.19-17c0,0-12.39-31.74-15.87-48.78s-26.32-99.09-29.42-107.61-19.74-42.19-27.1-44.51-41,3.48-47.22,6.58S146.23,156.29,146.23,156.29Z"/>
            <path class="cls-13" d="M224.42,235.26s-67,14.9-95.66,22.3c2.32,9.32,4.22,16.66,5.08,19.89s1.58,9.2,2.25,16.7c28.71-9.51,103.81-44.57,103.81-44.57Z"/>
            <path class="cls-14" d="M146.23,156.29s-3.48,2-8.16,4.83c1.6,4.89,9.22,22.71,34.22,18.91,27-4.1,26.08-32.06,23.73-39.51-11,1.54-22.43,4-25.79,5.71C164,149.32,146.23,156.29,146.23,156.29Z"/>
            <path class="cls-8" d="M170.41,189.42a53.33,53.33,0,0,1-10.61-1,.75.75,0,0,1,.33-1.47c.23.05,23.09,5,33.51-8.06a53.23,53.23,0,0,0,5.84-8.92.75.75,0,1,1,1.33.68,54.6,54.6,0,0,1-6,9.18C188.49,187.69,178.21,189.42,170.41,189.42Z"/>
            <path class="cls-8" d="M202.86,164.39a.57.57,0,0,1-.22,0,.74.74,0,0,1-.5-.93,23.12,23.12,0,0,0,1.21-7.83.75.75,0,1,1,1.49-.14,23.65,23.65,0,0,1-1.26,8.4A.76.76,0,0,1,202.86,164.39Z"/>
            <path class="cls-13" d="M245.71,186.46A.76.76,0,0,1,245,186c-4.18-12.17-18.37-35.62-18.51-35.85a.75.75,0,1,1,1.28-.78c.14.24,14.41,23.83,18.65,36.15a.75.75,0,0,1-.47.95A.67.67,0,0,1,245.71,186.46Z"/>
          </g>
        </g>
        <g>
          <path class="cls-15" d="M111.53,73.85s-2.9.13-4.26,4.07-2.1,13.46-.71,18.24,10,20.08,10,20.08l-.74-24.38Z"/>
          <path class="cls-16" d="M115.43,101s-6-3.86-8,2,2.47,17.89,11.29,20C118.69,123,120.56,111.22,115.43,101Z"/>
          <path class="cls-16" d="M179.31,97.23s4.66-5.61,7.91-1.54,2.06,18.54-8.62,22.3Z"/>
          <path class="cls-14" d="M169.27,132.1s5.86,10.89,14.52,16.75c0,0-16.19,19.27-34.63,19.83,0,0-5.86-14-7-21C142.18,147.73,165.36,138,169.27,132.1Z"/>
          <path class="cls-16" d="M167.87,149.13a37.22,37.22,0,0,0,5.47-10.78,58.41,58.41,0,0,1-4.07-6.25c-3.91,5.86-27.09,15.63-27.09,15.63a70.31,70.31,0,0,0,3,10.58C152.48,156.71,164.45,153.51,167.87,149.13Z"/>
          <path class="cls-14" d="M179.79,79.92c1,12.45,1.5,29.2.71,34.15-1.24,7.73-9.11,25.73-17.63,32.65-6.8,5.53-10.61,6.38-11.78,6.47s-19.78-3.08-26.4-14.62c-3.66-6.42-5.6-10.39-6.38-14.49,0,0-3.55-26.94-4.3-30.35s-5.31-20.91,7-28.83,36.63-6.09,42.53-4.7,12,1.85,14.12,5.63c.05.12.11.23.17.4C178.56,68.09,179.26,73.4,179.79,79.92Z"/>
          <path class="cls-17" d="M175.93,78.11s.61,4.88,1.27,8a117.88,117.88,0,0,1,1.25,13.12c.12,2.57.32,12.51,1.5,13s2.66-15.23,2.67-17.82,2.11-18.69,2.11-18.69Z"/>
          <path class="cls-9" d="M156.27,129.07a12.77,12.77,0,0,1-.62,1.6c-1.05,2.17-3.5,5.79-8.39,5.73a8.34,8.34,0,0,1-7.77-4.73,7.69,7.69,0,0,1-.6-1.56S148,131.56,156.27,129.07Z"/>
          <path class="cls-15" d="M160.43,104.7c.17,2.25-.52,4.15-1.55,4.23s-2-1.69-2.19-3.94.52-4.15,1.55-4.23S160.25,102.44,160.43,104.7Z"/>
          <path class="cls-8" d="M138.89,130.11a7.69,7.69,0,0,0,.6,1.56,8.46,8.46,0,0,0,.48.85l1.35-.61c3.55.41,9.73.71,14.33-1.24a12.77,12.77,0,0,0,.62-1.6C148,131.56,138.89,130.11,138.89,130.11Z"/>
          <path class="cls-15" d="M137.79,106.46c.18,2.25-.52,4.15-1.55,4.23s-2-1.69-2.19-3.94.52-4.15,1.55-4.23S137.62,104.2,137.79,106.46Z"/>
          <path class="cls-16" d="M144.36,120.38a12.41,12.41,0,0,0,3.64.48c1.8-.09,4.56-.53,4.56-.53s-3.17,1.91-4.74,1.82S144.36,120.38,144.36,120.38Z"/>
          <path class="cls-15" d="M164.75,93.71a3.87,3.87,0,0,0-.34-.21l0,0a6,6,0,0,0-2.52-1,9.8,9.8,0,0,0-2.86-.1l-.15,0a7.87,7.87,0,0,0-2.49.58l-.13,0a4.74,4.74,0,0,0-2.31,1.37.15.15,0,0,0,.14.23,4.79,4.79,0,0,0,1.09-.41c.39-.16.77-.33,1.15-.47a11.12,11.12,0,0,1,2.66-.65,6.62,6.62,0,0,1,3,.29c.84.24,1.59.7,2.41,1A.38.38,0,0,0,164.75,93.71Z"/>
          <path class="cls-15" d="M129.63,95.33a4,4,0,0,1,.33-.24s0,0,0,0a6.09,6.09,0,0,1,2.42-1.22,9.69,9.69,0,0,1,2.83-.36h.16a8.27,8.27,0,0,1,2.53.35l.13,0A4.67,4.67,0,0,1,140.48,95a.15.15,0,0,1-.12.24,4.44,4.44,0,0,1-1.12-.31c-.4-.12-.79-.25-1.19-.36a11.31,11.31,0,0,0-2.71-.4,10.76,10.76,0,0,0-1.13,0,11.18,11.18,0,0,0-1.88.53c-.82.32-1.51.84-2.31,1.18C129.69,96.08,129.36,95.57,129.63,95.33Z"/>
          <path class="cls-15" d="M116.43,115.6s-.23,6.21,1.33,6.4-.11-24.8-.11-24.8,2.19,2.74,2.89,1.16S119,86.81,119,86.81s7.27-4.73,14.7-6.11,28.77-.68,34.48-.17,17.17-3,24.46-7.45c6.16-3.79,11.06-18.88,12.79-25.65a1.35,1.35,0,0,0-1.88-1.57c-2.71,1.27-6.86,3.19-8.5,3.85-7.44,3-24.89,3.74-24.15,2.93s1.19-2.12.41-2.35-14.12,2-25,1.93c0,0-16.64-.72-23.82,3.1s-13.24,15.53-11.32,23.39a153.11,153.11,0,0,1,3.18,22.71C114.31,103.19,116.43,115.6,116.43,115.6Z"/>
          <path class="cls-8" d="M154.13,74.91c-6.13,0-10.93-.24-11.36-.26a.74.74,0,0,1-.71-.78.76.76,0,0,1,.78-.72c.23,0,23,1.13,33.66-1.52l1.41-.37a.75.75,0,0,1,.4,1.44l-1.45.38C170.93,74.56,161.55,74.91,154.13,74.91Z"/>
          <path class="cls-8" d="M184.67,69.79a.74.74,0,0,1-.68-.45.75.75,0,0,1,.38-1A33.07,33.07,0,0,0,190.48,65a.74.74,0,0,1,1.05.13.76.76,0,0,1-.13,1A33.07,33.07,0,0,1,185,69.73.85.85,0,0,1,184.67,69.79Z"/>
        </g>
        <g>
          <path class="cls-14" d="M275.88,184.45s-8.6-1.7-7.91-9.22c0,0,2.56-1.21,3.49-.72s10,2.42,11.63,3.15,5.59,6.55,5.59,6.55S278,185.67,275.88,184.45Z"/>
          <rect class="cls-6" x="221.06" y="180.81" width="256.52" height="122.84"/>
          <path class="cls-14" d="M319.84,175.06s3.68-1.93,6-1,2.9,4.84,2.51,6.77-4.45,13.55-7.35,12.39-3.29-9.87-3.29-9.87Z"/>
          <path class="cls-14" d="M308.23,174.68s5-3.68,7.35-3.68,4.65,4.45,5,5.61-1.93,16.65-2.32,18.2-2.71,4.84-4.45,4.84-5.42-6.59-5.42-8.71S308.23,174.68,308.23,174.68Z"/>
          <path class="cls-14" d="M295.84,176.09s4.26-5.28,7-5.48,4.25,2.91,5.42,4.07-.2,11.22-.39,14.13-2.9,13.54-5.42,14.32-5.61-2.13-5.81-4.26-1.55-15.48-1.55-15.48Z"/>
          <path class="cls-14" d="M285.19,188.59s-1.93-10.31-1.35-12.5,4.45-3.74,6.77-3.74,5.23,3.74,5.23,3.74-.19,14-1,17.33-4.26,5.05-5.42,4.61S286,195.18,285.19,188.59Z"/>
          <text class="cls-18" style="font-family: 'Poppins', sans-serif;" transform="matrix(1, 0.01, -0.01, 1, 260.43, 257.08)">JOIN US!</text>
        </g>
        <g>
          <path class="cls-13" d="M76.16,228.29S77.52,239,88.35,240s11.23-15.36,11.23-15.36S85.06,220,76.16,228.29Z"/>
          <path class="cls-14" d="M124.81,221.32c-1.55-.77-19.87-25-30.2-8a121.73,121.73,0,0,0-7.81,16.13h0s-9.48,21-11,26.71a32.3,32.3,0,0,0-1.29,9.55l52.91-18.58.26-8S126.35,222.1,124.81,221.32Z"/>
          <path class="cls-9" d="M114.1,177.58s-28.26,27.48-37.94,50.71c0,0,27.1-7.41,51.49,11.75,0,0,6.19-29.17,4.64-37.69S114.1,177.58,114.1,177.58Z"/>
          <path class="cls-13" d="M129.19,235a.75.75,0,0,1-.72-1c.06-.2,5.64-19.63,5.14-30.73a.75.75,0,0,1,.71-.78.74.74,0,0,1,.78.71c.52,11.35-4.95,30.41-5.19,31.21A.75.75,0,0,1,129.19,235Z"/>
          <path class="cls-13" d="M131.77,225.43a.73.73,0,0,1-.46-.17.74.74,0,0,1-.12-1l6.19-7.74a.75.75,0,1,1,1.17.93l-6.19,7.75A.77.77,0,0,1,131.77,225.43Z"/>
          <path class="cls-14" d="M74.48,265.71s9.29,8.52,14.46,10.06S170.48,265.71,211,250l-3.1-18.32s-48,6.19-56.51,6.7-39.49.26-53.42,7.49S74.48,261.06,74.48,265.71Z"/>
          <path class="cls-16" d="M80.3,258.1a.78.78,0,0,1-.55-.23.75.75,0,0,1,0-1.06c.16-.16,16.94-16,42.19-17.52a.75.75,0,0,1,.09,1.5c-24.68,1.48-41.08,16.94-41.25,17.1A.73.73,0,0,1,80.3,258.1Z"/>
          <path class="cls-14" d="M207.13,231.8s5.23-7.06,9.42-10.2,11-12.55,12-15.69,1-4.71,2.36-5,3.92,1.3,4.44,3.66-1.3,7.32-1.83,9.42a5.69,5.69,0,0,0,.27,3.66s23.54-4.19,29.29-5.5,11.51-2.35,12.82-.78,1.57,3.14,0,4.19-17.52,6-17.52,6,2.61,4.71,1.83,6.28a27.79,27.79,0,0,1-3.14,4.19s2.61,2.61,1.31,5A11.14,11.14,0,0,1,255,240.7s0,4.71-1.83,6.28-3.4,2.09-9.15,3.14-29,.52-33.75.26S207.13,231.8,207.13,231.8Z"/>
        </g>
      </g>
    </g>
  </g>
</svg>
