<svg id="Illustration" xmlns="http://www.w3.org/2000/svg" xmlns:xlink="http://www.w3.org/1999/xlink" viewBox="0 0 2212 1364.82"> <defs> <style>.cls-1{fill: #f3f3f3;}.cls-2{fill: #36bca1;}.cls-3{fill: url(#linear-gradient-2);}.cls-4{fill: url(#linear-gradient-3);}.cls-5{fill: url(#linear-gradient-4);}.cls-6{fill: #92d7c9;}.cls-7{fill: url(#linear-gradient-5);}.cls-8{fill: url(#linear-gradient-6);}.cls-9{fill: url(#linear-gradient-7);}.cls-10, .cls-11{fill: #fff;}.cls-10{opacity: 0.75;}.cls-11{opacity: 0.54;}.cls-12{fill: url(#linear-gradient-8);}.cls-13{fill: url(#linear-gradient-9);}.cls-14{fill: url(#linear-gradient-10);}.cls-15{fill: #ece8f0;}.cls-16{fill: url(#linear-gradient-11);}.cls-17{fill: url(#linear-gradient-12);}.cls-18{fill: url(#linear-gradient-13);}.cls-19{fill: url(#linear-gradient-14);}.cls-20{fill: url(#linear-gradient-15);}.cls-21{fill: url(#linear-gradient-16);}.cls-22{fill: url(#linear-gradient-17);}.cls-23{fill: url(#linear-gradient-18);}.cls-24{fill: url(#linear-gradient-19);}.cls-25{fill: url(#linear-gradient-20);}.cls-26{fill: url(#linear-gradient-21);}.cls-27{fill: url(#linear-gradient-22);}.cls-28{opacity: 0.64;}.cls-29{fill: url(#linear-gradient-23);}.cls-30{fill: url(#linear-gradient-24);}.cls-31{fill: url(#linear-gradient-25);}.cls-32{fill: url(#linear-gradient-26);}.cls-33{fill: url(#linear-gradient-27);}.cls-34{fill: url(#linear-gradient-28);}.cls-35{fill: url(#linear-gradient-29);}.cls-36{fill: url(#linear-gradient-30);}.cls-37{fill: url(#linear-gradient-31);}.cls-38{fill: url(#linear-gradient-32);}.cls-39{fill: url(#linear-gradient-33);}.cls-40{fill: url(#linear-gradient-34);}.cls-41{fill: url(#linear-gradient-35);}.cls-42{fill: url(#linear-gradient-36);}.cls-43{fill: url(#linear-gradient-37);}.cls-44{fill: url(#linear-gradient-38);}.cls-45{fill: url(#linear-gradient-39);}.cls-46{fill: url(#linear-gradient-40);}.cls-47{fill: url(#linear-gradient-41);}.cls-48{fill: url(#linear-gradient-42);}.cls-49{fill: url(#linear-gradient-43);}.cls-50{fill: url(#linear-gradient-44);}.cls-51{fill: url(#linear-gradient-45);}.cls-52{fill: url(#linear-gradient-46);}.cls-53{fill: url(#linear-gradient-47);}.cls-54{fill: url(#linear-gradient-48);}.cls-55{fill: url(#linear-gradient-49);}.cls-56{fill: url(#linear-gradient-50);}.cls-57{fill: url(#linear-gradient-51);}.cls-58{fill: url(#linear-gradient-52);}.cls-59{fill: url(#linear-gradient-53);}.cls-60{fill: url(#linear-gradient-54);}.cls-61{fill: url(#linear-gradient-55);}.cls-62{fill: url(#linear-gradient-56);}.cls-63{fill: url(#linear-gradient-57);}.cls-64{fill: url(#linear-gradient-58);}.cls-65{fill: url(#linear-gradient-59);}.cls-66{fill: url(#linear-gradient-60);}.cls-67{fill: url(#linear-gradient-61);}.cls-68{fill: url(#linear-gradient-62);}.cls-69{fill: url(#linear-gradient-63);}.cls-70{fill: url(#linear-gradient-64);}.cls-71{fill: url(#linear-gradient-65);}.cls-72{fill: url(#linear-gradient-66);}.cls-73{fill: url(#linear-gradient-67);}.cls-74{fill: url(#linear-gradient-68);}</style> <linearGradient id="linear-gradient" x1="-5947.34" y1="329.55" x2="-7045.5" y2="1276.9" gradientTransform="matrix(-1, 0, 0, 1, -5444.43, 0)" gradientUnits="userSpaceOnUse"> <stop offset="0" stop-color="#dae3fe"/> <stop offset="1" stop-color="#e9effd"/> </linearGradient> <linearGradient id="linear-gradient-2" x1="1568.14" y1="-84.1" x2="1928.15" y2="-1352.1" gradientUnits="userSpaceOnUse"> <stop offset="0" stop-color="#623694"/> <stop offset="1" stop-color="#623694"/> </linearGradient> <linearGradient id="linear-gradient-3" x1="92.67" y1="2792.51" x2="1080.66" y2="1348.51" xlink:href="#linear-gradient-2"/> <linearGradient id="linear-gradient-4" x1="1282.38" y1="419.4" x2="1250.38" y2="747.4" gradientUnits="userSpaceOnUse"> <stop offset="0" stop-color="#3c205c"/> <stop offset="1" stop-color="##3c205c"/> </linearGradient> <linearGradient id="linear-gradient-5" x1="1051.16" y1="1291.19" x2="1199.16" y2="903.19" gradientUnits="userSpaceOnUse"> <stop offset="0" stop-color="#ff928e"/> <stop offset="1" stop-color="#ff928e"/> </linearGradient> <linearGradient id="linear-gradient-6" x1="1239.74" y1="1061.23" x2="1256.33" y2="1588.4" gradientUnits="userSpaceOnUse"> <stop offset="0" stop-color="#ff928e"/> <stop offset="1" stop-color="#ff928e"/> </linearGradient> <linearGradient id="linear-gradient-7" x1="1148.34" y1="1064.1" x2="1164.94" y2="1591.28" xlink:href="#linear-gradient-6"/> <linearGradient id="linear-gradient-8" x1="736.51" y1="1011.61" x2="454.48" y2="1344.64" xlink:href="#linear-gradient-4"/> <linearGradient id="linear-gradient-9" x1="750.42" y1="1317.95" x2="698.42" y2="1393.95" xlink:href="#linear-gradient-2"/> <linearGradient id="linear-gradient-10" x1="843.54" y1="1315.26" x2="838.87" y2="1372.59" xlink:href="#linear-gradient-2"/> <linearGradient id="linear-gradient-11" x1="655.29" y1="1156.69" x2="585.73" y2="1239.41" gradientUnits="userSpaceOnUse"> <stop offset="0" stop-color="#ff928e"/> <stop offset="1" stop-color="#feb3b1"/> </linearGradient> <linearGradient id="linear-gradient-12" x1="459.68" y1="1003.42" x2="571.12" y2="1394.39" xlink:href="#linear-gradient-5"/> <linearGradient id="linear-gradient-13" x1="682.18" y1="1127.51" x2="596.18" y2="1205.51" xlink:href="#linear-gradient-11"/> <linearGradient id="linear-gradient-14" x1="511.14" y1="1012.25" x2="417.14" y2="1209.25" xlink:href="#linear-gradient-11"/> <linearGradient id="linear-gradient-15" x1="497.27" y1="913.23" x2="509.27" y2="1018.23" xlink:href="#linear-gradient-11"/> <linearGradient id="linear-gradient-16" x1="496.08" y1="897.44" x2="517.07" y2="1017.13" xlink:href="#linear-gradient-4"/> <linearGradient id="linear-gradient-17" x1="471.33" y1="916.19" x2="483.33" y2="1021.19" xlink:href="#linear-gradient-11"/> <linearGradient id="linear-gradient-18" x1="768.33" y1="1276.38" x2="717" y2="1159.04" xlink:href="#linear-gradient-4"/> <linearGradient id="linear-gradient-19" x1="672.51" y1="1168.75" x2="671.18" y2="1171.42" xlink:href="#linear-gradient-4"/> <linearGradient id="linear-gradient-20" x1="545.28" y1="744.05" x2="549.28" y2="954.05" xlink:href="#linear-gradient-6"/> <linearGradient id="linear-gradient-21" x1="486.16" y1="745.18" x2="490.16" y2="955.18" xlink:href="#linear-gradient-6"/> <linearGradient id="linear-gradient-22" x1="443.5" y1="745.99" x2="447.5" y2="955.99" xlink:href="#linear-gradient-6"/> <linearGradient id="linear-gradient-23" x1="1773.84" y1="1409.81" x2="1804.5" y2="1525.15" xlink:href="#linear-gradient-4"/> <linearGradient id="linear-gradient-24" x1="141.28" y1="1428.42" x2="168.41" y2="1428.42" gradientTransform="matrix(-1, 0, 0, 1, 1952.51, 0)" xlink:href="#linear-gradient-11"/> <linearGradient id="linear-gradient-25" x1="1882.96" y1="1365.66" x2="1734.29" y2="1260.33" xlink:href="#linear-gradient-4"/> <linearGradient id="linear-gradient-26" x1="1814.84" y1="1366.54" x2="1796.84" y2="1442.54" xlink:href="#linear-gradient-4"/> <linearGradient id="linear-gradient-27" x1="1783.61" y1="1542.49" x2="1789.61" y2="1400.49" xlink:href="#linear-gradient-2"/> <linearGradient id="linear-gradient-28" x1="121.66" y1="1453.46" x2="147.12" y2="1453.46" gradientTransform="matrix(-1, 0, 0, 1, 1952.51, 0)" xlink:href="#linear-gradient-11"/> <linearGradient id="linear-gradient-29" x1="61.43" y1="1462.31" x2="67.78" y2="1246.22" gradientTransform="matrix(-1, 0, 0, 1, 1952.51, 0)" xlink:href="#linear-gradient-4"/> <linearGradient id="linear-gradient-30" x1="1844.14" y1="1004.92" x2="1815.14" y2="1078.92" xlink:href="#linear-gradient-6"/> <linearGradient id="linear-gradient-31" x1="199.47" y1="1159.79" x2="288.3" y2="1159.79" gradientTransform="matrix(-1, 0, 0, 1, 1952.51, 0)" xlink:href="#linear-gradient-11"/> <linearGradient id="linear-gradient-32" x1="158.5" y1="1053.41" x2="-41.25" y2="1198.68" gradientTransform="matrix(-1, 0, 0, 1, 1952.51, 0)" xlink:href="#linear-gradient-5"/> <linearGradient id="linear-gradient-33" x1="114.71" y1="1028.69" x2="173.65" y2="1028.69" gradientTransform="matrix(-1, 0, 0, 1, 1952.51, 0)" xlink:href="#linear-gradient-11"/> <linearGradient id="linear-gradient-34" x1="129.85" y1="1014.02" x2="-69.89" y2="1159.29" gradientTransform="matrix(-1, 0, 0, 1, 1952.51, 0)" xlink:href="#linear-gradient-5"/> <linearGradient id="linear-gradient-35" x1="1992.56" y1="852.93" x2="1954.56" y2="983.93" xlink:href="#linear-gradient-6"/> <linearGradient id="linear-gradient-36" x1="1931.02" y1="953.11" x2="1919.02" y2="1026.11" xlink:href="#linear-gradient-11"/> <linearGradient id="linear-gradient-37" x1="470.85" y1="-571.37" x2="397.17" y2="-473.9" gradientTransform="matrix(-0.97, -0.25, -0.25, 0.97, 2085.95, 1633.11)" xlink:href="#linear-gradient-11"/> <linearGradient id="linear-gradient-38" x1="414.58" y1="-547.86" x2="502.59" y2="-547.86" gradientTransform="matrix(-0.97, -0.25, -0.25, 0.97, 2085.95, 1633.11)" xlink:href="#linear-gradient-4"/> <linearGradient id="linear-gradient-39" x1="362.94" y1="-494.18" x2="422.04" y2="-554.81" gradientTransform="matrix(-0.97, -0.25, -0.25, 0.97, 2085.95, 1633.11)" xlink:href="#linear-gradient-11"/> <linearGradient id="linear-gradient-40" x1="12250.05" y1="1850.36" x2="12134.51" y2="1882.03" gradientTransform="translate(-10478.45 -86.8) rotate(-2.83)" xlink:href="#linear-gradient-4"/> <linearGradient id="linear-gradient-41" x1="1570.95" y1="1221.25" x2="1688.28" y2="1078.58" xlink:href="#linear-gradient-4"/> <linearGradient id="linear-gradient-42" x1="1196.56" y1="428.9" x2="1588.66" y2="428.9" xlink:href="#linear-gradient-4"/> <linearGradient id="linear-gradient-43" x1="1384.21" y1="448.17" x2="1258.21" y2="692.17" xlink:href="#linear-gradient-5"/> <linearGradient id="linear-gradient-44" x1="1404.64" y1="398.5" x2="1488.78" y2="242.24" xlink:href="#linear-gradient-11"/> <linearGradient id="linear-gradient-45" x1="1403.76" y1="398.03" x2="1487.9" y2="241.77" xlink:href="#linear-gradient-11"/> <linearGradient id="linear-gradient-46" x1="1672.05" y1="278.93" x2="1488.8" y2="426.92" xlink:href="#linear-gradient-11"/> <linearGradient id="linear-gradient-47" x1="1718.8" y1="336.82" x2="1535.55" y2="484.81" xlink:href="#linear-gradient-11"/> <linearGradient id="linear-gradient-48" x1="1254.62" y1="428" x2="1409.34" y2="428" xlink:href="#linear-gradient-11"/> <linearGradient id="linear-gradient-49" x1="1478.37" y1="391.12" x2="1416.37" y2="467.12" xlink:href="#linear-gradient-11"/> <linearGradient id="linear-gradient-50" x1="-377.79" y1="-347.48" x2="-378.79" y2="-467.48" gradientTransform="matrix(-0.72, -0.69, -0.69, 0.72, -1558.07, 2860.48)" xlink:href="#linear-gradient-11"/> <linearGradient id="linear-gradient-51" x1="1467.16" y1="210.11" x2="1377.41" y2="59.45" xlink:href="#linear-gradient-6"/> <linearGradient id="linear-gradient-52" x1="-346.22" y1="-347.76" x2="-347.22" y2="-467.76" gradientTransform="matrix(-0.72, -0.69, -0.69, 0.72, -1558.07, 2860.48)" xlink:href="#linear-gradient-11"/> <linearGradient id="linear-gradient-53" x1="1385.86" y1="258.54" x2="1296.11" y2="107.88" xlink:href="#linear-gradient-6"/> <linearGradient id="linear-gradient-54" x1="2150.21" y1="344.2" x2="1736.72" y2="776.92" xlink:href="#linear-gradient-4"/> <linearGradient id="linear-gradient-55" x1="1842.11" y1="609.88" x2="2039.24" y2="905.57" xlink:href="#linear-gradient-5"/> <linearGradient id="linear-gradient-56" x1="1854.96" y1="444.93" x2="1925.96" y2="684.93" xlink:href="#linear-gradient-11"/> <linearGradient id="linear-gradient-57" x1="8684" y1="1928.16" x2="8729" y2="1803.16" gradientTransform="matrix(-1, 0, 0, 1, 11075.65, 0)" xlink:href="#linear-gradient-11"/> <linearGradient id="linear-gradient-58" x1="9170.19" y1="390.8" x2="9256.44" y2="501.85" gradientTransform="matrix(-1, 0, 0, 1, 11075.65, 0)" xlink:href="#linear-gradient-6"/> <linearGradient id="linear-gradient-59" x1="8656.05" y1="1918.1" x2="8701.05" y2="1793.1" gradientTransform="matrix(-1, 0, 0, 1, 11075.65, 0)" xlink:href="#linear-gradient-11"/> <linearGradient id="linear-gradient-60" x1="1768.29" y1="659.09" x2="1965.42" y2="954.79" xlink:href="#linear-gradient-5"/> <linearGradient id="linear-gradient-61" x1="1755" y1="378.17" x2="1776" y2="504.17" xlink:href="#linear-gradient-6"/> <linearGradient id="linear-gradient-62" x1="1877.17" y1="608.74" x2="1853.17" y2="662.74" xlink:href="#linear-gradient-11"/> <linearGradient id="linear-gradient-63" x1="1959.4" y1="645.29" x2="1935.4" y2="699.29" xlink:href="#linear-gradient-11"/> <linearGradient id="linear-gradient-64" x1="2046.75" y1="705.67" x2="1873.75" y2="830.67" xlink:href="#linear-gradient-2"/> <linearGradient id="linear-gradient-65" x1="1830.52" y1="596.91" x2="1799" y2="637.51" gradientUnits="userSpaceOnUse"> <stop offset="0" stop-color="#53d8ff"/> <stop offset="1" stop-color="#3840f7"/> </linearGradient> <linearGradient id="linear-gradient-66" x1="2181.48" y1="762.73" x2="2027.48" y2="645.73" xlink:href="#linear-gradient-2"/> <linearGradient id="linear-gradient-67" x1="2044.16" y1="695.33" x2="2019.16" y2="812.33" xlink:href="#linear-gradient-2"/> <linearGradient id="linear-gradient-68" x1="1962.79" y1="787.63" x2="2047.79" y2="784.63" xlink:href="#linear-gradient-2"/> </defs> <title>about-1</title> <g><!-- <path class="cls-1" d="M1854.56,777.63c38.14,36.86,92.91,50.11,144.58,38.17,49-11.32,107.16-8,166.55,32.88,114.93,79.18,120.09,220.13,68.52,307.33-26.77,45.25-35.35,99.06-21.75,149.85,11.88,44.38,2,94.13-83.78,117-173.17,46.11-1123.86.59-1245.31-20S308.82,1268.68,596.25,1117c0,0-498.25-537.83-182.94-827.88,285.43-262.55,583.06-114.94,719.34-19.65A292.1,292.1,0,0,0,1308,322.13c159.46-4.34,454.44,29.57,442.53,342a92.12,92.12,0,0,0,65,91.66C1829.75,760.2,1843.62,767.06,1854.56,777.63Z" transform="translate(-181 -141.1)"/> <path class="cls-2" d="M2235.74,1069.05c27.27-6.49,78.27,65.74,132.35,41l17.73-57.3s-74.24,10.49-102.52-7-11.3-30.72,8.84-28.55,71.19,30.71,92.48,17.63c0,0,16.8-10.48-.81-29.22s-4.65-61.91,9.19-75.91c0,0-11.51,1.05-38.65-8.83s-53.76-21.76-64.57,2-12.46,59.12-28.52,59.47-26.51-64.69,20.31-87.1c0,0-42-19-55.48-14s-26.62,30.16-15.75,68.09,4.48,58.55-7.56,58.81-27.08-114.42,12.39-130.28c0,0-85.85-1.81-95.43,3.38s-6.53,55.46,7,84.83,3.95,60.26-6.25,67.43-5.46-33.9-13.08-52.21-5-99.86-5-99.86-5.75,10-34.81,13.7-74.76,26.78-69.56,44.34,46.18,95.67,49.63,123.18.38,50.33-10.55,38.39-15.91-47.4-27-71.76-47.31-83.42-37.2-98.9c0,0-72.93,29.49-74.51,103.34,0,0,21.69,33,55.34,48.83s47.09,24,45.77,36.85-24.47,1.73-45.18-8.66S1885,1077,1881,1059.92c0,0,4.12,111.29,79.4,121.49,70.59,9.57,78.75,1.76,79.49.76-2.49,3.94-76.71,123.74,77.89,156.51,0,0-33.18-17.34-32.08-42.39s-21.65-63.22-3.89-64.76,13.54,89.43,48.89,104.08,89.22-8,100.92-48.51c0,0-35,3-58.82-27.42s-47.72-77.76-18.44-69.3,76.42,98.29,102.08,100.51,68.46-77.59,68.46-77.59-13.48-.18-55.69-17.23-86.69-45.13-75.53-51.13,38.91,14.37,64.39,31.65,64.82,24.43,74.67,11.37,29.87-60.17,29.87-60.17-58.36-11.07-85.26-13.51S2208.47,1075.55,2235.74,1069.05Zm-139.32,106.77c-28.56-23.5,2.64-25.2,24-21.8C2136.57,1156.6,2125,1199.31,2096.42,1175.82Zm54.77-44c-19.26-15.11-17.48-27.66-3.89-27.17C2178.53,1105.76,2170.44,1146.91,2151.19,1131.8Zm52.36-53.22c-11-7.52-13.19-13.24.64-19.29S2214.51,1086.1,2203.55,1078.58Z" transform="translate(-181 -141.1)"/> <path class="cls-2" d="M409.61,721.45c-19.22-28.72,42.36-118.67-9.5-170.52l-73.83,4.12s44,81.27,35.91,121.46-30.65,26.25-36.78,2,4.93-95.45-19.33-114.44c0,0-19.32-14.91-33.42,13.48s-69.54,31.95-91.66,22c0,0,6.16,12.85,6.4,48.45s-2.08,71.47,30,73.77,73.67-11,81,7.42S235,787.61,189,743.14c0,0-3.94,56.66,7.61,70.13s46.28,17.8,85.44-11,65.73-30.32,71.2-16.51-120.59,80.41-155.86,41.61c0,0,34.75,100,44.87,108.82s66.89-16.27,95-44.49,67.94-30.44,80.6-21.74S381,890.8,363.15,907.47s-113.24,48.64-113.24,48.64,14,2.36,30.77,34.35,63,74.88,81.1,61.33,90.73-94.42,121-110.22,58-22,48.89-4.29-47.94,38.74-71.33,62-76.09,90.47-98.32,85.43c0,0,65.38,71.62,151.4,41.75,0,0,28.84-39.24,32.67-84.92s7.47-64.7,22.93-68.7,12.51,27.53,9.39,55.92-9.05,94.58-27.1,106.56c0,0,126.83-52.53,106.31-143.89-19.25-85.68-31.77-91.76-33.25-92.18C630,900.42,800.32,934.75,771.82,742c0,0-5.8,45.79-35.22,55.27s-63.75,52.15-73.15,32.29,97.53-54,99.28-101.16-47.5-99.69-99.38-95.81c0,0,18.42,39.17-6.43,79.75s-69.38,88.53-72.17,51,80.77-130.5,72.32-161.1-119-45.8-119-45.8,5.57,15.66,4,71.75-14.93,119.55-26.66,109.23-.09-51.13,8.93-88,.41-85.38-18.91-91.16S423,549.66,423,549.66,435.28,621.85,444,654,428.82,750.16,409.61,721.45ZM592.78,836.6c-14.89,43.1-30.25,7.76-35.47-18.33C553.34,798.46,607.67,793.51,592.78,836.6Zm-74.37-44.39c-9.2,28.74-24.46,32.07-29.73,16.16C476.58,771.8,527.6,763.48,518.41,792.21Zm-84-37.65c-4,15.9-9.65,20.92-22.57,7.52S438.42,738.66,434.44,754.56Z" transform="translate(-181 -141.1)"/> --> <g> <path class="cls-3" d="M1782.84,801.38a12.18,12.18,0,0,1-11.89-12c-1.22-66.89-22.09-399.06-314.62-468.48-325.67-77.28-474.71,253.92-474.71,253.92s-403-154.56-480.24,259.44c-252.66,60.64-318.31,390.61-154,551.84a141.26,141.26,0,0,0,97.69,40.43l1582.32,14.25a104.18,104.18,0,0,0,100.82-74.51C2177.67,1199.5,2242.45,812.14,1782.84,801.38Z" transform="translate(-181 -141.1)"/> <path class="cls-4" d="M1746.68,808.48a12.18,12.18,0,0,1-11.89-11.92c-1.3-64.17-22-372.18-297.47-436.74-308-72.17-448.88,237.12-448.88,237.12s-381-144.34-454.1,242.27c-236.62,56.09-299.78,358.88-150,511a141.29,141.29,0,0,0,99.43,42.15l1489.55,13.25a104.16,104.16,0,0,0,100.88-74.78C2120.66,1172.36,2175.78,818.75,1746.68,808.48Z" transform="translate(-181 -141.1)"/> </g> <g> <path class="cls-5" d="M1282.16,1278.16c-.3-3.73-4.12-7-10.58-9.56,7-3.87,10.91-8,10.58-12.08-1-12.32-40-19.22-87.09-15.42s-84.48,16.86-83.49,29.17c.3,3.73,4.12,7,10.58,9.56-7,3.87-10.9,8-10.58,12.08.3,3.74,4.12,7,10.58,9.56-7,3.87-10.9,8-10.58,12.09.3,3.73,4.12,7,10.58,9.56-7,3.87-10.9,8-10.58,12.09.44,5.44,8.32,9.83,21,12.7a111.28,111.28,0,0,0,.32,13.3c1.85,22.69,27.36,40.47,61.12,40.47s63-24.25,63.29-47a115.94,115.94,0,0,0-.66-14.85c16.15-5.39,26-12,25.47-18.37-.3-3.73-4.12-7-10.58-9.56,7-3.87,10.91-8,10.58-12.08-.3-3.74-4.12-7-10.58-9.56C1278.6,1286.38,1282.49,1282.23,1282.16,1278.16Z" transform="translate(-181 -141.1)"/> <g> <path class="cls-6" d="M1173.28,1352.81a203.2,203.2,0,0,1-37.37-3.06,1.13,1.13,0,1,1,.43-2.22c16.55,3.17,38.65,3.87,62.24,2,19.3-1.55,37.35-4.66,52.19-9a1.13,1.13,0,1,1,.64,2.17c-15,4.38-33.2,7.52-52.65,9.09C1190,1352.46,1181.44,1352.81,1173.28,1352.81Z" transform="translate(-181 -141.1)"/> <path class="cls-6" d="M1173.51,1331.14c-18.17,0-34.42-1.71-45.87-5a1.13,1.13,0,0,1,.62-2.18c16.32,4.65,42.61,6.09,70.32,3.86,27.4-2.21,53-7.77,68.37-14.88a1.13,1.13,0,0,1,1,2.06c-15.64,7.21-41.48,12.84-69.14,15.07C1190.13,1330.8,1181.63,1331.14,1173.51,1331.14Z" transform="translate(-181 -141.1)"/> <path class="cls-6" d="M1173.28,1309.51c-19.62,0-36.8-2-48.36-5.82a1.13,1.13,0,1,1,.71-2.15c16.09,5.31,43.36,7,72.95,4.66,27.4-2.21,53-7.77,68.37-14.87a1.13,1.13,0,0,1,1,2.05c-15.64,7.21-41.48,12.85-69.14,15.08C1190,1309.17,1181.43,1309.51,1173.28,1309.51Z" transform="translate(-181 -141.1)"/> <path class="cls-6" d="M1173.43,1287.85c-15.57,0-29.72-1.25-40.73-3.7a1.13,1.13,0,1,1,.49-2.21c16.55,3.68,40.38,4.63,65.39,2.62,27.16-2.19,52.59-7.69,68-14.72a1.13,1.13,0,0,1,.94,2.06c-15.66,7.13-41.37,12.7-68.78,14.91C1190.1,1287.51,1181.57,1287.85,1173.43,1287.85Z" transform="translate(-181 -141.1)"/> </g> <path class="cls-7" d="M1080,1168.9a159.25,159.25,0,0,0-28.53-55.7c-28-35.34-73.78-107.21-79.42-205.3-8.19-142.68,118.36-214.12,233.83-204.42s229.41,95.67,216.94,228.41c-7.68,81.67-53.39,143.63-87.43,179.2a189,189,0,0,0-45.37,80.4c-10.22,36.88-34.53,82.83-92.3,85.64C1122.92,1280.75,1091.87,1211.06,1080,1168.9Z" transform="translate(-181 -141.1)"/> <path class="cls-8" d="M1216.78,1248.67l40.41-262.78c.83-5.43,3.5-9.08,6-8.15s3.77,6.09,2.94,11.52c0,.14,0,.32-.08.47l-46,260.34c-.35,2-1.34,3.19-2.22,2.76S1216.49,1250.57,1216.78,1248.67Z" transform="translate(-181 -141.1)"/> <path class="cls-9" d="M1174.84,1250.76,1134.44,988c-.83-5.43-3.51-9.07-6-8.14s-3.78,6.09-2.94,11.52c0,.14,0,.32.08.46l46,260.35c.34,1.95,1.34,3.19,2.22,2.76S1175.13,1252.66,1174.84,1250.76Z" transform="translate(-181 -141.1)"/> <path class="cls-10" d="M1256.9,963.32a4.24,4.24,0,0,0-5.31-1.37l-22.49,10.51-7.81-22.25a4.82,4.82,0,0,0-2.74-2.76,5.57,5.57,0,0,0-6.91,2.13l0,.08-18.5,33.73-17.17-48,0-.08a5.48,5.48,0,0,0-2.6-2.93,6.74,6.74,0,0,0-8.49,1.67l-25.87,35.61a3.12,3.12,0,0,0,.91,4.49,4.34,4.34,0,0,0,5.5-.59l22.78-25.41,20.5,45.68,0,0a3.61,3.61,0,0,0,1.8,1.77,4.29,4.29,0,0,0,5.37-1.39l19.79-31.75,7.44,16.06.07.14a3.65,3.65,0,0,0,.18.34,4.23,4.23,0,0,0,5.3,1.38l26.71-12.48A3.19,3.19,0,0,0,1256.9,963.32Z" transform="translate(-181 -141.1)"/> <path class="cls-11" d="M1336.24,1075.42a3.25,3.25,0,0,1-2-.66,3.32,3.32,0,0,1-.69-4.66,300.38,300.38,0,0,0,18.86-28.64,3.33,3.33,0,0,1,5.77,3.33,307.41,307.41,0,0,1-19.28,29.28A3.33,3.33,0,0,1,1336.24,1075.42Z" transform="translate(-181 -141.1)"/> <path class="cls-11" d="M1369.48,1018.37a3.25,3.25,0,0,1-1.32-.27,3.32,3.32,0,0,1-1.73-4.38c43-99.05,5.86-182.31,5.48-183.14a3.33,3.33,0,0,1,6.06-2.78c.39.86,38.75,86.83-5.43,188.57A3.33,3.33,0,0,1,1369.48,1018.37Z" transform="translate(-181 -141.1)"/> </g> <g> <path class="cls-12" d="M333,1033.91s-55.36,30.66-59.94,82.56-.38,267.32,110.62,320.34,257.94,40.8,314.19,35,87.42-44,94.39-70.34,18.22-124.35-41-156S630,1165.42,567.91,1118.25,399.39,994.06,333,1033.91Z" transform="translate(-181 -141.1)"/> <path class="cls-13" d="M733.86,1263.39s-14.94.79-16.77,31.53c0,0,34.64,31,81.44,38.44,3.52.56-4.91-24-6.18-27.3C786.33,1290.24,767.35,1280.06,733.86,1263.39Z" transform="translate(-181 -141.1)"/> <path class="cls-6" d="M565.6,1227.24h31.53s96.77-106.87,160.24-117.65c0,0,44.18,56.39-2.36,161.77-3.74,8.47-14.21,12.24-22,7.25a12.57,12.57,0,0,1-5-6l3.74-90s-82.54,72.2-96.89,86.13S547.53,1274.21,565.6,1227.24Z" transform="translate(-181 -141.1)"/> <path class="cls-14" d="M870.41,1451.63c-13.21-11.58-34.26-24.57-64.65-28.29l-10.28,6.28A112.15,112.15,0,0,0,814,1449.5c11,6.39,28,15,42.08,16.92C869.79,1468.25,871.81,1460,870.41,1451.63Z" transform="translate(-181 -141.1)"/> <path class="cls-15" d="M792.35,1306.06c-8.13,2.63-11.71,14.16-32.37,6.54a183,183,0,0,1-42.48-22.38c-.17,1.49-.31,3-.41,4.7,0,0,36.53,34.74,83.33,42.13a4.65,4.65,0,0,0,5-6.27A117.09,117.09,0,0,0,792.35,1306.06Z" transform="translate(-181 -141.1)"/> <path class="cls-15" d="M880.37,1461.52a109.66,109.66,0,0,0-10-9.89c1.4,8.34-.62,16.62-14.32,14.79C842,1464.55,825,1455.89,814,1449.5c13.79,11.76,34.77,24.25,61.26,23.51A6.94,6.94,0,0,0,880.37,1461.52Z" transform="translate(-181 -141.1)"/> <path class="cls-6" d="M566.75,1250.06l147.65,1.6s84.32,69.75,99.61,176.13c0,0,2.54,7.82-12.7,9.16,0,0-51-33.3-84.22-92.16-40.76-72.18-121.5-39.69-121.5-39.69-26.53-19.12-64-23-92.26-29.39Z" transform="translate(-181 -141.1)"/> <path class="cls-16" d="M570.24,1131.12s15.89,79.66,93.77,111.17l27.7-3.27,6.54,10.43-65,2.07s-55.54-22-85-82C547.32,1167.59,531.12,1134.13,570.24,1131.12Z" transform="translate(-181 -141.1)"/> <path class="cls-17" d="M578.76,1248.76s-18.08-49.14-22-96.88c0,0,13.22-11.36,21.49-16.26a6,6,0,0,0,2.33-7.75c-6.08-12.59-42.82-62-45.58-62.7-15-3.74-76.32-32.91-119.53,26.2-18.55,25.37,3.68,103.46,87.82,184.34l17.36,3.32Z" transform="translate(-181 -141.1)"/> <path class="cls-18" d="M509.11,1162.65s50.22,59.46,114.42,68.15c0,0,16.59-15.13,28.93-9.73s29.26,29.24,29.26,29.24H599.28s-77.95-2.74-116.9-50C485.52,1183.76,494.9,1173.88,509.11,1162.65Z" transform="translate(-181 -141.1)"/> <path class="cls-19" d="M479.82,1023.46l-11,36.65a4,4,0,0,0,1.56,4.49c5.29,3.62,19.12,10.82,38.09,3.82a6,6,0,0,0,3.84-5.13l2.6-31.92Z" transform="translate(-181 -141.1)"/> <g> <path class="cls-20" d="M544.15,993.78s-5.4,38-20,49.67-43,2.89-52.63-25.75l19.14-49Z" transform="translate(-181 -141.1)"/> <path class="cls-21" d="M488.51,1000.42a1.88,1.88,0,0,0,2.45-1.5c.52-3.51,1.84-10.45,4.5-15.18,0,0-1.39-5,12.6,2.55s35,18.59,47.36,12c12.06-6.42,24.28-38.74-7.59-32.75a1.88,1.88,0,0,1-2.24-2c.39-5.31-.14-17.53-12.51-21.45-11.58-3.67-17.92,1.56-20.53,4.71a1.87,1.87,0,0,1-2.93,0c-3.47-4.53-12.89-14.17-26.75-8.06-11.42,5-13.2,12.07-13,16.45a1.87,1.87,0,0,1-2.67,1.79c-3.5-1.61-9.13-2.45-14.52,4.31-7.45,9.33,3.2,17.43,6.39,19.55a1.9,1.9,0,0,1,.86,1.55c0,4.86.78,26,11.4,38a1.89,1.89,0,0,0,3.15-.54l8.17-19.47a1.89,1.89,0,0,1,2.32-1.07Z" transform="translate(-181 -141.1)"/> <path class="cls-22" d="M488.68,1004.38s-5-20.33-12.57-13.73,2,21.12,10.66,23.89Z" transform="translate(-181 -141.1)"/> </g> <path class="cls-23" d="M677.57,1254.93l37-123.44a12.63,12.63,0,0,1,11.23-9l50-3.42a7.09,7.09,0,0,1,7.17,9.42L741.58,1246.4a10.39,10.39,0,0,1-8.75,6.89l-49.21,5.46Z" transform="translate(-181 -141.1)"/> <path class="cls-6" d="M745.83,1173.33c-2.76,5.58-7.54,8.84-10.66,7.3s-3.41-7.33-.65-12.91,7.53-8.84,10.66-7.29S748.59,1167.75,745.83,1173.33Z" transform="translate(-181 -141.1)"/> <path class="cls-24" d="M683.62,1258.75h-.24l-104.86-5.3a4.7,4.7,0,1,1,.47-9.39l104.86,5.3a4.7,4.7,0,0,1-.23,9.39Z" transform="translate(-181 -141.1)"/> <path class="cls-25" d="M556.8,1153h0a1.1,1.1,0,0,1-1.1-1.11c.07-21.86-8.37-50.91-8.46-51.2a1.11,1.11,0,1,1,2.13-.63c.09.3,8.62,29.65,8.55,51.84A1.11,1.11,0,0,1,556.8,1153Z" transform="translate(-181 -141.1)"/> <path class="cls-26" d="M509.11,1163.76a1.12,1.12,0,0,1-.87-.42c-.23-.3-23.19-29.48-31.09-49.5a1.11,1.11,0,0,1,2.07-.81c7.78,19.71,30.53,48.64,30.76,48.93a1.11,1.11,0,0,1-.87,1.8Z" transform="translate(-181 -141.1)"/> <path class="cls-27" d="M476.94,1208.4l-.83-.35c-33.27-14.25-53.81-54-54-54.35a1.11,1.11,0,0,1,2-1c.19.39,20,38.73,52.08,53l3.29-4.65a1.11,1.11,0,1,1,1.81,1.29Z" transform="translate(-181 -141.1)"/> </g> <g> <g> <path class="cls-6" d="M805.23,615.16H715.74l15.78-132-39.72-4.82L757.31,382l65.24,100.11H790.48ZM722.65,609h75.72L783.62,476h27.6l-54-82.88-54.66,80.39,35.8,4.35Z" transform="translate(-181 -141.1)"/> <path class="cls-6" d="M896.63,586.75l-65.32-98.5h32.12l-14.75-133h89.5L922.4,485.6l39.72,4.83ZM842.75,494.4l53.94,81.33,54.68-80.42L915.57,491l15.69-129.62H855.54L870.29,494.4Z" transform="translate(-181 -141.1)"/> </g> <g> <g class="cls-28"> <path class="cls-6" d="M627.47,560.57a5.11,5.11,0,0,1-4.9-3.68c-.79-2.67-1.53-5.39-2.21-8.08a5.12,5.12,0,1,1,9.92-2.51c.65,2.57,1.36,5.16,2.11,7.71a5.12,5.12,0,0,1-3.47,6.35A5.19,5.19,0,0,1,627.47,560.57Z" transform="translate(-181 -141.1)"/> <path class="cls-6" d="M620.34,525.81a5.12,5.12,0,0,1-5.07-4.51c-.68-5.66-1.14-11.44-1.38-17.16a5.12,5.12,0,0,1,10.23-.42c.22,5.46.66,11,1.31,16.37a5.12,5.12,0,0,1-4.47,5.69Zm-.72-44.08h-.44a5.12,5.12,0,0,1-4.66-5.54c.48-5.7,1.19-11.44,2.11-17.07a5.12,5.12,0,1,1,10.11,1.65c-.88,5.37-1.56,10.85-2,16.29A5.11,5.11,0,0,1,619.62,481.73Zm8.18-43.3a5.31,5.31,0,0,1-1.46-.21,5.13,5.13,0,0,1-3.45-6.37c1.64-5.48,3.51-11,5.57-16.29a5.12,5.12,0,1,1,9.55,3.69c-2,5.08-3.75,10.3-5.31,15.53A5.11,5.11,0,0,1,627.8,438.43Zm16.88-40.72a5.12,5.12,0,0,1-4.49-7.56c2.72-5,5.68-10,8.79-14.81a5.12,5.12,0,1,1,8.59,5.57c-3,4.57-5.79,9.32-8.38,14.12A5.13,5.13,0,0,1,644.68,397.71Zm24.88-36.41a5.11,5.11,0,0,1-3.9-8.42c3.69-4.37,7.61-8.64,11.62-12.7a5.12,5.12,0,0,1,7.27,7.2c-3.82,3.87-7.55,7.94-11.08,12.11A5.1,5.1,0,0,1,669.56,361.3Zm31.76-30.57a5.12,5.12,0,0,1-3.16-9.15c4.5-3.52,9.19-6.91,14-10.07a5.12,5.12,0,1,1,5.67,8.52c-4.54,3-9,6.25-13.31,9.61A5.13,5.13,0,0,1,701.32,330.73Zm37.28-23.48a5.12,5.12,0,0,1-2.27-9.71c5.13-2.54,10.41-4.9,15.71-7a5.11,5.11,0,0,1,3.81,9.49c-5.05,2-10.09,4.28-15,6.7A5,5,0,0,1,738.6,307.25Zm187-1.69a5,5,0,0,1-2.18-.49c-4.92-2.32-10-4.48-15.11-6.42a5.12,5.12,0,1,1,3.63-9.57c5.35,2,10.68,4.3,15.85,6.74a5.12,5.12,0,0,1-2.19,9.74Zm-145.69-13.7a5.12,5.12,0,0,1-1.28-10.07c5.54-1.43,11.2-2.66,16.83-3.66a5.12,5.12,0,0,1,1.77,10.08c-5.36,1-10.75,2.12-16,3.49A5.24,5.24,0,0,1,779.89,291.86ZM884,291a5.44,5.44,0,0,1-1.19-.14c-5.3-1.27-10.72-2.34-16.11-3.19a5.12,5.12,0,1,1,1.6-10.11c5.65.89,11.33,2,16.89,3.34A5.12,5.12,0,0,1,884,291Zm-60.53-5.68a5.12,5.12,0,0,1-.23-10.23c5.7-.27,11.46-.32,17.21-.14a5.12,5.12,0,0,1-.31,10.23c-5.49-.17-11-.13-16.42.13Z" transform="translate(-181 -141.1)"/> <path class="cls-6" d="M956.41,323.4a5.1,5.1,0,0,1-2.92-.92c-2.18-1.51-4.42-3-6.65-4.43a5.12,5.12,0,0,1,5.53-8.62c2.33,1.49,4.68,3.06,7,4.65a5.12,5.12,0,0,1-2.92,9.32Z" transform="translate(-181 -141.1)"/> </g> <g class="cls-28"> <path class="cls-6" d="M1046,465.18a5.12,5.12,0,0,1-5-4.29c-.43-2.62-.91-5.26-1.44-7.86a5.12,5.12,0,0,1,10-2c.56,2.72,1.06,5.49,1.51,8.24a5.1,5.1,0,0,1-4.22,5.87A4.73,4.73,0,0,1,1046,465.18Z" transform="translate(-181 -141.1)"/> <path class="cls-6" d="M832.08,715h0c-4.44,0-9-.22-13.42-.52l-3.5-.27A5.12,5.12,0,1,1,816,704l3.36.26c4.26.29,8.56.46,12.8.5a5.12,5.12,0,0,1,0,10.23Zm26.83-1.43a5.12,5.12,0,0,1-.59-10.2c5.34-.62,10.71-1.46,16-2.49a5.12,5.12,0,1,1,2,10c-5.51,1.08-11.14,2-16.74,2.61A4,4,0,0,1,858.91,713.57ZM789,710.3a4.88,4.88,0,0,1-1.07-.12c-5.51-1.16-11-2.56-16.43-4.15a5.12,5.12,0,1,1,2.89-9.82c5.14,1.52,10.41,2.85,15.66,4a5.12,5.12,0,0,1-1,10.13Zm112.3-6.1a5.12,5.12,0,0,1-1.61-10c5.08-1.67,10.17-3.58,15.12-5.65a5.12,5.12,0,1,1,4,9.44c-5.19,2.18-10.53,4.17-15.85,5.93A5.07,5.07,0,0,1,901.26,704.2ZM747.64,697a5,5,0,0,1-2-.43c-5.14-2.25-10.27-4.73-15.25-7.38a5.12,5.12,0,0,1,4.82-9c4.74,2.53,9.63,4.9,14.53,7a5.12,5.12,0,0,1-2.05,9.81ZM940.83,686.5a5.12,5.12,0,0,1-2.56-9.55c4.66-2.69,9.27-5.58,13.68-8.59a5.12,5.12,0,1,1,5.77,8.46c-4.63,3.15-9.46,6.18-14.34,9A5.13,5.13,0,0,1,940.83,686.5Zm35.23-25.29a5.12,5.12,0,0,1-3.39-9c4-3.56,8-7.31,11.69-11.15a5.12,5.12,0,0,1,7.34,7.13c-3.91,4-8,8-12.26,11.69A5.08,5.08,0,0,1,976.06,661.21Zm29.47-31.82a5.11,5.11,0,0,1-4.08-8.2c3.23-4.28,6.34-8.74,9.23-13.26a5.12,5.12,0,1,1,8.62,5.52c-3,4.74-6.29,9.42-9.68,13.91A5.12,5.12,0,0,1,1005.53,629.39ZM1028,592.3a5.12,5.12,0,0,1-4.62-7.32c2.31-4.85,4.45-9.85,6.37-14.85a5.11,5.11,0,1,1,9.55,3.66c-2,5.25-4.26,10.49-6.68,15.59A5.11,5.11,0,0,1,1028,592.3Zm14.55-40.87a5.14,5.14,0,0,1-5-6.34c1.28-5.2,2.37-10.52,3.24-15.82a5.12,5.12,0,0,1,10.1,1.66c-.92,5.56-2.06,11.14-3.39,16.6A5.14,5.14,0,0,1,1042.59,551.43Zm6-42.95h-.2a5.11,5.11,0,0,1-4.91-5.32c.11-2.81.17-5.66.17-8.47,0-2.55,0-5.13-.14-7.69a5.11,5.11,0,1,1,10.22-.37c.1,2.68.15,5.39.15,8.06,0,2.95-.06,5.93-.18,8.88A5.11,5.11,0,0,1,1048.62,508.48Z" transform="translate(-181 -141.1)"/> <path class="cls-6" d="M709.75,675.63a5.14,5.14,0,0,1-3-.94c-2.25-1.59-4.52-3.27-6.75-5a5.12,5.12,0,1,1,6.23-8.12c2.12,1.62,4.28,3.22,6.43,4.73a5.12,5.12,0,0,1-3,9.3Z" transform="translate(-181 -141.1)"/> </g> </g> </g> <path class="cls-2" d="M911.67,1023.85H893.91a5.55,5.55,0,1,1,0-11.1h17.76a5.55,5.55,0,1,1,0,11.1Zm-46.63,0H847.27a5.55,5.55,0,1,1,0-11.1H865a5.55,5.55,0,1,1,0,11.1Zm-46.64,0H800.63a5.55,5.55,0,1,1,0-11.1H818.4a5.55,5.55,0,1,1,0,11.1Zm-46.64,0H754a5.55,5.55,0,1,1,0-11.1h17.77a5.55,5.55,0,1,1,0,11.1Zm-46.64,0H707.35a5.55,5.55,0,0,1,0-11.1h17.77a5.55,5.55,0,0,1,0,11.1Zm-46.64,0H660.72a5.55,5.55,0,1,1,0-11.1h17.76a5.55,5.55,0,1,1,0,11.1Z" transform="translate(-181 -141.1)"/> <path class="cls-2" d="M1611.25,864h-17.77a5.55,5.55,0,1,1,0-11.1h6.66a5.56,5.56,0,1,1,11.11,0Zm-46.64,0h-17.77a5.55,5.55,0,1,1,0-11.1h17.77a5.55,5.55,0,1,1,0,11.1ZM1518,864H1500.2a5.55,5.55,0,1,1,0-11.1H1518a5.55,5.55,0,0,1,0,11.1Zm-46.64,0h-17.77a5.55,5.55,0,1,1,0-11.1h17.77a5.55,5.55,0,1,1,0,11.1Zm134.36-34.42a5.56,5.56,0,0,1-5.55-5.55V806.21a5.56,5.56,0,0,1,11.11,0V824A5.56,5.56,0,0,1,1605.69,829.53Zm0-46.64a5.56,5.56,0,0,1-5.55-5.55V759.57a5.56,5.56,0,0,1,11.11,0v17.77A5.56,5.56,0,0,1,1605.69,782.89Zm76.62-23.32h-6.66a5.55,5.55,0,0,1,0-11.1h6.66a5.55,5.55,0,1,1,0,11.1Zm-35.53,0H1629a5.55,5.55,0,1,1,0-11.1h17.77a5.55,5.55,0,0,1,0,11.1Z" transform="translate(-181 -141.1)"/> <path class="cls-2" d="M1651.22,992.76h-17.77a5.55,5.55,0,1,1,0-11.1h17.77a5.55,5.55,0,0,1,0,11.1Zm-46.64,0h-17.76a5.55,5.55,0,1,1,0-11.1h17.76a5.55,5.55,0,1,1,0,11.1Zm-46.63,0h-17.77a5.55,5.55,0,1,1,0-11.1H1558a5.55,5.55,0,0,1,0,11.1Zm-46.64,0h-17.77a5.55,5.55,0,1,1,0-11.1h17.77a5.55,5.55,0,0,1,0,11.1Zm-46.64,0H1446.9a5.55,5.55,0,0,1,0-11.1h17.77a5.55,5.55,0,0,1,0,11.1Z" transform="translate(-181 -141.1)"/> <g> <g> <rect class="cls-6" x="1694.21" y="1160.71" width="15.43" height="166.86"/> <path class="cls-6" d="M1950.5,1471.89H1815.36v-7.64a2.4,2.4,0,0,1,2.4-2.41h130.15a2.59,2.59,0,0,1,2.59,2.59Z" transform="translate(-181 -141.1)"/> <rect class="cls-6" x="1614.48" y="1120.97" width="180.58" height="51.21" rx="17.63"/> </g> <g> <path class="cls-29" d="M1797,1439.11s-44.06,31.76-36.41,53.09c0,0,48.2-20.8,54-37.18s-1-23.62-1-23.62Z" transform="translate(-181 -141.1)"/> <path class="cls-30" d="M1803.61,1412.49l7.2,20.83a7.24,7.24,0,0,1-2.81,8.5,19,19,0,0,1-6,2.31,8.45,8.45,0,0,1-9.33-4.24l-8.62-16.23Z" transform="translate(-181 -141.1)"/> <path class="cls-31" d="M1873.72,1225s-90.5,15.69-129.32,51.55S1780,1426.83,1780,1426.83s12.2-.08,27-12.75c0,0-44.14-86-6.1-111.12,42.77-28.21,92.07-34.56,92.07-34.56l-18.39-40.61Z" transform="translate(-181 -141.1)"/> <path class="cls-32" d="M1768.23,1480.4c9.69-4.48,37.13-23.69,41.75-24.53s12.65,4.58,12.65,4.58,1.95,3.51-.14,9.63c-6.43,7.8-20.73,22.65-40,28.18-14.14,4.08-24,.28-30.19-4.16A40.9,40.9,0,0,1,1768.23,1480.4Z" transform="translate(-181 -141.1)"/> <path class="cls-33" d="M1782.54,1498.26c19.22-5.53,33.52-20.38,40-28.18-1.41,4.14-4.66,9.47-11.61,15.71-17.23,15.49-50.15,21.08-57.15,20-5.62-.86-5.09-6-1.38-11.69C1758.51,1498.54,1768.4,1502.34,1782.54,1498.26Z" transform="translate(-181 -141.1)"/> <path class="cls-34" d="M1830.85,1446.9c-.11,2.67-5.57,11.82-8.76,17a8.29,8.29,0,0,1-7,3.94,21.06,21.06,0,0,1-5.82-.7,5.4,5.4,0,0,1-3.63-6.71l6.24-21.28Z" transform="translate(-181 -141.1)"/> <path class="cls-35" d="M1960.83,1197.86s20.1,53.74,0,70.08-68,34.75-78.75,67.3-28.89,95.81-53.21,118.22c0,0-17.09-1.66-23.49-8.47,0,0,13.86-94.44,23-118.67,7.91-21,19.57-51.28,41.91-68.21,6.4-4.84,5.28-12.52,2.32-20l-5.4-13.57Z" transform="translate(-181 -141.1)"/> <path class="cls-36" d="M1751.22,1155.74c33.7,2,23.2-51.81,22.59-54l51.15,36.13s-2.71,28.79-45.23,43.89a52.86,52.86,0,0,1-29.29,2.12A46.53,46.53,0,0,0,1751.22,1155.74Z" transform="translate(-181 -141.1)"/> <path class="cls-37" d="M1686.06,1139.54c12.56-8.74,26.78,0,26.78,0,16.79,11,29.22,15.65,38.38,16.2a46.53,46.53,0,0,1-.78,28.19c-18.81-4-32.27-17.65-38.11-24.64a6.08,6.08,0,0,0-8.41-.92c-2.62,2.07-5.16,4.89-4.7,7.87.91,5.87-5.9,7.73-6.41,5.61s2.33-14.75,2.33-14.75-13.62,13.7-18.94,19-12,0-12,0S1673.5,1148.27,1686.06,1139.54Z" transform="translate(-181 -141.1)"/> <path class="cls-38" d="M1908.35,1018.65s-49-19.63-140.26,55.7c0,0-7.62,15.77.69,29.81s87.53,82.46,98.42,120.4c0,0,47.19,15.33,96-21C1963.2,1203.53,1958.89,1097.94,1908.35,1018.65Z" transform="translate(-181 -141.1)"/> <path class="cls-39" d="M1811.43,1001.13l24.14,29.26a9.62,9.62,0,0,1,1.26,10.33c-3.34,6.83-11.29,16.78-28.92,15.4a14.81,14.81,0,0,1-12.18-8.31l-16.87-34.88Z" transform="translate(-181 -141.1)"/> <path class="cls-40" d="M1946.31,1144c5.69-23.18-52-74.86-52-74.86l14-50.45s124.48,82.87,92.76,149.51c-4.55,9.55-10.59,16.24-17.59,20.72C1973.5,1161.9,1957.52,1149.52,1946.31,1144Z" transform="translate(-181 -141.1)"/> <path class="cls-41" d="M1946.35,1140.58a1.35,1.35,0,0,0,1.32-1c5.82-23.7-50-74-52.37-76.19a1.36,1.36,0,0,0-1.82,2c.57.51,57,51.39,51.55,73.51a1.36,1.36,0,0,0,1,1.65A1.24,1.24,0,0,0,1946.35,1140.58Z" transform="translate(-181 -141.1)"/> <path class="cls-42" d="M1859,1142s68.35,26.54,85,6.58a11.23,11.23,0,0,0,2.28-4.58c11.21,5.56,27.19,17.94,37.21,44.92-36,23-97.39-12.78-114-23.32a12.4,12.4,0,0,0-9.18-1.68c-6.4,1.33-17.47,3.28-23.44,2.36-8.74-1.35-21.28,29.46-35.44,20C1801.45,1186.2,1813.57,1132.65,1859,1142Z" transform="translate(-181 -141.1)"/> <g> <path class="cls-43" d="M1758.92,958.16c-.24.94,5.66,64.89,5.66,64.89l36.44-4.14,3.42-61.45S1763,942.41,1758.92,958.16Z" transform="translate(-181 -141.1)"/> <path class="cls-44" d="M1794.94,970.2l.74,32.48a4.23,4.23,0,0,1-.14,1.23c-.63,2.47-3.44,10.81-11.8,7.42-7.58-3.08-14.55-5.77-19.67-4.8a4.55,4.55,0,0,0-3.68,4.88c.54,5.81,2,18.88,5,30a4.52,4.52,0,0,0,5.17,3.26c7-1.22,21.57-4.22,32.76-9.38a4.53,4.53,0,0,0,2.64-3.82c.55-8.12,2.3-32.8,3.85-39.6,1.46-6.39,9.82-9.39,13.42-10.4a4.45,4.45,0,0,0,2.74-2.21c2-3.82,5.25-12.84-6-17.91a4.56,4.56,0,0,1-2.22-6.16c2.26-4.62,3.79-11.88-4.79-16.91s-16.11-1-20.24,2.58a4.53,4.53,0,0,1-5.83.05,3.61,3.61,0,0,0-4.08-.31,4.46,4.46,0,0,1-6.08-2.59c-1.71-4.75-5.65-10.08-14.8-9.52-16.24,1-20,18.44-16.91,29.25s20.61,8.74,29.76,4.47c7-3.25,15,1.84,18.41,4.46A4.49,4.49,0,0,1,1794.94,970.2Z" transform="translate(-181 -141.1)"/> <path class="cls-45" d="M1810,1003.74s-4.53-19.06,2.69-22.82,16.94-.33,13.28,12.72C1821.38,1009.87,1810,1003.74,1810,1003.74Z" transform="translate(-181 -141.1)"/> </g> </g> <g> <path class="cls-46" d="M1824,1194.29h-.33l-143.41-.16a6.42,6.42,0,0,1,0-12.84l143.4.16a6.42,6.42,0,0,1,.32,12.83Z" transform="translate(-181 -141.1)"/> <path class="cls-47" d="M1551.33,1064.09h119.43a22.74,22.74,0,0,1,20.58,13.05l55.22,117.07H1598.14a13.84,13.84,0,0,1-12.87-8.75l-42.81-108.33A9.53,9.53,0,0,1,1551.33,1064.09Z" transform="translate(-181 -141.1)"/> <path class="cls-6" d="M1635.47,1124.11c2.58,8,.67,15.85-4.27,17.45s-11.06-3.64-13.65-11.68-.67-15.85,4.27-17.44S1632.88,1116.07,1635.47,1124.11Z" transform="translate(-181 -141.1)"/> </g> <g> <g> <path class="cls-15" d="M1570.69,1501.87a6.24,6.24,0,0,1-2.38-.48,5.75,5.75,0,0,1-3.15-7.66l126.38-284.45a6.12,6.12,0,0,1,7.92-3,5.75,5.75,0,0,1,3.15,7.66l-126.38,284.45A6,6,0,0,1,1570.69,1501.87Z" transform="translate(-181 -141.1)"/> <path class="cls-15" d="M1713.07,1501.87a6,6,0,0,1-5.54-3.53l-126.39-284.45a5.77,5.77,0,0,1,3.16-7.66,6.1,6.1,0,0,1,7.91,3l126.39,284.45a5.76,5.76,0,0,1-3.15,7.66A6.28,6.28,0,0,1,1713.07,1501.87Z" transform="translate(-181 -141.1)"/> <path class="cls-15" d="M1961.91,1501.87a6.24,6.24,0,0,1-2.38-.48,5.75,5.75,0,0,1-3.15-7.66l126.38-284.45a6.12,6.12,0,0,1,7.92-3,5.75,5.75,0,0,1,3.15,7.66l-126.38,284.45A6,6,0,0,1,1961.91,1501.87Z" transform="translate(-181 -141.1)"/> <path class="cls-15" d="M2104.29,1501.87a6,6,0,0,1-5.54-3.53l-126.39-284.45a5.77,5.77,0,0,1,3.16-7.66,6.1,6.1,0,0,1,7.91,3l126.39,284.45a5.77,5.77,0,0,1-3.15,7.66A6.28,6.28,0,0,1,2104.29,1501.87Z" transform="translate(-181 -141.1)"/> </g> <path class="cls-2" d="M2119.11,1200.5a7,7,0,0,0-1.2-5.26,5.47,5.47,0,0,0-4.38-2.31h-575a6.39,6.39,0,0,0-5.51,3.38,8.12,8.12,0,0,0-.43,7l6.23,15.09a8.72,8.72,0,0,0,7.92,5.67h562.81a6.84,6.84,0,0,0,6.49-6Z" transform="translate(-181 -141.1)"/> </g> </g> <g> <g> <g> <path class="cls-48" d="M1579.5,435.3l-16-9.19a15.27,15.27,0,0,1-7.56-11.91,162.71,162.71,0,0,0-7.52-36.4,15.26,15.26,0,0,1,2.22-13.95l11.07-14.79a18.24,18.24,0,0,0,.49-21.18l-13-19.24a18.25,18.25,0,0,0-19.86-7.37l-17.83,4.83a15.29,15.29,0,0,1-13.79-3.1,162.88,162.88,0,0,0-31-20.44,15.26,15.26,0,0,1-8.28-11.42l-2.63-18.27a18.23,18.23,0,0,0-14.62-15.32l-22.83-4.38A18.26,18.26,0,0,0,1399,242l-9.19,16a15.29,15.29,0,0,1-11.92,7.56,162.74,162.74,0,0,0-36.39,7.52,15.26,15.26,0,0,1-14-2.22l-14.79-11.07a18.27,18.27,0,0,0-21.19-.49l-19.23,13.05a18.25,18.25,0,0,0-7.37,19.86l4.82,17.83a15.28,15.28,0,0,1-3.09,13.79,162.41,162.41,0,0,0-20.44,31,15.26,15.26,0,0,1-11.42,8.28l-18.27,2.63a18.22,18.22,0,0,0-15.32,14.63l-4.38,22.82a18.26,18.26,0,0,0,8.84,19.26l16,9.19a15.25,15.25,0,0,1,7.55,11.92A163.31,163.31,0,0,0,1236.8,480a15.29,15.29,0,0,1-2.22,13.95l-11.07,14.79a18.26,18.26,0,0,0-.49,21.19l13,19.23a18.25,18.25,0,0,0,19.86,7.37l17.83-4.82a15.28,15.28,0,0,1,13.79,3.09,162.41,162.41,0,0,0,31,20.44,15.26,15.26,0,0,1,8.28,11.42l2.62,18.27a18.27,18.27,0,0,0,14.63,15.33l22.83,4.37a18.25,18.25,0,0,0,19.26-8.84l9.19-16a15.23,15.23,0,0,1,11.92-7.55,162.75,162.75,0,0,0,36.39-7.53,15.29,15.29,0,0,1,14,2.22L1472.45,598a18.22,18.22,0,0,0,21.18.49l19.24-13a18.25,18.25,0,0,0,7.37-19.86l-4.82-17.83a15.25,15.25,0,0,1,3.09-13.79,162.41,162.41,0,0,0,20.44-31,15.26,15.26,0,0,1,11.42-8.28l18.27-2.62A18.25,18.25,0,0,0,1584,477.39l4.38-22.83A18.26,18.26,0,0,0,1579.5,435.3ZM1380.68,563.64a135.26,135.26,0,1,1,146.66-122.81A135.26,135.26,0,0,1,1380.68,563.64Z" transform="translate(-181 -141.1)"/> <path class="cls-2" d="M1370.38,628.29a21.45,21.45,0,0,1-4.05-.39l-22.83-4.37a21.59,21.59,0,0,1-17.3-18.13l-2.63-18.26a12,12,0,0,0-6.49-8.93,166.83,166.83,0,0,1-31.67-20.85,12,12,0,0,0-10.78-2.44l-17.83,4.82a21.58,21.58,0,0,1-23.49-8.71l-13-19.23a21.59,21.59,0,0,1,.58-25L1231.91,492a12,12,0,0,0,1.72-10.92A166.84,166.84,0,0,1,1226,443.9a12,12,0,0,0-5.9-9.32l-16-9.19a21.58,21.58,0,0,1-10.45-22.77l4.37-22.83a21.6,21.6,0,0,1,18.13-17.3l18.26-2.63a12,12,0,0,0,8.93-6.48,166.42,166.42,0,0,1,20.85-31.68,12,12,0,0,0,2.44-10.77l-4.82-17.84a21.58,21.58,0,0,1,8.71-23.49l19.23-13.05a21.61,21.61,0,0,1,25,.58l14.79,11.07a11.93,11.93,0,0,0,10.92,1.72,166.84,166.84,0,0,1,37.14-7.67,12,12,0,0,0,9.32-5.9l9.19-16a21.6,21.6,0,0,1,22.77-10.45l22.83,4.37A21.59,21.59,0,0,1,1459,252.4l2.63,18.26a12,12,0,0,0,6.48,8.93,166.16,166.16,0,0,1,31.68,20.86,12,12,0,0,0,10.78,2.43l17.83-4.82a21.6,21.6,0,0,1,23.49,8.71L1565,326a21.61,21.61,0,0,1-.58,25.05l-11.07,14.78a12,12,0,0,0-1.72,10.92,166.84,166.84,0,0,1,7.67,37.14,12,12,0,0,0,5.9,9.32l16,9.19a21.6,21.6,0,0,1,10.45,22.78L1587.24,478a21.59,21.59,0,0,1-18.13,17.3l-18.26,2.63a12,12,0,0,0-8.93,6.49,166.08,166.08,0,0,1-20.86,31.67,12,12,0,0,0-2.43,10.78l4.82,17.83a21.58,21.58,0,0,1-8.71,23.49l-19.24,13a21.59,21.59,0,0,1-25-.58l-14.78-11.07a12,12,0,0,0-10.92-1.72,166.61,166.61,0,0,1-37.14,7.67,12,12,0,0,0-9.32,5.9l-9.19,16A21.61,21.61,0,0,1,1370.38,628.29Zm-92.71-80.43a18.7,18.7,0,0,1,12,4.39,160.61,160.61,0,0,0,30.41,20,18.59,18.59,0,0,1,10.07,13.92l2.63,18.26a14.92,14.92,0,0,0,12,12.53l22.83,4.38a14.93,14.93,0,0,0,15.74-7.23l9.19-16a18.63,18.63,0,0,1,14.51-9.21,160.5,160.5,0,0,0,35.65-7.37,18.6,18.6,0,0,1,17,2.72l14.79,11.06a14.91,14.91,0,0,0,17.31.41l19.24-13a14.94,14.94,0,0,0,6-16.24l-4.82-17.83a18.65,18.65,0,0,1,3.75-16.79,160,160,0,0,0,20-30.41,18.59,18.59,0,0,1,13.92-10.07l18.26-2.63a14.92,14.92,0,0,0,12.53-12l4.38-22.83a14.93,14.93,0,0,0-7.23-15.74l-16-9.19a18.58,18.58,0,0,1-9.21-14.51,160.62,160.62,0,0,0-7.37-35.65,18.65,18.65,0,0,1,2.71-17L1559,347.06a14.91,14.91,0,0,0,.41-17.31l-13-19.24a14.94,14.94,0,0,0-16.24-6l-17.83,4.82a18.65,18.65,0,0,1-16.8-3.75,159.74,159.74,0,0,0-30.4-20,18.65,18.65,0,0,1-10.08-13.93l-2.62-18.26a14.92,14.92,0,0,0-12-12.53l-22.83-4.37a14.91,14.91,0,0,0-15.74,7.22l-9.19,16a18.65,18.65,0,0,1-14.51,9.22,160,160,0,0,0-35.65,7.36,18.62,18.62,0,0,1-17-2.71l-14.79-11.07a14.89,14.89,0,0,0-17.31-.4l-19.24,13.05a14.92,14.92,0,0,0-6,16.23l4.82,17.84a18.64,18.64,0,0,1-3.75,16.78,159.7,159.7,0,0,0-20,30.41,18.63,18.63,0,0,1-13.92,10.08l-18.27,2.62a14.92,14.92,0,0,0-12.52,12l-4.38,22.83a14.93,14.93,0,0,0,7.23,15.74l16,9.19a18.63,18.63,0,0,1,9.21,14.51A160.62,160.62,0,0,0,1240,479a18.64,18.64,0,0,1-2.71,17l-11.07,14.79a14.92,14.92,0,0,0-.41,17.32l13,19.23a14.94,14.94,0,0,0,16.24,6l17.83-4.82A18.51,18.51,0,0,1,1277.67,547.86Zm115,19.64q-6.12,0-12.32-.55h0c-76.12-6.74-132.57-74.15-125.83-150.27s74.14-132.56,150.27-125.83a138.58,138.58,0,0,1,125.83,150.27C1524.29,513.1,1463.65,567.5,1392.71,567.5ZM1381,560.32c72.48,6.44,136.63-47.32,143-119.78a131.93,131.93,0,0,0-119.79-143c-72.46-6.41-136.63,47.32-143,119.78S1308.51,553.9,1381,560.32Z" transform="translate(-181 -141.1)"/> </g> <g> <path class="cls-49" d="M1339.67,335.62c-3.32,1.43,16.43,129-5,212.82,0,0,39.44,20.13,83,11.66,0,0,73.8-112.94,75.82-126.52,2.29-15.4-9.54-94.35-9.54-94.35S1421.46,300.26,1339.67,335.62Z" transform="translate(-181 -141.1)"/> <path class="cls-50" d="M1439.06,389.34c38.18,1.29,41.22-31.42,39-53.24-12.55-6.17-44.46-18.89-86.64-14.34C1390.68,340.38,1393.22,387.78,1439.06,389.34Z" transform="translate(-181 -141.1)"/> <path class="cls-51" d="M1450.39,264.67s-19,40.07-30,57a11.59,11.59,0,0,0,2.34,15.34c5.26,4.27,13.79,8.51,27,8.64a12.29,12.29,0,0,0,11.94-9.1l12.51-45.77Z" transform="translate(-181 -141.1)"/> <path class="cls-52" d="M1483.94,339.23s55.81,102,156.62,19.85l11.49,18.2s-73.81,114-164.81,34.89Z" transform="translate(-181 -141.1)"/> <path class="cls-53" d="M1717.83,374.84a14.19,14.19,0,0,0-8.29-9.07l-39-15.68s-.59-5,8.24-8.4,6.76-13.28,6.76-13.28-12.06,5.5-29.71,14.22c-10.1,5-15.77,13.8-18.77,20.44l10,13.2c24,7.22,48.35,8.6,72.88,5.74Z" transform="translate(-181 -141.1)"/> <path class="cls-54" d="M1339.67,335.62s-94.71,49.05-84.25,141.57,153.92,7.58,153.92,7.58l-3.48-22.26s-87.77,25.46-102.38,3.56c-10.72-16.07,25.22-53.71,45.14-72.63a23.55,23.55,0,0,0,5.21-26.9Z" transform="translate(-181 -141.1)"/> <g> <path class="cls-2" d="M1396.42,516.13l39.72-138.69a4,4,0,0,1,3.42-2.91c7.19-.84,28-3.2,52.12-5.24,29-2.45,62.67-4.44,82.79-2.75a4.06,4.06,0,0,1,3.32,5.84c-11.44,23.16-58.51,117.33-82.08,148.18a4.09,4.09,0,0,1-3.28,1.61l-92.14-.86A4.07,4.07,0,0,1,1396.42,516.13Z" transform="translate(-181 -141.1)"/> <path class="cls-6" d="M1495.8,357.27l28.79-4.8a2.07,2.07,0,0,1,2.3,2.69L1524,363.8a2.06,2.06,0,0,1-1.68,1.4l-27.71,3.7a2.07,2.07,0,0,1-2.29-2.52l1.77-7.54A2.06,2.06,0,0,1,1495.8,357.27Z" transform="translate(-181 -141.1)"/> <path class="cls-6" d="M1474.24,381.65l2.37-12.36a2.85,2.85,0,0,1,2.52-2.3l58.15-5.9a2.85,2.85,0,0,1,3.07,3.5l-3.7,15.4a2.87,2.87,0,0,1-2.63,2.19L1477.19,385A2.86,2.86,0,0,1,1474.24,381.65Z" transform="translate(-181 -141.1)"/> <path class="cls-55" d="M1406,482.62s-5.53-22.74-3.3-30.81,6.55-18.45,21-16.15S1455.1,444,1455.1,444s-.86,10.51-11.81,7.12l6.79,5.26s-1,8.41-10.22,3.92l6.31,7s-4,6.91-10.78,2.48S1425.32,485.36,1406,482.62Z" transform="translate(-181 -141.1)"/> </g> <g> <path class="cls-56" d="M1515.24,231.66s8.78,20.29-1.54,51.13-27.18,33.52-37.86,25.89-24.52-21.25-26.24-49.18S1503.14,206,1515.24,231.66Z" transform="translate(-181 -141.1)"/> <path class="cls-57" d="M1470.43,257.68s18.64-41.74,46.59-15.74l2.15,10.74s26.62-7.58,17.87-31.7-40.55-40.47-69-24.84-38.14,34-36.61,56,18,14.44,18,14.44,3.17-16.14,10.9-19,7.57,9.35,7.57,9.35Z" transform="translate(-181 -141.1)"/> <path class="cls-58" d="M1464,258.19s9.7-21.4-3.89-22.17-8.07,20.63-5.36,28.43Z" transform="translate(-181 -141.1)"/> <path class="cls-59" d="M1456.31,211.61c7.62-.93,10.68-10.34,5.5-16-16.72-18.27-48.28-38.54-93.25-7.43-50.65,35-78,50.89-90.49,47.56-8.18-2.18-15.28,5.9-11.42,13.43,2.85,5.56,8.66,11.37,19.39,16.67C1368.84,306.69,1411.64,217.05,1456.31,211.61Z" transform="translate(-181 -141.1)"/> </g> </g> </g> <g> <g> <path class="cls-60" d="M2126.35,704.3l-15.76-18.84a20.32,20.32,0,0,1-4-18.36,216.75,216.75,0,0,0,7.33-48.92,20.34,20.34,0,0,1,9.18-16.41l20.63-13.38a24.29,24.29,0,0,0,10.34-26.23l-7.46-30a24.29,24.29,0,0,0-21.43-18.34l-24.49-2.17a20.29,20.29,0,0,1-15.79-10.2,217.62,217.62,0,0,0-29.38-39.8,20.3,20.3,0,0,1-5.1-18.07l5.12-24a24.27,24.27,0,0,0-11.23-25.86l-26.51-16a24.31,24.31,0,0,0-28.12,2.19l-18.83,15.76a20.33,20.33,0,0,1-18.36,4,216.35,216.35,0,0,0-48.92-7.33,20.33,20.33,0,0,1-16.41-9.19l-13.39-20.62a24.29,24.29,0,0,0-26.23-10.35l-30,7.46A24.3,24.3,0,0,0,1799.22,381l-2.17,24.49a20.36,20.36,0,0,1-10.2,15.8,216.36,216.36,0,0,0-39.8,29.38,20.32,20.32,0,0,1-18.08,5.09l-24-5.11a24.29,24.29,0,0,0-25.87,11.23l-15.95,26.51a24.29,24.29,0,0,0,2.18,28.11l15.77,18.84a20.3,20.3,0,0,1,4,18.35,216.91,216.91,0,0,0-7.33,48.92,20.32,20.32,0,0,1-9.18,16.41l-20.63,13.39a24.31,24.31,0,0,0-10.35,26.23l7.47,30A24.28,24.28,0,0,0,1666.44,707l24.49,2.17a20.33,20.33,0,0,1,15.8,10.21,217.21,217.21,0,0,0,29.38,39.79,20.33,20.33,0,0,1,5.1,18.08l-5.12,24a24.3,24.3,0,0,0,11.23,25.87l26.51,16a24.29,24.29,0,0,0,28.12-2.18l18.83-15.77a20.32,20.32,0,0,1,18.36-4,216.83,216.83,0,0,0,48.92,7.33,20.32,20.32,0,0,1,16.41,9.18l13.38,20.63a24.31,24.31,0,0,0,26.24,10.35l30-7.46a24.3,24.3,0,0,0,18.34-21.43l2.17-24.49a20.33,20.33,0,0,1,10.2-15.8,216.36,216.36,0,0,0,39.8-29.38,20.28,20.28,0,0,1,18.07-5.09l24,5.11a24.29,24.29,0,0,0,25.87-11.23l15.95-26.51A24.27,24.27,0,0,0,2126.35,704.3ZM1819,773.23a180,180,0,1,1,239.65-86A180,180,0,0,1,1819,773.23Z" transform="translate(-181 -141.1)"/> <path class="cls-2" d="M1938.24,872.74a27.64,27.64,0,0,1-23.18-12.59l-13.38-20.62a17,17,0,0,0-13.73-7.67,220.81,220.81,0,0,1-49.68-7.44,17,17,0,0,0-15.35,3.3l-18.83,15.76a27.65,27.65,0,0,1-32,2.49l-26.5-16a27.64,27.64,0,0,1-12.78-29.42l5.12-24a17.05,17.05,0,0,0-4.27-15.11,220.51,220.51,0,0,1-29.84-40.4,17,17,0,0,0-13.2-8.55l-24.49-2.17a27.65,27.65,0,0,1-24.37-20.85l-7.46-30a27.65,27.65,0,0,1,11.77-29.84l20.62-13.38a17,17,0,0,0,7.67-13.73,221,221,0,0,1,7.44-49.68,17,17,0,0,0-3.29-15.35l-15.77-18.83a27.64,27.64,0,0,1-2.49-32l16-26.51a27.62,27.62,0,0,1,29.41-12.77l24,5.11a17,17,0,0,0,15.11-4.27,220.31,220.31,0,0,1,40.41-29.83,17,17,0,0,0,8.54-13.21l2.17-24.49a27.63,27.63,0,0,1,20.85-24.36l30-7.47a27.67,27.67,0,0,1,29.83,11.77L1890,381.29a17.05,17.05,0,0,0,13.73,7.67,220.42,220.42,0,0,1,49.68,7.44,17,17,0,0,0,15.35-3.3l18.83-15.77a27.63,27.63,0,0,1,32-2.48l26.5,15.95a27.63,27.63,0,0,1,12.78,29.42l-5.12,24a17,17,0,0,0,4.27,15.11,220.92,220.92,0,0,1,29.84,40.41,17,17,0,0,0,13.2,8.54l24.49,2.18a27.64,27.64,0,0,1,24.37,20.85l7.46,30a27.63,27.63,0,0,1-11.77,29.83L2125,604.57a17,17,0,0,0-7.66,13.73,220.26,220.26,0,0,1-7.45,49.67,17,17,0,0,0,3.3,15.35l15.77,18.84a27.62,27.62,0,0,1,2.48,32l-15.95,26.51A27.63,27.63,0,0,1,2086,773.41l-24-5.11a17,17,0,0,0-15.11,4.27,220.19,220.19,0,0,1-40.41,29.83,17,17,0,0,0-8.54,13.2l-2.17,24.49a27.63,27.63,0,0,1-20.85,24.37l-30,7.46A27.52,27.52,0,0,1,1938.24,872.74Zm-104.48-55.58a23.79,23.79,0,0,1,6.24.83,213.93,213.93,0,0,0,48.18,7.21,23.7,23.7,0,0,1,19.08,10.7l13.39,20.63a21,21,0,0,0,22.64,8.93l30-7.47a21,21,0,0,0,15.82-18.49L1991.3,815a23.71,23.71,0,0,1,11.86-18.39,213.78,213.78,0,0,0,39.19-28.93,23.66,23.66,0,0,1,21-5.91l24,5.11a21,21,0,0,0,22.32-9.69l16-26.51a21,21,0,0,0-1.89-24.26L2108,687.6a23.7,23.7,0,0,1-4.62-21.36,213.94,213.94,0,0,0,7.22-48.17,23.7,23.7,0,0,1,10.7-19.09L2142,585.59a21,21,0,0,0,8.93-22.63l-7.46-30a21,21,0,0,0-18.49-15.82l-24.49-2.17a23.71,23.71,0,0,1-18.39-11.86,214.47,214.47,0,0,0-28.93-39.19,23.68,23.68,0,0,1-5.92-21l5.12-24a21,21,0,0,0-9.69-22.32l-26.51-15.95a21,21,0,0,0-24.26,1.88L1973,398.21a23.69,23.69,0,0,1-21.37,4.62,213.93,213.93,0,0,0-48.17-7.21,23.7,23.7,0,0,1-19.08-10.7L1871,364.29a21,21,0,0,0-22.64-8.93l-30,7.47a21,21,0,0,0-15.82,18.48l-2.17,24.49a23.7,23.7,0,0,1-11.86,18.39,214,214,0,0,0-39.19,28.93,23.66,23.66,0,0,1-21,5.92l-24-5.12a21,21,0,0,0-22.32,9.69l-16,26.51a21,21,0,0,0,1.89,24.26l15.76,18.84a23.68,23.68,0,0,1,4.63,21.36,213.38,213.38,0,0,0-7.22,48.17,23.7,23.7,0,0,1-10.7,19.09l-20.62,13.38a21,21,0,0,0-8.93,22.64l7.46,30a21,21,0,0,0,18.49,15.82l24.49,2.18a23.7,23.7,0,0,1,18.39,11.85,213.44,213.44,0,0,0,28.93,39.19,23.66,23.66,0,0,1,5.91,21l-5.11,24a21,21,0,0,0,9.69,22.32l26.51,16a21,21,0,0,0,24.26-1.89l18.83-15.76A23.57,23.57,0,0,1,1833.76,817.16Zm61.79-23.39a182.33,182.33,0,0,1-78-17.52h0c-91.44-43.15-130.74-152.64-87.59-244.08a183.37,183.37,0,1,1,331.67,156.48C2030.42,754.89,1964.35,793.77,1895.55,793.77Zm-75.12-23.55c88.12,41.58,193.64,3.71,235.22-84.41A176.71,176.71,0,0,0,1736,535c-41.57,88.12-3.71,193.64,84.41,235.21Z" transform="translate(-181 -141.1)"/> </g> <g> <path class="cls-61" d="M1788.52,560.4s77.25-19.38,158.86-7.69a79.35,79.35,0,0,1,55.7,36.26c22.33,35.33,53.89,98.3,47.22,164l-35.05,8.67S1991,683.67,1963.77,652c0,0-32.28,73.59-30.65,114,.05,1.14.12,2.26.22,3.34,3.71,39.54-155,7.38-155,7.38Z" transform="translate(-181 -141.1)"/> <path class="cls-62" d="M1850.85,494l3.53,54.79a11.9,11.9,0,0,0,8.25,10.79c10.65,3.15,30.77,6.95,50.49-1a7.86,7.86,0,0,0,4.25-9.63l-26.08-83.78Z" transform="translate(-181 -141.1)"/> <g> <path class="cls-63" d="M1842,414.64s-16.66,38.28-17.78,58.37-5.45,33.12,17.78,37.17,42.8-7.53,53.4-27.54c0,0,16.61-30.84,12.88-43.46S1842,414.64,1842,414.64Z" transform="translate(-181 -141.1)"/> <path class="cls-64" d="M1887.5,468.25h-2.94s12.1-24.82,1.47-29.18-52.74-12.94-61.83-27.89c-8.76-14.4-1-33,10.74-38.22a1.56,1.56,0,0,1,2,.74l1,1.83a1.58,1.58,0,0,0,2.91-.3h0a1.57,1.57,0,0,1,2.83-.43c2.78,4.47,10.31,11.73,30.51,15.46,28.66,5.29,47.61,16.89,48.07,36.7a1.58,1.58,0,0,0,2.45,1.29c2.11-1.29,5.5-1.89,10,1.91,7.87,6.62,4.65,23.79-12.6,37.91a1.57,1.57,0,0,0,.08,2.53c3.12,2,7.79,6.88-4.3,13.33-12.35,6.61-19.67,5.89-22.43,5.18a1.57,1.57,0,0,1-1.19-1.63l1.08-17.55a1.57,1.57,0,0,0-1.57-1.68Z" transform="translate(-181 -141.1)"/> <path class="cls-65" d="M1886.78,471.92s6.35-24.44,17.32-17.59-5.69,27.39-14.51,28.31Z" transform="translate(-181 -141.1)"/> </g> <g> <path class="cls-66" d="M1789,717.94c-3.42-24.16,21.6-59.68,32-73.16a22.38,22.38,0,0,0,4.66-13.43c.3-34.22-14.06-56.19-37.08-71,0,0-83.56,97.34-62.28,172.22a62.94,62.94,0,0,0,10.36,21C1740,725.39,1772.57,719.24,1789,717.94Z" transform="translate(-181 -141.1)"/> <path class="cls-67" d="M1790.56,708.59l-3.18-.36c2.7-23.7,23.49-53,32.3-64.42l2.54,2C1813.57,657,1793.17,685.69,1790.56,708.59Z" transform="translate(-181 -141.1)"/> <path class="cls-68" d="M1789.66,721.28a29.89,29.89,0,0,1-.66-3.34c-16.43,1.3-49,7.45-52.39,35.67,37.29,49.31,140.06,31.52,140.06,31.52V765.94S1797.74,751.27,1789.66,721.28Z" transform="translate(-181 -141.1)"/> </g> <path class="cls-69" d="M1866.79,779.83S1882,744,1908.71,756.72s24.63,21,24.63,21Z" transform="translate(-181 -141.1)"/> <path class="cls-70" d="M1863.38,787.26h0a5.09,5.09,0,0,0,5.24,4.68l138.56-4.84a5.08,5.08,0,0,0,4.67-3.56l4-12.87a5.08,5.08,0,0,0-4.58-6.58l-50.52-2.68a4.85,4.85,0,0,0-1.37.11l-92.05,20.39A5.08,5.08,0,0,0,1863.38,787.26Z" transform="translate(-181 -141.1)"/> <polygon class="cls-71" points="1775.26 641.11 1779.08 623.34 1830.98 625.82 1827.56 640.56 1775.26 641.11"/> <path class="cls-72" d="M1929.65,591c-2.93,24-16.15,121.52-19.93,149.38a6.4,6.4,0,0,0,6.53,7.26l224.17-6.42a6.41,6.41,0,0,0,6.07-5l34.87-157a6.41,6.41,0,0,0-6.63-7.79l-239.09,14A6.41,6.41,0,0,0,1929.65,591Z" transform="translate(-181 -141.1)"/> <path class="cls-73" d="M2019.76,689.46l-33.13,94,77,1.63,6.42-95.1a7.4,7.4,0,0,0-7.86-7.88l-36,2.39A7.39,7.39,0,0,0,2019.76,689.46Z" transform="translate(-181 -141.1)"/> <path class="cls-74" d="M1955.4,784.83h0a4,4,0,0,0,3.8,5.25h120.64a4,4,0,0,0,4-4v-5.17a4,4,0,0,0-4.17-4L1959,782.08A4,4,0,0,0,1955.4,784.83Z" transform="translate(-181 -141.1)"/> </g> <path class="cls-2" d="M1926.57,690.23l-2.2-.28,11-86.86A11.64,11.64,0,0,1,1946.21,593l206.61-12.48.13,2.22-206.61,12.47a9.4,9.4,0,0,0-8.75,8.2Z" transform="translate(-181 -141.1)"/> <rect class="cls-2" x="1911.67" y="723.12" width="18.95" height="2.22" transform="translate(781.44 2398.68) rotate(-82.82)"/> </g> </g> <g> <g> <path class="cls-2" d="M1818.07,1184.67l-3.37,2.91a1.17,1.17,0,1,1-1.54-1.77l0,0h0l3.43-2.8h0a1.11,1.11,0,0,1,1.43,1.7Z" transform="translate(-181 -141.1)"/> <path class="cls-2" d="M1797.42,1201.64l-3.53,2.71a1.57,1.57,0,1,1-1.91-2.48l0,0h0l3.59-2.6h0a1.5,1.5,0,0,1,1.79,2.41Z" transform="translate(-181 -141.1)"/> <path class="cls-2" d="M1775.89,1217.48l-3.66,2.54a2,2,0,1,1-2.23-3.2l0,0h0l3.71-2.42h0a1.89,1.89,0,0,1,2.11,3.13Z" transform="translate(-181 -141.1)"/> <path class="cls-2" d="M1753.67,1232.36l-3.75,2.39a2.34,2.34,0,1,1-2.52-4l0,0,0,0,3.8-2.26h0a2.28,2.28,0,0,1,2.38,3.88Z" transform="translate(-181 -141.1)"/> <path class="cls-2" d="M1730.87,1246.3l-3.86,2.24a2.61,2.61,0,1,1-2.62-4.52h0l0,0,3.86-2.16h0a2.58,2.58,0,0,1,2.55,4.48Z" transform="translate(-181 -141.1)"/> <path class="cls-2" d="M1707.58,1259.43l-3.92,2.12a2.83,2.83,0,0,1-2.69-5l0,0h0l3.93-2h0a2.8,2.8,0,0,1,2.62,4.94Z" transform="translate(-181 -141.1)"/> <path class="cls-2" d="M1683.94,1271.89l-4,2a3.05,3.05,0,1,1-2.77-5.44h.06l4-1.94h0a3,3,0,0,1,2.69,5.4Z" transform="translate(-181 -141.1)"/> <path class="cls-2" d="M1660,1283.75l-4,1.92a3.27,3.27,0,1,1-2.82-5.89l0,0h0l4-1.85h0a3.23,3.23,0,0,1,2.74,5.85Z" transform="translate(-181 -141.1)"/> <path class="cls-2" d="M1635.65,1294.92l-4.13,1.73a3.39,3.39,0,1,1-2.62-6.26h0l4.08-1.68,0,0a3.38,3.38,0,0,1,2.6,6.25Z" transform="translate(-181 -141.1)"/> <path class="cls-2" d="M1610.69,1304.73l-4.2,1.52a3.42,3.42,0,1,1-2.32-6.43h0l4.15-1.5h0a3.41,3.41,0,1,1,2.32,6.42Z" transform="translate(-181 -141.1)"/> <path class="cls-2" d="M1585.36,1313.43l-4.25,1.35a3.44,3.44,0,1,1-2.09-6.56h0l4.22-1.34h0a3.44,3.44,0,0,1,2.08,6.56Z" transform="translate(-181 -141.1)"/> <path class="cls-2" d="M1559.77,1321.22l-4.29,1.22a3.47,3.47,0,1,1-1.9-6.67h0l4.26-1.2h0a3.47,3.47,0,0,1,1.9,6.67Z" transform="translate(-181 -141.1)"/> <path class="cls-2" d="M1534,1328.26l-4.32,1.11a3.49,3.49,0,0,1-1.73-6.77h0l4.29-1.09h0a3.49,3.49,0,1,1,1.73,6.76Z" transform="translate(-181 -141.1)"/> <path class="cls-2" d="M1508,1334.65l-4.33,1a3.52,3.52,0,0,1-1.6-6.86h0l4.32-1h0a3.51,3.51,0,1,1,1.58,6.85Z" transform="translate(-181 -141.1)"/> <path class="cls-2" d="M1481.93,1340.46l-4.36.91a3.55,3.55,0,0,1-1.46-6.94h0l4.34-.9h0a3.54,3.54,0,0,1,1.45,6.94Z" transform="translate(-181 -141.1)"/> <path class="cls-2" d="M1455.74,1345.74l-4.38.83a3.57,3.57,0,0,1-1.33-7h0l4.35-.82a3.57,3.57,0,1,1,1.34,7Z" transform="translate(-181 -141.1)"/> <path class="cls-2" d="M1429.46,1350.53l-4.39.75a3.6,3.6,0,0,1-1.22-7.09h0l4.37-.74a3.59,3.59,0,0,1,1.22,7.08Z" transform="translate(-181 -141.1)"/> <path class="cls-2" d="M1402.89,1354.9l-4.4.67a3.62,3.62,0,1,1-1.11-7.15h0l4.38-.67a3.62,3.62,0,0,1,1.11,7.16Z" transform="translate(-181 -141.1)"/> <path class="cls-2" d="M1376,1358.85l-4.41.61a3.65,3.65,0,1,1-1-7.23h0l4.39-.59a3.64,3.64,0,1,1,1,7.21Z" transform="translate(-181 -141.1)"/> <path class="cls-2" d="M1349.53,1362.32l-4.42.54a3.67,3.67,0,1,1-.88-7.29h0l4.4-.53a3.67,3.67,0,1,1,.89,7.28Z" transform="translate(-181 -141.1)"/> <path class="cls-2" d="M1323,1365.39l-4.42.47a3.7,3.7,0,1,1-.79-7.35h0l4.41-.46a3.69,3.69,0,1,1,.78,7.34Z" transform="translate(-181 -141.1)"/> <path class="cls-2" d="M1296.43,1368.06l-4.43.41a3.73,3.73,0,1,1-.68-7.42h0l4.42-.39a3.72,3.72,0,0,1,.68,7.4Z" transform="translate(-181 -141.1)"/> <path class="cls-2" d="M1269.82,1370.34l-4.43.34a3.75,3.75,0,1,1-.58-7.47h0l4.42-.33a3.74,3.74,0,1,1,.57,7.46Z" transform="translate(-181 -141.1)"/> <path class="cls-2" d="M1243.18,1372.23l-4.44.28a3.78,3.78,0,0,1-.47-7.54h0l4.42-.26a3.77,3.77,0,1,1,.47,7.52Z" transform="translate(-181 -141.1)"/> <path class="cls-2" d="M1216.52,1373.73l-4.45.21a3.8,3.8,0,0,1-.36-7.59h0l4.43-.2a3.79,3.79,0,1,1,.36,7.58Z" transform="translate(-181 -141.1)"/> <path class="cls-2" d="M1189.83,1374.82l-4.44.14a3.81,3.81,0,0,1-.24-7.62l4.43-.14a3.81,3.81,0,1,1,.27,7.62Z" transform="translate(-181 -141.1)"/> <path class="cls-2" d="M1163.14,1375.47l-4.45.07a3.79,3.79,0,1,1-.12-7.57l4.43-.08a3.79,3.79,0,1,1,.15,7.58Z" transform="translate(-181 -141.1)"/> <path class="cls-2" d="M1136.43,1375.71H1132a3.76,3.76,0,1,1,0-7.52h4.43a3.77,3.77,0,1,1,0,7.53Z" transform="translate(-181 -141.1)"/> <path class="cls-2" d="M1109.72,1375.53l-4.45-.08a3.74,3.74,0,1,1,.12-7.47l4.43.07a3.74,3.74,0,1,1-.09,7.48Z" transform="translate(-181 -141.1)"/> <path class="cls-2" d="M1083,1374.91l-4.45-.15a3.71,3.71,0,1,1,.25-7.42l4.43.14a3.72,3.72,0,1,1-.21,7.43Z" transform="translate(-181 -141.1)"/> <path class="cls-2" d="M1056.32,1373.83l-4.45-.23a3.68,3.68,0,1,1,.38-7.36l4.42.21a3.69,3.69,0,0,1-.33,7.38Z" transform="translate(-181 -141.1)"/> <path class="cls-2" d="M1029.65,1372.27l-4.45-.3a3.66,3.66,0,1,1,.51-7.31h0l4.42.3h0a3.67,3.67,0,0,1-.5,7.32Z" transform="translate(-181 -141.1)"/> <path class="cls-2" d="M1003,1370.22l-4.43-.39a3.64,3.64,0,1,1,.64-7.25h0l4.41.38h0a3.64,3.64,0,0,1-.63,7.26Z" transform="translate(-181 -141.1)"/> <path class="cls-2" d="M976.4,1367.63l-4.42-.48a3.62,3.62,0,0,1,.78-7.19h0l4.4.48h0a3.62,3.62,0,1,1-.78,7.19Z" transform="translate(-181 -141.1)"/> <path class="cls-2" d="M949.86,1364.48l-4.42-.59a3.59,3.59,0,1,1,.94-7.11h0l4.39.57h0a3.59,3.59,0,0,1-.92,7.13Z" transform="translate(-181 -141.1)"/> <path class="cls-2" d="M923.39,1360.72,919,1360a3.56,3.56,0,1,1,1.1-7h0l4.37.68h0a3.57,3.57,0,0,1-1.09,7Z" transform="translate(-181 -141.1)"/> <path class="cls-2" d="M897,1356.31l-4.38-.81a3.54,3.54,0,1,1,1.27-7h0l4.36.79h0a3.55,3.55,0,0,1-1.26,7Z" transform="translate(-181 -141.1)"/> <path class="cls-2" d="M870.76,1351.19l-4.36-.93a3.51,3.51,0,1,1,1.46-6.87h0l4.33.91h0a3.52,3.52,0,0,1-1.45,6.89Z" transform="translate(-181 -141.1)"/> <path class="cls-2" d="M844.66,1345.3l-4.34-1.06a3.49,3.49,0,0,1,1.67-6.78h0l4.3,1h0a3.49,3.49,0,0,1-1.65,6.79Z" transform="translate(-181 -141.1)"/> <path class="cls-2" d="M818.75,1338.56l-4.3-1.21a3.46,3.46,0,0,1,1.88-6.67h0l4.26,1.19h0a3.47,3.47,0,0,1-1.87,6.68Z" transform="translate(-181 -141.1)"/> <path class="cls-2" d="M793.09,1330.89l-4.25-1.38A3.44,3.44,0,0,1,791,1323h0l4.2,1.36h0a3.45,3.45,0,0,1-2.11,6.56Z" transform="translate(-181 -141.1)"/> <path class="cls-2" d="M767.75,1322.18l-4.19-1.56a3.42,3.42,0,1,1,2.39-6.4h0l4.14,1.53h0a3.42,3.42,0,1,1-2.38,6.41Z" transform="translate(-181 -141.1)"/> <path class="cls-2" d="M742.81,1312.32l-4.1-1.78a3.38,3.38,0,1,1,2.68-6.21h0l4.05,1.73h0a3.4,3.4,0,0,1-2.66,6.25Z" transform="translate(-181 -141.1)"/> <path class="cls-2" d="M718.43,1301.11l-4-2a3.31,3.31,0,0,1,3-5.93h0l4,2h0a3.32,3.32,0,1,1-2.94,6Z" transform="translate(-181 -141.1)"/> <path class="cls-2" d="M694.75,1288.46l-3.87-2.27a3.23,3.23,0,0,1,3.25-5.59l0,0,3.81,2.2,0,0a3.25,3.25,0,1,1-3.25,5.63Z" transform="translate(-181 -141.1)"/> <path class="cls-2" d="M672,1274.18l-3.69-2.55a3.16,3.16,0,0,1,3.58-5.22l0,0,3.63,2.48,0,0a3.18,3.18,0,1,1-3.59,5.25Z" transform="translate(-181 -141.1)"/> <path class="cls-2" d="M650.39,1258.1l-3.46-2.87a3.09,3.09,0,0,1,3.93-4.76l0,0,3.4,2.78,0,0a3.1,3.1,0,1,1-3.93,4.8Z" transform="translate(-181 -141.1)"/> <path class="cls-2" d="M630.37,1240.06l-3.15-3.2a3,3,0,0,1,4.28-4.24l0,0,3.09,3.11,0,0a3,3,0,0,1-4.29,4.27Z" transform="translate(-181 -141.1)"/> <path class="cls-2" d="M612.36,1220l-2.77-3.55a2.94,2.94,0,0,1,4.63-3.63l0,0,2.72,3.44,0,0a3,3,0,0,1-4.64,3.66Z" transform="translate(-181 -141.1)"/> <path class="cls-2" d="M596.88,1197.87l-2.3-3.87a2.86,2.86,0,1,1,4.91-2.94l0,0,2.26,3.75,0,.05a2.88,2.88,0,0,1-4.93,3Z" transform="translate(-181 -141.1)"/> <path class="cls-2" d="M584.39,1173.92l-1.76-4.15a2.79,2.79,0,0,1,5.13-2.19l0,.05,1.74,4,0,.06a2.8,2.8,0,1,1-5.14,2.22Z" transform="translate(-181 -141.1)"/> <path class="cls-2" d="M575.26,1148.5l-1.18-4.34a2.72,2.72,0,0,1,5.24-1.44v.06l1.18,4.22v0a2.73,2.73,0,0,1-5.25,1.47Z" transform="translate(-181 -141.1)"/> <path class="cls-2" d="M569.63,1122.11l-.6-4.45a2.64,2.64,0,0,1,5.23-.73v.06l.61,4.34v.05a2.66,2.66,0,0,1-5.26.75Z" transform="translate(-181 -141.1)"/> <path class="cls-2" d="M567.38,1095.26l-.07-4.49a2.57,2.57,0,0,1,5.13-.09v0l.09,4.39v.05a2.58,2.58,0,1,1-5.15.1Z" transform="translate(-181 -141.1)"/> <path class="cls-2" d="M568.2,1068.36l.42-4.46a2.49,2.49,0,1,1,5,.44v0l-.38,4.38v0a2.5,2.5,0,0,1-5-.43Z" transform="translate(-181 -141.1)"/> <path class="cls-2" d="M571.75,1041.72l.83-4.39a2.38,2.38,0,0,1,4.69.85v0l-.77,4.34v0a2.4,2.4,0,1,1-4.73-.84Z" transform="translate(-181 -141.1)"/> <path class="cls-2" d="M577.62,1015.54l1.18-4.31a2.25,2.25,0,0,1,4.34,1.16v0l-1.11,4.27v0a2.27,2.27,0,0,1-4.39-1.15Z" transform="translate(-181 -141.1)"/> <path class="cls-2" d="M585.42,989.91l1.47-4.22a2.11,2.11,0,0,1,4,1.37v0l-1.4,4.19v0a2.14,2.14,0,1,1-4.06-1.36Z" transform="translate(-181 -141.1)"/> <path class="cls-2" d="M594.84,964.85l1.71-4.12a2,2,0,0,1,3.67,1.5v0l-1.65,4.1v0a2,2,0,0,1-3.72-1.5Z" transform="translate(-181 -141.1)"/> <path class="cls-2" d="M605.62,940.37l1.91-4a1.85,1.85,0,0,1,3.35,1.57h0L609,942h0a1.87,1.87,0,1,1-3.4-1.57Z" transform="translate(-181 -141.1)"/> <path class="cls-2" d="M617.54,916.45l2.09-3.93a1.72,1.72,0,0,1,3,1.6h0l-2,3.93h0a1.74,1.74,0,1,1-3.09-1.6Z" transform="translate(-181 -141.1)"/> <path class="cls-2" d="M630.46,893.07l2.23-3.85a1.59,1.59,0,0,1,2.75,1.59l-2.19,3.85a1.61,1.61,0,0,1-2.81-1.57Z" transform="translate(-181 -141.1)"/> <path class="cls-2" d="M644.21,870.18l2.36-3.77A1.46,1.46,0,0,1,649,868l-2.32,3.78a1.47,1.47,0,1,1-2.52-1.53Z" transform="translate(-181 -141.1)"/> <path class="cls-2" d="M658.69,847.76l2.48-3.69a1.32,1.32,0,0,1,2.2,1.46l-2.44,3.71a1.34,1.34,0,1,1-2.25-1.46Z" transform="translate(-181 -141.1)"/> <path class="cls-2" d="M673.82,825.77l2.57-3.62a1.19,1.19,0,0,1,1.94,1.37l-2.53,3.64a1.21,1.21,0,0,1-2-1.37Z" transform="translate(-181 -141.1)"/> </g> <g> <polygon class="cls-6" points="502 635.12 514.12 662.68 527.57 642.62 502 635.12"/> <path class="cls-15" d="M800,705.89l-45.69,98a7.62,7.62,0,0,1-10.39,3.56l-96.68-49.59a3.06,3.06,0,0,1,.51-5.64Z" transform="translate(-181 -141.1)"/> <polygon class="cls-6" points="502.01 635.12 618.96 564.79 517.59 643.17 520.63 650.96 502.01 635.12"/> <polygon class="cls-6" points="526.86 647.88 514.12 662.68 517.59 643.17 526.86 647.88"/> </g> </g> <g> <g> <path class="cls-2" d="M895.47,1154.54,891.21,1142v0a1.92,1.92,0,1,1,3.63-1.23h0l4.26,12.68a1.9,1.9,0,1,1-3.6,1.21Z" transform="translate(-181 -141.1)"/> <path class="cls-2" d="M882.11,1117l-4.56-12.53a2,2,0,1,1,3.72-1.35h0v0l4.51,12.52a2,2,0,1,1-3.68,1.34Z" transform="translate(-181 -141.1)"/> <path class="cls-2" d="M868.85,1079.17l-4-12.74a2,2,0,1,1,3.89-1.23h0l0,0,4,12.68v0a2,2,0,1,1-3.85,1.21Z" transform="translate(-181 -141.1)"/> <path class="cls-2" d="M857.61,1040.67l-3.13-13a2.1,2.1,0,0,1,4.08-1h0l0,0,3.06,12.91v.06a2.08,2.08,0,0,1-4,1Z" transform="translate(-181 -141.1)"/> <path class="cls-2" d="M849.27,1001.41l-2-13.23a2.16,2.16,0,0,1,4.27-.66h0v.06l2,13.11v.06a2.14,2.14,0,0,1-4.24.65Z" transform="translate(-181 -141.1)"/> <path class="cls-2" d="M844.26,961.58l-.91-13.36a2.23,2.23,0,1,1,4.44-.3h0V948l.86,13.23v.06a2.2,2.2,0,1,1-4.39.3Z" transform="translate(-181 -141.1)"/> <path class="cls-2" d="M842.67,921.46l.21-13.39a2.29,2.29,0,0,1,4.57.08h0v.07l-.26,13.25v.07a2.26,2.26,0,1,1-4.52-.08Z" transform="translate(-181 -141.1)"/> <path class="cls-2" d="M844.39,881.35,845.66,868a2.35,2.35,0,1,1,4.67.45h0v.06L849,881.74v.06a2.33,2.33,0,0,1-4.63-.45Z" transform="translate(-181 -141.1)"/> <path class="cls-2" d="M849.19,841.49l2.24-13.19a2.4,2.4,0,1,1,4.74.81h0v.06l-2.25,13.07v.06a2.39,2.39,0,0,1-4.71-.81Z" transform="translate(-181 -141.1)"/> <path class="cls-2" d="M856.78,802.09l3.07-12.92a2.47,2.47,0,1,1,4.8,1.14h0v.05l-3.09,12.82v.05a2.45,2.45,0,0,1-4.76-1.14Z" transform="translate(-181 -141.1)"/> <path class="cls-2" d="M867,763.36l4.1-12.76a2.53,2.53,0,0,1,4.81,1.55h0l0,.06-4.09,12.61,0,.07a2.51,2.51,0,0,1-4.77-1.54Z" transform="translate(-181 -141.1)"/> <path class="cls-2" d="M880.31,725.45l5.1-12.38a2.59,2.59,0,1,1,4.78,2h0l0,.06-5.09,12.24,0,.06a2.56,2.56,0,1,1-4.74-2Z" transform="translate(-181 -141.1)"/> <path class="cls-2" d="M896.6,688.73l6.07-11.94a2.65,2.65,0,1,1,4.72,2.4h0l0,.07-6,11.8,0,.06a2.63,2.63,0,0,1-4.68-2.39Z" transform="translate(-181 -141.1)"/> <path class="cls-2" d="M915.74,653.41l7-11.44a2.7,2.7,0,1,1,4.61,2.82h0l0,.06-6.94,11.29,0,.06a2.68,2.68,0,0,1-4.58-2.8Z" transform="translate(-181 -141.1)"/> <path class="cls-2" d="M937.53,619.65l7.82-10.87a2.77,2.77,0,1,1,4.49,3.23h0l0,.06L942,622.81l0,.05a2.74,2.74,0,1,1-4.45-3.21Z" transform="translate(-181 -141.1)"/> <path class="cls-2" d="M961.79,587.64l8.6-10.26a2.78,2.78,0,0,1,4.27,3.57h0l0,0-8.52,10.16,0,.05a2.78,2.78,0,0,1-4.26-3.57Z" transform="translate(-181 -141.1)"/> <path class="cls-2" d="M988.31,557.47l9.29-9.64a2.79,2.79,0,1,1,4,3.88h0l0,0-9.22,9.54,0,0a2.79,2.79,0,1,1-4-3.87Z" transform="translate(-181 -141.1)"/> <path class="cls-2" d="M1016.84,529.21l9.93-9a2.8,2.8,0,1,1,3.76,4.16h0l0,0-9.83,8.89,0,0a2.8,2.8,0,1,1-3.76-4.15Z" transform="translate(-181 -141.1)"/> <path class="cls-2" d="M1047.19,502.92l10.49-8.32a2.82,2.82,0,1,1,3.5,4.42h0l0,0-10.39,8.23,0,0a2.82,2.82,0,1,1-3.5-4.41Z" transform="translate(-181 -141.1)"/> <path class="cls-2" d="M1079.17,478.64l11-7.64a2.83,2.83,0,1,1,3.23,4.65h0l-.05,0-10.9,7.56,0,0a2.83,2.83,0,0,1-3.23-4.65Z" transform="translate(-181 -141.1)"/> <path class="cls-2" d="M1112.6,456.41l11.43-7a2.85,2.85,0,0,1,3,4.87h0l0,0-11.34,6.88,0,0a2.84,2.84,0,1,1-3-4.86Z" transform="translate(-181 -141.1)"/> <path class="cls-2" d="M1147.32,436.26l11.83-6.25a2.86,2.86,0,0,1,2.67,5.06h0l0,0L1150,441.28l0,0a2.85,2.85,0,1,1-2.66-5.05Z" transform="translate(-181 -141.1)"/> <path class="cls-2" d="M1183.18,418.22l12.18-5.54a2.87,2.87,0,0,1,2.38,5.23h0l-.06,0-12.08,5.48,0,0a2.87,2.87,0,1,1-2.37-5.22Z" transform="translate(-181 -141.1)"/> <path class="cls-2" d="M1220,402.34l12.49-4.81a2.89,2.89,0,0,1,2.08,5.39h0l0,0-12.39,4.76-.05,0a2.88,2.88,0,0,1-2.07-5.38Z" transform="translate(-181 -141.1)"/> <path class="cls-2" d="M1257.79,388.67l12.75-4.05a2.9,2.9,0,0,1,1.76,5.52h0l-.06,0-12.65,4,0,0a2.9,2.9,0,1,1-1.75-5.52Z" transform="translate(-181 -141.1)"/> <path class="cls-2" d="M1296.29,377.29l13-3.28a2.91,2.91,0,0,1,1.42,5.65h0l-.06,0-12.87,3.23,0,0a2.91,2.91,0,1,1-1.42-5.64Z" transform="translate(-181 -141.1)"/> <path class="cls-2" d="M1335.42,368.28l13.16-2.45a2.92,2.92,0,0,1,1.07,5.75h-.06l-13,2.42h-.07a2.92,2.92,0,1,1-1.06-5.74Z" transform="translate(-181 -141.1)"/> <path class="cls-2" d="M1375,361.77l13.3-1.59a2.94,2.94,0,1,1,.7,5.83H1389l-13.17,1.57h-.06a2.94,2.94,0,0,1-.7-5.83Z" transform="translate(-181 -141.1)"/> <path class="cls-2" d="M1415,357.9l13.38-.67a3,3,0,0,1,.29,5.9h-.07l-13.24.66h-.07a2.95,2.95,0,0,1-.29-5.89Z" transform="translate(-181 -141.1)"/> <path class="cls-2" d="M1455.2,356.85l13.4.32a3,3,0,0,1-.14,5.93h-.08l-13.25-.32h-.07a3,3,0,0,1,.14-5.92Z" transform="translate(-181 -141.1)"/> <path class="cls-2" d="M1495.35,358.84c4.45.43,8.9.86,13.33,1.38a3,3,0,0,1-.68,5.92h0c-4.4-.51-8.79-.93-13.18-1.36h0a3,3,0,1,1,.57-5.92Z" transform="translate(-181 -141.1)"/> <path class="cls-2" d="M1535.21,363.87l13.2,2.29a3,3,0,1,1-1,5.89h-.07l-13.06-2.27h-.07a3,3,0,0,1,1-5.89Z" transform="translate(-181 -141.1)"/> <path class="cls-2" d="M1574.64,371.64l13,3.21a3,3,0,0,1-1.43,5.83h0l-.07,0-12.86-3.18h-.07a3,3,0,0,1,1.44-5.83Z" transform="translate(-181 -141.1)"/> <path class="cls-2" d="M1613.41,382.2l12.74,4.14a3,3,0,1,1-1.86,5.74h0l-.07,0-12.6-4.11-.07,0a3,3,0,1,1,1.86-5.73Z" transform="translate(-181 -141.1)"/> <path class="cls-2" d="M1651.32,395.55l12.4,5.06a3,3,0,1,1-2.29,5.61h0l-.07,0-12.26-5-.07,0a3,3,0,1,1,2.29-5.6Z" transform="translate(-181 -141.1)"/> <path class="cls-2" d="M1688.15,411.62l12,5.94a3,3,0,1,1-2.7,5.45h0l-.06,0-11.88-5.88-.07,0a3,3,0,0,1,2.7-5.45Z" transform="translate(-181 -141.1)"/> <path class="cls-2" d="M1723.74,430.27l11.57,6.75a3.06,3.06,0,0,1-3.08,5.28h0l-.06,0-11.45-6.69-.06,0a3.05,3.05,0,0,1,3.08-5.27Z" transform="translate(-181 -141.1)"/> <path class="cls-2" d="M1758,451.28l11.1,7.49a3.07,3.07,0,1,1-3.44,5.09h0l-.05,0-11-7.42,0,0a3.06,3.06,0,0,1,3.43-5.08Z" transform="translate(-181 -141.1)"/> <path class="cls-2" d="M1790.8,474.41l10.63,8.14a3.09,3.09,0,0,1-3.75,4.9h0l0,0-10.53-8.07,0,0a3.08,3.08,0,0,1,3.74-4.89Z" transform="translate(-181 -141.1)"/> <path class="cls-2" d="M1822.22,499.4l10.17,8.69a3.1,3.1,0,0,1-4,4.71h0l0,0-10.08-8.64,0,0a3.09,3.09,0,0,1,4-4.7Z" transform="translate(-181 -141.1)"/> <path class="cls-2" d="M1852.29,526l9.74,9.15a3.11,3.11,0,0,1-4.26,4.53h0l0,0-9.67-9.1,0,0a3.11,3.11,0,1,1,4.26-4.52Z" transform="translate(-181 -141.1)"/> <path class="cls-2" d="M1881.12,553.84l9.36,9.54a3.12,3.12,0,1,1-4.46,4.37h0l0,0-9.3-9.49,0,0a3.12,3.12,0,1,1,4.45-4.37Z" transform="translate(-181 -141.1)"/> <path class="cls-2" d="M1908.85,582.78l9,9.84a3.14,3.14,0,0,1-4.62,4.24h0l0,0-9-9.8,0,0a3.13,3.13,0,0,1,4.61-4.23Z" transform="translate(-181 -141.1)"/> <path class="cls-2" d="M1935.67,612.54l8.77,10.06a3.14,3.14,0,1,1-4.74,4.13h0l-8.73-10h0a3.14,3.14,0,1,1,4.74-4.13Z" transform="translate(-181 -141.1)"/> <path class="cls-2" d="M1961.78,642.89l8.58,10.21a3.16,3.16,0,0,1-4.84,4.07h0v0L1957,647h0a3.15,3.15,0,1,1,4.83-4.06Z" transform="translate(-181 -141.1)"/> <path class="cls-2" d="M1987.41,673.61l8.48,10.28a3.17,3.17,0,1,1-4.89,4h0l-8.47-10.28a3.17,3.17,0,1,1,4.89-4Z" transform="translate(-181 -141.1)"/> <path class="cls-2" d="M2012.83,704.47l8.48,10.27a3.19,3.19,0,1,1-4.91,4.07h0l-8.48-10.29a3.18,3.18,0,1,1,4.91-4Z" transform="translate(-181 -141.1)"/> <path class="cls-2" d="M2038.35,735.2l8.59,10.16h0a3.2,3.2,0,0,1-4.89,4.14h0l-8.61-10.19a3.2,3.2,0,1,1,4.88-4.13Z" transform="translate(-181 -141.1)"/> <path class="cls-2" d="M2064.34,765.47l8.84,9.92,0,0a3.22,3.22,0,1,1-4.8,4.28h0l-8.88-10a3.21,3.21,0,1,1,4.79-4.27Z" transform="translate(-181 -141.1)"/> <path class="cls-2" d="M2091.25,794.86l9.26,9.5,0,0a3.23,3.23,0,1,1-4.62,4.51h0l-9.34-9.59a3.22,3.22,0,0,1,4.62-4.5Z" transform="translate(-181 -141.1)"/> <path class="cls-2" d="M2119.6,822.73l9.88,8.8.08.06a3.24,3.24,0,0,1-4.31,4.84h0l-10-8.93a3.23,3.23,0,0,1,4.3-4.83Z" transform="translate(-181 -141.1)"/> <path class="cls-2" d="M2150.05,848.12l10.72,7.67.12.08a3.25,3.25,0,0,1-3.79,5.29h0l-10.95-7.84a3.25,3.25,0,1,1,3.79-5.28Z" transform="translate(-181 -141.1)"/> <path class="cls-2" d="M2183.2,869.53q5.78,3.13,11.72,5.91a3.27,3.27,0,0,1-2.76,5.92h0q-6.12-2.86-12.07-6.1a3.26,3.26,0,0,1,3.11-5.73Z" transform="translate(-181 -141.1)"/> <path class="cls-2" d="M2219.34,884.89q6.26,1.92,12.63,3.37a3.28,3.28,0,0,1-1.45,6.4h0q-6.63-1.51-13.11-3.52a3.27,3.27,0,0,1,1.93-6.25Z" transform="translate(-181 -141.1)"/> <path class="cls-2" d="M2257.8,892q6.52.44,13.06.35A3.3,3.3,0,0,1,2271,899h0q-6.8.07-13.57-.38a3.29,3.29,0,0,1,.43-6.56Z" transform="translate(-181 -141.1)"/> <path class="cls-2" d="M2295.72,887.49a79,79,0,0,0,11.48-5.59,3.3,3.3,0,1,1,3.36,5.69h0a85.74,85.74,0,0,1-12.45,6.06,3.3,3.3,0,0,1-2.39-6.16Z" transform="translate(-181 -141.1)"/> <path class="cls-2" d="M2327.22,865.84a107.58,107.58,0,0,0,8.33-9.87,3.32,3.32,0,0,1,5.32,4h0a113.35,113.35,0,0,1-8.86,10.48,3.31,3.31,0,1,1-4.79-4.58Z" transform="translate(-181 -141.1)"/> <path class="cls-2" d="M2348.62,833.65a119.47,119.47,0,0,0,4.61-12.1,3.33,3.33,0,0,1,6.34,2,124.15,124.15,0,0,1-4.87,12.79,3.33,3.33,0,1,1-6.08-2.71Z" transform="translate(-181 -141.1)"/> <path class="cls-2" d="M2358.17,796.26c.26-4.3.26-8.65.11-13a3.19,3.19,0,0,1,6.37-.24c.18,4.51.21,9,0,13.62a3.23,3.23,0,1,1-6.45-.34Z" transform="translate(-181 -141.1)"/> <path class="cls-2" d="M2355.87,757.05l-2-13.06,0-.1a3,3,0,0,1,6-1l2.18,13.26a3.09,3.09,0,0,1-6.09,1v0Z" transform="translate(-181 -141.1)"/> <path class="cls-2" d="M2348.59,718.05l-3.07-12.9,0-.07a2.74,2.74,0,0,1,5.31-1.32l3.37,13a2.87,2.87,0,1,1-5.56,1.44v0Z" transform="translate(-181 -141.1)"/> <path class="cls-2" d="M2338.42,679.6l-4-12.63,0-.07a2.32,2.32,0,0,1,4.4-1.45l4.34,12.66a2.46,2.46,0,1,1-4.65,1.6v0Z" transform="translate(-181 -141.1)"/> <path class="cls-2" d="M2325.28,642.07c-1.66-4.09-3.41-8.15-5.26-12.15a1.69,1.69,0,0,1,3-1.47c2,4,3.92,8,5.74,12.12a1.92,1.92,0,0,1-3.5,1.56Z" transform="translate(-181 -141.1)"/> </g> <g> <polygon class="cls-6" points="2126.32 408.31 2104 441.73 2090.96 412.24 2126.32 408.31"/> <path class="cls-15" d="M2169.82,429.83l37.39,139.47a10.18,10.18,0,0,0,12.83,7.09l138.62-42.82a4.08,4.08,0,0,0,.64-7.54Z" transform="translate(-181 -141.1)"/> <polygon class="cls-6" points="2126.31 408.3 1988.82 288.73 2103.96 415.28 2098.16 424.82 2126.31 408.3"/> <polygon class="cls-6" points="2090.68 419.32 2104 441.73 2103.96 415.28 2090.68 419.32"/> </g> </g> </g></svg>