<svg class="animated" id="agreement-svg" xmlns="http://www.w3.org/2000/svg" viewBox="0 0 500 500" version="1.1" xmlns:xlink="http://www.w3.org/1999/xlink"><style>svg#agreement-svg:not(.animated) .animable {opacity: 0;}svg#agreement-svg.animated #ele29x8paq12 {animation: 1.9s 1 forwards cubic-bezier(.36,-0.01,.5,1.38) slideUp;animation-delay: 0.5s;opacity: 0}svg#agreement-svg.animated #elpcn0drewav {animation: 1.9s 1 forwards cubic-bezier(.36,-0.01,.5,1.38) slideUp;animation-delay: 0.08260869565217391s;opacity: 0}svg#agreement-svg.animated #el9953paha5fu {animation: 1.9s 1 forwards cubic-bezier(.36,-0.01,.5,1.38) slideUp;animation-delay: 0.16521739130434782s;opacity: 0}svg#agreement-svg.animated #elrksftt5j2ri {animation: 1.9s 1 forwards cubic-bezier(.36,-0.01,.5,1.38) slideUp;animation-delay: 0.24782608695652172s;opacity: 0}svg#agreement-svg.animated #eltroerpllyhk {animation: 1.9s 1 forwards cubic-bezier(.36,-0.01,.5,1.38) slideUp;animation-delay: 0.33043478260869563s;opacity: 0}svg#agreement-svg.animated #elwbh6h6cmdlp {animation: 1.9s 1 forwards cubic-bezier(.36,-0.01,.5,1.38) slideUp;animation-delay: 0.4130434782608695s;opacity: 0}svg#agreement-svg.animated #eld0637vuyfrn {animation: 1.9s 1 forwards cubic-bezier(.36,-0.01,.5,1.38) slideUp;animation-delay: 0.49565217391304345s;opacity: 0}svg#agreement-svg.animated #elbc0c6ipl35h {animation: 1.9s 1 forwards cubic-bezier(.36,-0.01,.5,1.38) slideUp;animation-delay: 0.5782608695652174s;opacity: 0}svg#agreement-svg.animated #elbrj3czmcj {animation: 1.9s 1 forwards cubic-bezier(.36,-0.01,.5,1.38) slideUp;animation-delay: 0.6608695652173913s;opacity: 0}svg#agreement-svg.animated #el7sbcsamjoww {animation: 1.9s 1 forwards cubic-bezier(.36,-0.01,.5,1.38) slideUp;animation-delay: 0.7434782608695651s;opacity: 0}svg#agreement-svg.animated #elyu17yzrv50r {animation: 1.9s 1 forwards cubic-bezier(.36,-0.01,.5,1.38) slideUp;animation-delay: 0.826086956521739s;opacity: 0}svg#agreement-svg.animated #eltws7s4loj6d {animation: 1.9s 1 forwards cubic-bezier(.36,-0.01,.5,1.38) slideUp;animation-delay: 0.908695652173913s;opacity: 0}svg#agreement-svg.animated #el4544tb5m6wj {animation: 1.9s 1 forwards cubic-bezier(.36,-0.01,.5,1.38) slideUp;animation-delay: 0.9913043478260869s;opacity: 0}svg#agreement-svg.animated #elnw13ltnd01s {animation: 1.9s 1 forwards cubic-bezier(.36,-0.01,.5,1.38) slideUp;animation-delay: 1.0739130434782609s;opacity: 0}svg#agreement-svg.animated #el1iqn5waddt9h {animation: 1.9s 1 forwards cubic-bezier(.36,-0.01,.5,1.38) slideUp;animation-delay: 1.1565217391304348s;opacity: 0}svg#agreement-svg.animated #elz9ao1b7h1j {animation: 1.9s 1 forwards cubic-bezier(.36,-0.01,.5,1.38) slideUp;animation-delay: 1.2391304347826086s;opacity: 0}svg#agreement-svg.animated #elcivusxib2r {animation: 1.9s 1 forwards cubic-bezier(.36,-0.01,.5,1.38) slideUp;animation-delay: 1.3217391304347825s;opacity: 0}svg#agreement-svg.animated #el1akielorf3si {animation: 1.9s 1 forwards cubic-bezier(.36,-0.01,.5,1.38) slideUp;animation-delay: 1.4043478260869564s;opacity: 0}svg#agreement-svg.animated #elrv28x6ymz57 {animation: 1.9s 1 forwards cubic-bezier(.36,-0.01,.5,1.38) slideUp;animation-delay: 1.4869565217391303s;opacity: 0}svg#agreement-svg.animated #el5v29aocdxpj {animation: 1.9s 1 forwards cubic-bezier(.36,-0.01,.5,1.38) slideUp;animation-delay: 1.5695652173913042s;opacity: 0}svg#agreement-svg.animated #elcmfispeq1j {animation: 1.9s 1 forwards cubic-bezier(.36,-0.01,.5,1.38) slideUp;animation-delay: 1.652173913043478s;opacity: 0}svg#agreement-svg.animated #elrl9m86zs8yj {animation: 1.9s 1 forwards cubic-bezier(.36,-0.01,.5,1.38) slideUp;animation-delay: 1.7347826086956522s;opacity: 0}svg#agreement-svg.animated #elgbzigj48vmh {animation: 1.9s 1 forwards cubic-bezier(.36,-0.01,.5,1.38) slideUp;animation-delay: 1.817391304347826s;opacity: 0}svg#agreement-svg.animated #freepik--Agreement--inject-8 {animation: 1.9s 1 forwards cubic-bezier(.36,-0.01,.5,1.38) slideUp,6s Infinite  linear floating;animation-delay: 0.5s,2.4s;opacity: 0}svg#agreement-svg.animated #freepik--character-2--inject-8 {animation: 1s 1 forwards cubic-bezier(.36,-0.01,.5,1.38) slideRight;animation-delay: 0s;}svg#agreement-svg.animated #freepik--character-1--inject-8 {animation: 1s 1 forwards cubic-bezier(.36,-0.01,.5,1.38) slideLeft;animation-delay: 0s;}            @keyframes slideUp {                0% {                    opacity: 0;                    transform: translateY(30px);                }                100% {                    opacity: 1;                    transform: inherit;                }            }                    @keyframes floating {                0% {                    opacity: 1;                    transform: translateY(0px);                }                50% {                    transform: translateY(-10px);                }                100% {                    opacity: 1;                    transform: translateY(0px);                }            }                    @keyframes slideRight {                0% {                    opacity: 0;                    transform: translateX(30px);                }                100% {                    opacity: 1;                    transform: translateX(0);                }            }                    @keyframes slideLeft {                0% {                    opacity: 0;                    transform: translateX(-30px);                }                100% {                    opacity: 1;                    transform: translateX(0);                }            }        </style><g id="freepik--background-complete--inject-8" class="animable animator-active" style="transform-origin: 250px 228.23px;"><rect y="382.4" width="500" height="0.25" style="fill: rgb(235, 235, 235); transform-origin: 250px 382.525px;" id="elqjzuk8u2dq" class="animable"></rect><rect x="52.46" y="391.92" width="26" height="0.25" style="fill: rgb(235, 235, 235); transform-origin: 65.46px 392.045px;" id="elzomoxr8dnkr" class="animable"></rect><rect x="146.33" y="389.21" width="54.1" height="0.25" style="fill: rgb(235, 235, 235); transform-origin: 173.38px 389.335px;" id="elt6k5qt74s4k" class="animable"></rect><rect x="79.46" y="401.21" width="26.32" height="0.25" style="fill: rgb(235, 235, 235); transform-origin: 92.62px 401.335px;" id="elwxn5uvn6ni" class="animable"></rect><rect x="430.67" y="399.53" width="19.23" height="0.25" style="fill: rgb(235, 235, 235); transform-origin: 440.285px 399.655px;" id="elmtzef7o7yt" class="animable"></rect><rect x="391.47" y="399.53" width="30.29" height="0.25" style="fill: rgb(235, 235, 235); transform-origin: 406.615px 399.655px;" id="el4iwy7wacam3" class="animable"></rect><rect x="258.23" y="395.31" width="54.56" height="0.25" style="fill: rgb(235, 235, 235); transform-origin: 285.51px 395.435px;" id="el7ibyhtu9tzv" class="animable"></rect><path d="M237,337.8H43.91a5.71,5.71,0,0,1-5.7-5.71V60.66A5.71,5.71,0,0,1,43.91,55H237a5.71,5.71,0,0,1,5.71,5.71V332.09A5.71,5.71,0,0,1,237,337.8ZM43.91,55.2a5.46,5.46,0,0,0-5.45,5.46V332.09a5.46,5.46,0,0,0,5.45,5.46H237a5.47,5.47,0,0,0,5.46-5.46V60.66A5.47,5.47,0,0,0,237,55.2Z" style="fill: rgb(235, 235, 235); transform-origin: 140.46px 196.4px;" id="elj6ypbojmh" class="animable"></path><path d="M453.31,337.8H260.21a5.72,5.72,0,0,1-5.71-5.71V60.66A5.72,5.72,0,0,1,260.21,55h193.1A5.71,5.71,0,0,1,459,60.66V332.09A5.71,5.71,0,0,1,453.31,337.8ZM260.21,55.2a5.47,5.47,0,0,0-5.46,5.46V332.09a5.47,5.47,0,0,0,5.46,5.46h193.1a5.47,5.47,0,0,0,5.46-5.46V60.66a5.47,5.47,0,0,0-5.46-5.46Z" style="fill: rgb(235, 235, 235); transform-origin: 356.75px 196.4px;" id="elvkerlgeif5o" class="animable"></path><rect x="413.75" y="277.34" width="27.5" height="105.06" style="fill: rgb(230, 230, 230); transform-origin: 427.5px 329.87px;" id="elsgp65ptenu" class="animable"></rect><polygon points="436.03 382.4 441.25 382.4 441.25 367.54 430.55 367.54 436.03 382.4" style="fill: rgb(240, 240, 240); transform-origin: 435.9px 374.97px;" id="elmtl21gi0kjn" class="animable"></polygon><rect x="256.83" y="277.34" width="27.5" height="105.06" style="fill: rgb(230, 230, 230); transform-origin: 270.58px 329.87px;" id="elgisa1d0rmts" class="animable"></rect><rect x="279.77" y="277.34" width="161.48" height="95.94" style="fill: rgb(240, 240, 240); transform-origin: 360.51px 325.31px;" id="el0d454yb303xa" class="animable"></rect><g id="elcxymjkxnixo"><rect x="272.83" y="294.52" width="72.5" height="47.87" style="fill: rgb(230, 230, 230); transform-origin: 309.08px 318.455px; transform: rotate(-90deg);" class="animable"></rect></g><path d="M313.81,286.36h-9.47a15,15,0,0,1-10.88-4.67h31.23A15,15,0,0,1,313.81,286.36Z" style="fill: rgb(240, 240, 240); transform-origin: 309.075px 284.025px;" id="elclgt91gl477" class="animable"></path><g id="elhalf5x0fjpq"><rect x="324.26" y="294.52" width="72.5" height="47.87" style="fill: rgb(230, 230, 230); transform-origin: 360.51px 318.455px; transform: rotate(-90deg);" class="animable"></rect></g><path d="M365.73,286.36h-9.47a15,15,0,0,1-10.87-4.67h31.22A15,15,0,0,1,365.73,286.36Z" style="fill: rgb(240, 240, 240); transform-origin: 361px 284.025px;" id="ellynsvq75n37" class="animable"></path><g id="el4ift73noz4"><rect x="375.7" y="294.52" width="72.5" height="47.87" style="fill: rgb(230, 230, 230); transform-origin: 411.95px 318.455px; transform: rotate(-90deg);" class="animable"></rect></g><path d="M417.17,286.36H407.7a15,15,0,0,1-10.88-4.67H428A15,15,0,0,1,417.17,286.36Z" style="fill: rgb(240, 240, 240); transform-origin: 412.41px 284.025px;" id="elrgy2gxqhv9j" class="animable"></path><polygon points="284.99 382.4 279.77 382.4 279.77 367.54 290.47 367.54 284.99 382.4" style="fill: rgb(240, 240, 240); transform-origin: 285.12px 374.97px;" id="elo44e7qs2jf" class="animable"></polygon><rect x="68.26" y="73.99" width="151.5" height="141.9" style="fill: rgb(230, 230, 230); transform-origin: 144.01px 144.94px;" id="el20jiptbv0do" class="animable"></rect><rect x="70.8" y="73.99" width="154.4" height="141.9" style="fill: rgb(240, 240, 240); transform-origin: 148px 144.94px;" id="elabja2gzrl7w" class="animable"></rect><rect x="68.26" y="215.89" width="151.5" height="10.11" style="fill: rgb(230, 230, 230); transform-origin: 144.01px 220.945px;" id="el6pq6mdalo9i" class="animable"></rect><rect x="79.86" y="215.89" width="154.4" height="10.11" style="fill: rgb(240, 240, 240); transform-origin: 157.06px 220.945px;" id="el87vsz1vovcj" class="animable"></rect><g id="elbe8pwzorj8"><rect x="84.67" y="75.35" width="126.66" height="139.17" style="fill: rgb(250, 250, 250); transform-origin: 148px 144.935px; transform: rotate(90deg);" class="animable"></rect></g><polygon points="92.99 208.27 137.7 81.61 158.8 81.61 114.09 208.27 92.99 208.27" style="fill: rgb(255, 255, 255); transform-origin: 125.895px 144.94px;" id="elidens3grs6h" class="animable"></polygon><path d="M81.94,165.3a.55.55,0,0,0,.55-.55V86.56a.55.55,0,0,0-.55-.54.54.54,0,0,0-.54.54v78.19A.55.55,0,0,0,81.94,165.3Z" style="fill: rgb(240, 240, 240); transform-origin: 81.945px 125.66px;" id="elmvwsf75bwi" class="animable"></path><polygon points="118.63 208.27 163.34 81.61 171.56 81.61 126.86 208.27 118.63 208.27" style="fill: rgb(255, 255, 255); transform-origin: 145.095px 144.94px;" id="el5rnqy64wsul" class="animable"></polygon><g id="elx50xcrmplq"><rect x="153.77" y="144.46" width="126.66" height="0.97" style="fill: rgb(230, 230, 230); transform-origin: 217.1px 144.945px; transform: rotate(90deg);" class="animable"></rect></g><g id="elcurjr9deyza"><polygon points="227 94.74 75.5 94.74 74.8 84.57 226.3 84.57 227 94.74" style="fill: rgb(230, 230, 230); opacity: 0.5; transform-origin: 150.9px 89.655px;" class="animable"></polygon></g><g id="eldwpb97zfru9"><polygon points="227 102.18 75.5 102.18 74.8 92.01 226.3 92.01 227 102.18" style="fill: rgb(230, 230, 230); opacity: 0.5; transform-origin: 150.9px 97.095px;" class="animable"></polygon></g><g id="elc6qp0a2c6bk"><polygon points="227 111.11 75.5 111.11 74.8 100.94 226.3 100.94 227 111.11" style="fill: rgb(230, 230, 230); opacity: 0.5; transform-origin: 150.9px 106.025px;" class="animable"></polygon></g><g id="el5td826xahk"><polygon points="227 121.05 75.5 121.05 74.8 110.88 226.3 110.88 227 121.05" style="fill: rgb(230, 230, 230); opacity: 0.5; transform-origin: 150.9px 115.965px;" class="animable"></polygon></g><g id="ellc01zohgzh"><polygon points="227 132.96 75.5 132.96 74.8 122.79 226.3 122.79 227 132.96" style="fill: rgb(230, 230, 230); opacity: 0.5; transform-origin: 150.9px 127.875px;" class="animable"></polygon></g><g id="elqr6q48zvxqh"><polygon points="227 146.35 75.5 146.35 74.8 136.18 226.3 136.18 227 146.35" style="fill: rgb(230, 230, 230); opacity: 0.5; transform-origin: 150.9px 141.265px;" class="animable"></polygon></g><rect x="183.79" y="288.2" width="44.84" height="94.2" style="fill: rgb(230, 230, 230); transform-origin: 206.21px 335.3px;" id="elctn9hoe4rwu" class="animable"></rect><polygon points="224.12 382.4 228.63 382.4 228.63 369.57 219.39 369.57 224.12 382.4" style="fill: rgb(240, 240, 240); transform-origin: 224.01px 375.985px;" id="eln5rvei2qdq" class="animable"></polygon><rect x="73.49" y="288.2" width="44.84" height="94.2" style="fill: rgb(230, 230, 230); transform-origin: 95.91px 335.3px;" id="el0itqprnpcef9" class="animable"></rect><rect x="114.39" y="288.2" width="114.23" height="86.33" style="fill: rgb(240, 240, 240); transform-origin: 171.505px 331.365px;" id="el9c9kb3kcyy8" class="animable"></rect><rect x="117.89" y="292.02" width="107.24" height="23.68" style="fill: rgb(230, 230, 230); transform-origin: 171.51px 303.86px;" id="elibnhl2umbx" class="animable"></rect><path d="M176.57,299.38H166.44c-4.4,0-8.6-2.92-11.63-8.08h33.4C185.18,296.46,181,299.38,176.57,299.38Z" style="fill: rgb(240, 240, 240); transform-origin: 171.51px 295.34px;" id="elmmehwt3qzii" class="animable"></path><polygon points="118.9 382.4 114.39 382.4 114.39 369.57 123.63 369.57 118.9 382.4" style="fill: rgb(240, 240, 240); transform-origin: 119.01px 375.985px;" id="el0fw295bbpop" class="animable"></polygon><rect x="117.89" y="319.52" width="107.24" height="23.68" style="fill: rgb(230, 230, 230); transform-origin: 171.51px 331.36px;" id="el182qczlszc6" class="animable"></rect><path d="M176.57,326.88H166.44c-4.4,0-8.6-2.92-11.63-8.08h33.4C185.18,324,181,326.88,176.57,326.88Z" style="fill: rgb(240, 240, 240); transform-origin: 171.51px 322.84px;" id="elz3n134z4k3a" class="animable"></path><rect x="117.89" y="347.02" width="107.24" height="23.68" style="fill: rgb(230, 230, 230); transform-origin: 171.51px 358.86px;" id="eln93fo736azk" class="animable"></rect><path d="M176.57,354.38H166.44c-4.4,0-8.6-2.92-11.63-8.08h33.4C185.18,351.46,181,354.38,176.57,354.38Z" style="fill: rgb(240, 240, 240); transform-origin: 171.51px 350.34px;" id="el8i49c59bk9u" class="animable"></path><rect x="322.61" y="93.47" width="87.06" height="116.44" style="fill: rgb(230, 230, 230); transform-origin: 366.14px 151.69px;" id="elhz42hf78z26" class="animable"></rect><rect x="323.83" y="93.47" width="91.5" height="116.44" style="fill: rgb(240, 240, 240); transform-origin: 369.58px 151.69px;" id="el51oe8l8acfu" class="animable"></rect><g id="el2izzh6so2gb"><rect x="324.02" y="118.6" width="91.11" height="66.17" style="fill: rgb(255, 255, 255); transform-origin: 369.575px 151.685px; transform: rotate(90deg);" class="animable"></rect></g><g id="ell7law4nqeiq"><rect x="356.61" y="151.19" width="91.11" height="0.99" style="fill: rgb(230, 230, 230); transform-origin: 402.165px 151.685px; transform: rotate(90deg);" class="animable"></rect></g><path d="M370.81,132.42H351a.74.74,0,0,0-.74.73v19.77a18.06,18.06,0,0,0,18,18h19.77a.74.74,0,0,0,.74-.74V150.45A18.05,18.05,0,0,0,370.81,132.42Zm-2.47,37.07a16.58,16.58,0,0,1-16.56-16.57v-19h19a16.59,16.59,0,0,1,16.57,16.56Z" style="fill: rgb(240, 240, 240); transform-origin: 369.515px 151.67px;" id="elytp21u3ayqo" class="animable"></path></g><g id="freepik--Shadow--inject-8" class="animable" style="transform-origin: 250px 416.24px;"><ellipse id="freepik--path--inject-8" cx="250" cy="416.24" rx="193.89" ry="11.32" style="fill: rgb(245, 245, 245); transform-origin: 250px 416.24px;" class="animable"></ellipse></g><g id="freepik--Agreement--inject-8" class="animable" style="transform-origin: 253.591px 126.07px;"><path d="M246.59,88c-.91-5.52,2.82-10,8.34-10H214.6c-5.52,0-9.25,4.47-8.34,10Z" style="fill: rgb(54, 188, 161); transform-origin: 230.527px 83px;" id="ele29x8paq12" class="animable"></path><g id="elpcn0drewav"><path d="M246.59,88c-.91-5.52,2.82-10,8.34-10H214.6c-5.52,0-9.25,4.47-8.34,10Z" style="opacity: 0.3; transform-origin: 230.527px 83px;" class="animable"></path></g><path d="M254.93,78H214.6a12.28,12.28,0,0,1,11.66,10l8.83,53.32a12.29,12.29,0,0,0,11.66,10h20.34c5.52,0,9.25-4.48,8.34-10L266.59,88A12.28,12.28,0,0,0,254.93,78Z" style="fill: rgb(54, 188, 161); transform-origin: 245.083px 114.66px;" id="el9953paha5fu" class="animable"></path><path d="M255.09,141.35c.91,5.52-2.82,10-8.34,10h40.33a8.25,8.25,0,0,0,8.34-10Z" style="fill: rgb(54, 188, 161); transform-origin: 271.179px 146.352px;" id="elrksftt5j2ri" class="animable"></path><g id="eltroerpllyhk"><path d="M255.09,141.35c.91,5.52-2.82,10-8.34,10h40.33a8.25,8.25,0,0,0,8.34-10Z" style="opacity: 0.3; transform-origin: 271.179px 146.352px;" class="animable"></path></g><path d="M261.58,92.63H232.79a.74.74,0,0,1-.7-.6h0a.49.49,0,0,1,.5-.6h28.79a.74.74,0,0,1,.7.6h0A.49.49,0,0,1,261.58,92.63Z" style="fill: rgb(255, 255, 255); transform-origin: 247.085px 92.03px;" id="elwbh6h6cmdlp" class="animable"></path><path d="M245.63,96.79H233.48a.74.74,0,0,1-.7-.6h0a.49.49,0,0,1,.5-.6h12.15a.74.74,0,0,1,.7.6h0A.5.5,0,0,1,245.63,96.79Z" style="fill: rgb(255, 255, 255); transform-origin: 239.454px 96.1898px;" id="eld0637vuyfrn" class="animable"></path><path d="M256.87,96.79h-8.4a.73.73,0,0,1-.69-.6h0a.49.49,0,0,1,.49-.6h8.4a.73.73,0,0,1,.69.6h0A.49.49,0,0,1,256.87,96.79Z" style="fill: rgb(255, 255, 255); transform-origin: 252.57px 96.19px;" id="elbc0c6ipl35h" class="animable"></path><path d="M263,101H234.17a.73.73,0,0,1-.7-.59h0a.49.49,0,0,1,.5-.6h28.79a.74.74,0,0,1,.7.6h0A.49.49,0,0,1,263,101Z" style="fill: rgb(255, 255, 255); transform-origin: 248.464px 100.405px;" id="elbrj3czmcj" class="animable"></path><path d="M260.81,105.12H234.86a.74.74,0,0,1-.7-.6h0a.5.5,0,0,1,.5-.6h26a.74.74,0,0,1,.7.6h0A.5.5,0,0,1,260.81,105.12Z" style="fill: rgb(255, 255, 255); transform-origin: 247.76px 104.522px;" id="el7sbcsamjoww" class="animable"></path><path d="M253,109.28H235.55a.74.74,0,0,1-.7-.6h0a.49.49,0,0,1,.5-.59h17.46a.75.75,0,0,1,.7.59h0A.5.5,0,0,1,253,109.28Z" style="fill: rgb(255, 255, 255); transform-origin: 244.18px 108.685px;" id="elyu17yzrv50r" class="animable"></path><path d="M265,113.45H236.24a.74.74,0,0,1-.7-.6h0a.5.5,0,0,1,.5-.6h28.79a.74.74,0,0,1,.7.6h0A.49.49,0,0,1,265,113.45Z" style="fill: rgb(255, 255, 255); transform-origin: 250.537px 112.851px;" id="eltws7s4loj6d" class="animable"></path><path d="M265.72,117.61H236.93a.74.74,0,0,1-.7-.6h0a.5.5,0,0,1,.5-.6h28.8a.73.73,0,0,1,.69.6h0A.49.49,0,0,1,265.72,117.61Z" style="fill: rgb(255, 255, 255); transform-origin: 251.226px 117.01px;" id="el4544tb5m6wj" class="animable"></path><path d="M255.08,121.77H237.62a.75.75,0,0,1-.7-.59h0a.5.5,0,0,1,.5-.6h17.46a.74.74,0,0,1,.7.6h0A.49.49,0,0,1,255.08,121.77Z" style="fill: rgb(255, 255, 255); transform-origin: 246.25px 121.175px;" id="elnw13ltnd01s" class="animable"></path><g id="el1iqn5waddt9h"><rect x="285.28" y="85.28" width="2.12" height="52.43" style="fill: rgb(38, 50, 56); transform-origin: 286.34px 111.495px; transform: rotate(-148.19deg);" class="animable"></rect></g><g id="elz9ao1b7h1j"><rect x="285.28" y="85.28" width="2.12" height="52.43" style="opacity: 0.3; transform-origin: 286.34px 111.495px; transform: rotate(-148.19deg);" class="animable"></rect></g><g id="elcivusxib2r"><rect x="281.68" y="83.05" width="2.12" height="52.43" style="fill: rgb(38, 50, 56); transform-origin: 282.74px 109.265px; transform: rotate(-148.19deg);" class="animable"></rect></g><g id="el1akielorf3si"><rect x="281.68" y="83.05" width="2.12" height="52.43" style="opacity: 0.3; transform-origin: 282.74px 109.265px; transform: rotate(-148.19deg);" class="animable"></rect></g><g id="elrv28x6ymz57"><rect x="283.48" y="84.17" width="2.12" height="52.43" style="fill: rgb(38, 50, 56); transform-origin: 284.54px 110.385px; transform: rotate(-148.19deg);" class="animable"></rect></g><polygon points="267.97 135.28 269.59 136.29 273.42 134.34 268.02 130.99 267.97 135.28" style="fill: rgb(255, 139, 123); transform-origin: 270.695px 133.64px;" id="el5v29aocdxpj" class="animable"></polygon><polygon points="267.95 137.13 269.59 136.29 267.97 135.28 267.95 137.13" style="fill: rgb(38, 50, 56); transform-origin: 268.77px 136.205px;" id="elcmfispeq1j" class="animable"></polygon><path d="M267,137.5h-.07a8.87,8.87,0,0,1-3.45-2.54,15.05,15.05,0,0,0-1.89-1.71.57.57,0,0,0-.73,0,.48.48,0,0,0,0,.65c.24.36.51.7.78,1a.75.75,0,0,1,.09.89.69.69,0,0,1-.79.25,11.73,11.73,0,0,1-1.12-.43.17.17,0,0,0-.24.24l.05.13a.83.83,0,0,1-.08.82.84.84,0,0,1-.74.33,129.74,129.74,0,0,0-13.21.05.25.25,0,0,1,0-.5,130.72,130.72,0,0,1,13.26-.05.31.31,0,0,0,.3-.12.34.34,0,0,0,0-.34l-.05-.11a.67.67,0,0,1,.91-.91,8,8,0,0,0,1.06.41.18.18,0,0,0,.22,0,.24.24,0,0,0-.05-.29c-.29-.34-.56-.7-.81-1.06a1,1,0,0,1,.06-1.29,1,1,0,0,1,1.36,0,14.25,14.25,0,0,1,2,1.77A8.56,8.56,0,0,0,267,137a.25.25,0,0,1,.16.32A.25.25,0,0,1,267,137.5Z" style="fill: rgb(255, 255, 255); transform-origin: 256.262px 135.077px;" id="elrl9m86zs8yj" class="animable"></path><polygon points="262.71 174.14 269.4 162.57 256.03 162.57 262.71 174.14" style="fill: rgb(54, 188, 161); transform-origin: 262.715px 168.355px;" id="elgbzigj48vmh" class="animable"></polygon></g><g id="freepik--character-2--inject-8" class="animable" style="transform-origin: 305.832px 268.87px;"><path d="M337.78,140.16a14.78,14.78,0,0,0-10.34-3.7c-2.43-4.9-7.44-7.76-12.74-6.79-7.6,1.39-9.92,10.52-4.64,13.85a22.3,22.3,0,0,0,5.62,2.55l0,.24a17.15,17.15,0,0,0-11.28,14.8c-.78,11.32,11.38,17.94,18,11.64A35,35,0,0,0,325,170c1.28,1.8,2.66,3.64,4.15,5.56C345.69,167.94,348.48,149.39,337.78,140.16Z" style="fill: rgb(38, 50, 56); transform-origin: 324.247px 152.521px;" id="elvz5q5amtuu" class="animable"></path><path d="M304.53,184.17c-.1,1.4-.22,2.62-.4,3.9s-.35,2.52-.56,3.77c-.42,2.51-1,5-1.59,7.45a78.67,78.67,0,0,1-5.08,14.49l-.21.44c-.08.17-.1.23-.25.53a8.5,8.5,0,0,1-.89,1.4,9,9,0,0,1-2.29,2,13.39,13.39,0,0,1-4.68,1.71,29.62,29.62,0,0,1-8.23.11,66.9,66.9,0,0,1-14.83-3.57l1.1-4c2.31.35,4.72.67,7.08.88a61.48,61.48,0,0,0,7,.36,25.86,25.86,0,0,0,6.38-.68,6.25,6.25,0,0,0,2.11-.95,1.42,1.42,0,0,0,.39-.43.64.64,0,0,0,.06-.16l.28-.72c.42-1.07.83-2.15,1.18-3.26s.72-2.21,1.07-3.32c.63-2.25,1.25-4.5,1.76-6.8s.93-4.6,1.32-6.92.7-4.72.93-6.88Z" style="fill: rgb(255, 181, 115); transform-origin: 285.025px 201.862px;" id="elmfj1lf1ag4g" class="animable"></path><path d="M298.84,174.16c-3.38.85-5.74,14.74-5.74,14.74l9.3,6.32s8.92-14,6.32-17.71C306,173.64,303.76,172.9,298.84,174.16Z" style="fill: rgb(38, 50, 56); transform-origin: 301.148px 184.408px;" id="elopzmorydmye" class="animable"></path><g id="eltdjc7h52xd"><polygon points="299.14 177.26 296.55 191.25 301.77 194.8 299.14 177.26" style="opacity: 0.2; transform-origin: 299.16px 186.03px;" class="animable"></polygon></g><path d="M263.14,212.58,256.83,215l7.13,4.3s4.55-2.63,4.43-6l-.7-.4A5.31,5.31,0,0,0,263.14,212.58Z" style="fill: rgb(255, 181, 115); transform-origin: 262.611px 215.757px;" id="el0j5kp30617j" class="animable"></path><g id="el40q7bcebjv5"><path d="M262.67,212.89,259.55,214a17.06,17.06,0,0,0-1.79.72s2.06.86,3.09.28a17.37,17.37,0,0,0,4.67-.28Z" style="opacity: 0.1; transform-origin: 261.64px 214.045px;" class="animable"></path></g><polygon points="252.9 219.69 258.27 224.16 263.95 219.34 256.83 215.04 252.9 219.69" style="fill: rgb(255, 181, 115); transform-origin: 258.425px 219.6px;" id="elydbm7oo2o8" class="animable"></polygon><polygon points="317.09 407.88 308.91 407.88 308.36 388.92 316.55 388.92 317.09 407.88" style="fill: rgb(255, 181, 115); transform-origin: 312.725px 398.4px;" id="elee1mcoxzz3d" class="animable"></polygon><path d="M308.63,406.93h9.19a.65.65,0,0,1,.66.56l1,7.28a1.31,1.31,0,0,1-1.31,1.45c-3.2-.05-4.75-.24-8.8-.24-2.48,0-9.63.26-13.07.26s-3.62-3.4-2.19-3.71c6.42-1.38,11-3.28,13.11-5.1A2.18,2.18,0,0,1,308.63,406.93Z" style="fill: rgb(38, 50, 56); transform-origin: 306.377px 411.585px;" id="eludmcu20aeqn" class="animable"></path><g id="elzh9wvq7m0uk"><g style="opacity: 0.2; transform-origin: 312.595px 393.81px;" class="animable"><polygon points="308.36 388.92 308.64 398.7 316.83 398.7 316.55 388.92 308.36 388.92" id="elykb77iayqc8" class="animable" style="transform-origin: 312.595px 393.81px;"></polygon></g></g><path d="M298.84,174.16s-3.9,1.37,3.91,49.41H336c-.56-13.53-.57-21.88,5.9-49.65a97.47,97.47,0,0,0-14.12-1.86,105.58,105.58,0,0,0-15.1,0C306.19,172.65,298.84,174.16,298.84,174.16Z" style="fill: rgb(38, 50, 56); transform-origin: 319.883px 197.68px;" id="el86vn2mzdwet" class="animable"></path><path d="M321.74,187.33a14.8,14.8,0,0,1-7.71-2.44.24.24,0,0,1-.06-.34.25.25,0,0,1,.35-.07,14.22,14.22,0,0,0,8.27,2.32c1.09-.69,8.63-5.72,9.2-14.43a.25.25,0,0,1,.27-.23.25.25,0,0,1,.23.27c-.58,8.91-8,13.93-9.49,14.84a.21.21,0,0,1-.11,0C322.37,187.32,322.05,187.33,321.74,187.33Z" style="fill: rgb(255, 255, 255); transform-origin: 323.108px 179.735px;" id="elc5kvcc6jcen" class="animable"></path><path d="M307.59,185.79a.2.2,0,0,1-.13,0,3.16,3.16,0,0,1-1.22-2.38c-.47-3.05.66-8.38,3-11.14a.25.25,0,0,1,.36,0,.25.25,0,0,1,0,.35c-2.22,2.59-3.37,7.8-2.92,10.74a3,3,0,0,0,.93,2,15.55,15.55,0,0,0,4-1.27.26.26,0,0,1,.33.13.25.25,0,0,1-.13.33A15.53,15.53,0,0,1,307.59,185.79Z" style="fill: rgb(255, 255, 255); transform-origin: 309.048px 178.997px;" id="elfadr3y8cb6r" class="animable"></path><path d="M326.28,155.06c-.95,4.85-1.9,13.76,1.5,17,0,0-1.33,4.93-10.36,4.93-9.93,0-4.74-4.93-4.74-4.93,5.41-1.3,5.27-5.32,4.33-9.09Z" style="fill: rgb(255, 181, 115); transform-origin: 319.552px 166.025px;" id="el8f2q0ji5mhy" class="animable"></path><path d="M327.77,172.06a105.58,105.58,0,0,0-15.1,0l-1,.1c-1.21,2.28-1.51,5.79,1.38,11,0,0,13.24-5.34,16.69-10.92C329.1,172.14,328.44,172.09,327.77,172.06Z" style="fill: rgb(255, 181, 115); transform-origin: 320.268px 177.475px;" id="elhj5befa27bt" class="animable"></path><g id="elcx48p4y3g7l"><path d="M322.5,158.29,317,163a14.92,14.92,0,0,1,.47,2.68c2.07-.3,4.91-2.57,5.13-4.74A7.17,7.17,0,0,0,322.5,158.29Z" style="opacity: 0.2; transform-origin: 319.839px 161.985px;" class="animable"></path></g><path d="M331.52,146.64c-1.85,7.91-2.47,11.3-7.21,14.71-7.12,5.14-16.43,1.14-17-7.17-.5-7.47,2.62-19.16,11-21A11.09,11.09,0,0,1,331.52,146.64Z" style="fill: rgb(255, 181, 115); transform-origin: 319.549px 148.274px;" id="elxq53i2k66tf" class="animable"></path><path d="M302.75,223.57s-6.46,63.07-5.92,88c.56,26,10.07,85.19,10.07,85.19H318s-1.75-57.71-.77-83.21c1.07-27.81,9.9-90,9.9-90Z" style="fill: rgb(54, 188, 161); transform-origin: 311.964px 310.155px;" id="elzc7w3my3rv9" class="animable"></path><g id="ely7c0gfgd1n"><path d="M302.75,223.57s-6.46,63.07-5.92,88c.56,26,10.07,85.19,10.07,85.19H318s-1.75-57.71-.77-83.21c1.07-27.81,9.9-90,9.9-90Z" style="fill: rgb(255, 255, 255); opacity: 0.3; transform-origin: 311.964px 310.155px;" class="animable"></path></g><polygon points="318.93 397.2 305.94 397.2 304.99 393.06 319.54 392.55 318.93 397.2" style="fill: rgb(38, 50, 56); transform-origin: 312.265px 394.875px;" id="elsen1knwa6lm" class="animable"></polygon><g id="elyeld1pvdxyc"><path d="M317.09,239.26c-8.16,16.43-1.64,46.4,1.25,57.55,1.48-16.74,4-37.22,5.93-52.25C323,236.06,320.86,231.69,317.09,239.26Z" style="opacity: 0.2; transform-origin: 318.7px 266.086px;" class="animable"></path></g><polygon points="355.36 407.88 347.17 407.88 344.17 388.92 352.35 388.92 355.36 407.88" style="fill: rgb(255, 181, 115); transform-origin: 349.765px 398.4px;" id="eljft99z8wr" class="animable"></polygon><path d="M346.77,406.93H356a.76.76,0,0,1,.72.56l2,7.28a1.14,1.14,0,0,1-1.13,1.45c-3.21-.05-4.78-.24-8.83-.24-2.49,0-9.6.26-13,.26s-4.06-3.4-2.67-3.71c6.24-1.38,10.52-3.28,12.45-5.1A1.9,1.9,0,0,1,346.77,406.93Z" style="fill: rgb(38, 50, 56); transform-origin: 345.586px 411.585px;" id="elps30kazjes8" class="animable"></path><g id="elw22gb39ktp"><g style="opacity: 0.2; transform-origin: 349.04px 393.81px;" class="animable"><polygon points="344.17 388.92 345.72 398.7 353.91 398.7 352.36 388.92 344.17 388.92" id="eltn5bl2k3veb" class="animable" style="transform-origin: 349.04px 393.81px;"></polygon></g></g><path d="M312,223.57s6.87,63.07,10.65,88c3.93,26,21.13,85.19,21.13,85.19H354.8s-9.24-57.71-11.57-83.21c-2.54-27.81-6.93-90-6.93-90Z" style="fill: rgb(54, 188, 161); transform-origin: 333.4px 310.155px;" id="elu82f1fjj6oj" class="animable"></path><g id="elv9ci4f3zjrt"><path d="M312,223.57s6.87,63.07,10.65,88c3.93,26,21.13,85.19,21.13,85.19H354.8s-9.24-57.71-11.57-83.21c-2.54-27.81-6.93-90-6.93-90Z" style="fill: rgb(255, 255, 255); opacity: 0.3; transform-origin: 333.4px 310.155px;" class="animable"></path></g><polygon points="355.81 397.2 342.82 397.2 341.33 393.06 355.81 392.55 355.81 397.2" style="fill: rgb(38, 50, 56); transform-origin: 348.57px 394.875px;" id="elkc419n9uat" class="animable"></polygon><path d="M343.88,408.36a3.36,3.36,0,0,1-2.05-.5,1.21,1.21,0,0,1-.47-.95.52.52,0,0,1,.26-.51c.93-.55,4.41,1.11,4.8,1.31a.21.21,0,0,1,.13.2.16.16,0,0,1-.13.16A13.26,13.26,0,0,1,343.88,408.36Zm-1.68-1.69a.68.68,0,0,0-.35.07.2.2,0,0,0-.1.21.81.81,0,0,0,.3.62c.56.45,1.91.52,3.69.22A11.68,11.68,0,0,0,342.2,406.67Z" style="fill: rgb(54, 188, 161); transform-origin: 343.953px 407.33px;" id="el0x41223qemu" class="animable"></path><path d="M346.38,408.07h-.08c-1-.45-3.19-2.21-3.16-3.14,0-.22.13-.49.66-.55a1.56,1.56,0,0,1,1.11.34,6.3,6.3,0,0,1,1.64,3.15.19.19,0,0,1-.06.18A.2.2,0,0,1,346.38,408.07ZM344,404.75h-.11c-.35,0-.36.18-.36.22,0,.56,1.47,1.95,2.54,2.55A5.1,5.1,0,0,0,344.7,405,1.13,1.13,0,0,0,344,404.75Z" style="fill: rgb(54, 188, 161); transform-origin: 344.847px 406.223px;" id="elshlp83lovj" class="animable"></path><path d="M318.41,146.59c-.11.65-.55,1.12-1,1s-.69-.66-.57-1.31.54-1.12,1-1.05S318.52,145.94,318.41,146.59Z" style="fill: rgb(38, 50, 56); transform-origin: 317.624px 146.416px;" id="elij0pgpa8kc" class="animable"></path><path d="M311.05,145.34c-.11.65-.55,1.12-1,1s-.68-.65-.57-1.31.54-1.12,1-1S311.16,144.69,311.05,145.34Z" style="fill: rgb(38, 50, 56); transform-origin: 310.265px 145.185px;" id="ele46a1qliwva" class="animable"></path><path d="M310.66,144.1l-1.49-.72S309.77,144.74,310.66,144.1Z" style="fill: rgb(38, 50, 56); transform-origin: 309.915px 143.826px;" id="elswgz4b62qta" class="animable"></path><path d="M313.12,146.9a17.67,17.67,0,0,1-3,3.76,2.88,2.88,0,0,0,2.25.83Z" style="fill: rgb(237, 137, 62); transform-origin: 311.62px 149.199px;" id="elmyzimz3gwi8" class="animable"></path><path d="M315.45,154.64a5.56,5.56,0,0,1-1-.09.19.19,0,0,1-.16-.22.2.2,0,0,1,.23-.16,5.23,5.23,0,0,0,4.54-1.3.19.19,0,0,1,.28,0,.19.19,0,0,1,0,.27A5.46,5.46,0,0,1,315.45,154.64Z" style="fill: rgb(38, 50, 56); transform-origin: 316.842px 153.725px;" id="elh75g8whhord" class="animable"></path><path d="M335.38,134.32a8.28,8.28,0,0,0-3.13-1.34c-.91-7.8-7.16-12.76-14.13-11.19-7.9,1.78-10.65,11.58-5.34,14.92a23.35,23.35,0,0,0,10.3,3.35c.14,6.47,4.17,12,7,12.3C338.16,149.14,340.25,137.75,335.38,134.32Z" style="fill: rgb(38, 50, 56); transform-origin: 324.01px 136.93px;" id="elc5zl4rmzutj" class="animable"></path><path d="M332.44,154.34a6,6,0,0,1-3.61,2.75c-2,.51-3-1.3-2.38-3.18.53-1.69,2.23-4,4.24-3.69A2.68,2.68,0,0,1,332.44,154.34Z" style="fill: rgb(255, 181, 115); transform-origin: 329.578px 153.685px;" id="elpottd9b2ji" class="animable"></path><path d="M321.62,145.59a.39.39,0,0,1-.37-.27c-.53-1.71-2.72-2.45-2.74-2.45a.39.39,0,0,1-.25-.49.38.38,0,0,1,.49-.25c.1,0,2.6.87,3.24,3a.39.39,0,0,1-.25.49Z" style="fill: rgb(38, 50, 56); transform-origin: 320.125px 143.864px;" id="elly0aoa3z8nc" class="animable"></path><path d="M309.42,141.56a.4.4,0,0,1-.34-.19.39.39,0,0,1,.15-.53,3.86,3.86,0,0,1,3.53-.24.39.39,0,0,1-.35.69h0a3.12,3.12,0,0,0-2.8.22A.34.34,0,0,1,309.42,141.56Z" style="fill: rgb(38, 50, 56); transform-origin: 310.981px 140.922px;" id="elm00x9oxi1kr" class="animable"></path><path d="M345.72,183.45c1,4.71,1.66,9.34,2.22,14.07a132.55,132.55,0,0,1,1,14.31c0,.24,0,.74,0,1.18s-.07.8-.12,1.17c-.12.73-.25,1.41-.42,2-.32,1.28-.7,2.47-1.1,3.64-.8,2.33-1.75,4.54-2.71,6.72a141,141,0,0,1-6.51,12.65l-3.76-1.75,2.23-6.58c.75-2.18,1.47-4.38,2.14-6.57s1.32-4.36,1.88-6.5c.27-1.07.5-2.13.66-3.13.08-.5.14-1,.18-1.4,0-.21,0-.4,0-.57l-.05-.57c-.18-2.24-.44-4.49-.71-6.75l-.94-6.8c-.69-4.52-1.46-9.1-2.23-13.57Z" style="fill: rgb(255, 181, 115); transform-origin: 341.63px 211.32px;" id="eltgsi5ixoon" class="animable"></path><path d="M341.9,173.92c3.33,1,7.33,12.48,7.33,12.48l-12.93,9.24s-4.71-9.57-3.31-13.88C334.45,177.28,338.09,172.76,341.9,173.92Z" style="fill: rgb(38, 50, 56); transform-origin: 340.98px 184.688px;" id="elda8xa7ty4z8" class="animable"></path><path d="M305.55,408.36a3.05,3.05,0,0,1-2-.5,1.06,1.06,0,0,1-.35-.95.61.61,0,0,1,.32-.51c1-.55,4.27,1.11,4.64,1.31a.19.19,0,0,1,.1.2.19.19,0,0,1-.15.16A13.91,13.91,0,0,1,305.55,408.36Zm-1.46-1.69a.74.74,0,0,0-.36.07.24.24,0,0,0-.13.21.72.72,0,0,0,.22.62c.5.45,1.85.52,3.66.22A10.43,10.43,0,0,0,304.09,406.67Z" style="fill: rgb(54, 188, 161); transform-origin: 305.726px 407.332px;" id="eldy8jsrkvppn" class="animable"></path><path d="M308.09,408.07H308c-1-.45-2.91-2.21-2.75-3.14,0-.22.19-.49.72-.55a1.44,1.44,0,0,1,1.08.34c1,.86,1.22,3.06,1.22,3.15a.18.18,0,0,1-.08.18A.2.2,0,0,1,308.09,408.07Zm-1.95-3.32H306c-.35,0-.37.18-.38.22-.09.56,1.22,1.95,2.21,2.55a4.47,4.47,0,0,0-1-2.52A1,1,0,0,0,306.14,404.75Z" style="fill: rgb(54, 188, 161); transform-origin: 306.756px 406.222px;" id="el6tu2qvc9xi" class="animable"></path><path d="M318,145.35l-1.49-.72S317.13,146,318,145.35Z" style="fill: rgb(38, 50, 56); transform-origin: 317.255px 145.078px;" id="elu17vr47ezqe" class="animable"></path><path d="M336.5,221.62l.85,3c.12.24-.16.47-.54.47H302.58c-.3,0-.54-.15-.56-.33l-.3-3c0-.21.24-.38.56-.38H336A.61.61,0,0,1,336.5,221.62Z" style="fill: rgb(54, 188, 161); transform-origin: 319.549px 223.235px;" id="el3ddbssv6l13" class="animable"></path><path d="M332,225.38h.9c.18,0,.31-.09.3-.2l-.42-3.87c0-.11-.17-.21-.35-.21h-.9c-.18,0-.32.1-.31.21l.43,3.87C331.64,225.29,331.8,225.38,332,225.38Z" style="fill: rgb(54, 188, 161); transform-origin: 332.21px 223.24px;" id="elyplumku4a1" class="animable"></path><g id="elc6tu6wrzk6h"><g style="opacity: 0.3; transform-origin: 332.21px 223.24px;" class="animable"><path d="M332,225.38h.9c.18,0,.31-.09.3-.2l-.42-3.87c0-.11-.17-.21-.35-.21h-.9c-.18,0-.32.1-.31.21l.43,3.87C331.64,225.29,331.8,225.38,332,225.38Z" style="fill: rgb(255, 255, 255); transform-origin: 332.21px 223.24px;" id="ela9j44vp6kys" class="animable"></path></g></g><path d="M305.12,225.38h.9c.18,0,.32-.09.31-.2l-.43-3.87c0-.11-.17-.21-.35-.21h-.9c-.18,0-.32.1-.3.21l.42,3.87C304.78,225.29,304.94,225.38,305.12,225.38Z" style="fill: rgb(54, 188, 161); transform-origin: 305.339px 223.24px;" id="elfs7muvz4sbt" class="animable"></path><g id="elylez0rn3jf"><path d="M305.12,225.38h.9c.18,0,.32-.09.31-.2l-.43-3.87c0-.11-.17-.21-.35-.21h-.9c-.18,0-.32.1-.3.21l.42,3.87C304.78,225.29,304.94,225.38,305.12,225.38Z" style="fill: rgb(255, 255, 255); opacity: 0.3; transform-origin: 305.339px 223.24px;" class="animable"></path></g><path d="M318.55,225.38h.9c.18,0,.32-.09.3-.2l-.42-3.87c0-.11-.17-.21-.35-.21h-.9c-.18,0-.32.1-.3.21l.42,3.87C318.21,225.29,318.37,225.38,318.55,225.38Z" style="fill: rgb(54, 188, 161); transform-origin: 318.765px 223.24px;" id="el49kascxn0dz" class="animable"></path><g id="el69khvhvso1h"><path d="M318.55,225.38h.9c.18,0,.32-.09.3-.2l-.42-3.87c0-.11-.17-.21-.35-.21h-.9c-.18,0-.32.1-.3.21l.42,3.87C318.21,225.29,318.37,225.38,318.55,225.38Z" style="fill: rgb(255, 255, 255); opacity: 0.3; transform-origin: 318.765px 223.24px;" class="animable"></path></g><path d="M334.47,236.7l-6.35,6.16,8.28.83s3-4.33,1.43-7.35Z" style="fill: rgb(255, 181, 115); transform-origin: 333.202px 240.015px;" id="el49ip1doukoi" class="animable"></path><polygon points="327.18 249.68 334.16 250 336.4 243.69 328.12 242.86 327.18 249.68" style="fill: rgb(255, 181, 115); transform-origin: 331.79px 246.43px;" id="elfuipsoymast" class="animable"></polygon></g><g id="freepik--character-1--inject-8" class="animable" style="transform-origin: 197.897px 265.465px;"><path d="M165.3,409.11a3.3,3.3,0,0,0,2.24-.55.68.68,0,0,0,.1-.76.73.73,0,0,0-.49-.41c-1.18-.33-4,1.13-4.08,1.2a.19.19,0,0,0-.11.18.15.15,0,0,0,.12.14A12.68,12.68,0,0,0,165.3,409.11Zm1.38-1.42a1.15,1.15,0,0,1,.33,0,.42.42,0,0,1,.3.24c.09.22,0,.33,0,.39-.41.47-2.27.48-3.61.29A8.94,8.94,0,0,1,166.68,407.69Z" style="fill: rgb(54, 188, 161); transform-origin: 165.336px 408.237px;" id="elkggob4ahdqs" class="animable"></path><path d="M163.11,408.91h.08c.94-.4,2.93-2,2.92-2.82,0-.2-.11-.44-.58-.49a1.48,1.48,0,0,0-1,.3,5.88,5.88,0,0,0-1.55,2.83.14.14,0,0,0,.05.16A.14.14,0,0,0,163.11,408.91Zm2.23-3h.11c.3,0,.31.15.31.19,0,.5-1.37,1.75-2.36,2.29a4.91,4.91,0,0,1,1.3-2.26A1.09,1.09,0,0,1,165.34,405.93Z" style="fill: rgb(54, 188, 161); transform-origin: 164.541px 407.253px;" id="el4sh3nxfjfua" class="animable"></path><polygon points="155.06 408.74 162.41 408.74 165.64 391.72 158.29 391.72 155.06 408.74" style="fill: rgb(181, 91, 82); transform-origin: 160.35px 400.23px;" id="elue26pbucbms" class="animable"></polygon><path d="M162.48,407.89h-8a.78.78,0,0,0-.7.5l-2.41,6.53a.91.91,0,0,0,.86,1.3c2.91,0,7.11-.21,10.75-.21,4.25,0,3.86.23,8.85.23,3,0,4.3-3.05,3.08-3.33-5.56-1.25-6.21-1.39-10.72-4.45A3,3,0,0,0,162.48,407.89Z" style="fill: rgb(38, 50, 56); transform-origin: 163.324px 412.065px;" id="elra6nxjh0q1" class="animable"></path><g id="elskor0wmp1no"><polygon points="165.64 391.73 163.97 400.5 156.62 400.5 158.29 391.73 165.64 391.73" style="opacity: 0.2; transform-origin: 161.13px 396.115px;" class="animable"></polygon></g><path d="M166.19,225.45,171,230.5l-7.76,2.71s-2.82-4.12-.65-6.94Z" style="fill: rgb(181, 91, 82); transform-origin: 166.385px 229.33px;" id="elp3qnkiabzja" class="animable"></path><polygon points="172.44 237.56 164.76 238.68 163.24 233.21 171 230.5 172.44 237.56" style="fill: rgb(181, 91, 82); transform-origin: 167.84px 234.59px;" id="el80kyh95wfrp" class="animable"></polygon><path d="M137.36,267.36,174.84,269a3.82,3.82,0,0,0,3.79-3l4.48-22.9a2.66,2.66,0,0,0-2.55-3.28l-37.48-1.65a3.82,3.82,0,0,0-3.78,3l-4.49,22.9A2.66,2.66,0,0,0,137.36,267.36Z" style="fill: rgb(38, 50, 56); transform-origin: 158.959px 253.585px;" id="elfoogl3onalk" class="animable"></path><path d="M139.93,274.4l46.3,2a4.1,4.1,0,0,0,4.24-3.73l2.45-28.42a3.71,3.71,0,0,0-3.57-4.07l-46.29-2a4.13,4.13,0,0,0-4.25,3.73l-2.45,28.42A3.72,3.72,0,0,0,139.93,274.4Z" style="fill: rgb(54, 188, 161); transform-origin: 164.64px 257.29px;" id="elhhy58w99tjj" class="animable"></path><g id="el7qhbw5btvtv"><path d="M139.93,274.4l46.3,2a4.1,4.1,0,0,0,4.24-3.73l2.45-28.42a3.71,3.71,0,0,0-3.57-4.07l-46.29-2a4.13,4.13,0,0,0-4.25,3.73l-2.45,28.42A3.72,3.72,0,0,0,139.93,274.4Z" style="opacity: 0.2; transform-origin: 164.64px 257.29px;" class="animable"></path></g><path d="M173.9,247.71h-.12l-13.44-.59h0a2.57,2.57,0,0,1-2.47-2.81l.53-6.13a5,5,0,0,1,5.11-4.48l9,.39a4.8,4.8,0,0,1,4.59,5.23l-.51,5.94A2.72,2.72,0,0,1,173.9,247.71Zm-13-3.58,12.71.56.49-5.64a1.8,1.8,0,0,0-1.73-2l-9-.4a2,2,0,0,0-2,1.75Z" style="fill: rgb(54, 188, 161); transform-origin: 167.489px 240.704px;" id="elsftqgfnglj" class="animable"></path><path d="M191.18,276.65l-46.29-2a4.25,4.25,0,0,1-4-4.1L140.27,242a3.61,3.61,0,0,1,3.82-3.75l46.3,2a4.24,4.24,0,0,1,4,4.1L195,272.9A3.62,3.62,0,0,1,191.18,276.65Z" style="fill: rgb(54, 188, 161); transform-origin: 167.635px 257.45px;" id="el51zuehene4j" class="animable"></path><path d="M177.47,169.52c-.49,1-1.07,2.14-1.59,3.23s-1,2.25-1.55,3.38c-1,2.27-2,4.55-2.86,6.84s-1.66,4.6-2.37,6.89c-.33,1.15-.67,2.29-.92,3.42-.15.57-.28,1.14-.38,1.69l-.16.84c-.06.29-.12.58-.14.78,0,.44-.12.84-.14,1.43s-.07,1.07-.07,1.68c0,1.17,0,2.4,0,3.63.05,2.49.2,5,.35,7.58.29,5.11.72,10.3,1.12,15.42l-9.16,1.48c-1.24-5.21-2.22-10.37-3.1-15.66-.42-2.64-.78-5.3-1.08-8-.14-1.38-.28-2.75-.35-4.2-.06-.69-.07-1.47-.08-2.23s0-1.62.09-2.48a11.48,11.48,0,0,1,.12-1.17l.14-1.1c.08-.74.19-1.46.32-2.16.24-1.44.54-2.83.84-4.22.65-2.75,1.39-5.46,2.27-8.08s1.81-5.22,2.85-7.76c.52-1.27,1-2.53,1.62-3.79s1.11-2.46,1.8-3.84Z" style="fill: rgb(54, 188, 161); transform-origin: 166.228px 195.465px;" id="eligc2d00k3po" class="animable"></path><path d="M197.51,221.87s-7.07,54.93-11.16,77.33C182.09,322.5,167,398.8,167,398.8H154.51s6.34-74.94,9.15-97.82c3.07-25,8-79.11,8-79.11Z" style="fill: rgb(38, 50, 56); transform-origin: 176.01px 310.335px;" id="elbw7gpp05ap" class="animable"></path><path d="M170.08,393.84c.06,0-1.46,5.17-1.46,5.17H153.48l.27-4.61Z" style="fill: rgb(54, 188, 161); transform-origin: 161.781px 396.425px;" id="elrvdroplc87s" class="animable"></path><path d="M203.53,130.65c0,.62.33,1.13.74,1.13s.73-.51.73-1.13-.33-1.12-.73-1.12S203.53,130,203.53,130.65Z" style="fill: rgb(38, 50, 56); transform-origin: 204.265px 130.655px;" id="eluraiezrfug" class="animable"></path><path d="M203.8,131.78a22.28,22.28,0,0,0,3,5.32,3.6,3.6,0,0,1-3,.56Z" style="fill: rgb(160, 39, 36); transform-origin: 205.3px 134.777px;" id="elx1u4etcuc3f" class="animable"></path><path d="M201.33,127.2a.39.39,0,0,0,.21-.06,2.88,2.88,0,0,1,2.6-.48.37.37,0,0,0,.47-.21.36.36,0,0,0-.21-.47,3.61,3.61,0,0,0-3.29.56.37.37,0,0,0-.08.51A.36.36,0,0,0,201.33,127.2Z" style="fill: rgb(38, 50, 56); transform-origin: 202.799px 126.503px;" id="ello91ula21f" class="animable"></path><path d="M183.84,137.52c1,5.38,2.1,15.23-1.66,18.81,0,0,1.47,5.45,11.46,5.45,11,0,5.24-5.45,5.24-5.45-6-1.43-5.83-5.87-4.79-10.05Z" style="fill: rgb(181, 91, 82); transform-origin: 191.284px 149.65px;" id="el0ux0a9g8u4k" class="animable"></path><path d="M180.74,158.2c-.78-1.72-1.65-3.7.14-4.32,2-.68,12.77-1.37,16.49-.09a3.85,3.85,0,0,1,2.67,4.78Z" style="fill: rgb(38, 50, 56); transform-origin: 190.01px 155.821px;" id="elei8prsymwyo" class="animable"></path><path d="M167.71,158.44c-6.43,2.92-10.43,25.06-10.43,25.06l12.61,4a133.92,133.92,0,0,0,6.16-18C178.34,160.26,174.29,155.46,167.71,158.44Z" style="fill: rgb(54, 188, 161); transform-origin: 166.987px 172.529px;" id="el11kvt874luf" class="animable"></path><path d="M246,213.26l7.76,0-1.36,9.28s-6.08-.22-8.84-4.8Z" style="fill: rgb(181, 91, 82); transform-origin: 248.66px 217.9px;" id="els3omxsj0xa8" class="animable"></path><polygon points="261.06 216.49 257.16 223.66 252.36 222.56 253.72 213.28 261.06 216.49" style="fill: rgb(181, 91, 82); transform-origin: 256.71px 218.47px;" id="el9491wxmjjnn" class="animable"></polygon><path d="M182.78,129.33c.47,7.64.36,12.14,4.22,16.06,5.8,5.9,15.23,2.4,17.05-5.23,1.65-6.86.6-18.2-6.88-21.24A10.44,10.44,0,0,0,182.78,129.33Z" style="fill: rgb(181, 91, 82); transform-origin: 193.738px 133.245px;" id="el3s58bwr8b11" class="animable"></path><path d="M181.9,139.72s-6.92-10.38-5.42-17.15c1.37-6.19,15.34-8.4,21.14-7.78,6.16.67,8.56,3.32,5.18,8.66a28.62,28.62,0,0,1-6.25,2.12s3.43,4.21,3.46,7c-1,.52-4.09,1.76-4.09,1.76s-4.38,10.81-4.51,10.79c-1.69-.2-5.6-.26-7,.27A37.46,37.46,0,0,1,181.9,139.72Z" style="fill: rgb(38, 50, 56); transform-origin: 190.302px 130.04px;" id="el26ec9ht4pqm" class="animable"></path><path d="M192.89,133.21a8.68,8.68,0,0,0,3.1,4.59c2,1.5,3.49.08,3.34-2.17-.13-2-1.33-5.23-3.53-5.86S192.31,131,192.89,133.21Z" style="fill: rgb(181, 91, 82); transform-origin: 196.046px 134.033px;" id="elusl4m4zk1hg" class="animable"></path><g id="el7x6n1q81xvg"><path d="M192.21,242.4c-9.83,2.28-8,37.84-6.11,58.11.09-.46.16-.89.24-1.31,2.44-13.34,5.93-38.2,8.36-56.14A4.92,4.92,0,0,0,192.21,242.4Z" style="opacity: 0.3; transform-origin: 189.652px 271.455px;" class="animable"></path></g><path d="M201.72,409.11c.94,0,1.85-.13,2.16-.55a.65.65,0,0,0,0-.76.87.87,0,0,0-.55-.41c-1.22-.33-3.79,1.13-3.9,1.2a.17.17,0,0,0-.08.18.18.18,0,0,0,.14.14A13.29,13.29,0,0,0,201.72,409.11Zm1.17-1.42a1.15,1.15,0,0,1,.33,0,.51.51,0,0,1,.34.24c.13.22.08.33,0,.39-.34.47-2.2.48-3.57.29A7.87,7.87,0,0,1,202.89,407.69Z" style="fill: rgb(54, 188, 161); transform-origin: 201.675px 408.226px;" id="eladml9xiioke" class="animable"></path><path d="M199.5,408.91h.07c.89-.4,2.65-2,2.51-2.82,0-.2-.17-.44-.65-.49a1.3,1.3,0,0,0-1,.3c-.94.77-1.13,2.75-1.14,2.83a.17.17,0,0,0,.07.16A.19.19,0,0,0,199.5,408.91Zm1.79-3h.11c.31,0,.33.15.34.19.08.5-1.12,1.75-2,2.29a4.08,4.08,0,0,1,1-2.26A.92.92,0,0,1,201.29,405.93Z" style="fill: rgb(54, 188, 161); transform-origin: 200.688px 407.253px;" id="elxkpoqh22f7s" class="animable"></path><polygon points="191.42 408.74 198.77 408.74 199.5 391.72 192.16 391.72 191.42 408.74" style="fill: rgb(181, 91, 82); transform-origin: 195.46px 400.23px;" id="elwtwn35wwof" class="animable"></polygon><path d="M198.72,407.89h-8a.65.65,0,0,0-.63.5l-1.45,6.53a1.07,1.07,0,0,0,1.06,1.3c2.89,0,7.07-.21,10.71-.21,4.26,0,7.93.23,12.92.23,3,0,3.85-3.05,2.59-3.33-5.75-1.25-10.44-1.39-15.41-4.45A3.41,3.41,0,0,0,198.72,407.89Z" style="fill: rgb(38, 50, 56); transform-origin: 202.549px 412.065px;" id="elubv6dgwp2js" class="animable"></path><g id="el85v0qznp2lh"><polygon points="199.5 391.73 199.12 400.5 191.77 400.5 192.15 391.73 199.5 391.73" style="opacity: 0.2; transform-origin: 195.635px 396.115px;" class="animable"></polygon></g><path d="M210.62,221.87s1,54.93.21,77.33c-.83,23.3-9,99.6-9,99.6H189.42s-.46-74.94-1-97.82c-.61-25-3.62-79.11-3.62-79.11Z" style="fill: rgb(38, 50, 56); transform-origin: 197.967px 310.335px;" id="elmgffsj4q0zb" class="animable"></path><path d="M204.26,393.84c.05,0-.71,5.17-.71,5.17H188.42L188,394.4Z" style="fill: rgb(54, 188, 161); transform-origin: 196.131px 396.425px;" id="eldmi7xvf6rpw" class="animable"></path><path d="M210.18,158.37s8.82,13.44,1.43,68.11h-41.5c-.27-6,4.74-40.07-1.08-68.49a102.56,102.56,0,0,1,13.15-1.66,145.27,145.27,0,0,1,16.7,0A73.5,73.5,0,0,1,210.18,158.37Z" style="fill: rgb(54, 188, 161); transform-origin: 191.795px 191.285px;" id="elnpzhkau6kk" class="animable"></path><g id="el792ztux4tes"><path d="M214.56,186.34l-8.7-14.42s3.27,20.44,8.28,29.66C214.48,195.81,214.6,190.75,214.56,186.34Z" style="opacity: 0.2; transform-origin: 210.214px 186.75px;" class="animable"></path></g><path d="M218.27,168.89c1.43,4.57,3,9.25,4.61,13.83s3.29,9.13,5.13,13.5l.7,1.62a3.57,3.57,0,0,1,.16.37,2.38,2.38,0,0,0,.14.27,10.69,10.69,0,0,0,1.54,1.82,39.53,39.53,0,0,0,5.07,4c1.88,1.3,3.87,2.56,5.92,3.75s4.17,2.41,6.19,3.46l-3.89,9.08a103,103,0,0,1-14.29-6.52,51.92,51.92,0,0,1-7-4.69,22.7,22.7,0,0,1-3.55-3.58c-.3-.43-.59-.81-.88-1.29s-.61-1.08-.7-1.28l-.88-1.75c-2.29-4.66-4.34-9.32-6.23-14s-3.65-9.39-5.34-14.26Z" style="fill: rgb(54, 188, 161); transform-origin: 226.35px 194.74px;" id="elrksbgil3axi" class="animable"></path><path d="M200.38,161.69c-2.57,6.54,13.06,32.87,13.06,32.87l10.17-9.73s-2.22-8.27-5.18-18.23C215.51,156.81,202.83,155.44,200.38,161.69Z" style="fill: rgb(54, 188, 161); transform-origin: 211.852px 176.229px;" id="elcqpunmtaza5" class="animable"></path></g><defs>     <filter id="active" height="200%">         <feMorphology in="SourceAlpha" result="DILATED" operator="dilate" radius="2"></feMorphology>                <feFlood flood-color="#32DFEC" flood-opacity="1" result="PINK"></feFlood>        <feComposite in="PINK" in2="DILATED" operator="in" result="OUTLINE"></feComposite>        <feMerge>            <feMergeNode in="OUTLINE"></feMergeNode>            <feMergeNode in="SourceGraphic"></feMergeNode>        </feMerge>    </filter>    <filter id="hover" height="200%">        <feMorphology in="SourceAlpha" result="DILATED" operator="dilate" radius="2"></feMorphology>                <feFlood flood-color="#ff0000" flood-opacity="0.5" result="PINK"></feFlood>        <feComposite in="PINK" in2="DILATED" operator="in" result="OUTLINE"></feComposite>        <feMerge>            <feMergeNode in="OUTLINE"></feMergeNode>            <feMergeNode in="SourceGraphic"></feMergeNode>        </feMerge>            <feColorMatrix type="matrix" values="0   0   0   0   0                0   1   0   0   0                0   0   0   0   0                0   0   0   1   0 "></feColorMatrix>    </filter></defs></svg>