<svg id="Layer_1" data-name="Layer 1" xmlns="http://www.w3.org/2000/svg" viewBox="0 0 5000.05 5000"> <defs> <style>.cls-1{fill: #fff;}.cls-2{fill: #b2b2bf;}.cls-3{fill: #ccecfc;}.cls-4{fill: #069ba6;}.cls-5{fill: #0a2e3c;}.cls-6{fill: #124b59;}.cls-7{fill: #e1e1eb;}.cls-8{fill: #f2b92b;}.cls-9{fill: #7d7d7d;}.cls-10{fill: #666664;}.cls-11{fill: #d09d2a;}.cls-12{fill: #dd5036;}.cls-13{fill: #f05a38;}.cls-14{fill: #f7f8f8;}.cls-15{fill: #0b3654;}.cls-16{fill: #124149;}.cls-17{fill: #db4743;}.cls-18{fill: #fffef4;}.cls-19{fill: #cccbc8;}.cls-20{fill: #364a5e;}.cls-21{fill: #f8fbf7;}.cls-22{fill: #f3705a;}.cls-23{fill: #89d5f7;}.cls-24{fill: #2c3d4f;}.cls-25{fill: #0a333f;}.cls-26{fill: #6f3d18;}.cls-27{fill: #b0afb0;}.cls-28{fill: #e0e6e3;}.cls-29{fill: #2c5871;}.cls-30{fill: #a9d8e2;}.cls-31{fill: #c8e9ee;}.cls-32{fill: #8dc3d7;}</style> </defs> <circle class="cls-1" cx="2502.63" cy="2521.81" r="2046.03"/> <path class="cls-1" d="M446.39,2530.15s.17-12.62.51-37.09c.12-6.11.05-13,.39-20.55s.62-15.88,1-24.91.58-18.75,1.3-29.17,1.37-21.54,2.14-33.36c3.46-47.2,8.93-105.4,19.55-173.23a2065.55,2065.55,0,0,1,49.85-230.49c1.47-5.32,2.87-10.7,4.43-16.08s3.21-10.76,4.82-16.2q4.9-16.29,9.92-33c7.29-22.1,14.32-44.88,22.71-67.81,7.89-23.1,17-46.36,26.07-70.23,9.65-23.64,19.26-47.89,30.2-72.18a2033.56,2033.56,0,0,1,164.42-302.5,2067.83,2067.83,0,0,1,578.38-582.6,2098.73,2098.73,0,0,1,199.49-117.58c69.9-36.25,143.44-68.64,219.79-97.38A2001.36,2001.36,0,0,1,2019,532.92c20.42-5.19,41.14-9.41,61.87-13.95,10.34-2.37,20.83-4.15,31.27-6.2s20.93-4.06,31.45-5.9,21.11-3.48,31.7-5.22l15.88-2.62,16-2.22q16-2.21,32-4.45c10.71-1.38,21.48-2.48,32.24-3.74,21.51-2.67,43.19-4.34,64.92-6.27,10.86-1.08,21.77-1.56,32.7-2.29s21.85-1.45,32.84-2l33-1.22,16.56-.61,16.49-.19,33-.38c11.31,0,22.24.26,33.41.37,22.23.06,44.51,1.21,66.87,2,11.18.29,22.35,1.3,33.54,1.94s22.41,1.28,33.61,2.32c22.41,2.09,44.92,3.76,67.36,6.6,11.24,1.34,22.51,2.5,33.75,4l33.75,4.75c11.29,1.48,22.52,3.38,33.76,5.29s22.53,3.66,33.79,5.7c22.43,4.44,45,8.34,67.44,13.52,45,9.43,89.73,21.2,134.4,33.8,22.25,6.65,44.61,13.12,66.71,20.57,22.25,7,44.22,15,66.31,22.79,11,4,21.94,8.3,32.92,12.42l16.46,6.28c5.48,2.12,10.9,4.42,16.34,6.63l32.7,13.41,32.42,14.23A2056.49,2056.49,0,0,1,4468.36,1935.16c58,192.13,87.29,393.6,87.11,595s-29.92,402.74-88.3,594.62A2055.45,2055.45,0,0,1,3334.63,4403.54l-32.38,14.12q-16.34,6.65-32.64,13.31c-5.44,2.2-10.84,4.48-16.31,6.6l-16.44,6.21c-11,4.11-21.85,8.41-32.86,12.33-22.06,7.71-44,15.66-66.2,22.59-22.06,7.39-44.37,13.8-66.57,20.4-44.58,12.46-89.2,24.11-134.11,33.42-22.35,5.12-44.9,9-67.27,13.35-11.23,2-22.49,3.74-33.71,5.62s-22.42,3.75-33.68,5.18l-33.65,4.68c-11.21,1.46-22.45,2.6-33.65,3.91-22.39,2.8-44.84,4.41-67.18,6.44-11.16,1-22.35,1.48-33.52,2.25s-22.29,1.6-33.45,1.88c-22.29.77-44.56,1.87-66.66,1.89-11.09.07-22.06.31-33.19.3s-22.07-.3-33.08-.46l-16.51-.22-16.47-.64q-16.45-.61-32.87-1.27c-10.92-.54-21.82-1.37-32.71-2s-21.76-1.25-32.57-2.35c-21.66-2-43.27-3.69-64.7-6.4-10.73-1.27-21.46-2.38-32.13-3.78l-31.91-4.5-15.92-2.25-15.82-2.64-31.56-5.26c-10.49-1.86-20.91-4-31.33-6s-20.85-3.85-31.15-6.23c-20.64-4.56-41.27-8.81-61.59-14A1991.51,1991.51,0,0,1,1784.18,4447c-76-28.79-149.17-61.19-218.7-97.43A2088,2088,0,0,1,1367.07,4232a2058.1,2058.1,0,0,1-574.44-581A2023.05,2023.05,0,0,1,629.7,3349.87c-10.83-24.19-20.32-48.32-29.88-71.84-9-23.75-18-46.9-25.78-69.89-8.29-22.8-15.23-45.47-22.43-67.46q-5-16.63-9.8-32.83L537,3091.74c-1.53-5.35-2.91-10.7-4.36-16a2049.76,2049.76,0,0,1-49.09-229.19c-10.41-67.46-15.72-125.31-19.07-172.22q-1.11-17.61-2.07-33.15c-.68-10.36-.82-20-1.22-29s-.64-17.22-.92-24.75-.23-14.34-.35-20.41c-.29-24.32-.43-36.86-.43-36.86Zm13.14,0s.17,12.54.51,36.86c.13,6.07,0,12.88.39,20.41s.62,15.79,1,24.75.57,18.63,1.28,29,1.37,21.41,2.13,33.14c3.45,46.92,8.88,104.73,19.42,172.14a2047.87,2047.87,0,0,0,49.55,229c1.44,5.3,2.84,10.65,4.38,16s3.2,10.69,4.81,16.09q4.86,16.2,9.85,32.79c7.24,21.95,14.22,44.59,22.55,67.38,7.85,23,16.88,46.07,25.91,69.77,9.6,23.48,19.14,47.59,30,71.71a2022.35,2022.35,0,0,0,163.39,300.57,2055,2055,0,0,0,574.7,578.88,2077.12,2077.12,0,0,0,198.22,116.84c69.45,36,142.52,68.18,218.38,96.75a1987.88,1987.88,0,0,0,236.18,72.4c20.28,5.16,40.87,9.36,61.46,13.85,10.28,2.37,20.69,4.14,31.08,6.17s20.78,4,31.24,5.87l31.48,5.18,15.79,2.6,15.88,2.21q15.9,2.19,31.83,4.42c10.64,1.37,21.33,2.45,32,3.7,21.37,2.67,42.92,4.32,64.51,6.24,10.8,1.08,21.65,1.55,32.49,2.28s21.73,1.44,32.62,1.95l32.76,1.21,16.41.59,16.46.2,33,.38c10.94,0,22-.25,33.11-.37,22.14-.06,44.24-1.2,66.43-2,11.09-.28,22.21-1.29,33.33-1.92s22.26-1.27,33.4-2.3c22.25-2.09,44.62-3.73,66.93-6.56,11.16-1.34,22.36-2.49,33.54-4s22.33-3.14,33.53-4.73,22.35-3.34,33.54-5.24,22.39-3.65,33.56-5.67c22.29-4.42,44.76-8.29,67-13.44,44.72-9.35,89.15-21.07,133.54-33.57,22.11-6.61,44.32-13,66.28-20.45,22.11-6.94,43.93-14.91,65.89-22.64,10.95-3.92,21.78-8.24,32.7-12.33l16.36-6.24c5.44-2.12,10.82-4.41,16.24-6.6l32.48-13.33,32.22-14.12A2043.5,2043.5,0,0,0,4455.78,3121.33c57.64-190.89,86.72-391,86.55-591.18s-29.74-400.17-87.73-590.82A2042.3,2042.3,0,0,0,3329.29,668.77l-32.16-14-32.43-13.23c-5.41-2.17-10.78-4.45-16.22-6.54l-16.33-6.19c-10.89-4.07-21.7-8.36-32.64-12.25-21.92-7.65-43.7-15.57-65.77-22.45-21.92-7.34-44.08-13.7-66.13-20.25-44.31-12.39-88.64-24-133.25-33.21-22.2-5.08-44.62-8.9-66.85-13.26-11.16-2-22.33-3.73-33.48-5.59s-22.27-3.72-33.46-5.16L2767.14,512c-11.14-1.45-22.32-2.58-33.45-3.88-22.25-2.78-44.55-4.38-66.74-6.4-11.1-1-22.23-1.47-33.31-2.24-11.09-.6-22.15-1.58-33.23-1.85-22.14-.77-44.21-1.88-66.25-1.88-11-.09-22.12-.33-32.87-.31l-33,.46-16.48.22-16.31.63L2402.87,498c-10.85.53-21.68,1.35-32.5,2s-21.62,1.23-32.37,2.32c-21.51,2-43,3.66-64.28,6.34-10.66,1.27-21.31,2.39-31.92,3.78l-31.7,4.47-15.82,2.23-15.72,2.62L2147.2,527c-10.42,1.85-20.77,4-31.13,5.91s-20.71,3.83-30.94,6.2c-20.51,4.54-41,8.75-61.2,13.94a1982.16,1982.16,0,0,0-235.13,72.59c-75.5,28.61-148.2,60.8-217.29,96.81a2075.59,2075.59,0,0,0-197.12,116.73,2045.37,2045.37,0,0,0-570.77,577.26,2008.54,2008.54,0,0,0-161.88,299.27c-10.76,24-20.19,48-29.69,71.37-8.92,23.57-17.87,46.58-25.61,69.42-8.25,22.66-15.13,45.19-22.29,67q-4.92,16.52-9.73,32.61l-4.74,16c-1.52,5.33-2.9,10.63-4.33,15.9a2035.32,2035.32,0,0,0-48.77,227.7c-10.34,67-15.62,124.51-19,171.12q-1.1,17.52-2.06,33c-.66,10.3-.8,19.91-1.2,28.83s-.64,17.1-.9,24.57-.24,14.27-.37,20.3c-.28,24.16-.42,36.63-.42,36.63Z" transform="translate(0.05)"/> <path class="cls-3" d="M3912.66,1464.17c0,199.57,161.78,361.35,361.36,361.35s361.36-161.78,361.36-361.35S4473.59,1102.8,4274,1102.8,3912.66,1264.6,3912.66,1464.17Z" transform="translate(0.05)"/> <ellipse class="cls-3" cx="3398.81" cy="527.1" rx="397.65" ry="397.63" transform="matrix(1, -0.01, 0.01, 1, -2.86, 19.1)"/> <path class="cls-3" d="M1313.91,595.81c0,227.42,184.35,411.78,411.77,411.78s411.8-184.36,411.8-411.78S1953.11,184,1725.68,184,1313.91,368.39,1313.91,595.81Z" transform="translate(0.05)"/> <path class="cls-4" d="M1153.76,1390.49c0,205.86-166.88,372.73-372.74,372.73s-372.74-166.87-372.74-372.73S575.15,1017.76,781,1017.76,1153.76,1184.63,1153.76,1390.49Z" transform="translate(0.05)"/> <path class="cls-4" d="M4167.6,2717.88c0,153.67,124.57,278.25,278.25,278.25s278.26-124.58,278.26-278.25-124.57-278.25-278.26-278.25S4167.6,2564.2,4167.6,2717.88Z" transform="translate(0.05)"/> <path class="cls-5" d="M1712.89,4563.58c0,143.24,116.1,259.36,259.36,259.36s259.35-116.12,259.35-259.36-116.12-259.34-259.35-259.34S1712.89,4420.34,1712.89,4563.58Z" transform="translate(0.05)"/> <path class="cls-3" d="M3956.42,3811.88c0,199.57,161.78,361.34,361.36,361.34s361.36-161.77,361.36-361.34-161.79-361.37-361.36-361.37S3956.42,3612.3,3956.42,3811.88Z" transform="translate(0.05)"/> <path class="cls-3" d="M640.2,3950.42c114.2,155.31,332.69,188.64,488,74.44s188.64-332.69,74.44-488-332.7-188.64-488-74.44S526,3795.12,640.2,3950.42Z" transform="translate(0.05)"/> <path class="cls-3" d="M206,2617.21c0,199.57,161.78,361.35,361.36,361.35s361.36-161.78,361.36-361.35-161.79-361.36-361.36-361.36S206,2417.64,206,2617.21Z" transform="translate(0.05)"/> <path class="cls-4" d="M3182,4467.71c0,180.22,146.12,326.33,326.34,326.33s326.39-146.11,326.39-326.33-146.12-326.36-326.39-326.36S3182,4287.45,3182,4467.71Z" transform="translate(0.05)"/> <g> <path class="cls-6" d="M3396.13,247.7,3150.68,445.76c1.23.25,5.44,21.33,6.75,21.33l31.89,119.82,410-7.57,34.31-119.88c1.24,0,6.68-13.48,7.91-13.72Z" transform="translate(0.05)"/> <rect class="cls-7" x="3204.01" y="346.57" width="391.58" height="222.03"/> <path class="cls-1" d="M3151,608.14V738.45a21.22,21.22,0,0,0,21.23,21.23h449.37a21.23,21.23,0,0,0,21.24-21.23V608.14a21.24,21.24,0,0,0-21.24-21.23H3611V342.6c0-7.08-7.22-12.82-16.1-12.82h-397c-8.88,0-16.1,5.74-16.1,12.82V586.91h-9.54A21.23,21.23,0,0,0,3151,608.14Zm429.81-239.06c0,10.17-10.42,18.41-23.27,18.41H3235.2c-12.86,0-23.27-8.24-23.27-18.41s10.41-18.4,23.27-18.4h322.3C3570.35,350.68,3580.77,358.91,3580.77,369.08Zm0,53.34c0,10.16-10.42,18.4-23.27,18.4H3235.2c-12.86,0-23.27-8.24-23.27-18.4S3222.34,404,3235.2,404h322.3C3570.35,404,3580.77,412.25,3580.77,422.42Zm0,53.34c0,10.17-10.42,18.41-23.27,18.41H3235.2c-12.86,0-23.27-8.24-23.27-18.41s10.41-18.4,23.27-18.4h322.3C3570.35,457.36,3580.77,465.6,3580.77,475.76Zm0,53.35c0,10.16-10.42,18.4-23.27,18.4H3235.2c-12.86,0-23.27-8.24-23.27-18.4s10.41-18.41,23.27-18.41h322.3C3570.35,510.7,3580.77,518.94,3580.77,529.11Z" transform="translate(0.05)"/> <path class="cls-8" d="M3329.46,594.73l60.08,50a10.25,10.25,0,0,0,13.16,0l60.05-50,164.47,164.44a18.93,18.93,0,0,1-5,1H3170a19.45,19.45,0,0,1-5-1Z" transform="translate(0.05)"/> <path class="cls-8" d="M3149.45,451.88a20.25,20.25,0,0,1,1.23-6.12l162.9,135.74L3150.44,744.66a20.91,20.91,0,0,1-1-5Z" transform="translate(0.05)"/> <path class="cls-8" d="M3641.53,445.74a19.76,19.76,0,0,1,1.27,6.14V739.66a19.56,19.56,0,0,1-1,5L3478.62,581.52Z" transform="translate(0.05)"/> </g> <g> <path class="cls-9" d="M1567.53,762.88,1541,717.08a19.87,19.87,0,0,0-27.15-7.22l-75.06,43.57a92.44,92.44,0,0,1,119-88.89,39.44,39.44,0,0,0,13.07-9l112.47-117,0,0,79.35-82.6a39.72,39.72,0,0,0,8.94-14.7A92.58,92.58,0,0,1,1906.2,333.6l-75.07,43.58a19.86,19.86,0,0,0-7.23,27.14l26.57,45.79a19.88,19.88,0,0,0,27.18,7.23l75-43.58a92.51,92.51,0,0,1-119,88.91,39.55,39.55,0,0,0-13,8.95l-112.48,117,0,0-79.38,82.62a39.51,39.51,0,0,0-8.91,14.71,92.57,92.57,0,0,1-134.59,107.63l75-43.57A19.8,19.8,0,0,0,1567.53,762.88Z" transform="translate(0.05)"/> <g> <path class="cls-10" d="M1451.09,346.76l32.47-32.47,54.59,22.18,22.15,54.61L1776,606.81c9.78,9.78,10.46,25,1.5,34s-24.16,8.29-33.94-1.52L1527.83,423.51l-54.59-22.14Z" transform="translate(0.05)"/> <g> <path class="cls-8" d="M1905.38,849.71c14.7,14.71,37.5,15.71,50.93,2.26l32.47-32.45c13.43-13.45,12.44-36.24-2.26-50.93l-168.41-168.4c-14.69-14.69-37.51-15.7-50.94-2.27l-32.45,32.47c-13.45,13.43-12.43,36.24,2.25,50.93Z" transform="translate(0.05)"/> <g> <path class="cls-11" d="M1945.35,776.07c11.74,11.76,23.43,19.11,26.13,16.41L1978,786c2.68-2.68-4.69-14.39-16.42-26.14L1826.85,625.13c-11.76-11.72-23.47-19.09-26.17-16.41l-6.48,6.51c-2.69,2.67,4.67,14.4,16.42,26.13Z" transform="translate(0.05)"/> <path class="cls-11" d="M1896.66,824.77c11.75,11.74,23.46,19.09,26.13,16.41l6.5-6.5c2.69-2.69-4.66-14.39-16.41-26.14L1778.14,673.83c-11.72-11.74-23.44-19.1-26.12-16.42l-6.5,6.5c-2.68,2.7,4.67,14.4,16.39,26.13Z" transform="translate(0.05)"/> <path class="cls-11" d="M1921,800.44c11.75,11.72,23.45,19.08,26.14,16.4l6.49-6.5c2.68-2.68-4.67-14.37-16.4-26.15L1802.48,649.5c-11.73-11.76-23.43-19.11-26.11-16.43l-6.52,6.5c-2.68,2.68,4.68,14.4,16.4,26.15Z" transform="translate(0.05)"/> </g> </g> </g> </g> <g> <path class="cls-8" d="M1060.33,1441.58a120.61,120.61,0,0,0-.79-13c-4.75-29.69-26-58.33-53-71.16a99.52,99.52,0,0,0-42.06-9.22c-33.9.09-67.9-.19-101.8.09a95.48,95.48,0,0,0-92.49,100c-1,19.59,3.65,39.57,14.12,56.28,16.23,27.17,47.07,45,78.85,45.31,4.41.77,9.51-1.13,13.35,1.66q34.14,24,68.46,47.81c8,5.86,20.56-1.82,18.34-11.73-3.54-12.75-9.69-24.66-13.25-37.54,12.2-.38,24.79.87,36.7-2.4A95.33,95.33,0,0,0,1049,1500.9C1059.08,1483,1061.49,1463,1060.33,1441.58Z" transform="translate(0.05)"/> <g> <path class="cls-12" d="M739.23,1374.48a24.41,24.41,0,0,1-24.35-22.88H688.61a24.39,24.39,0,0,1-48.69,0H613.65a24.4,24.4,0,0,1-48.7,0H446.76c-.21,9.21.1,18.45.46,27.59,2.59,46.94,32.46,91.13,74.72,111.88,20.17,10.37,43.13,14.78,65.7,14.49,16.3.19,32.73-.37,49.06.29-9.8,28-20.45,55.62-30.73,83.46q58.75-40.93,117.36-82.11c1.15-.57,2.2-1.54,3.55-1.54,11.82-.57,23.81.86,35.53-1.53-1.06-5.19-4-9.71-5.28-14.89-6.14-17.47-5.67-36.2-5.08-54.35-1.15-3.75,1.34-7.2,1.52-10.85,4.56-29.14,21.95-55.26,45.7-72.44H763.58A24.4,24.4,0,0,1,739.23,1374.48Z" transform="translate(0.05)"/> <path class="cls-13" d="M842.69,1254.15a.41.41,0,0,0,.1-.13.35.35,0,0,1-.13-.11c-.12-.11-.21-.21-.32-.33a5.88,5.88,0,0,1-.69-.82c-2.2-1.2-3.9-3.07-5.77-4.66-25-22.19-58.48-33.7-91.72-33.51-55.42.09-110.71,0-166.12.09-14.71,1.06-29.49,3.26-43.25,8.94-21.11,7.39-39.45,21.22-54.64,37.45V1261a1,1,0,0,1-.2.21H480c-10.86,13.55-20.69,29.45-26.08,46.06-5.12,14.26-6.83,29.26-7.18,44.35H565c0-.51-.07-1-.07-1.54a24.43,24.43,0,1,1,48.85,0c0,.52,0,1-.08,1.54h26.27c0-.51-.08-1-.08-1.54a24.43,24.43,0,1,1,48.85,0c0,.52,0,1-.08,1.54h26.27c0-.51-.08-1-.08-1.54a24.43,24.43,0,1,1,48.86,0c0,.52,0,1-.08,1.54h35.69a109.38,109.38,0,0,1,50.46-20.24c10.26-1.62,20.73-.57,31-1.16C877.67,1301.6,862.67,1274.71,842.69,1254.15Z" transform="translate(0.05)"/> </g> </g> <g> <path class="cls-4" d="M654.63,3729.64c0,133.62,108.34,242,242,242s242-108.34,242-242-108.33-242-242-242S654.63,3596,654.63,3729.64Z" transform="translate(0.05)"/> <path class="cls-14" d="M1106.39,3729.64c0,115.85-93.93,209.78-209.79,209.78s-209.78-93.93-209.78-209.78,93.93-209.78,209.78-209.78S1106.39,3613.78,1106.39,3729.64Z" transform="translate(0.05)"/> <g> <path class="cls-15" d="M1025.47,3721.23a10,10,0,0,0-8.27-17.06L893.89,3719a10,10,0,1,0,2.4,19.93l123.3-14.8A10,10,0,0,0,1025.47,3721.23Z" transform="translate(0.05)"/> <path class="cls-15" d="M898.64,3736a7.41,7.41,0,0,0,1.65-8.63L820,3578.82c-1.76-3.25-6-4.1-9.51-1.93s-4.92,6.6-3.17,9.84l80.29,148.57c1.75,3.24,6,4.1,9.51,1.92A8.53,8.53,0,0,0,898.64,3736Z" transform="translate(0.05)"/> </g> <path class="cls-15" d="M800,3897a7.82,7.82,0,0,0,.49-.7l113.19-192.27a5,5,0,0,0-1.78-6.88,5.13,5.13,0,0,0-6.88,1.78L791.87,3891.24A5,5,0,0,0,800,3897Z" transform="translate(0.05)"/> <g> <path class="cls-15" d="M1002.59,3809.14" transform="translate(0.05)"/> <path class="cls-15" d="M885.32,3566.58a11.29,11.29,0,1,0,11.28-11.29A11.29,11.29,0,0,0,885.32,3566.58Z" transform="translate(0.05)"/> <path class="cls-15" d="M885.32,3892.69a11.29,11.29,0,1,0,11.28-11.29A11.29,11.29,0,0,0,885.32,3892.69Z" transform="translate(0.05)"/> <path class="cls-15" d="M733.55,3743.71a11.29,11.29,0,1,0-11.29-11.29A11.28,11.28,0,0,0,733.55,3743.71Z" transform="translate(0.05)"/> <path class="cls-15" d="M1059.66,3743.71a11.29,11.29,0,1,0-11.28-11.29A11.29,11.29,0,0,0,1059.66,3743.71Z" transform="translate(0.05)"/> <path class="cls-15" d="M808.23,3590.24a6.19,6.19,0,1,0,6.19-6.2A6.19,6.19,0,0,0,808.23,3590.24Z" transform="translate(0.05)"/> <path class="cls-15" d="M748.65,3651.22a6.2,6.2,0,1,0,6.19-6.19A6.2,6.2,0,0,0,748.65,3651.22Z" transform="translate(0.05)"/> <path class="cls-15" d="M749.28,3811.92a6.19,6.19,0,1,0,6.19-6.19A6.18,6.18,0,0,0,749.28,3811.92Z" transform="translate(0.05)"/> <path class="cls-15" d="M809.17,3871.81a6.19,6.19,0,1,0,6.19-6.19A6.19,6.19,0,0,0,809.17,3871.81Z" transform="translate(0.05)"/> <path class="cls-15" d="M969.56,3872.13a6.19,6.19,0,1,0,6.2-6.2A6.19,6.19,0,0,0,969.56,3872.13Z" transform="translate(0.05)"/> <path class="cls-15" d="M1029.76,3812.23a6.2,6.2,0,1,0,6.2-6.19A6.2,6.2,0,0,0,1029.76,3812.23Z" transform="translate(0.05)"/> <path class="cls-15" d="M1029.45,3651.22a6.2,6.2,0,1,0,6.2-6.19A6.19,6.19,0,0,0,1029.45,3651.22Z" transform="translate(0.05)"/> <path class="cls-15" d="M969.56,3591a6.19,6.19,0,1,0,6.2-6.19A6.19,6.19,0,0,0,969.56,3591Z" transform="translate(0.05)"/> </g> </g> <g> <path class="cls-1" d="M1860.47,4468.1l28.9,9.88s56.29-28.9,81.39-24.33,78.34,18.25,87.47,35,22.06,60.85,0,59.33-31.94-36.51-31.94-41.07-51,3.8-51,3.8S1910.68,4535,1865,4581.42c0,0-32.7-10.64-36.51-24.33Z" transform="translate(0.05)"/> <path class="cls-1" d="M2078.49,4631.77c4,8.2,13.46,11.82,21.06,8.08h0c7.62-3.73,10.53-13.4,6.5-21.61l-4.85-9.91c-4-8.19-13.46-11.81-21.07-8.08h0c-7.61,3.74-10.52,13.41-6.5,21.62Z" transform="translate(0.05)"/> <path class="cls-1" d="M2049.45,4652.16c4.56,9.31,14.9,13.61,23.07,9.6h0c8.17-4,11.1-14.81,6.52-24.11l-5.5-11.24c-4.56-9.29-14.89-13.59-23.06-9.58h0c-8.16,4-11.1,14.8-6.54,24.1Z" transform="translate(0.05)"/> <path class="cls-1" d="M2018.79,4669c4.75,9.71,15.26,14.34,23.43,10.33h0c8.18-4,10.93-15.13,6.16-24.85l-5.75-11.73c-4.76-9.71-15.24-14.34-23.42-10.33h0c-8.17,4-10.93,15.13-6.17,24.85Z" transform="translate(0.05)"/> <g> <path class="cls-1" d="M1990,4690.15c4.75,9.72,15.25,14.35,23.42,10.33h0c8.18-4,10.93-15.13,6.16-24.85l-5.74-11.72c-4.76-9.71-15.25-14.34-23.43-10.33h0c-8.17,4-10.94,15.13-6.16,24.84Z" transform="translate(0.05)"/> <path class="cls-1" d="M1858.19,4595.11l61.07-48.65,56.68-29.17,42.51-5.07s20.21,51.25,46.06,42.12,1.18-68.89,1.18-68.89l42.74-18.1,36.51,89.74-23.58,20.28a292.45,292.45,0,0,1-19.54,23,21.38,21.38,0,0,0-15.33-6.76,19.53,19.53,0,0,0-8.64,2,20.29,20.29,0,0,0-11.08,16.92,21.93,21.93,0,0,0-9.77-2.37,19.8,19.8,0,0,0-8.81,2c-6.53,3.21-10.51,9.64-11.36,16.85a22.37,22.37,0,0,0-11.33-3.27,19.15,19.15,0,0,0-8.57,2c-7.72,3.79-11.78,12.24-11.27,21.24a21.78,21.78,0,0,0-9-2,19.25,19.25,0,0,0-8.58,2c-10.42,5.12-14.25,18.73-8.93,30.75-4.42,2.72-18.18,10.5-25.14,6.7-8.38-4.57-9.13-16.73-9.13-16.73s-16,10.64-28.14,0-5.32-18.25-5.32-18.25-17.51,7.6-25.1,0-5.33-18.26-5.33-18.26-10.64,7.6-22.82-7.61S1858.19,4595.11,1858.19,4595.11Z" transform="translate(0.05)"/> </g> </g> <g> <path class="cls-13" d="M4140.55,3970.85c.36-1,.62-2.06,1.05-3a21.48,21.48,0,0,1,7.29-8.8q23.63-16.3,47.32-32.51c6.42-4.37,12.95-8.55,19.53-12.66a32,32,0,0,1,13.51-4.8,9.68,9.68,0,0,1,6.58,1.32c8.08,5.07,16.25,10,24.4,14.92.47.28.92.61,1.58,1q-57,39.83-113.81,79.52c-.21-.59-.35-1-.45-1.33-1.77-7.07-3.58-14.14-5.33-21.21-.69-2.76-1.28-5.54-1.93-8.33C4140.38,3973.61,4140.46,3972.23,4140.55,3970.85Z" transform="translate(0.05)"/> <path class="cls-13" d="M4387.52,3681.29c-.9,11-2,22-3.16,33-.37,3.66-1,7.29-1.62,10.91a2.87,2.87,0,0,1-3.21,2.72,17.27,17.27,0,0,1-3.92-.45,32.57,32.57,0,0,1-8.66-3.72c-3.35-1.92-6.65-4-9.14-7s-5-6.44-7.5-9.67a3.34,3.34,0,0,1-.69-2.55q3.3-43.71,6.54-87.41a11.49,11.49,0,0,1,3-7.14,23.81,23.81,0,0,1,2.88-2.71,51.85,51.85,0,0,1,19.88-9.54c1.93-.49,3.93-.7,5.89-1l5.18.31c.37.23.74.46,1.14.69,0,.43,0,.83-.08,1.23C4391.89,3626.36,4389.78,3653.82,4387.52,3681.29Z" transform="translate(0.05)"/> <path class="cls-4" d="M4281.42,3942.32a41.22,41.22,0,0,0,16.53,2.83,30.47,30.47,0,0,0,20.21-8.86,69.67,69.67,0,0,0,8.14-9.83c9.14-12.61,17.51-25.74,25.77-38.94,20.11-32.16,39.48-64.76,58.56-97.54a25,25,0,0,0,1.55-3.26,55.09,55.09,0,0,0,4-16.87,39.32,39.32,0,0,0-3.55-20.3,38.64,38.64,0,0,0-13.47-15.19c-1.71-1.15-3.49-2.18-5.31-3.32.05-.61.07-1.25.13-1.87.44-4.86.86-9.74,1.31-14.61q1.93-21.21,3.87-42.43c.84-9.17,1.63-18.33,2.48-27.49q2-22.26,4-44.5c.06-.62.15-1.22.23-1.81a3.09,3.09,0,0,1,.65-.11c.45,0,.91.06,1.37.12a147.29,147.29,0,0,1,22.55,4.77c13.57,4.07,26.33,9.86,37.64,18.51,19.76,15.12,29.94,35.27,31.45,60,.14,2.44.36,4.89.55,7.33l-.9,14.81a19.65,19.65,0,0,0-.4,2c-.78,6.8-1.45,13.6-2.3,20.4-1.07,8.43-2.05,16.89-3.46,25.28-.18,1.16-.38,2.3-.58,3.46-1.7,10-3.54,20-5.6,29.92-2.46,12-5.52,23.89-9,35.67-.31,1-.58,2-.88,3.06-.26.86-.54,1.71-.8,2.56a352.57,352.57,0,0,1-18.2,47.67c-5.36,11.28-11.31,22.24-18.74,32.31-13.73,18.59-28,36.78-43.25,54.15a461,461,0,0,1-34.21,35.25c-4.21,3.84-8.49,7.61-12.89,11.26a234.39,234.39,0,0,1-39.79,27.19c-13.29,7-27.18,12.32-42.09,14.71a59.54,59.54,0,0,1-14.73.81c-5.51-.5-11-.73-16.54-1a19.89,19.89,0,0,1-4.39-.76,296.23,296.23,0,0,1-42.36-16.79,196,196,0,0,1-28.16-16.59c-.5-.35-1-.73-1.55-1.16L4270,3936.52A56.65,56.65,0,0,0,4281.42,3942.32Z" transform="translate(0.05)"/> <path class="cls-13" d="M4037.07,3823.15c0,163.84,132.83,296.67,296.68,296.67s296.68-132.83,296.68-296.67-132.83-296.67-296.68-296.67S4037.07,3659.3,4037.07,3823.15Zm26.25,0c0-149.35,121.07-270.42,270.43-270.42s270.43,121.07,270.43,270.42-121.08,270.42-270.43,270.42S4063.32,3972.49,4063.32,3823.15Z" transform="translate(0.05)"/> </g> <g> <path class="cls-8" d="M3547.39,4430.93c-6.94-7.66-17.19-9.79-22.74-4.74s-13,7.12-16.47,4.61-11.49-14-9.2-21.18-3.86-15.59-13.72-18.78-19.78.11-22.07,7.27-7.72,12.67-12,12.24-16.9-6.4-18.49-13.73-11.13-11.61-21.25-9.42-17.07,10-15.48,17.34-.35,14.81-4.27,16.6-17.85,2.93-22.91-2.65-15.45-4.46-23.12,2.47-9.8,17.17-4.75,22.74,7.13,13,4.64,16.46-14,11.52-21.19,9.22-15.62,3.86-18.79,13.71.11,19.75,7.27,22.06,12.66,7.74,12.24,12.06-6.4,16.9-13.76,18.48-11.58,11.15-9.41,21.25,10,17.08,17.34,15.48,14.85.31,16.61,4.24,2.93,17.85-2.65,22.92-4.48,15.48,2.48,23.12,17.16,9.81,22.73,4.75,13-7.13,16.47-4.62,11.51,14,9.2,21.19,3.88,15.6,13.72,18.77,19.77-.11,22.07-7.26,7.72-12.66,12-12.25,16.88,6.41,18.46,13.77,11.15,11.57,21.27,9.4,17.07-10,15.49-17.34.31-14.83,4.27-16.6,17.85-2.92,22.89,2.68,15.46,4.46,23.13-2.49,9.8-17.19,4.74-22.75-2.57-19.29-.4-23,9.8-4.94,17-2.63,15.63-3.87,18.77-13.71-.1-19.78-7.26-22.09-12.67-7.71-12.23-12,6.39-16.86,13.73-18.44,11.59-11.16,9.42-21.28-10-17.07-17.33-15.49-14.85-.32-16.61-4.25-2.93-17.85,2.66-22.91S3554.35,4438.6,3547.39,4430.93Zm-27.8,121a82,82,0,1,1-52.94-103.16A82,82,0,0,1,3519.59,4551.93Z" transform="translate(0.05)"/> <path class="cls-1" d="M3695.65,4333.07c-4.48-4.94-11.06-6.29-14.62-3.06s-8.36,4.58-10.59,3-7.41-9-5.93-13.61-2.49-10-8.82-12.08-12.73.07-14.2,4.68-5,8.13-7.76,7.88-10.85-4.13-11.88-8.85-7.14-7.47-13.66-6.05-11,6.42-10,11.14-.2,9.53-2.74,10.7-11.47,1.86-14.73-1.72-9.94-2.86-14.86,1.59-6.3,11.05-3.06,14.64,4.59,8.34,3,10.58-9,7.42-13.62,5.93-10,2.49-12.09,8.82.08,12.71,4.69,14.2,8.14,5,7.87,7.75-4.14,10.87-8.85,11.87-7.45,7.18-6.06,13.68,6.42,11,11.16,9.95,9.54.21,10.69,2.75,1.88,11.48-1.71,14.74-2.88,9.94,1.59,14.85,11,6.32,14.63,3.05,8.35-4.57,10.58-3,7.42,9,5.93,13.62,2.49,10,8.82,12.09,12.72-.07,14.19-4.67,5-8.16,7.75-7.87,10.87,4.11,11.88,8.83,7.18,7.45,13.68,6.06,11-6.43,10-11.15.23-9.55,2.75-10.68,11.48-1.9,14.74,1.71,9.93,2.88,14.86-1.58,6.3-11.07,3.06-14.65-1.66-12.4-.27-14.81,6.3-3.17,10.93-1.7,10-2.48,12.06-8.82-.06-12.72-4.67-14.22-8.15-4.95-7.86-7.73,4.11-10.85,8.83-11.87,7.46-7.17,6.06-13.67-6.42-11-11.15-10-9.56-.2-10.69-2.74-1.88-11.49,1.72-14.73S3700.13,4338,3695.65,4333.07Zm-17.88,77.84a52.75,52.75,0,1,1-34.05-66.38A52.75,52.75,0,0,1,3677.77,4410.91Z" transform="translate(0.05)"/> <path class="cls-5" d="M3700,4507.83c-3.44-3.8-8.5-4.85-11.26-2.37s-6.41,3.53-8.13,2.29-5.7-6.91-4.56-10.47-1.91-7.72-6.78-9.29-9.77.07-10.92,3.59-3.81,6.27-5.94,6.06-8.36-3.16-9.13-6.81-5.5-5.71-10.51-4.64-8.45,4.94-7.67,8.58-.16,7.33-2.1,8.21-8.83,1.45-11.33-1.3-7.63-2.22-11.42,1.21-4.85,8.48-2.37,11.24,3.54,6.41,2.3,8.14-6.92,5.69-10.46,4.57-7.72,1.9-9.3,6.78,0,9.76,3.59,10.9,6.27,3.81,6,5.95-3.15,8.35-6.81,9.14-5.72,5.51-4.64,10.5,5,8.46,8.58,7.67,7.34.16,8.2,2.1,1.46,8.82-1.3,11.32-2.21,7.66,1.22,11.42,8.49,4.85,11.24,2.38,6.42-3.56,8.16-2.31,5.67,6.94,4.55,10.48,1.89,7.72,6.76,9.28,9.79-.05,10.92-3.58,3.82-6.28,6-6.06,8.35,3.16,9.12,6.8,5.52,5.73,10.52,4.67,8.43-4.95,7.66-8.58.17-7.34,2.1-8.23,8.83-1.44,11.33,1.33,7.63,2.21,11.42-1.23,4.86-8.5,2.36-11.25-1.28-9.53-.2-11.38,4.84-2.47,8.38-1.29,7.73-1.92,9.27-6.79,0-9.8-3.58-10.94-6.26-3.81-6.05-6,3.18-8.32,6.8-9.11,5.73-5.52,4.65-10.51-4.94-8.44-8.56-7.65-7.35-.17-8.21-2.11-1.45-8.83,1.31-11.33S3703.43,4511.61,3700,4507.83Zm-13.75,59.8a40.54,40.54,0,1,1-26.17-51A40.56,40.56,0,0,1,3686.25,4567.63Z" transform="translate(0.05)"/> </g> <g> <path class="cls-16" d="M407.58,2654.26a49,49,0,1,1,0-97.94h23.58v97.94Z" transform="translate(0.05)"/> <path class="cls-17" d="M401.83,2819a14.07,14.07,0,0,0,14.06,14.08h0A14.08,14.08,0,0,0,430,2819V2391.57a14.07,14.07,0,0,0-14.08-14.07h0a14.07,14.07,0,0,0-14.06,14.07Z" transform="translate(0.05)"/> <path class="cls-17" d="M727.14,2517.36a87.93,87.93,0,1,1,0,175.85h-.6Z" transform="translate(0.05)"/> <path class="cls-16" d="M722.47,2693.51s-36.55,157.57-60.74,161.19-33.86-12.09-26.6-32.65,19.34-135.44,16.92-148.75,74.49,20,74.49,20" transform="translate(0.05)"/> <path class="cls-18" d="M688.57,2517.19h33.9v176.19h-33.9s-177.23-29.67-264.69,138.43v-453C511.34,2546.86,688.57,2517.19,688.57,2517.19Z" transform="translate(0.05)"/> <path class="cls-19" d="M706.48,2546.32s-177.77,30.24-267.27-101.58c0,0,27.82,119.72,264.85,123.35Z" transform="translate(0.05)"/> </g> <g> <g> <path class="cls-20" d="M4035.86,1640.34c0,16.58,13.14,30,29.34,30h404.21c16.2,0,29.33-13.44,29.33-30V1358.53c0-16.58-13.13-30-29.33-30H4065.2c-16.2,0-29.34,13.44-29.34,30Z" transform="translate(0.05)"/> <rect class="cls-21" x="4057.1" y="1357.69" width="420.5" height="283.49"/> <g> <rect class="cls-22" x="4301.31" y="1363.14" width="47.27" height="47.27"/> <rect class="cls-22" x="4242.91" y="1363.14" width="47.27" height="47.27"/> <rect class="cls-22" x="4184.5" y="1363.14" width="47.27" height="47.27"/> <rect class="cls-22" x="4067.7" y="1363.14" width="47.27" height="47.27"/> <rect class="cls-22" x="4126.1" y="1363.14" width="47.27" height="47.27"/> </g> <g> <rect class="cls-22" x="4418.11" y="1419.37" width="47.27" height="47.27"/> <rect class="cls-22" x="4301.31" y="1419.37" width="47.27" height="47.27"/> <rect class="cls-22" x="4359.72" y="1419.37" width="47.26" height="47.27"/> <rect class="cls-22" x="4242.91" y="1419.37" width="47.27" height="47.27"/> <rect class="cls-22" x="4184.5" y="1419.37" width="47.27" height="47.27"/> <rect class="cls-22" x="4067.7" y="1419.37" width="47.27" height="47.27"/> <rect class="cls-22" x="4126.1" y="1419.37" width="47.27" height="47.27"/> </g> <g> <rect class="cls-22" x="4418.11" y="1475.6" width="47.27" height="47.26"/> <rect class="cls-23" x="4301.31" y="1475.6" width="47.27" height="47.26"/> <rect class="cls-22" x="4359.72" y="1475.6" width="47.26" height="47.26"/> <rect class="cls-22" x="4242.91" y="1475.6" width="47.27" height="47.26"/> <rect class="cls-22" x="4184.5" y="1475.6" width="47.27" height="47.26"/> <rect class="cls-22" x="4067.7" y="1475.6" width="47.27" height="47.26"/> <rect class="cls-22" x="4126.1" y="1475.6" width="47.27" height="47.26"/> </g> <g> <rect class="cls-22" x="4418.11" y="1531.83" width="47.27" height="47.26"/> <rect class="cls-22" x="4301.31" y="1531.83" width="47.27" height="47.26"/> <rect class="cls-22" x="4359.72" y="1531.83" width="47.26" height="47.26"/> <rect class="cls-22" x="4242.91" y="1531.83" width="47.27" height="47.26"/> <rect class="cls-22" x="4184.5" y="1531.83" width="47.27" height="47.26"/> <rect class="cls-22" x="4067.7" y="1531.83" width="47.27" height="47.26"/> <rect class="cls-22" x="4126.1" y="1531.83" width="47.27" height="47.26"/> </g> <g> <rect class="cls-22" x="4418.11" y="1588.05" width="47.27" height="47.26"/> <rect class="cls-22" x="4301.31" y="1588.05" width="47.27" height="47.26"/> <rect class="cls-22" x="4359.72" y="1588.05" width="47.26" height="47.26"/> </g> </g> <g> <path class="cls-23" d="M4377.18,1340.18c0,5.93,6.2,10.74,13.86,10.74h0c7.65,0,13.85-4.81,13.85-10.74v-29c0-5.93-6.2-10.74-13.85-10.74h0c-7.66,0-13.86,4.81-13.86,10.74Z" transform="translate(0.05)"/> <path class="cls-23" d="M4294.69,1340.18c0,5.93,6.21,10.74,13.86,10.74h0c7.65,0,13.85-4.81,13.85-10.74v-29c0-5.93-6.2-10.74-13.85-10.74h0c-7.65,0-13.86,4.81-13.86,10.74Z" transform="translate(0.05)"/> <path class="cls-23" d="M4212.21,1340.18c0,5.93,6.2,10.74,13.85,10.74h0c7.65,0,13.85-4.81,13.85-10.74v-29c0-5.93-6.2-10.74-13.85-10.74h0c-7.65,0-13.85,4.81-13.85,10.74Z" transform="translate(0.05)"/> <path class="cls-23" d="M4129.72,1340.18c0,5.93,6.19,10.74,13.84,10.74h0c7.66,0,13.86-4.81,13.86-10.74v-29c0-5.93-6.2-10.74-13.86-10.74h0c-7.65,0-13.84,4.81-13.84,10.74Z" transform="translate(0.05)"/> </g> </g> <g> <path class="cls-24" d="M4278.58,2845.94a29.7,29.7,0,1,0,42.2,41.79l145.87-147.2.17-.18a62.89,62.89,0,0,0,79.93-76.61l-35.43,35.77-35-9.18-9.53-34.85,35.46-35.77a62.79,62.79,0,0,0-76.63,78Zm7.22,25.64a11.33,11.33,0,1,1,11.4,11.3A11.3,11.3,0,0,1,4285.8,2871.58Z" transform="translate(0.05)"/> <path class="cls-1" d="M4301,2718.94l-1.4-51.11,50.31-1.38a132.39,132.39,0,0,1,19.15-50.52l-36.43-34.58,35.25-37.14,36.39,34.48a133.07,133.07,0,0,1,49.44-21.94l-1.37-50.24,51.16-1.4,1.38,50.26a134.34,134.34,0,0,1,50.51,19.21l34.55-36.41,37.12,35.13-34.39,36.51a134.93,134.93,0,0,1,21.9,49.46l50.22-1.38,1.4,51.17-50.22,1.37a137.18,137.18,0,0,1-19.16,50.55l36.33,34.47L4598,2832.59l-36.46-34.48a135,135,0,0,1-49.42,22l1.38,50.21-51.14,1.4-1.38-50.26a136.35,136.35,0,0,1-41-13.72l24.95-24.15a102.42,102.42,0,1,0-59.91-64.86l-24.36,26.69a137.55,137.55,0,0,1-9.37-27.82Z" transform="translate(0.05)"/> </g> <g> <g> <path class="cls-25" d="M1874.72,3663.16c-5.49-21.26-12.94-42-19.67-62.52-8.23-20-16.2-39.81-25.49-58.18a455,455,0,0,0-29-51.84c-9.36-16.34-20.74-30.35-30.43-43.49-20.59-25.71-40.22-44.89-54.89-57-14.87-12.09-24.27-17.52-24.27-17.52s6.38,8.88,16.17,24.68c4.82,8,10.57,17.65,16.8,28.86,6.51,11,12.51,24.29,20,37.9,6.44,14.35,14.09,29.28,21,45.8,7.45,16.13,13.68,33.9,20.88,51.83,7.41,17.86,12.35,37.44,19.5,56.36,5.15,19.7,12,39.14,16.86,59.25,4.46,19.45,10.31,38.52,14,57.88h53.42c-.41-2.68-.81-5.36-1.22-8.05C1885.69,3705.69,1879.33,3684.56,1874.72,3663.16Z" transform="translate(0.05)"/> <path class="cls-25" d="M3196.44,3642.79c7.12-18.92,12.08-38.5,19.49-56.35,7.22-17.92,13.44-35.71,20.88-51.83,6.86-16.52,14.54-31.45,21-45.81,7.52-13.64,13.52-26.92,20-37.9,6.23-11.21,12-20.84,16.79-28.85,9.81-15.82,16.16-24.68,16.16-24.68s-9.38,5.42-24.26,17.51c-14.7,12.16-34.3,31.33-54.89,57-9.68,13.16-21.08,27.17-30.45,43.5a464.32,464.32,0,0,0-29,51.83c-9.28,18.39-17.27,38.15-25.49,58.2-6.74,20.52-14.19,41.25-19.66,62.51-3.47,16.1-7.93,32.05-11.07,48.06H3171c2.87-11.27,5.94-22.55,8.56-34C3184.44,3682,3191.29,3662.52,3196.44,3642.79Z" transform="translate(0.05)"/> <g> <path class="cls-26" d="M1826.55,1973.7s-22.91,534.4-153.39,725.75c0,0,713.22,439.21,1687.36-13.06,0,0-182.66-282.66-126.11-656.65Z" transform="translate(0.05)"/> <rect class="cls-1" x="2246.8" y="2620.73" width="510.45" height="603.89"/> <polygon class="cls-27" points="2246.02 2938.13 2772.27 2643.37 2245.89 2522.61 2246.02 2938.13"/> <g> <path class="cls-28" d="M1854.58,1878.94c0,453.65,283.44,822.31,636,832.44V1210.18C2144.11,1221.45,1854.58,1431.63,1854.58,1878.94Z" transform="translate(0.05)"/> <path class="cls-1" d="M2520.15,1209.64c-9.89,0-19.75.22-29.59.54v1501.2c5,.12,9.86.47,14.84.47,359.44,0,650.79-372.9,650.79-832.91S2879.61,1209.64,2520.15,1209.64Z" transform="translate(0.05)"/> </g> <path class="cls-26" d="M2772,1466.59s67.17,319.11,419.9,386.3c0,0,151.17-856.6-621.45-856.6s-806.24,503.88-806.24,856.6C1764.24,1852.89,2335.34,1903.27,2772,1466.59Z" transform="translate(0.05)"/> <path class="cls-1" d="M3090.59,1931.22c-14,96,12.89,179.49,60,186.42s96.71-65.27,110.68-161.31-12.91-179.47-60-186.41S3104.55,1835.19,3090.59,1931.22Z" transform="translate(0.05)"/> <path class="cls-28" d="M1898.68,1923.38c9.14,94.77-18.52,175-61.77,179.22s-85.69-69.19-94.83-164,18.55-175.05,61.79-179.26S1889.58,1828.59,1898.68,1923.38Z" transform="translate(0.05)"/> <path class="cls-29" d="M2952.79,3347.58l-116.42,8.32,91.46,74.83-143.58,304.4H3116c3.14-16,7.6-32,11.07-48.08,5.47-21.25,12.92-42,19.66-62.48,8.22-20.05,16.21-39.82,25.49-58.21a463.43,463.43,0,0,1,29-51.83c9.37-16.34,20.77-30.33,30.45-43.5,20.59-25.7,40.19-44.88,54.89-57,14.88-12.1,24.26-17.53,24.26-17.53s-6.35,8.87-16.16,24.68c-4.81,8-10.56,17.64-16.79,28.86-6.52,11-12.52,24.27-20,37.91-6.42,14.35-14.1,29.27-21,45.81-7.44,16.11-13.66,33.89-20.88,51.82-7.41,17.85-12.37,37.43-19.49,56.36-5.15,19.7-12,39.14-16.87,59.26-2.62,11.39-5.69,22.68-8.56,34H3525.1c-50.92-194.12-204.77-617.48-596.32-736.91l40.64,16.74Z" transform="translate(0.05)"/> <path class="cls-29" d="M1822.15,3677.25c-4.84-20.11-11.71-39.55-16.86-59.25-7.15-18.92-12.09-38.5-19.5-56.36-7.2-17.93-13.43-35.7-20.88-51.83-6.86-16.52-14.51-31.45-21-45.8-7.53-13.61-13.53-26.93-20-37.9-6.23-11.21-12-20.86-16.8-28.86-9.79-15.8-16.17-24.68-16.17-24.68s9.4,5.43,24.27,17.52c14.67,12.15,34.3,31.33,54.89,57,9.69,13.14,21.07,27.15,30.43,43.49a455,455,0,0,1,29,51.84c9.29,18.37,17.26,38.14,25.49,58.18,6.73,20.52,14.18,41.26,19.67,62.52,4.61,21.4,11,42.53,13.66,63.92.41,2.69.81,5.37,1.22,8.05h334.65l-177.89-304.4,99.81-83.15-133.06-8.31,16.63-291,83.84-44.7c-149.81,40.65-544.17,197.25-636.82,731.6h359.42C1832.46,3715.77,1826.61,3696.7,1822.15,3677.25Z" transform="translate(0.05)"/> <g> <polygon class="cls-30" points="2405.5 3025.86 2181.7 2992.19 2178.52 2995.33 2164.2 3009.34 2373.43 3624.9 2410.9 3735.13 2502.08 3735.13 2502.08 3043.29 2405.5 3025.86"/> <polygon class="cls-31" points="2818.84 2960.35 2610.03 3062.79 2502.08 3043.29 2502.08 3735.13 2620.36 3735.13 2649.55 3624.9 2808.56 3024.64 2824.59 2968.96 2818.84 2960.35"/> </g> <polygon class="cls-25" points="2969.47 3014.96 2928.83 2998.22 2828.1 2956.76 2824.59 2968.96 2808.56 3024.64 2649.47 3577.28 2604.02 3735.13 2656.54 3735.13 2784.3 3735.13 2927.88 3430.73 2836.42 3355.9 2952.84 3347.58 2969.47 3014.96"/> <polygon class="cls-25" points="2373.3 3607.23 2164.2 3009.34 2158.47 2992.95 2154.53 2981.7 2113.63 3003.53 2029.79 3048.23 2013.16 3339.27 2146.22 3347.58 2046.41 3430.73 2224.3 3735.13 2366.53 3735.13 2418.02 3735.13 2373.3 3607.23"/> <polygon class="cls-32" points="2246.01 2906.86 2503.79 3048.23 2280.77 3344.4 2154.53 2981.7 2246.01 2906.86"/> <polygon class="cls-32" points="2761.58 2898.55 2828.1 2956.76 2726.47 3310.84 2503.79 3048.23 2761.58 2898.55"/> </g> </g> <g> <path class="cls-25" d="M1797.36,1744.51s112.1-564.73,651-564.73,681.16,491.45,681.16,491.45l-81.91,8.62s-133.65-370.75-584.16-370.75-610,435.41-610,435.41Z" transform="translate(0.05)"/> <path class="cls-29" d="M3069.14,1714.34s51.73,439.72,38.79,469.89c0,0,172.45,25.87,176.77-112.08v-237.1s-6.95-83.22-107.78-120.71h-90.55" transform="translate(0.05)"/> <path class="cls-25" d="M2593,2436.24s381.28-29.86,536.49-211.62c0,0,38.61-27.37,66,27.38S2814.59,2491,2593,2501c0,0-10,39.84-119.48,42.33s-134.44-34.84-134.44-34.84-52.29-59.77,9.95-102.08,114.39-25.78,114.39-25.78S2570.63,2386.45,2593,2436.24Z" transform="translate(0.05)"/> </g> </g></svg>