<svg id="Layer_1" data-name="Layer 1" xmlns="http://www.w3.org/2000/svg" viewBox="0 0 550 500">
  <defs>
    <style>
      .cls-1 {
        fill: #fff;
      }

      .cls-2 {
        fill: #623694;
      }
    </style>
  </defs>
  <!-- <rect class="cls-1" width="550" height="500"/> -->
  <path class="cls-2" d="M413.85,298.84H324.58v.46H228.5a31,31,0,0,1-31-31V158.54a31,31,0,0,1,31-31H328.91L377.17,59H228.5c-54.79,0-99.35,44.66-99.35,99.56V268.26c0,54.89,44.56,99.55,99.35,99.55h96.08v85.45Zm-61.63-80.41L304,159.29H278.6V273.73l30.26-.32V211.14l48.2,59.13h25.43V153.07l-30.27,0Zm-121.75,55.3h30.79L261,158.91H230.47Z"/>
</svg>
