<svg class="animated w-100 h-auto" id="freepik_stories-job-offers" xmlns="http://www.w3.org/2000/svg" viewBox="0 0 750 500" version="1.1" xmlns:xlink="http://www.w3.org/1999/xlink" xmlns:svgjs="http://svgjs.com/svgjs"> <style>svg#freepik_stories-job-offers:not(.animated) .animable{opacity: 0;}svg#freepik_stories-job-offers.animated #el5y1nid32644{animation: 1s 1 forwards cubic-bezier(0.36, -0.01, 0.5, 1.38) zoomIn; animation-delay: 0s;}svg#freepik_stories-job-offers.animated #elyx8kvrp2vdn{animation: 1s 1 forwards cubic-bezier(0.36, -0.01, 0.5, 1.38) zoomIn; animation-delay: 0.019230769230769232s; opacity: 0;}svg#freepik_stories-job-offers.animated #eldy7tudqgs4q{animation: 1s 1 forwards cubic-bezier(0.36, -0.01, 0.5, 1.38) zoomIn; animation-delay: 0.038461538461538464s; opacity: 0;}svg#freepik_stories-job-offers.animated #el60dlf9wbmeu{animation: 1s 1 forwards cubic-bezier(0.36, -0.01, 0.5, 1.38) zoomIn; animation-delay: 0.057692307692307696s; opacity: 0;}svg#freepik_stories-job-offers.animated #el7wm245hv8eo{animation: 1s 1 forwards cubic-bezier(0.36, -0.01, 0.5, 1.38) zoomIn; animation-delay: 0.07692307692307693s; opacity: 0;}svg#freepik_stories-job-offers.animated #elt5n5gsi1pji{animation: 1s 1 forwards cubic-bezier(0.36, -0.01, 0.5, 1.38) zoomIn; animation-delay: 0.09615384615384616s; opacity: 0;}svg#freepik_stories-job-offers.animated #elavkrivmcuqb{animation: 1s 1 forwards cubic-bezier(0.36, -0.01, 0.5, 1.38) zoomIn; animation-delay: 0.11538461538461539s; opacity: 0;}svg#freepik_stories-job-offers.animated #el2aegd2cfise{animation: 1s 1 forwards cubic-bezier(0.36, -0.01, 0.5, 1.38) zoomIn; animation-delay: 0.13461538461538464s; opacity: 0;}svg#freepik_stories-job-offers.animated #el18hhajkco35{animation: 1s 1 forwards cubic-bezier(0.36, -0.01, 0.5, 1.38) zoomIn; animation-delay: 0.15384615384615385s; opacity: 0;}svg#freepik_stories-job-offers.animated #el9o6bergc6d8{animation: 1s 1 forwards cubic-bezier(0.36, -0.01, 0.5, 1.38) zoomIn; animation-delay: 0.17307692307692307s; opacity: 0;}svg#freepik_stories-job-offers.animated #ell58b1iblboe{animation: 1s 1 forwards cubic-bezier(0.36, -0.01, 0.5, 1.38) zoomIn; animation-delay: 0.19230769230769232s; opacity: 0;}svg#freepik_stories-job-offers.animated #elqnm56362r8q{animation: 1s 1 forwards cubic-bezier(0.36, -0.01, 0.5, 1.38) zoomIn; animation-delay: 0.21153846153846156s; opacity: 0;}svg#freepik_stories-job-offers.animated #elq4vumr4s43n{animation: 1s 1 forwards cubic-bezier(0.36, -0.01, 0.5, 1.38) zoomIn; animation-delay: 0.23076923076923078s; opacity: 0;}svg#freepik_stories-job-offers.animated #elvhh57f1530j{animation: 1s 1 forwards cubic-bezier(0.36, -0.01, 0.5, 1.38) zoomIn; animation-delay: 0.25s; opacity: 0;}svg#freepik_stories-job-offers.animated #elhieqpi0cf8{animation: 1s 1 forwards cubic-bezier(0.36, -0.01, 0.5, 1.38) zoomIn; animation-delay: 0.2692307692307693s; opacity: 0;}svg#freepik_stories-job-offers.animated #el89w6k5xcm1m{animation: 1s 1 forwards cubic-bezier(0.36, -0.01, 0.5, 1.38) zoomIn; animation-delay: 0.2884615384615385s; opacity: 0;}svg#freepik_stories-job-offers.animated #elvjpb7w25w2j{animation: 1s 1 forwards cubic-bezier(0.36, -0.01, 0.5, 1.38) zoomIn; animation-delay: 0.3076923076923077s; opacity: 0;}svg#freepik_stories-job-offers.animated #eldmzrg0bbmlj{animation: 1s 1 forwards cubic-bezier(0.36, -0.01, 0.5, 1.38) zoomIn; animation-delay: 0.3269230769230769s; opacity: 0;}svg#freepik_stories-job-offers.animated #ell3ir142ny5l{animation: 1s 1 forwards cubic-bezier(0.36, -0.01, 0.5, 1.38) zoomIn; animation-delay: 0.34615384615384615s; opacity: 0;}svg#freepik_stories-job-offers.animated #elv1ddq66kl2{animation: 1s 1 forwards cubic-bezier(0.36, -0.01, 0.5, 1.38) zoomIn; animation-delay: 0.3653846153846154s; opacity: 0;}svg#freepik_stories-job-offers.animated #elcm9k0zr8bba{animation: 1s 1 forwards cubic-bezier(0.36, -0.01, 0.5, 1.38) zoomIn; animation-delay: 0.38461538461538464s; opacity: 0;}svg#freepik_stories-job-offers.animated #el3qnjco6bgoh{animation: 1s 1 forwards cubic-bezier(0.36, -0.01, 0.5, 1.38) zoomIn; animation-delay: 0.40384615384615385s; opacity: 0;}svg#freepik_stories-job-offers.animated #el7pfj7z8mf1e{animation: 1s 1 forwards cubic-bezier(0.36, -0.01, 0.5, 1.38) zoomIn; animation-delay: 0.42307692307692313s; opacity: 0;}svg#freepik_stories-job-offers.animated #elfhgy4eya4fg{animation: 1s 1 forwards cubic-bezier(0.36, -0.01, 0.5, 1.38) zoomIn; animation-delay: 0.44230769230769235s; opacity: 0;}svg#freepik_stories-job-offers.animated #elhg01zvgakkt{animation: 1s 1 forwards cubic-bezier(0.36, -0.01, 0.5, 1.38) zoomIn; animation-delay: 0.46153846153846156s; opacity: 0;}svg#freepik_stories-job-offers.animated #eliy07mg1nx0n{animation: 1s 1 forwards cubic-bezier(0.36, -0.01, 0.5, 1.38) zoomIn; animation-delay: 0.4807692307692308s; opacity: 0;}svg#freepik_stories-job-offers.animated #eljnoixcnxeos{animation: 1s 1 forwards cubic-bezier(0.36, -0.01, 0.5, 1.38) zoomIn; animation-delay: 0.5s; opacity: 0;}svg#freepik_stories-job-offers.animated #el4yniz8u2c2j{animation: 1s 1 forwards cubic-bezier(0.36, -0.01, 0.5, 1.38) zoomIn; animation-delay: 0.5192307692307693s; opacity: 0;}svg#freepik_stories-job-offers.animated #elzwbhaczih8{animation: 1s 1 forwards cubic-bezier(0.36, -0.01, 0.5, 1.38) zoomIn; animation-delay: 0.5384615384615385s; opacity: 0;}svg#freepik_stories-job-offers.animated #elrt8ydgj1ibk{animation: 1s 1 forwards cubic-bezier(0.36, -0.01, 0.5, 1.38) zoomIn; animation-delay: 0.5576923076923077s; opacity: 0;}svg#freepik_stories-job-offers.animated #elvbidaihm74q{animation: 1s 1 forwards cubic-bezier(0.36, -0.01, 0.5, 1.38) zoomIn; animation-delay: 0.576923076923077s; opacity: 0;}svg#freepik_stories-job-offers.animated #elybp68rvhl6g{animation: 1s 1 forwards cubic-bezier(0.36, -0.01, 0.5, 1.38) zoomIn; animation-delay: 0.5961538461538461s; opacity: 0;}svg#freepik_stories-job-offers.animated #elb3q3yurek6p{animation: 1s 1 forwards cubic-bezier(0.36, -0.01, 0.5, 1.38) zoomIn; animation-delay: 0.6153846153846154s; opacity: 0;}svg#freepik_stories-job-offers.animated #el95iu2j26law{animation: 1s 1 forwards cubic-bezier(0.36, -0.01, 0.5, 1.38) zoomIn; animation-delay: 0.6346153846153847s; opacity: 0;}svg#freepik_stories-job-offers.animated #el130suh0e938j{animation: 1s 1 forwards cubic-bezier(0.36, -0.01, 0.5, 1.38) zoomIn; animation-delay: 0.6538461538461539s; opacity: 0;}svg#freepik_stories-job-offers.animated #el6e7e6jw1ojx{animation: 1s 1 forwards cubic-bezier(0.36, -0.01, 0.5, 1.38) zoomIn; animation-delay: 0.6730769230769231s; opacity: 0;}svg#freepik_stories-job-offers.animated #elwnmk767gq6{animation: 1s 1 forwards cubic-bezier(0.36, -0.01, 0.5, 1.38) zoomIn; animation-delay: 0.6923076923076923s; opacity: 0;}svg#freepik_stories-job-offers.animated #elju301vy03qe{animation: 1s 1 forwards cubic-bezier(0.36, -0.01, 0.5, 1.38) zoomIn; animation-delay: 0.7115384615384616s; opacity: 0;}svg#freepik_stories-job-offers.animated #elot5vxg6z9v{animation: 1s 1 forwards cubic-bezier(0.36, -0.01, 0.5, 1.38) zoomIn; animation-delay: 0.7307692307692308s; opacity: 0;}svg#freepik_stories-job-offers.animated #elxwpwipwgoqf{animation: 1s 1 forwards cubic-bezier(0.36, -0.01, 0.5, 1.38) zoomIn; animation-delay: 0.75s; opacity: 0;}svg#freepik_stories-job-offers.animated #elldq9wluqw5s{animation: 1s 1 forwards cubic-bezier(0.36, -0.01, 0.5, 1.38) zoomIn; animation-delay: 0.7692307692307693s; opacity: 0;}svg#freepik_stories-job-offers.animated #ele44orbi9129{animation: 1s 1 forwards cubic-bezier(0.36, -0.01, 0.5, 1.38) zoomIn; animation-delay: 0.7884615384615385s; opacity: 0;}svg#freepik_stories-job-offers.animated #elv7o34icorjn{animation: 1s 1 forwards cubic-bezier(0.36, -0.01, 0.5, 1.38) zoomIn; animation-delay: 0.8076923076923077s; opacity: 0;}svg#freepik_stories-job-offers.animated #elcrpmcn9fh9l{animation: 1s 1 forwards cubic-bezier(0.36, -0.01, 0.5, 1.38) zoomIn; animation-delay: 0.826923076923077s; opacity: 0;}svg#freepik_stories-job-offers.animated #elhswf7u44ipt{animation: 1s 1 forwards cubic-bezier(0.36, -0.01, 0.5, 1.38) zoomIn; animation-delay: 0.8461538461538463s; opacity: 0;}svg#freepik_stories-job-offers.animated #elq6cr6u1f0d{animation: 1s 1 forwards cubic-bezier(0.36, -0.01, 0.5, 1.38) zoomIn; animation-delay: 0.8653846153846154s; opacity: 0;}svg#freepik_stories-job-offers.animated #el1g3txdk8oop{animation: 1s 1 forwards cubic-bezier(0.36, -0.01, 0.5, 1.38) zoomIn; animation-delay: 0.8846153846153847s; opacity: 0;}svg#freepik_stories-job-offers.animated #elz6l39gc2v6e{animation: 1s 1 forwards cubic-bezier(0.36, -0.01, 0.5, 1.38) zoomIn; animation-delay: 0.9038461538461539s; opacity: 0;}svg#freepik_stories-job-offers.animated #elu79rbpkm43p{animation: 1s 1 forwards cubic-bezier(0.36, -0.01, 0.5, 1.38) zoomIn; animation-delay: 0.9230769230769231s; opacity: 0;}svg#freepik_stories-job-offers.animated #elc742cxqz84m{animation: 1s 1 forwards cubic-bezier(0.36, -0.01, 0.5, 1.38) zoomIn; animation-delay: 0.9423076923076924s; opacity: 0;}svg#freepik_stories-job-offers.animated #el3mdhoxlchve{animation: 1s 1 forwards cubic-bezier(0.36, -0.01, 0.5, 1.38) zoomIn; animation-delay: 0.9615384615384616s; opacity: 0;}svg#freepik_stories-job-offers.animated #el24n4hatzxqu{animation: 1s 1 forwards cubic-bezier(0.36, -0.01, 0.5, 1.38) zoomIn; animation-delay: 0.9807692307692308s; opacity: 0;}svg#freepik_stories-job-offers.animated #freepik--Window--inject-5{animation: 1s 1 forwards cubic-bezier(0.36, -0.01, 0.5, 1.38) zoomIn; animation-delay: 0s;}svg#freepik_stories-job-offers.animated #freepik--Character--inject-5{animation: 1s 1 forwards cubic-bezier(0.36, -0.01, 0.5, 1.38) slideRight; animation-delay: 0.6s; opacity: 0;}svg#freepik_stories-job-offers.animated #freepik--job-offers--inject-5{animation: 1s 1 forwards cubic-bezier(0.36, -0.01, 0.5, 1.38) zoomOut, 3s Infinite linear floating; animation-delay: 1s, 2s; opacity: 0;}@keyframes zoomIn{0%{opacity: 0; transform: scale(0.5);}100%{opacity: 1; transform: scale(1);}}@keyframes slideRight{0%{opacity: 0; transform: translateX(30px);}100%{opacity: 1; transform: translateX(0);}}@keyframes zoomOut{0%{opacity: 0; transform: scale(1.5);}100%{opacity: 1; transform: scale(1);}}@keyframes floating{0%{opacity: 1; transform: translateY(0px);}50%{transform: translateY(-10px);}100%{opacity: 1; transform: translateY(0px);}}</style> <g id="freepik--Window--inject-5" class="animable" style="transform-origin: 367.385px 255.03px;"> <path d="M536.48,439.46c0,.15-77.44.26-173,.26s-173-.11-173-.26,77.43-.26,173-.26S536.48,439.32,536.48,439.46Z" style="fill: rgb(38, 50, 56); transform-origin: 363.48px 439.46px;" id="eldy7tudqgs4q" class="animable"></path> <rect x="328.01" y="354.57" width="6.85" height="36.08" style="fill: rgb(224, 224, 224); transform-origin: 331.435px 372.61px;" id="el60dlf9wbmeu" class="animable"></rect> <path d="M334.87,390.64a5.6,5.6,0,0,1,0-.74c0-.52,0-1.21,0-2.08,0-1.84,0-4.42-.08-7.63,0-6.48-.07-15.45-.11-25.62l.26.25H328c.51-.52.14-.14.26-.25h0v11c0,3.5,0,6.83,0,9.92,0,6.15-.06,11.36-.08,15.18l-.15-.14,5,.08,1.34,0,.49,0a2.17,2.17,0,0,1-.43,0l-1.32,0-5.11.07h-.13v-.15c0-3.82-.05-9-.08-15.18,0-3.09,0-6.42,0-9.92v-5.38c0-.91,0-1.84,0-2.77v-2.8h0l.27-.27h7.1v.26c0,10.24-.08,19.27-.11,25.8,0,3.18-.06,5.75-.07,7.58,0,.84,0,1.51,0,2A5.37,5.37,0,0,1,334.87,390.64Z" style="fill: rgb(38, 50, 56); transform-origin: 331.475px 372.445px;" id="el7wm245hv8eo" class="animable" ></path> <path d="M347.3,349.1h-32a8.6,8.6,0,0,1-8.6-8.59H355.9A8.6,8.6,0,0,1,347.3,349.1Z" style="fill: rgb(38, 50, 56); transform-origin: 331.3px 344.805px;" id="elt5n5gsi1pji" class="animable"></path> <path d="M375.55,342.19H319.71V330.25h55.84a6,6,0,0,1,6,6h0A6,6,0,0,1,375.55,342.19Z" style="fill: rgb(98, 54, 148); transform-origin: 350.63px 336.22px;" id="elavkrivmcuqb" class="animable"></path> <path d="M276.31,244.47A5.94,5.94,0,0,0,271.2,251l8.06,73.26a20.19,20.19,0,0,0,20.06,17.93h21.3a6,6,0,0,0,6-6h0a6,6,0,0,0-6-6H302.53a10.26,10.26,0,0,1-10.17-8.9L283,249.58a5.94,5.94,0,0,0-6.68-5.11Z" style="fill: rgb(98, 54, 148); transform-origin: 298.893px 293.304px;" id="el2aegd2cfise" class="animable" ></path> <path d="M344.17,330.83l-60.71.85-5.93-87.27,50.81-.32a9.23,9.23,0,0,1,9.18,9.27Z" style="fill: rgb(98, 54, 148); transform-origin: 310.85px 287.885px;" id="el18hhajkco35" class="animable"></path> <g id="el9o6bergc6d8"> <g style="opacity: 0.3; transform-origin: 298.893px 293.304px;" class="animable"> <path d="M276.31,244.47A5.94,5.94,0,0,0,271.2,251l8.06,73.26a20.19,20.19,0,0,0,20.06,17.93h21.3a6,6,0,0,0,6-6h0a6,6,0,0,0-6-6H301.23c-5.14,0-8.75-3.64-9.43-8.74L283,249.58a5.94,5.94,0,0,0-6.68-5.11Z" id="elgqtqtbhn7ow" class="animable" style="transform-origin: 298.893px 293.304px;" ></path> </g> </g> <rect x="324.8" y="349.1" width="13.27" height="6.9" style="fill: rgb(38, 50, 56); transform-origin: 331.435px 352.55px;" id="ell58b1iblboe" class="animable"></rect> <rect x="324.8" y="388.62" width="13.09" height="31.61" rx="3.97" style="fill: rgb(224, 224, 224); transform-origin: 331.345px 404.425px;" id="elqnm56362r8q" class="animable"></rect> <path d="M333.93,420.23s.29,0,.82-.14a4,4,0,0,0,2.83-2.64,6.11,6.11,0,0,0,.17-2c0-1.49,0-3.18,0-5,0-3.76,0-8.2-.06-13.13,0-1.23,0-2.5,0-3.79a6.45,6.45,0,0,0-.14-1.88,3.63,3.63,0,0,0-.92-1.61,3.73,3.73,0,0,0-1.61-1,6.7,6.7,0,0,0-2-.15h-4.22a3.71,3.71,0,0,0-3.24,1.91,3.85,3.85,0,0,0-.47,1.85v2c0,2.68,0,5.28,0,7.75,0,4.93,0,9.37-.05,13.12a4.67,4.67,0,0,0,.43,2.51,3.85,3.85,0,0,0,3.52,2l1.74,0,2.41.05a4.22,4.22,0,0,1,.84.05,5.5,5.5,0,0,1-.84,0l-2.41.05-1.74,0a4.12,4.12,0,0,1-3.81-2.13,4.25,4.25,0,0,1-.44-1.27,8.26,8.26,0,0,1-.07-1.4c0-3.75,0-8.19-.06-13.12,0-2.47,0-5.07,0-7.75v-2a4.22,4.22,0,0,1,4.22-4.28H333a7.05,7.05,0,0,1,2.13.17,4.37,4.37,0,0,1,1.83,1.11,4.27,4.27,0,0,1,1,1.82,7.42,7.42,0,0,1,.15,2c0,1.29,0,2.56,0,3.79,0,4.93,0,9.37-.05,13.13,0,1.86,0,3.55,0,5a6.37,6.37,0,0,1-.22,2.08,4.22,4.22,0,0,1-.93,1.52,4,4,0,0,1-2.12,1.15A2.82,2.82,0,0,1,333.93,420.23Z" style="fill: rgb(38, 50, 56); transform-origin: 331.367px 404.221px;" id="elq4vumr4s43n" class="animable" ></path> <path d="M369.55,418.27h-77.9a7.43,7.43,0,0,0-5.61,2.26c-2.89,3-2.71,8-2.7,8.18l3.55-.15c0-1,.19-4,1.72-5.58a4,4,0,0,1,3-1.16h20.44v9.05h3.55v-9.05h53.91a4.15,4.15,0,0,1,4.14,4.14v2.67h3.55V426A7.7,7.7,0,0,0,369.55,418.27Z" style="fill: rgb(224, 224, 224); transform-origin: 330.267px 424.568px;" id="elvhh57f1530j" class="animable" ></path> <path d="M369.55,418.27a7.07,7.07,0,0,1,1,0,7.62,7.62,0,0,1,2.72.83,8,8,0,0,1,3.24,3.28,7.66,7.66,0,0,1,.84,2.85c.07,1.07,0,2.17.05,3.36v.13h-3.81v-.14c-.1-1.73.4-3.85-1.05-5.33a4,4,0,0,0-2.63-1.29c-1,0-2.16,0-3.28,0l-14.81,0-36.14,0,.24-.25c0,2.85,0,5.93,0,9.05v.26h-4.06v-9.31l.26.26H291.31a3.87,3.87,0,0,0-2,.63,4.08,4.08,0,0,0-1.32,1.63,9.81,9.81,0,0,0-.85,4.2v.26h-.24l-3.55.15h-.26v-.26a14.43,14.43,0,0,1,.77-4.94,8.93,8.93,0,0,1,2.73-4.09,7.77,7.77,0,0,1,4.54-1.65c1.6,0,3.14,0,4.69,0l17.66,0,29.47.06,19.54.07,5.25.05,1.36,0,.46,0s-.15,0-.46,0l-1.36,0-5.25,0-19.54.08-29.47.06-17.66,0c-1.54,0-3.11,0-4.66,0a7.17,7.17,0,0,0-4.25,1.56,8.39,8.39,0,0,0-2.58,3.86,13.84,13.84,0,0,0-.72,4.75l-.27-.24,3.54-.15-.24.26a10.25,10.25,0,0,1,.9-4.45,4.62,4.62,0,0,1,1.49-1.83,4.35,4.35,0,0,1,2.26-.72h21.07v.26c0,3.11,0,6.19,0,9.05l-.25-.25h3.54l-.25.25c0-3.12,0-6.2,0-9.05v-.25h.25l36.14,0,14.81,0c1.13,0,2.21,0,3.31,0a4.32,4.32,0,0,1,3.94,4.2c0,.95,0,1.87,0,2.76l-.14-.14,3.55,0-.13.12c0-1.18.05-2.31,0-3.34a7.33,7.33,0,0,0-.79-2.78,7.79,7.79,0,0,0-3.12-3.25,7.67,7.67,0,0,0-2.67-.89C369.88,418.29,369.55,418.29,369.55,418.27Z" style="fill: rgb(38, 50, 56); transform-origin: 330.244px 424.46px;" id="elhieqpi0cf8" class="animable" ></path> <path d="M320.7,435.09a6.95,6.95,0,1,1-6.95-6.94A6.95,6.95,0,0,1,320.7,435.09Z" style="fill: rgb(38, 50, 56); transform-origin: 313.75px 435.1px;" id="el89w6k5xcm1m" class="animable"></path> <path d="M292.06,433.4a6.95,6.95,0,1,1-6.95-6.95A6.95,6.95,0,0,1,292.06,433.4Z" style="fill: rgb(38, 50, 56); transform-origin: 285.11px 433.4px;" id="elvjpb7w25w2j" class="animable"></path> <path d="M381.61,433.65a6.95,6.95,0,1,1-6.95-6.94A6.95,6.95,0,0,1,381.61,433.65Z" style="fill: rgb(38, 50, 56); transform-origin: 374.66px 433.66px;" id="eldmzrg0bbmlj" class="animable"></path> <path d="M377.05,330.25c0,.14-17.12.32-38.23.4s-38.23,0-38.23-.12,17.11-.32,38.23-.4S377.05,330.1,377.05,330.25Z" style="fill: rgb(38, 50, 56); transform-origin: 338.82px 330.387px;" id="ell3ir142ny5l" class="animable"></path> <path d="M291.88,320.32c-.14,0-2.25-15.8-4.7-35.33s-4.33-35.39-4.19-35.41,2.25,15.8,4.7,35.34S292,320.3,291.88,320.32Z" style="fill: rgb(38, 50, 56); transform-origin: 287.434px 284.95px;" id="elv1ddq66kl2" class="animable"></path> <path d="M282.35,244.3a2.46,2.46,0,0,1,.54-.14,11.25,11.25,0,0,1,1.58-.16,15.62,15.62,0,0,1,5.77.89,8.22,8.22,0,0,1,3.36,2.28,20.18,20.18,0,0,1,2.57,3.87c1.5,2.89,3.17,6,5,9.29,3.67,6.51,7.12,12.35,9.46,16.67,1.19,2.15,2.1,3.91,2.72,5.14.28.57.5,1,.69,1.42a1.82,1.82,0,0,1,.2.52,3.42,3.42,0,0,1-.3-.47l-.77-1.38-2.86-5.05c-2.42-4.27-5.92-10.07-9.6-16.6-1.84-3.26-3.5-6.43-5-9.31a19.12,19.12,0,0,0-2.48-3.81,7.82,7.82,0,0,0-3.17-2.23,16.26,16.26,0,0,0-5.63-1C283.11,244.19,282.36,244.35,282.35,244.3Z" style="fill: rgb(38, 50, 56); transform-origin: 298.295px 264.035px;" id="elcm9k0zr8bba" class="animable" ></path> <path d="M271.61,248.1c.13.07-4.47,8.09-10.26,17.9s-10.59,17.72-10.72,17.65,4.47-8.09,10.27-17.91S271.49,248,271.61,248.1Z" style="fill: rgb(38, 50, 56); transform-origin: 261.12px 265.875px;" id="el3qnjco6bgoh" class="animable" ></path> <rect x="242.62" y="283.64" width="83.23" height="24.54" style="fill: rgb(250, 250, 250); transform-origin: 284.235px 295.91px;" id="el7pfj7z8mf1e" class="animable"></rect> <path d="M265.07,291.26,261,300.68h-2.15l-4.06-9.42h2.35L260,298l2.9-6.73Z" style="fill: rgb(38, 50, 56); transform-origin: 259.93px 295.97px;" id="elfhgy4eya4fg" class="animable"></path> <path d="M271.73,298.66h-4.37l-.83,2H264.3l4.19-9.42h2.15l4.21,9.42h-2.29ZM271,297l-1.49-3.61L268.06,297Z" style="fill: rgb(38, 50, 56); transform-origin: 269.575px 295.95px;" id="elhg01zvgakkt" class="animable"></path> <path d="M275.1,296a5.18,5.18,0,0,1,9-3.2l-1.4,1.29a3,3,0,0,0-2.36-1.1,3,3,0,1,0,0,6,3,3,0,0,0,2.36-1.11l1.4,1.29a5.17,5.17,0,0,1-9-3.19Z" style="fill: rgb(38, 50, 56); transform-origin: 279.6px 295.992px;" id="eliy07mg1nx0n" class="animable" ></path> <path d="M291.55,298.66h-4.37l-.83,2h-2.23l4.19-9.42h2.15l4.21,9.42h-2.29Zm-.68-1.65-1.5-3.61L287.88,297Z" style="fill: rgb(38, 50, 56); transform-origin: 289.395px 295.95px;" id="eljnoixcnxeos" class="animable"></path> <path d="M304.28,291.26v9.42h-1.79L297.8,295v5.72h-2.15v-9.42h1.8l4.68,5.72v-5.72Z" style="fill: rgb(38, 50, 56); transform-origin: 299.965px 295.99px;" id="el4yniz8u2c2j" class="animable"></path> <path d="M308.45,293h-3v-1.78h8.2V293h-3v7.64h-2.18Z" style="fill: rgb(38, 50, 56); transform-origin: 309.55px 295.93px;" id="elzwbhaczih8" class="animable"></path> <path d="M323.16,306s0-.12,0-.36,0-.58,0-1c0-.91,0-2.23,0-3.93,0-3.44,0-8.43-.08-14.73l.15.15-78.5.11c.11-.12-.27.26.25-.26h0v20l-.26-.25,56,.11,16.51.07,4.46,0h1.16l.4,0a2.37,2.37,0,0,1-.37,0h-1.13l-4.4,0-16.45.07-56.16.12h-.25V306c0-3.23,0-6.53,0-9.87V285.92h0c.52-.52.15-.15.27-.26l78.5.1h.16v.16c0,6.34-.07,11.36-.09,14.82,0,1.69,0,3,0,3.9v1A1.77,1.77,0,0,1,323.16,306Z" style="fill: rgb(38, 50, 56); transform-origin: 283.955px 295.867px;" id="elrt8ydgj1ibk" class="animable" ></path> <path d="M331.3,161.88h6.33L331.36,167h-4.53Z" style="fill: rgb(38, 50, 56); transform-origin: 332.23px 164.44px;" id="elvbidaihm74q" class="animable"></path> <path d="M260.23,210.16v13.17h-8.06V211.48c0-3.32-1.45-4.72-3.78-4.72-2.59,0-4.59,1.62-4.59,5.44v11.13h-8.07V191.82h8.07v10.61a10,10,0,0,1,6.92-2.5C256.11,199.93,260.23,203,260.23,210.16Z" style="fill: rgb(38, 50, 56); transform-origin: 247.98px 207.575px;" id="elybp68rvhl6g" class="animable" ></path> <path d="M264.4,193.47c0-2.42,2-4.29,4.92-4.29s4.93,1.74,4.93,4.16-1.95,4.42-4.93,4.42S264.4,195.89,264.4,193.47Zm.89,6.84h8.07v23h-8.07Z" style="fill: rgb(38, 50, 56); transform-origin: 269.325px 206.245px;" id="elb3q3yurek6p" class="animable" ></path> <path d="M294,199.93v7.26a13.78,13.78,0,0,0-1.83-.13c-3.27,0-5.52,1.66-5.52,5.69v10.58h-8.07v-23h7.69v2.76C287.93,201,290.6,199.93,294,199.93Z" style="fill: rgb(38, 50, 56); transform-origin: 286.29px 211.63px;" id="el95iu2j26law" class="animable" ></path> <path d="M296.42,193.47c0-2.42,1.95-4.29,4.93-4.29s4.92,1.74,4.92,4.16-1.95,4.42-4.92,4.42S296.42,195.89,296.42,193.47Zm.89,6.84h8.07v23h-8.07Z" style="fill: rgb(38, 50, 56); transform-origin: 301.345px 206.245px;" id="el130suh0e938j" class="animable" ></path> <path d="M335.11,210.16v13.17H327V211.48c0-3.32-1.44-4.72-3.78-4.72-2.59,0-4.59,1.62-4.59,5.44v11.13h-8.06v-23h7.68v2.5a9.9,9.9,0,0,1,7.31-2.88C331,199.93,335.11,203,335.11,210.16Z" style="fill: rgb(38, 50, 56); transform-origin: 322.84px 211.637px;" id="el6e7e6jw1ojx" class="animable" ></path> <path d="M365.26,200.31v18.81c0,8.71-4.92,12.83-13.5,12.83-4.42,0-8.62-1-11.43-3l2.93-5.65a13.37,13.37,0,0,0,7.78,2.47c4.33,0,6.15-2,6.15-5.57v-.76a8.6,8.6,0,0,1-6.83,2.72c-6.12,0-11.3-4.34-11.3-11.13s5.18-11.08,11.3-11.08c3.18,0,5.64,1,7.22,3.18v-2.8Zm-8,10.7c0-2.8-2.13-4.67-5-4.67s-5.06,1.87-5.06,4.67,2.17,4.71,5.06,4.71A4.68,4.68,0,0,0,357.28,211Z" style="fill: rgb(38, 50, 56); transform-origin: 352.16px 215.95px;" id="elwnmk767gq6" class="animable" ></path> <path d="M369,218.91a4.84,4.84,0,0,1,9.68,0,4.84,4.84,0,0,1-9.68,0Z" style="fill: rgb(98, 54, 148); transform-origin: 373.84px 218.91px;" id="elju301vy03qe" class="animable"></path> <path d="M345.7,168.81v5.71a10.76,10.76,0,0,0-1.43-.1c-2.57,0-4.33,1.3-4.33,4.46v8.3H333.6V169.11h6v2.17C340.94,169.65,343,168.81,345.7,168.81Z" style="fill: rgb(38, 50, 56); transform-origin: 339.65px 177.995px;" id="elot5vxg6z9v" class="animable" ></path> <path d="M366.51,179.75H353.37c.54,1.83,2.1,2.9,4.44,2.9a5.77,5.77,0,0,0,4.16-1.57l3.34,3.47c-1.74,1.93-4.27,2.94-7.7,2.94-6.44,0-10.61-4-10.61-9.37s4.24-9.31,9.94-9.31c5.33,0,9.67,3.41,9.67,9.37C366.61,178.65,366.54,179.25,366.51,179.75Zm-13.24-3.33h7.4a3.76,3.76,0,0,0-7.4,0Z" style="fill: rgb(38, 50, 56); transform-origin: 356.805px 178.15px;" id="elxwpwipwgoqf" class="animable" ></path> <path d="M306.3,169.11l-6.44,18.07h-6.13l-3.4-9.83-3.54,9.83h-6.13l-6.44-18.07h6l3.7,10.94,3.84-10.94h5.4l3.73,11,3.84-11Z" style="fill: rgb(38, 50, 56); transform-origin: 290.26px 178.145px;" id="elldq9wluqw5s" class="animable" ></path> <path d="M326.1,179.75H313c.54,1.83,2.1,2.9,4.44,2.9a5.79,5.79,0,0,0,4.17-1.57l3.33,3.47c-1.73,1.93-4.27,2.94-7.7,2.94-6.44,0-10.6-4-10.6-9.37s4.23-9.31,9.93-9.31c5.34,0,9.67,3.41,9.67,9.37C326.2,178.65,326.13,179.25,326.1,179.75Zm-13.24-3.33h7.41a3.76,3.76,0,0,0-7.41,0Z" style="fill: rgb(38, 50, 56); transform-origin: 316.44px 178.15px;" id="ele44orbi9129" class="animable" ></path> <path d="M278.91,135.66l-1-21.25a3.44,3.44,0,0,0-3.18-3.27h0a3.44,3.44,0,0,0-3.68,3l-2.69,21.3a2.7,2.7,0,0,0,2.68,3h5.18A2.71,2.71,0,0,0,278.91,135.66Z" style="fill: rgb(224, 224, 224); transform-origin: 273.627px 124.785px;" id="elv7o34icorjn" class="animable" ></path> <path d="M269.28,99.11a5.18,5.18,0,1,1,3.18,6.6A5.18,5.18,0,0,1,269.28,99.11Z" style="fill: rgb(224, 224, 224); transform-origin: 274.17px 100.82px;" id="elcrpmcn9fh9l" class="animable"></path> <path d="M223.29,162.51,210.91,152a2.64,2.64,0,0,0-3.48.08h0a2.62,2.62,0,0,0-.23,3.61l10.48,12.58a2.07,2.07,0,0,0,3.09.09l2.69-2.89A2.05,2.05,0,0,0,223.29,162.51Z" style="fill: rgb(245, 245, 245); transform-origin: 215.299px 160.197px;" id="elhswf7u44ipt" class="animable" ></path> <path d="M197.89,148.88a4,4,0,1,1,5.34,1.66A4,4,0,0,1,197.89,148.88Z" style="fill: rgb(245, 245, 245); transform-origin: 201.409px 146.978px;" id="elq6cr6u1f0d" class="animable"></path> <path d="M212.79,113.09l19,32.24a6.06,6.06,0,0,0,7.64,2.48h0a6.07,6.07,0,0,0,3.26-7.7l-13.31-35.36a4.76,4.76,0,0,0-6.66-2.53l-8.07,4.24A4.76,4.76,0,0,0,212.79,113.09Z" style="fill: rgb(224, 224, 224); transform-origin: 227.601px 124.995px;" id="el1g3txdk8oop" class="animable" ></path> <path d="M257.81,162.06a9.12,9.12,0,1,1-10.37-7.66A9.12,9.12,0,0,1,257.81,162.06Z" style="fill: rgb(224, 224, 224); transform-origin: 248.792px 163.419px;" id="elz6l39gc2v6e" class="animable"></path> <circle cx="148.86" cy="57.34" r="3.83" style="fill: rgb(255, 255, 255); transform-origin: 148.86px 57.34px;" id="elc742cxqz84m" class="animable"></circle> <circle cx="162.02" cy="57.34" r="3.83" style="fill: rgb(255, 255, 255); transform-origin: 162.02px 57.34px;" id="el3mdhoxlchve" class="animable"></circle> <circle cx="175.18" cy="57.34" r="3.83" style="fill: rgb(255, 255, 255); transform-origin: 175.18px 57.34px;" id="el24n4hatzxqu" class="animable"></circle> </g> <g id="freepik--Character--inject-5" class="animable" style="transform-origin: 432.908px 275.842px;"> <path d="M421.56,137a42.8,42.8,0,0,1-9.34-3.55,21.58,21.58,0,0,1,4.78,1.5A21.34,21.34,0,0,1,421.56,137Z" style="fill: rgb(69, 90, 100); transform-origin: 416.89px 135.225px;" id="elneqc6krsgs" class="animable"></path> <path d="M408.77,157.14c-1-.11-3.7,1.23-5.95,3.9l-.11.12c-1.59,1.79-2.58-3.71-2.68-5.74a2.11,2.11,0,0,0-2.74-1.83l-7,2.68-2-.07a2,2,0,0,0-1.45,2.3l2.48,10.89-.13,2.92,13.4,2.78.72-7.28c.26-.83.6-1.81,1-2.92a9.49,9.49,0,0,1,1.69-2.74,17.48,17.48,0,0,1,2.62-2.5l.23-.13a1.3,1.3,0,0,0,.41-.31A1.18,1.18,0,0,0,408.77,157.14Z" style="fill: rgb(255, 190, 157); transform-origin: 398.252px 164.291px;" id="elavk6j7am7n" class="animable" ></path> <path d="M405.83,126.44s-8-1-20-10.56-18.53-23.16-19.87-23-7.5-2-16.41,23.46-4,30.68-1.74,30.43,17-5.91,26.54-5.72,22.18,4,22.18,4Z" style="fill: rgb(98, 54, 148); transform-origin: 375.121px 119.829px;" id="el3uvyej8dqdj" class="animable" ></path> <path d="M423.73,138.16l-2.2,5.33-1,2.39a6.66,6.66,0,0,1-8.37,3.75l-17.35-4.27,7.68-23.25,17.62,7.36A6.67,6.67,0,0,1,423.73,138.16Z" style="fill: rgb(38, 50, 56); transform-origin: 409.519px 136.059px;" id="elcn4ao8i7lls" class="animable" ></path> <path d="M416.89,146l-5.81,10.3-2.65-.85L390.3,169l-4.51-9.8s10.55-4,12.63-7.65-.11-4.54-.11-4.54l5.1-5.35Z" style="fill: rgb(38, 50, 56); transform-origin: 401.34px 155.33px;" id="eljg92jn5303" class="animable"></path> <path d="M350.47,116.73c-4.72,13.77-6.1,25.77-3.07,26.81s9.3-9.29,14-23.06,6.1-25.77,3.07-26.81S355.19,103,350.47,116.73Z" style="fill: rgb(38, 50, 56); transform-origin: 355.933px 118.605px;" id="ely13dofrzvz" class="animable" ></path> <polygon points="425.86 145.37 421.17 144.37 423.49 138.74 427.1 140.54 425.86 145.37" style="fill: rgb(69, 90, 100); transform-origin: 424.135px 142.055px;" id="elmp5r8ityqvd" class="animable"></polygon> <path d="M420.47,140.27c-.06.16-2.41-.51-5.26-1.49a25.5,25.5,0,0,1-5.07-2.05,26.59,26.59,0,0,1,5.26,1.49A26.16,26.16,0,0,1,420.47,140.27Z" style="fill: rgb(69, 90, 100); transform-origin: 415.305px 138.512px;" id="el3crxsplq428" class="animable" ></path> <path d="M419,143.79c0,.08-.56,0-1.45-.18l-1.56-.36c-.58-.15-1.19-.39-1.84-.61a19.21,19.21,0,0,1-4.56-2c.06-.16,2.18.55,4.76,1.46.64.23,1.24.48,1.81.66s1.07.32,1.49.47C418.51,143.49,419,143.71,419,143.79Z" style="fill: rgb(69, 90, 100); transform-origin: 414.295px 142.219px;" id="elcd3pzv8k1am" class="animable" ></path> <path d="M362.35,112.64s-7.21-3.58-10.07,6S356.73,129,356.73,129A61.09,61.09,0,0,0,362.35,112.64Z" style="fill: rgb(250, 250, 250); transform-origin: 356.983px 120.493px;" id="el68kzypzpkc9" class="animable"></path> <path d="M368.56,101a10.85,10.85,0,0,1-.1,1.79c-.11,1.14-.26,2.8-.51,4.85-.19,1-.41,2.12-.63,3.31-.12.59-.24,1.21-.36,1.84-.07.32-.13.64-.19,1s-.18.65-.27,1l-1.16,4.11c-.1.36-.21.72-.31,1.08s-.26.71-.38,1.08l-.82,2.18c-.27.73-.55,1.46-.82,2.18-.14.36-.25.72-.41,1.06l-.48,1-1.83,3.87c-.14.3-.28.61-.44.9s-.32.58-.49.86l-.94,1.63c-.61,1-1.17,2-1.69,2.91-1.16,1.7-2.13,3.05-2.8,4a10.92,10.92,0,0,1-1.09,1.41,10,10,0,0,1,.9-1.54l2.64-4.09,1.62-2.93.91-1.63.47-.85c.16-.29.29-.6.43-.91.57-1.23,1.17-2.52,1.78-3.85l.47-1c.16-.34.27-.71.41-1.06.27-.71.54-1.44.81-2.17l.82-2.16c.12-.36.28-.71.38-1.07s.21-.72.31-1.07l1.19-4.08c.09-.32.2-.64.27-1s.14-.64.2-1c.14-.62.26-1.23.39-1.82.25-1.18.49-2.27.7-3.28.29-2,.53-3.64.69-4.81A11.72,11.72,0,0,1,368.56,101Z" style="fill: rgb(38, 50, 56); transform-origin: 360.702px 122.03px;" id="el2zuojci00v9" class="animable" ></path> <path d="M395.07,151.38a1.55,1.55,0,0,0-.94,1.88c.41,1.51,1.09,3.87,1.62,5.32a4,4,0,0,0,.69,1.3,1.3,1.3,0,0,0,1.29.45,1.44,1.44,0,0,0,.87-1.19,4.15,4.15,0,0,0-.18-1.56c-.34-1.4-1-3.51-1.5-5.23a1.44,1.44,0,0,0-1.85-1Z" style="fill: rgb(255, 190, 157); transform-origin: 396.34px 155.818px;" id="elfmbatfcaemg" class="animable" ></path> <path d="M392.83,154a1.55,1.55,0,0,0-.95,1.88c.42,1.51,1.1,3.87,1.63,5.31a3.9,3.9,0,0,0,.68,1.31,1.3,1.3,0,0,0,1.29.45,1.4,1.4,0,0,0,.87-1.19,4,4,0,0,0-.17-1.56c-.35-1.4-1-3.52-1.5-5.24a1.44,1.44,0,0,0-1.85-1Z" style="fill: rgb(255, 190, 157); transform-origin: 394.093px 158.433px;" id="elw27egducavl" class="animable" ></path> <path d="M390.73,155.53a1.32,1.32,0,0,0-.85,1.63c.38,1.3,1,3.36,1.48,4.61a3.5,3.5,0,0,0,.62,1.12,1.21,1.21,0,0,0,1.17.4,1.23,1.23,0,0,0,.79-1,3.68,3.68,0,0,0-.16-1.35c-.32-1.22-.89-3-1.38-4.54a1.33,1.33,0,0,0-1.67-.84Z" style="fill: rgb(255, 190, 157); transform-origin: 391.887px 159.406px;" id="el97n1j0jd4ft" class="animable" ></path> <path d="M388.08,155.93a1.33,1.33,0,0,0-.86,1.63c.39,1.31,1,3.38,1.5,4.63a3.24,3.24,0,0,0,.62,1.14,1.1,1.1,0,0,0,2-.64,3.47,3.47,0,0,0-.17-1.35c-.32-1.23-.89-3.07-1.38-4.57a1.32,1.32,0,0,0-1.68-.84Z" style="fill: rgb(255, 190, 157); transform-origin: 389.259px 159.829px;" id="elrr2ig695qzc" class="animable" ></path> <path d="M396.29,159.93a8.33,8.33,0,0,1-1.19-2.68,7.88,7.88,0,0,1-.67-2.85,8,8,0,0,1,1.19,2.68A7.64,7.64,0,0,1,396.29,159.93Z" style="fill: rgb(235, 153, 110); transform-origin: 395.36px 157.165px;" id="elcncxzg9jst4" class="animable" ></path> <path d="M393.89,162a10.24,10.24,0,0,1-1.26-3.08,10.11,10.11,0,0,1-.74-3.24,10.24,10.24,0,0,1,1.26,3.08A9.85,9.85,0,0,1,393.89,162Z" style="fill: rgb(235, 153, 110); transform-origin: 392.89px 158.84px;" id="el6fhxix9dio4" class="animable" ></path> <path d="M391.53,162.16a6.91,6.91,0,0,1-1.3-2.67,6.58,6.58,0,0,1-.57-2.91,10.48,10.48,0,0,1,1.09,2.74A9.76,9.76,0,0,1,391.53,162.16Z" style="fill: rgb(235, 153, 110); transform-origin: 390.593px 159.37px;" id="eleg5nxywxm8e" class="animable" ></path> <path d="M474.91,125.79c-3.81-6.44-10.69-10.62-17.91-12.61-3-.83-5.1-.6-8.23-.25a13.28,13.28,0,0,0-8.26,3.83,22.29,22.29,0,0,0-5.86,9.42,62.32,62.32,0,0,0-2.28,11.28,21,21,0,0,0,1.92,11.22l9.38,3.14c5.3,1,10.67,2,16,1.57s10.83-2.44,14.3-6.57C478.83,141.1,478.72,132.23,474.91,125.79Z" style="fill: rgb(38, 50, 56); transform-origin: 454.977px 133.052px;" id="elqbkna6fyo1d" class="animable" ></path> <path d="M480,154a7.26,7.26,0,0,0-2.43-5.92,5.24,5.24,0,0,0-6.17-.4l-1.79,1.57a6.3,6.3,0,0,0-4.53,5.73,6.89,6.89,0,0,0,3.88,6.3,7.64,7.64,0,0,0,7.45-.64A8.54,8.54,0,0,0,480,154Z" style="fill: rgb(38, 50, 56); transform-origin: 472.548px 154.412px;" id="el7hnmy2rxbbm" class="animable" ></path> <path d="M477.08,160.24a3.22,3.22,0,0,0,.81-1.84,8.83,8.83,0,0,0-1.54-4.67,13.22,13.22,0,0,0-3.39-3.68c-1-.78-1.78-1.12-1.74-1.2a5.54,5.54,0,0,1,1.93.92,11.76,11.76,0,0,1,3.61,3.71,11.59,11.59,0,0,1,1.19,2.61,5.26,5.26,0,0,1,.28,2.35,2.69,2.69,0,0,1-.67,1.46C477.3,160.18,477.1,160.26,477.08,160.24Z" style="fill: rgb(69, 90, 100); transform-origin: 474.74px 154.546px;" id="ely3tf16heh4i" class="animable" ></path> <path d="M472,162.38a21.79,21.79,0,0,0,.54-6.44,20.93,20.93,0,0,0-1.87-6.17,5,5,0,0,1,1.06,1.62,13.63,13.63,0,0,1,1,9.18A5.33,5.33,0,0,1,472,162.38Z" style="fill: rgb(69, 90, 100); transform-origin: 471.891px 156.075px;" id="el75g8ijc0dsu" class="animable" ></path> <path d="M440.49,171.93c.58-3.37,1.87-10.6,1.87-10.58s-7.73-2.07-8.36-12.47c-.32-5.17.75-13.5,1.84-20.29,1-6.11,7.46-13.65,15-12.52l3.41.12,12.07,7.07a3.61,3.61,0,0,1,2.87,4l-6.61,43.69-18.71,36.61-4.23-26Z" style="fill: rgb(255, 190, 157); transform-origin: 451.581px 161.758px;" id="ely31wnnzlv3" class="animable" ></path> <path d="M439.32,136.05a1.32,1.32,0,0,0,1.14,1.44,1.26,1.26,0,0,0,1.47-1.05,1.33,1.33,0,0,0-1.14-1.45A1.26,1.26,0,0,0,439.32,136.05Z" style="fill: rgb(38, 50, 56); transform-origin: 440.625px 136.24px;" id="el2r6ly00u0ey" class="animable" ></path> <path d="M437.76,132.74c.15.19,1.22-.45,2.63-.31s2.38.95,2.55.79-.05-.4-.47-.77a3.6,3.6,0,0,0-2-.84,3.47,3.47,0,0,0-2.11.46C437.87,132.36,437.69,132.66,437.76,132.74Z" style="fill: rgb(38, 50, 56); transform-origin: 440.372px 132.416px;" id="elcuxs8hv7q0m" class="animable" ></path> <path d="M445,144.71a9.37,9.37,0,0,0-2.26-.64c-.36-.07-.69-.17-.73-.43a1.8,1.8,0,0,1,.35-1c.42-.84.86-1.73,1.33-2.65,1.86-3.77,3.25-6.89,3.09-7a48,48,0,0,0-3.64,6.7l-1.29,2.66a2.1,2.1,0,0,0-.33,1.4.93.93,0,0,0,.55.59,2.56,2.56,0,0,0,.6.14A9.06,9.06,0,0,0,445,144.71Z" style="fill: rgb(38, 50, 56); transform-origin: 444.149px 138.852px;" id="ely283ycpnpfa" class="animable" ></path> <path d="M442.36,161.35A26.23,26.23,0,0,0,456.44,159s-4.34,6.74-14.51,4.79Z" style="fill: rgb(235, 153, 110); transform-origin: 449.185px 161.572px;" id="ely1idmut00ji" class="animable"></path> <path d="M438.87,127.75c.22.35,1.23.11,2.4.21s2.14.42,2.4.11c.12-.15,0-.49-.41-.84a3.5,3.5,0,0,0-3.87-.25C439,127.27,438.78,127.59,438.87,127.75Z" style="fill: rgb(38, 50, 56); transform-origin: 441.282px 127.357px;" id="elbwc96lvccrh" class="animable" ></path> <path d="M455.49,137.08a1.32,1.32,0,0,1-1.44,1.15,1.27,1.27,0,0,1-1.19-1.36,1.31,1.31,0,0,1,1.44-1.15A1.27,1.27,0,0,1,455.49,137.08Z" style="fill: rgb(38, 50, 56); transform-origin: 454.175px 136.975px;" id="elggxmvgz5r6w" class="animable" ></path> <path d="M456.48,133.92c-.19.15-1.08-.72-2.49-.91s-2.53.38-2.66.19.14-.37.63-.64a3.64,3.64,0,0,1,2.17-.36,3.53,3.53,0,0,1,1.95.93C456.46,133.52,456.57,133.85,456.48,133.92Z" style="fill: rgb(38, 50, 56); transform-origin: 453.904px 133.05px;" id="elc0dzq53ddd7" class="animable" ></path> <path d="M456.27,129.1c-.29.28-1.22-.18-2.38-.35s-2.19-.08-2.37-.44c-.08-.18.12-.48.59-.72a3.24,3.24,0,0,1,2-.26,3.32,3.32,0,0,1,1.82.89C456.3,128.61,456.4,129,456.27,129.1Z" style="fill: rgb(38, 50, 56); transform-origin: 453.914px 128.231px;" id="elq6ec919fsof" class="animable" ></path> <path d="M467,141.58l-2,1.55c-6.49-8.43-18.56-28.9-17.9-27.69a22.41,22.41,0,0,1,11,.47c5.5,1.83,15.79,6.29,14.61,12.93S467,141.58,467,141.58Z" style="fill: rgb(38, 50, 56); transform-origin: 459.939px 129.049px;" id="ela0mzhjbeqmn" class="animable" ></path> <path d="M471.24,148.11a15.08,15.08,0,0,1,.18-1.62,25,25,0,0,0,.08-4.41,30,30,0,0,0-4.62-13.65,48,48,0,0,0-9.71-10.81c-1.44-1.2-2.63-2.13-3.47-2.77a13.88,13.88,0,0,1-1.27-1s.14,0,.37.2.58.37,1,.67c.87.59,2.1,1.48,3.57,2.66a44.77,44.77,0,0,1,9.91,10.82,29.15,29.15,0,0,1,4.55,13.88,21.54,21.54,0,0,1-.23,4.46c-.07.52-.19.91-.24,1.19A1.27,1.27,0,0,1,471.24,148.11Z" style="fill: rgb(69, 90, 100); transform-origin: 462.145px 130.98px;" id="elkd332354skd" class="animable" ></path> <path d="M456.86,114.08a1.86,1.86,0,0,1,.38.2c.25.14.6.35,1.05.64.89.58,2.17,1.45,3.68,2.63A58.61,58.61,0,0,1,467,122a33.87,33.87,0,0,1,5.31,6.29,15.78,15.78,0,0,1,1.77,3.92,14.61,14.61,0,0,1,.56,4,23.39,23.39,0,0,1-1,6.65c-.55,1.84-1.11,3.28-1.51,4.27-.2.49-.37.87-.48,1.13a2.5,2.5,0,0,1-.2.38A11,11,0,0,1,472,147c.34-1,.85-2.46,1.35-4.29a24,24,0,0,0,.92-6.55,14.88,14.88,0,0,0-.57-3.84,15.57,15.57,0,0,0-1.73-3.8,35.78,35.78,0,0,0-5.2-6.23,66.14,66.14,0,0,0-5-4.46c-1.47-1.2-2.72-2.11-3.58-2.73A11.54,11.54,0,0,1,456.86,114.08Z" style="fill: rgb(69, 90, 100); transform-origin: 465.75px 131.36px;" id="el1cri1x3f1fn" class="animable" ></path> <path d="M467.15,141.77a6.52,6.52,0,0,1-.77-1l-2-2.86c-1.63-2.42-3.86-5.79-6.29-9.53s-4.62-7.13-6.18-9.61l-1.83-2.94a7.94,7.94,0,0,1-.62-1.11,6.06,6.06,0,0,1,.77,1l2,2.86c1.63,2.42,3.86,5.79,6.3,9.53s4.62,7.14,6.18,9.61l1.83,2.95A6.16,6.16,0,0,1,467.15,141.77Z" style="fill: rgb(69, 90, 100); transform-origin: 458.305px 128.245px;" id="elxuebg64yrkj" class="animable" ></path> <path d="M465.09,144.28c.08-.76,1.14-2.48,1.9-2.52,2-.12,5.66.39,5.19,5.51-.63,7-7.51,4.91-7.51,4.71S464.83,146.91,465.09,144.28Z" style="fill: rgb(255, 190, 157); transform-origin: 468.446px 147.085px;" id="elojublt4x89h" class="animable" ></path> <path d="M466.6,149.35s.11.1.31.21a1.19,1.19,0,0,0,.91.1,3,3,0,0,0,1.64-2.57,4.13,4.13,0,0,0-.19-1.78,1.39,1.39,0,0,0-.83-1,.64.64,0,0,0-.75.27c-.11.19-.08.33-.11.34s-.14-.13-.06-.41a.74.74,0,0,1,.31-.41.9.9,0,0,1,.69-.12,1.7,1.7,0,0,1,1.18,1.2,4,4,0,0,1,.24,2c-.17,1.41-1,2.66-2,2.86a1.31,1.31,0,0,1-1.1-.28C466.6,149.52,466.58,149.36,466.6,149.35Z" style="fill: rgb(235, 153, 110); transform-origin: 468.285px 147.011px;" id="el6zahluknv6q" class="animable" ></path> <path d="M481.51,403.08c-.14,1.1-2.85,31.85-2.85,31.85H464.57l-2.47-31.72Z" style="fill: rgb(255, 190, 157); transform-origin: 471.805px 419.005px;" id="elo546ni9lej" class="animable"></path> <path d="M464.53,430.35s9.9,7,14.68.95l1.26,2.94,5.62,21a2.81,2.81,0,0,1-1.58,3.37,2.73,2.73,0,0,1-2.88-.55c-4.07-3.88-19-18.19-18.82-20.13l.05-5.15a2.65,2.65,0,0,1,1.67-2.42Z" style="fill: rgb(98, 54, 148); transform-origin: 474.506px 444.576px;" id="el1319zdbgmezj" class="animable" ></path> <path d="M484,458.74,462.8,436.13v1.12a3.18,3.18,0,0,0,1,2.49c1.72,2.31,6.47,7.49,17.74,18.31a2.71,2.71,0,0,0,2.47.69Z" style="fill: rgb(38, 50, 56); transform-origin: 473.403px 447.468px;" id="elhuojshf4y6" class="animable"></path> <path d="M465.91,432.77a1.65,1.65,0,0,1,.46,2.15,1.59,1.59,0,0,1-2.13.48,1.74,1.74,0,0,1-.47-2.28,1.64,1.64,0,0,1,2.26-.25" style="fill: rgb(255, 255, 255); transform-origin: 465.059px 434.076px;" id="el6wi93tq9vt5" class="animable" ></path> <path d="M477.91,447.16a8.24,8.24,0,0,1,2.32-2.08,8.5,8.5,0,0,1,3-.6c0-.06-.31-.27-.93-.35a4.2,4.2,0,0,0-2.38.43,4.16,4.16,0,0,0-1.78,1.64C477.88,446.74,477.84,447.14,477.91,447.16Z" style="fill: rgb(38, 50, 56); transform-origin: 480.555px 445.632px;" id="elu244a00heyl" class="animable" ></path> <path d="M479.81,450.71a21.37,21.37,0,0,1,2.35-1.16,22.55,22.55,0,0,1,2.59-.34c.08-.14-1.2-.69-2.76-.21S479.67,450.64,479.81,450.71Z" style="fill: rgb(38, 50, 56); transform-origin: 482.274px 449.759px;" id="elzeeto2aa03d" class="animable" ></path> <path d="M474.37,442.61a27.6,27.6,0,0,1,3.5-2,25.71,25.71,0,0,1,3.94-.93c0-.15-1.94-.51-4.16.39A6,6,0,0,0,474.37,442.61Z" style="fill: rgb(38, 50, 56); transform-origin: 478.09px 441.046px;" id="el8d0401jp476" class="animable" ></path> <path d="M473.89,436.22c.08.16,1.54-.46,3.45-.53s3.42.37,3.48.21a6.74,6.74,0,0,0-6.93.32Z" style="fill: rgb(38, 50, 56); transform-origin: 477.355px 435.669px;" id="eldahw5mnwo9u" class="animable"></path> <path d="M478.43,435.63a2.47,2.47,0,0,0-.15-1A7.06,7.06,0,0,0,477,432.2a3.08,3.08,0,0,0-1.58-1.21,1.1,1.1,0,0,0-1.17.46,1.81,1.81,0,0,0-.19,1.26,3.85,3.85,0,0,0,4,2.88,4.47,4.47,0,0,0,3.88-3.1,1.54,1.54,0,0,0-.17-1.28,1,1,0,0,0-1.2-.35,3.87,3.87,0,0,0-1.56,1.21,8,8,0,0,0-1.4,2.36,2.48,2.48,0,0,0-.23,1,12.29,12.29,0,0,1,1.94-3.06,3.58,3.58,0,0,1,1.38-1,.57.57,0,0,1,.66.19,1,1,0,0,1,.06.85A4,4,0,0,1,478,435a3.35,3.35,0,0,1-3.41-2.4,1.28,1.28,0,0,1,.1-.88.59.59,0,0,1,.64-.27,2.83,2.83,0,0,1,1.35,1A10.37,10.37,0,0,1,478.43,435.63Z" style="fill: rgb(38, 50, 56); transform-origin: 478.015px 433.207px;" id="ele85a7xbguhp" class="animable" ></path> <polygon points="404.14 393.07 406.57 432.33 423.63 432.21 426.51 391.42 404.14 393.07" style="fill: rgb(255, 190, 157); transform-origin: 415.325px 411.875px;" id="elgxqf49e5vg5" class="animable"></polygon> <path d="M406.26,427.59v1.14S387,436.38,386.76,440l38.2,0-.54-12.71A21.82,21.82,0,0,1,406.26,427.59Z" style="fill: rgb(98, 54, 148); transform-origin: 405.86px 433.645px;" id="el129mk2jkk43" class="animable"></path> <path d="M420.56,431.34a1.56,1.56,0,0,1,1.08,1.78,1.5,1.5,0,0,1-1.75,1.09,1.65,1.65,0,0,1-1.14-1.89,1.56,1.56,0,0,1,1.95-.93" style="fill: rgb(255, 255, 255); transform-origin: 420.193px 432.775px;" id="elrg4wxnejfif" class="animable" ></path> <path d="M425,440l-.13-3.05-36.56,1.16s-1.7.74-1.51,1.93Z" style="fill: rgb(38, 50, 56); transform-origin: 405.893px 438.495px;" id="el270b8xeygmx" class="animable"></path> <path d="M406.11,428.84c0,.18.94.26,1.86.86s1.41,1.39,1.58,1.31-.11-1.15-1.23-1.85S406.07,428.66,406.11,428.84Z" style="fill: rgb(38, 50, 56); transform-origin: 407.852px 429.842px;" id="elrahgjcsb4p" class="animable"></path> <path d="M402.11,430.5c0,.18.76.49,1.4,1.28s.82,1.62,1,1.62.31-1.07-.5-2S402.11,430.32,402.11,430.5Z" style="fill: rgb(38, 50, 56); transform-origin: 403.378px 431.917px;" id="elv3azqefjs8" class="animable"></path> <path d="M399.84,435.29c.17,0,.43-.89,0-1.91s-1.36-1.43-1.44-1.27.47.7.85,1.54S399.65,435.28,399.84,435.29Z" style="fill: rgb(38, 50, 56); transform-origin: 399.233px 433.683px;" id="el5qb0t24329q" class="animable"></path> <path d="M426.51,271.57c-.51,1.47-20.74,70-20.74,70l-3.48,81.33,25.18,1.45,9-81.2,23-50.79-10.11-41.32H428.8Z" style="fill: rgb(38, 50, 56); transform-origin: 430.88px 337.695px;" id="elef08yn3y12" class="animable"></path> <path d="M444.43,251.06c.36,1,13.27,47.5,13.27,47.5l1.79,69.34v57.37h22.95l10.69-126.52s1.89-23-1.34-30.73-16.31-21.31-16.31-21.31Z" style="fill: rgb(38, 50, 56); transform-origin: 469.055px 335.99px;" id="elgt9tl85wlxa" class="animable" ></path> <path d="M446.28,255.82a11.11,11.11,0,0,1,.52,1.62c.33,1.13.77,2.63,1.29,4.44,1.16,3.83,2.7,9,4.41,14.63s3.08,11,3.88,14.79c.42,1.92.69,3.48.85,4.56a9.57,9.57,0,0,1,.19,1.69,11.57,11.57,0,0,1-.39-1.65c-.22-1.07-.55-2.62-1-4.51-.89-3.81-2.33-9-4-14.73s-3.25-10.9-4.26-14.68c-.51-1.89-.9-3.42-1.14-4.49A9.82,9.82,0,0,1,446.28,255.82Z" style="fill: rgb(69, 90, 100); transform-origin: 451.85px 276.685px;" id="eljawfviwq1z" class="animable" ></path> <path d="M454.2,255.82a3,3,0,0,0-1.44,1,1.85,1.85,0,0,0-.2,1.76,2,2,0,0,0,1.7,1.25,2,2,0,0,0,1.81-1.09,1.87,1.87,0,0,0,0-1.77,3,3,0,0,0-1.34-1.16s.2-.05.53.06a2.21,2.21,0,0,1,1.12.92,2.17,2.17,0,0,1,.15,2.16,2.36,2.36,0,0,1-4.39-.2,2.2,2.2,0,0,1,.35-2.14,2.23,2.23,0,0,1,1.21-.81C454,255.75,454.2,255.79,454.2,255.82Z" style="fill: rgb(69, 90, 100); transform-origin: 454.377px 258.063px;" id="elfrwx8xzd6kn" class="animable" ></path> <path d="M474.57,289.22a1.6,1.6,0,0,1,0,.35c0,.26,0,.59,0,1,0,.94,0,2.26,0,3.94,0,3.43,0,8.38-.11,14.5-.18,12.24-.73,29.13-1.45,47.79s-1.32,35.56-1.6,47.79c-.14,6.12-.23,11.07-.28,14.49,0,1.68,0,3-.06,3.94q0,.63,0,1a.18.18,0,1,1-.06,0c0-.26,0-.6,0-1,0-.94,0-2.26,0-3.94,0-3.43,0-8.38.11-14.5.19-12.24.73-29.14,1.45-47.8s1.32-35.55,1.6-47.78c.14-6.12.24-11.07.28-14.49,0-1.68.05-3,.06-3.94,0-.43,0-.76,0-1A1.35,1.35,0,0,1,474.57,289.22Z" style="fill: rgb(69, 90, 100); transform-origin: 472.72px 356.799px;" id="elaq0265yooq" class="animable" ></path> <path d="M439.16,280.87a2,2,0,0,1-.11.35l-.39,1c-.37.93-.89,2.25-1.55,3.94-1.37,3.44-3.34,8.37-5.78,14.45s-5.22,13.42-7.88,21.68a139.2,139.2,0,0,0-6.35,27.43c-.53,5-.76,9.88-1.06,14.59s-.5,9.27-.74,13.61c-.45,8.67-.85,16.48-1.19,23.06s-.7,11.87-1,15.53c-.15,1.81-.26,3.22-.34,4.22-.05.46-.08.82-.11,1.09a2.91,2.91,0,0,1-.05.38,1.83,1.83,0,0,1,0-.38c0-.27,0-.64.05-1.1.06-1,.14-2.41.25-4.22.21-3.67.49-9,.8-15.54s.68-14.39,1.08-23.06c.23-4.34.46-8.9.71-13.62s.52-9.61,1.05-14.61A138.47,138.47,0,0,1,423,322.17c2.69-8.27,5.56-15.56,8-21.66s4.52-11,5.93-14.39c.7-1.68,1.25-3,1.64-3.91l.44-1A1.73,1.73,0,0,1,439.16,280.87Z" style="fill: rgb(69, 90, 100); transform-origin: 425.88px 351.535px;" id="elczpfqh0hlwi" class="animable" ></path> <path d="M473.78,169.2s13.65,2.55,16.65,5.05,30.34,38.16,30.91,45.36-2.76,9.84-4.65,11.55S482.12,255,482.12,255l-10.05-16.67,28.24-16.87-13.63-23.31Z" style="fill: rgb(98, 54, 148); transform-origin: 496.737px 212.1px;" id="el0rf0aj8stv9" class="animable" ></path> <path d="M509.43,215.12A15.72,15.72,0,0,0,504,217a16,16,0,0,0-4.06,4.06,3.89,3.89,0,0,1,.75-1.58,10.2,10.2,0,0,1,7-4.37A3.81,3.81,0,0,1,509.43,215.12Z" style="fill: rgb(98, 54, 148); transform-origin: 504.685px 218.037px;" id="elptqqm8r6w9" class="animable" ></path> <path d="M440.7,170.93l3.62,32.84,18.47-37,11.91,12.1s7.31,43.25,7.42,43.56-5,24.74-5,24.74l-33.85,6.55-10.33-2.63-1.63-38.47-.72-29.46Z" style="fill: rgb(255, 255, 255); transform-origin: 456.356px 210.245px;" id="eldanrnly2rbg" class="animable" ></path> <path d="M436.31,172.33l-8.79,2a7.45,7.45,0,0,0-3.18,1.61c-7.5,6.42-23.72,20-23.72,20l3-24.1L388,170.39s-4.68,30.38-4.2,38.37c.57,9.28,8.89,11.56,21,6.57a158.48,158.48,0,0,0,21.67-10.68Z" style="fill: rgb(98, 54, 148); transform-origin: 410.038px 194.15px;" id="elamb0jyrxjp" class="animable" ></path> <path d="M485.33,198.28l-1.61,28.8,1.62,5.6S500.5,261.3,503,280.25l-18.76,3s-5.12-24.45-8.72-36.57S461.27,229.46,457.67,217a57.71,57.71,0,0,1-2.27-22c0-.76,7.39-28.24,7.39-28.24l1.32-5.74,6.64,6.31L487.8,173Z" style="fill: rgb(98, 54, 148); transform-origin: 479.083px 222.135px;" id="elqbbeutmleyi" class="animable" ></path> <g id="ellep6mv7sp79"> <g style="opacity: 0.3; transform-origin: 485.61px 253.422px;" class="animable"> <path d="M494.27,251.84a97.7,97.7,0,0,1-9.71,6.61c-.2.1-.46.21-.75.32a3,3,0,0,1-3.67-1.38c-.4-.73-.81-1.5-1.08-2.08-.69-1.49-1.44-3.28-2.11-4.83l2.11-.51,3.06,5.07,8.82-6,1.68-1.15Z" id="el353ryxo8tbh" class="animable" style="transform-origin: 485.61px 253.422px;" ></path> </g> </g> <path d="M440.86,167.69l-4.1,4.29-9.83,3.45s-2.4,29-1.1,35.18c1.26,5.94,3.66,13.16,3.86,21.69s-9.54,53.61-9.54,53.61l11.78,4.47s6-52.19,4.83-63.57,1.87-34.32,1.87-34.32Z" style="fill: rgb(98, 54, 148); transform-origin: 430.505px 229.035px;" id="elxotfhia796s" class="animable" ></path> <path d="M463.16,223a3.32,3.32,0,0,1-.43-.47,9.77,9.77,0,0,1-1-1.55,15.55,15.55,0,0,1-1.53-6.56,61.87,61.87,0,0,1,.7-10,86.91,86.91,0,0,1,2.49-12,88.47,88.47,0,0,1,8-19.42l.16.29-4.17-.13h-.3l.18-.24,2.74-3.68.74-1a1.56,1.56,0,0,1,.28-.31,1.62,1.62,0,0,1-.21.36l-.68,1-2.62,3.77-.12-.24,4.17.05h.32l-.16.28a94.21,94.21,0,0,0-7.86,19.37,92.67,92.67,0,0,0-2.52,11.91,67.35,67.35,0,0,0-.8,9.9,16.23,16.23,0,0,0,1.34,6.48A23.19,23.19,0,0,0,463.16,223Z" style="fill: rgb(38, 50, 56); transform-origin: 466.038px 195.465px;" id="elbvhe777u9gq" class="animable" ></path> <path d="M474.7,196.41a18.12,18.12,0,0,1-4.83.92,17.78,17.78,0,0,1-4.91.06,35.29,35.29,0,0,1,4.86-.58A33,33,0,0,1,474.7,196.41Z" style="fill: rgb(38, 50, 56); transform-origin: 469.83px 196.971px;" id="elpgh5p468uoj" class="animable" ></path> <path d="M486.66,189.73a8.38,8.38,0,0,1-.21,1.46c-.13.94-.3,2.3-.46,4-.32,3.38-.64,8.05-1,13.21l-.8,13.23c-.12,1.69-.22,3.06-.31,4a7.18,7.18,0,0,1-.2,1.46,9.26,9.26,0,0,1,0-1.47c0-1.05.08-2.4.14-4,.13-3.39.34-8.07.65-13.24s.7-9.84,1.12-13.22c.2-1.68.43-3,.62-4A7.76,7.76,0,0,1,486.66,189.73Z" style="fill: rgb(38, 50, 56); transform-origin: 485.155px 208.41px;" id="elzate0dauhll" class="animable" ></path> <path d="M508.49,222.42c-.05.15-1.89-.44-4.25-.61s-4.26.13-4.29,0a9.06,9.06,0,0,1,4.33-.49A9.15,9.15,0,0,1,508.49,222.42Z" style="fill: rgb(38, 50, 56); transform-origin: 504.22px 221.844px;" id="eloc5e2j8peg" class="animable" ></path> <path d="M400.72,195.38a15.55,15.55,0,0,1-1.38,3.73,15.15,15.15,0,0,1-1.85,3.52,15,15,0,0,1,1.38-3.73A15.7,15.7,0,0,1,400.72,195.38Z" style="fill: rgb(38, 50, 56); transform-origin: 399.105px 199.005px;" id="el8mkjnjf9q0w" class="animable" ></path> <path d="M425.24,185.77c.14,0,.37,5.66.5,12.65s.13,12.66,0,12.66-.37-5.66-.51-12.65S425.1,185.78,425.24,185.77Z" style="fill: rgb(38, 50, 56); transform-origin: 425.484px 198.425px;" id="elshtpqyxdopp" class="animable"></path> <path d="M436.9,209.55a7.53,7.53,0,0,1-.13-1.46c0-1-.08-2.38-.14-4-.1-3.37-.21-8-.29-13.16s-.12-9.8-.13-13.17c0-1.61,0-2.95,0-4a7.69,7.69,0,0,1,.08-1.46,7.53,7.53,0,0,1,.13,1.46c0,1,.08,2.38.14,4,.1,3.37.2,8,.28,13.16s.13,9.79.14,13.16c0,1.61,0,3,0,4A8.94,8.94,0,0,1,436.9,209.55Z" style="fill: rgb(38, 50, 56); transform-origin: 436.594px 190.925px;" id="el4s0iel6vayi" class="animable" ></path> <path d="M510.93,235.3a4,4,0,0,1-.54.42l-1.6,1.15-6,4.21-20.52,14.17-.22.16-.14-.23-4.5-7.46-5.54-9.22-.13-.22.21-.13,20.26-12,5.94-3.46,1.6-.91a3.71,3.71,0,0,1,.57-.29,3.17,3.17,0,0,1-.53.37l-1.55,1-5.86,3.58L472.2,238.59l.09-.35c1.75,2.91,3.63,6,5.56,9.21l4.49,7.46-.37-.08c8.22-5.58,15.43-10.48,20.62-14l6.1-4.08,1.65-1.08A4.57,4.57,0,0,1,510.93,235.3Z" style="fill: rgb(38, 50, 56); transform-origin: 491.335px 238.45px;" id="elmn9d5agtulr" class="animable" ></path> <g id="elwo7v6z3t8l"> <g style="opacity: 0.3; transform-origin: 467.975px 197.52px;" class="animable"> <path d="M461.79,220.86A39,39,0,0,1,463,208.07a125,125,0,0,1,12.62-33.43,3.71,3.71,0,0,0-4.26.48,10.14,10.14,0,0,0-2.54,3.78,92.4,92.4,0,0,0-8.25,29.89,28.86,28.86,0,0,0-.15,6c.2,2.1.2,4.3,1.5,5.95" id="elj7h0hvigif" class="animable" style="transform-origin: 467.975px 197.52px;" ></path> </g> </g> <g id="elkmgvvl7024g"> <g style="opacity: 0.3; transform-origin: 424.269px 196.56px;" class="animable"> <path d="M425.21,187.87c-3.11,5.4-2.7,11.9.27,17.38,0-6,0-11.25-.36-17.3" id="elfuolo0utnx8" class="animable" style="transform-origin: 424.269px 196.56px;"></path> </g> </g> <path d="M449.39,147.81a1.24,1.24,0,0,0-.57-.87,1.46,1.46,0,0,0-.66-.1,15.7,15.7,0,0,0-3.85.55l-.07.2a8.35,8.35,0,0,0,.35,1.65,3,3,0,0,0,.92,1.39,2.45,2.45,0,0,0,2.91,0A2.8,2.8,0,0,0,449.39,147.81Z" style="fill: rgb(235, 153, 110); transform-origin: 446.852px 148.972px;" id="elxphoekuk5ql" class="animable" ></path> <path d="M445.53,150.87a5.42,5.42,0,0,0,1.62-.1,2.51,2.51,0,0,0,1.35-1,2.44,2.44,0,0,0,.36-1.94,1.22,1.22,0,0,0-.5-.77,1.44,1.44,0,0,0-.9,0l-1.8.34a5.75,5.75,0,0,1-1.7.19,5.65,5.65,0,0,1,1.62-.55l1.78-.45a1.81,1.81,0,0,1,1.23,0,1.66,1.66,0,0,1,.77,1.09,2.83,2.83,0,0,1-.47,2.35,2.75,2.75,0,0,1-1.65,1A2,2,0,0,1,445.53,150.87Z" style="fill: rgb(38, 50, 56); transform-origin: 446.7px 148.817px;" id="ely2blmvfxe1m" class="animable" ></path> <path d="M467.35,151.87a1.78,1.78,0,0,0-1.88-1.13h0a1.54,1.54,0,0,0-1.11.68,1.79,1.79,0,0,0,.19,2.11,1.73,1.73,0,0,0,2.08.31A1.69,1.69,0,0,0,467.35,151.87Z" style="fill: rgb(250, 250, 250); transform-origin: 465.769px 152.391px;" id="el4luav30j9o" class="animable" ></path> <path d="M472.51,239.36l-11.57-10.25-9.77.84s.34,1.6,1.69,1.85,6.23.34,6.23.34l2.29,2.27-5.83-.58-7.41,4.37s-.17,1.35,1.77,1a38,38,0,0,0,5.64-1.85l4.31.25-4.7.68-6.09,4.29a3.19,3.19,0,0,0,3.2.85c1.94-.59,4.29-1.52,4.29-1.52l5.31-.51-5.31,1.35-3.95,4.89a2.23,2.23,0,0,0,2.55,0,26.37,26.37,0,0,0,2.25-1.77l5.89-.26s6.51,4.72,8.77,5.23,7-.87,7-.87Z" style="fill: rgb(255, 190, 157); transform-origin: 463.603px 240.027px;" id="elh1qouv8a9lw" class="animable" ></path> </g> <defs> <filter id="active" height="200%"> <feMorphology in="SourceAlpha" result="DILATED" operator="dilate" radius="2"></feMorphology> <feFlood flood-color="#32DFEC" flood-opacity="1" result="PINK"></feFlood> <feComposite in="PINK" in2="DILATED" operator="in" result="OUTLINE"></feComposite> <feMerge> <feMergeNode in="OUTLINE"></feMergeNode> <feMergeNode in="SourceGraphic"></feMergeNode> </feMerge> </filter> <filter id="hover" height="200%"> <feMorphology in="SourceAlpha" result="DILATED" operator="dilate" radius="2"></feMorphology> <feFlood flood-color="#ff0000" flood-opacity="0.5" result="PINK"></feFlood> <feComposite in="PINK" in2="DILATED" operator="in" result="OUTLINE"></feComposite> <feMerge> <feMergeNode in="OUTLINE"></feMergeNode> <feMergeNode in="SourceGraphic"></feMergeNode> </feMerge> <feColorMatrix type="matrix" values="0 0 0 0 0 0 1 0 0 0 0 0 0 0 0 0 0 0 1 0 "></feColorMatrix> </filter> </defs></svg>