<svg class="animated" id="freepik_stories-mobile-marketing" xmlns="http://www.w3.org/2000/svg" viewBox="0 0 500 500" version="1.1" xmlns:xlink="http://www.w3.org/1999/xlink" xmlns:svgjs="http://svgjs.com/svgjs"><style>svg#freepik_stories-mobile-marketing:not(.animated) .animable {opacity: 0;}svg#freepik_stories-mobile-marketing.animated #freepik--Smartphone--inject-39 {animation: 1s 1 forwards cubic-bezier(.36,-0.01,.5,1.38) zoomIn,6s Infinite  linear floating;animation-delay: 0s,1s;}svg#freepik_stories-mobile-marketing.animated #freepik--Character--inject-39 {animation: 1s 1 forwards cubic-bezier(.36,-0.01,.5,1.38) slideLeft,6s Infinite  linear floating;animation-delay: 0.5s,1.5s;opacity: 0}svg#freepik_stories-mobile-marketing.animated #freepik--Megaphone--inject-39 {animation: 1s 1 forwards cubic-bezier(.36,-0.01,.5,1.38) slideRight,6s Infinite  linear floating;animation-delay: 1s,2s;opacity: 0}            @keyframes zoomIn {                0% {                    opacity: 0;                    transform: scale(0.5);                }                100% {                    opacity: 1;                    transform: scale(1);                }            }                    @keyframes floating {                0% {                    opacity: 1;                    transform: translateY(0px);                }                50% {                    transform: translateY(-10px);                }                100% {                    opacity: 1;                    transform: translateY(0px);                }            }                    @keyframes slideLeft {                0% {                    opacity: 0;                    transform: translateX(-30px);                }                100% {                    opacity: 1;                    transform: translateX(0);                }            }                    @keyframes slideRight {                0% {                    opacity: 0;                    transform: translateX(30px);                }                100% {                    opacity: 1;                    transform: translateX(0);                }            }        </style><g id="freepik--background-complete--inject-39" class="animable" style="transform-origin: 250px 228.23px;"><rect y="382.4" width="500" height="0.25" style="fill: rgb(235, 235, 235); transform-origin: 250px 382.525px;" id="elcmhmnok8fdd" class="animable"></rect><rect x="416.78" y="398.49" width="33.12" height="0.25" style="fill: rgb(235, 235, 235); transform-origin: 433.34px 398.615px;" id="eleum9szkce05" class="animable"></rect><rect x="322.53" y="401.21" width="8.69" height="0.25" style="fill: rgb(235, 235, 235); transform-origin: 326.875px 401.335px;" id="eld0hmotxxo9u" class="animable"></rect><rect x="396.59" y="389.21" width="19.19" height="0.25" style="fill: rgb(235, 235, 235); transform-origin: 406.185px 389.335px;" id="el253jxxwt1zk" class="animable"></rect><rect x="52.46" y="390.89" width="43.19" height="0.25" style="fill: rgb(235, 235, 235); transform-origin: 74.055px 391.015px;" id="elbeq9krz7j4w" class="animable"></rect><rect x="104.56" y="390.89" width="6.33" height="0.25" style="fill: rgb(235, 235, 235); transform-origin: 107.725px 391.015px;" id="el6m3mq6dkegt" class="animable"></rect><rect x="131.47" y="395.11" width="93.68" height="0.25" style="fill: rgb(235, 235, 235); transform-origin: 178.31px 395.235px;" id="eltug8adhas8g" class="animable"></rect><path d="M237,337.8H43.91a5.71,5.71,0,0,1-5.7-5.71V60.66A5.71,5.71,0,0,1,43.91,55H237a5.71,5.71,0,0,1,5.71,5.71V332.09A5.71,5.71,0,0,1,237,337.8ZM43.91,55.2a5.46,5.46,0,0,0-5.45,5.46V332.09a5.46,5.46,0,0,0,5.45,5.46H237a5.47,5.47,0,0,0,5.46-5.46V60.66A5.47,5.47,0,0,0,237,55.2Z" style="fill: rgb(235, 235, 235); transform-origin: 140.46px 196.4px;" id="elulj8dcq64bm" class="animable"></path><path d="M453.31,337.8H260.21a5.72,5.72,0,0,1-5.71-5.71V60.66A5.72,5.72,0,0,1,260.21,55h193.1A5.71,5.71,0,0,1,459,60.66V332.09A5.71,5.71,0,0,1,453.31,337.8ZM260.21,55.2a5.47,5.47,0,0,0-5.46,5.46V332.09a5.47,5.47,0,0,0,5.46,5.46h193.1a5.47,5.47,0,0,0,5.46-5.46V60.66a5.47,5.47,0,0,0-5.46-5.46Z" style="fill: rgb(235, 235, 235); transform-origin: 356.75px 196.4px;" id="elncffeugqwpd" class="animable"></path><rect x="228.15" y="79.78" width="194.79" height="171.1" style="fill: rgb(230, 230, 230); transform-origin: 325.545px 165.33px;" id="el2dqz899d3ll" class="animable"></rect><rect x="230.53" y="79.78" width="197.5" height="171.1" style="fill: rgb(240, 240, 240); transform-origin: 329.28px 165.33px;" id="elqiqk6be9x2" class="animable"></rect><rect x="228.15" y="250.87" width="194.79" height="4.72" style="fill: rgb(230, 230, 230); transform-origin: 325.545px 253.23px;" id="el2rde7dfaa19" class="animable"></rect><rect x="238.99" y="250.87" width="197.5" height="4.72" style="fill: rgb(240, 240, 240); transform-origin: 337.74px 253.23px;" id="elgsilt3r72jh" class="animable"></rect><g id="elt2ra7ian8wo"><rect x="250.84" y="73.69" width="156.88" height="183.27" style="fill: rgb(250, 250, 250); transform-origin: 329.28px 165.325px; transform: rotate(90deg);" class="animable"></rect></g><polygon points="262.17 243.76 282.38 86.89 317.37 86.89 297.15 243.76 262.17 243.76" style="fill: rgb(255, 255, 255); transform-origin: 289.77px 165.325px;" id="elb759hdb2vkr" class="animable"></polygon><polygon points="304.66 243.76 324.88 86.89 338.52 86.89 318.3 243.76 304.66 243.76" style="fill: rgb(255, 255, 255); transform-origin: 321.59px 165.325px;" id="eljpp4lgizrro" class="animable"></polygon><g id="elbhrh4g9t4wm"><rect x="342.02" y="164.87" width="156.88" height="0.9" style="fill: rgb(230, 230, 230); transform-origin: 420.46px 165.32px; transform: rotate(90deg);" class="animable"></rect></g><g id="elm1tn06mxxbj"><polygon points="429.7 101.84 234.91 101.84 234.26 89.65 429.05 89.65 429.7 101.84" style="fill: rgb(224, 224, 224); opacity: 0.5; transform-origin: 331.98px 95.745px;" class="animable"></polygon></g><g id="elio9i4hy8db"><polygon points="429.7 121.87 234.91 121.87 234.26 109.69 429.05 109.69 429.7 121.87" style="fill: rgb(224, 224, 224); opacity: 0.5; transform-origin: 331.98px 115.78px;" class="animable"></polygon></g><g id="elmunpg5yx0a"><polygon points="429.7 141.9 234.91 141.9 234.26 129.72 429.05 129.72 429.7 141.9" style="fill: rgb(224, 224, 224); opacity: 0.5; transform-origin: 331.98px 135.81px;" class="animable"></polygon></g><g id="elix4cjes035f"><polygon points="429.7 161.94 234.91 161.94 234.26 149.75 429.05 149.75 429.7 161.94" style="fill: rgb(224, 224, 224); opacity: 0.5; transform-origin: 331.98px 155.845px;" class="animable"></polygon></g><g id="elryymvrkdws"><polygon points="429.7 181.97 234.91 181.97 234.26 169.78 429.05 169.78 429.7 181.97" style="fill: rgb(224, 224, 224); opacity: 0.5; transform-origin: 331.98px 175.875px;" class="animable"></polygon></g><g id="el23ljrknlfprh"><polygon points="429.7 202 234.91 202 234.26 189.81 429.05 189.81 429.7 202" style="fill: rgb(224, 224, 224); opacity: 0.5; transform-origin: 331.98px 195.905px;" class="animable"></polygon></g><rect x="58.65" y="115.72" width="60.85" height="120.31" style="fill: rgb(224, 224, 224); transform-origin: 89.075px 175.875px;" id="elpahjzd5bfld" class="animable"></rect><rect x="61.06" y="115.72" width="62.05" height="120.31" style="fill: rgb(245, 245, 245); transform-origin: 92.085px 175.875px;" id="elkmeimnb2m3" class="animable"></rect><g id="elj08ni4ji19l"><rect x="38.89" y="150.04" width="106.39" height="51.65" style="fill: rgb(255, 255, 255); transform-origin: 92.085px 175.865px; transform: rotate(-90deg);" class="animable"></rect></g><rect x="139.89" y="97.36" width="60.85" height="120.31" style="fill: rgb(224, 224, 224); transform-origin: 170.315px 157.515px;" id="el3g569vvp7kj" class="animable"></rect><rect x="142.3" y="97.36" width="62.05" height="120.31" style="fill: rgb(245, 245, 245); transform-origin: 173.325px 157.515px;" id="elbbipg17nfzt" class="animable"></rect><g id="elrvvyq0xvqwn"><rect x="120.13" y="131.68" width="106.39" height="51.66" style="fill: rgb(255, 255, 255); transform-origin: 173.325px 157.51px; transform: rotate(-90deg);" class="animable"></rect></g><rect x="164.32" y="271.52" width="25.61" height="110.88" style="fill: rgb(230, 230, 230); transform-origin: 177.125px 326.96px;" id="elyvdo3mbvl2" class="animable"></rect><polygon points="185.07 382.4 189.93 382.4 189.93 371.11 179.97 371.11 185.07 382.4" style="fill: rgb(240, 240, 240); transform-origin: 184.95px 376.755px;" id="elzae7xiwty1h" class="animable"></polygon><rect x="68.59" y="271.52" width="25.61" height="110.88" style="fill: rgb(230, 230, 230); transform-origin: 81.395px 326.96px;" id="elq0oqbm489o" class="animable"></rect><rect x="89.95" y="271.52" width="99.98" height="103.95" style="fill: rgb(240, 240, 240); transform-origin: 139.94px 323.495px;" id="el3wr90migfrq" class="animable"></rect><g id="elkv49z2qfknr"><rect x="122.41" y="297.6" width="82.92" height="44.58" style="fill: rgb(230, 230, 230); transform-origin: 163.87px 319.89px; transform: rotate(-90deg);" class="animable"></rect></g><g id="elk3u924j6ger"><rect x="74.56" y="297.6" width="82.92" height="44.58" style="fill: rgb(230, 230, 230); transform-origin: 116.02px 319.89px; transform: rotate(-90deg);" class="animable"></rect></g><path d="M120.43,281.6h-8.82A15.62,15.62,0,0,1,101.48,278h29.08A15.62,15.62,0,0,1,120.43,281.6Z" style="fill: rgb(240, 240, 240); transform-origin: 116.02px 279.8px;" id="elu51mlnke04" class="animable"></path><path d="M168.73,281.6h-8.82A15.6,15.6,0,0,1,149.78,278h29.08A15.62,15.62,0,0,1,168.73,281.6Z" style="fill: rgb(240, 240, 240); transform-origin: 164.32px 279.8px;" id="el12tc0e7kwq0q" class="animable"></path><polygon points="94.82 382.4 89.95 382.4 89.95 371.11 99.92 371.11 94.82 382.4" style="fill: rgb(240, 240, 240); transform-origin: 94.935px 376.755px;" id="elaa3r3r87fpj" class="animable"></polygon><path d="M113.42,260.94s.76,10.58,29.91,10.58,29.91-10.58,29.91-10.58Z" style="fill: rgb(230, 230, 230); transform-origin: 143.33px 266.23px;" id="elnfhjuzc39ki" class="animable"></path><g id="elpg283s3bzt"><rect x="228.33" y="290.05" width="218.82" height="18.32" style="fill: rgb(235, 235, 235); transform-origin: 337.74px 299.21px; transform: rotate(180deg);" class="animable"></rect></g><g id="elcxarljergn"><rect x="228.33" y="290.05" width="62.11" height="18.32" style="fill: rgb(224, 224, 224); transform-origin: 259.385px 299.21px; transform: rotate(180deg);" class="animable"></rect></g><g id="eleaty1w83j6v"><rect x="434.05" y="308.37" width="13.1" height="74.03" style="fill: rgb(235, 235, 235); transform-origin: 440.6px 345.385px; transform: rotate(180deg);" class="animable"></rect></g><polygon points="434.05 313.5 447.15 310.94 447.15 308.37 434.05 308.37 434.05 313.5" style="fill: rgb(224, 224, 224); transform-origin: 440.6px 310.935px;" id="el85xgg4z1dxe" class="animable"></polygon><g id="elyko7wn0855"><rect x="228.33" y="308.37" width="13.1" height="74.03" style="fill: rgb(224, 224, 224); transform-origin: 234.88px 345.385px; transform: rotate(180deg);" class="animable"></rect></g><g id="elut15ipphyb"><rect x="277.34" y="308.37" width="13.1" height="74.03" style="fill: rgb(235, 235, 235); transform-origin: 283.89px 345.385px; transform: rotate(180deg);" class="animable"></rect></g><polygon points="277.34 313.5 290.44 310.94 290.44 308.37 277.34 308.37 277.34 313.5" style="fill: rgb(224, 224, 224); transform-origin: 283.89px 310.935px;" id="elryyzi0w9bqb" class="animable"></polygon><g id="eljkya5zvltrf"><rect x="393.04" y="308.37" width="13.1" height="74.03" style="fill: rgb(224, 224, 224); transform-origin: 399.59px 345.385px; transform: rotate(180deg);" class="animable"></rect></g></g><g id="freepik--Shadow--inject-39" class="animable" style="transform-origin: 250px 416.24px;"><ellipse id="freepik--path--inject-39" cx="250" cy="416.24" rx="193.89" ry="11.32" style="fill: rgb(245, 245, 245); transform-origin: 250px 416.24px;" class="animable"></ellipse></g><g id="freepik--Smartphone--inject-39" class="animable" style="transform-origin: 182.005px 271.215px;"><path d="M232.51,129.33H113.22A13.62,13.62,0,0,0,99.5,144l17.1,254.4a16,16,0,0,0,15.7,14.7H251.59a13.6,13.6,0,0,0,13.71-14.7L248.2,144A16,16,0,0,0,232.51,129.33Z" style="fill: rgb(98, 54, 148); transform-origin: 182.402px 271.215px;" id="elf8r35iq97lr" class="animable"></path><g id="eljfd3kcyuf1b"><path d="M232.51,129.33H113.22A13.62,13.62,0,0,0,99.5,144l17.1,254.4a16,16,0,0,0,15.7,14.7H251.59a13.6,13.6,0,0,0,13.71-14.7L248.2,144A16,16,0,0,0,232.51,129.33Z" style="fill: rgb(255, 255, 255); opacity: 0.3; transform-origin: 182.402px 271.215px;" class="animable"></path></g><g id="elpwm4awfftl8"><rect x="99.47" y="183.84" width="1" height="24.05" style="fill: rgb(98, 54, 148); transform-origin: 99.97px 195.865px; transform: rotate(-3.84deg);" class="animable"></rect></g><g id="elh3i35mp1yig"><rect x="101.49" y="220.48" width="1" height="10.78" style="fill: rgb(98, 54, 148); transform-origin: 101.99px 225.87px; transform: rotate(-3.85deg);" class="animable"></rect></g><path d="M125.26,401a4,4,0,0,1-7.76,1.66,15.27,15.27,0,0,1-.9-4.21L99.5,144a14.33,14.33,0,0,1,.34-4.27,4,4,0,0,1,7.91.65Z" style="fill: rgb(98, 54, 148); transform-origin: 112.369px 270.945px;" id="el3wwkc21hs3k" class="animable"></path><path d="M251.59,408.33H140.76a11.24,11.24,0,0,1-10.89-10.22l-17.1-254.39a8.79,8.79,0,0,1,8.91-9.57H232.51a11.24,11.24,0,0,1,10.89,10.21l17.1,254.4a8.81,8.81,0,0,1-8.91,9.57ZM121.68,135.22a7.73,7.73,0,0,0-7.84,8.43L130.94,398a10.13,10.13,0,0,0,9.82,9.22H251.59a7.73,7.73,0,0,0,7.84-8.43l-17.1-254.39a10.13,10.13,0,0,0-9.82-9.22Z" style="fill: rgb(255, 255, 255); transform-origin: 186.634px 271.24px;" id="eldjmmdqwq9ar" class="animable"></path><g id="el1895kstlhek"><g style="opacity: 0.5; transform-origin: 187.81px 215.42px;" class="animable"><g id="el4hcqqyg39fc"><ellipse cx="187.81" cy="215.42" rx="44.54" ry="49.79" style="fill: rgb(98, 54, 148); transform-origin: 187.81px 215.42px; transform: rotate(-46.6deg);" class="animable"></ellipse></g><g id="el5ppf4wmoozl"><ellipse cx="187.81" cy="215.42" rx="35.63" ry="39.83" style="fill: rgb(255, 255, 255); transform-origin: 187.81px 215.42px; transform: rotate(-46.6deg);" class="animable"></ellipse></g><g id="elths0m0ryid"><ellipse cx="187.81" cy="215.42" rx="26.72" ry="29.87" style="fill: rgb(98, 54, 148); transform-origin: 187.81px 215.42px; transform: rotate(-46.59deg);" class="animable"></ellipse></g><g id="elw0qasskape"><ellipse cx="187.81" cy="215.42" rx="17.82" ry="19.92" style="fill: rgb(255, 255, 255); transform-origin: 187.81px 215.42px; transform: rotate(-46.6deg);" class="animable"></ellipse></g><g id="elkogm4jqb11o"><ellipse cx="187.81" cy="215.42" rx="8.91" ry="9.96" style="fill: rgb(98, 54, 148); transform-origin: 187.81px 215.42px; transform: rotate(-46.59deg);" class="animable"></ellipse></g></g></g><path d="M196.89,279.51c-.18,0-.35,0-.53,0a16.48,16.48,0,0,0-14.42-8.9,14.79,14.79,0,0,0-4.51.7,16.91,16.91,0,0,0-14.64-8.81,14.34,14.34,0,0,0-14.55,14.18,11.2,11.2,0,0,0-10.5,12.13,13.21,13.21,0,0,0,13,12.17h47.62a9.92,9.92,0,0,0,10-10.75A11.67,11.67,0,0,0,196.89,279.51Z" style="fill: rgb(255, 255, 255); transform-origin: 173.047px 281.74px;" id="eli5sjnmryr5" class="animable"></path><path d="M227.22,163.16l-.41,0a12.84,12.84,0,0,0-11.24-6.93,11.58,11.58,0,0,0-3.52.54,13.19,13.19,0,0,0-11.41-6.86,11.18,11.18,0,0,0-11.34,11,8.74,8.74,0,0,0-8.19,9.46,10.3,10.3,0,0,0,10.13,9.48h37.12a7.73,7.73,0,0,0,7.81-8.38A9.11,9.11,0,0,0,227.22,163.16Z" style="fill: rgb(255, 255, 255); transform-origin: 208.638px 164.88px;" id="el6me2pl36jqg" class="animable"></path><g id="elyzgzvguy56e"><path d="M242,318.86H173.44a3.56,3.56,0,0,0-3.59,3.85l2.78,40.89a4.17,4.17,0,0,0,4.11,3.85h9.2l.77,11.31,10.53-11.31h48a3.55,3.55,0,0,0,3.59-3.85l-2.77-40.89A4.19,4.19,0,0,0,242,318.86Z" style="fill: rgb(255, 255, 255); opacity: 0.3; transform-origin: 209.34px 348.81px;" class="animable"></path></g><polygon points="241.47 345.74 177.61 345.74 177.26 340.57 241.13 340.57 241.47 345.74" style="fill: rgb(255, 255, 255); transform-origin: 209.365px 343.155px;" id="elnnb32wwrxo" class="animable"></polygon><polygon points="222 356.48 178.34 356.48 177.99 351.31 221.65 351.31 222 356.48" style="fill: rgb(255, 255, 255); transform-origin: 199.995px 353.895px;" id="el2u515k23v5h" class="animable"></polygon><polygon points="240.75 335 176.88 335 176.53 329.83 240.4 329.83 240.75 335" style="fill: rgb(255, 255, 255); transform-origin: 208.64px 332.415px;" id="elyw0t0ls7jz9" class="animable"></polygon></g><g id="freepik--Character--inject-39" class="animable" style="transform-origin: 243.935px 253.755px;"><path d="M295.64,146l2.63,1.89q1.37,1,2.76,1.89c1.85,1.23,3.71,2.46,5.59,3.58s3.78,2.18,5.66,3.12a40.57,40.57,0,0,0,5.46,2.27,3.27,3.27,0,0,0-1.27-.06,2.41,2.41,0,0,0-.73.21c-.29.15-.2.16-.05.07a7.77,7.77,0,0,0,1.55-1.42,39.05,39.05,0,0,0,3.56-5c1.17-1.84,2.29-3.79,3.36-5.79s2.14-4.05,3.13-6l.07-.13a4.5,4.5,0,0,1,8.34,3.27,97.21,97.21,0,0,1-5.15,13.92,48.06,48.06,0,0,1-3.95,6.95,20.53,20.53,0,0,1-3.29,3.71,11.32,11.32,0,0,1-3.05,1.9,9.83,9.83,0,0,1-2.44.65,8.89,8.89,0,0,1-3-.17,49.81,49.81,0,0,1-7.82-2.51,71.33,71.33,0,0,1-6.94-3.27q-3.33-1.77-6.49-3.73c-1.05-.66-2.09-1.33-3.12-2s-2-1.37-3.13-2.19a7,7,0,0,1,8.19-11.24Z" style="fill: rgb(98, 54, 148); transform-origin: 310.468px 154.628px;" id="elxvo48ycxcir" class="animable"></path><g id="elovs14n04qzs"><path d="M295.64,146l2.63,1.89q1.37,1,2.76,1.89c1.85,1.23,3.71,2.46,5.59,3.58s3.78,2.18,5.66,3.12a40.57,40.57,0,0,0,5.46,2.27,3.27,3.27,0,0,0-1.27-.06,2.41,2.41,0,0,0-.73.21c-.29.15-.2.16-.05.07a7.77,7.77,0,0,0,1.55-1.42,39.05,39.05,0,0,0,3.56-5c1.17-1.84,2.29-3.79,3.36-5.79s2.14-4.05,3.13-6l.07-.13a4.5,4.5,0,0,1,8.34,3.27,97.21,97.21,0,0,1-5.15,13.92,48.06,48.06,0,0,1-3.95,6.95,20.53,20.53,0,0,1-3.29,3.71,11.32,11.32,0,0,1-3.05,1.9,9.83,9.83,0,0,1-2.44.65,8.89,8.89,0,0,1-3-.17,49.81,49.81,0,0,1-7.82-2.51,71.33,71.33,0,0,1-6.94-3.27q-3.33-1.77-6.49-3.73c-1.05-.66-2.09-1.33-3.12-2s-2-1.37-3.13-2.19a7,7,0,0,1,8.19-11.24Z" style="opacity: 0.2; transform-origin: 310.468px 154.628px;" class="animable"></path></g><path d="M329.81,138.89l2.71-4.58,5.2,5.61a6.91,6.91,0,0,1-3.78,3.55,2.58,2.58,0,0,1-2.27-.3l-1-.64A2.71,2.71,0,0,1,329.81,138.89Z" style="fill: rgb(255, 181, 115); transform-origin: 333.579px 138.959px;" id="el0sycdkyqlwki" class="animable"></path><path d="M339.89,131.58l1.15.71a2.72,2.72,0,0,1,.37,4.35l-3.69,3.28-5.2-5.61,4.53-2.74A2.71,2.71,0,0,1,339.89,131.58Z" style="fill: rgb(255, 181, 115); transform-origin: 337.424px 135.547px;" id="elq1k49kx3yj" class="animable"></path><polygon points="232.02 408.12 239.94 408.35 242.92 390.01 235.01 389.78 232.02 408.12" style="fill: rgb(255, 181, 115); transform-origin: 237.47px 399.065px;" id="elogub5y9cpvs" class="animable"></polygon><path d="M241.19,406.12,232.34,405a.57.57,0,0,0-.65.47l-1.31,6.94a1.4,1.4,0,0,0,1.2,1.57c3.09.34,4.58.34,8.47.83,2.39.31,8.62,1.81,11.93,1.4s2.81-3.66,1.37-3.78c-6.45-.56-8.87-3.63-10.87-5.66A2.25,2.25,0,0,0,241.19,406.12Z" style="fill: rgb(38, 50, 56); transform-origin: 242.415px 410.637px;" id="elarf6z3bq62d" class="animable"></path><g id="elmt2nftabux"><polygon points="235 389.79 242.92 390.02 241.38 399.47 233.46 399.24 235 389.79" style="opacity: 0.2; transform-origin: 238.19px 394.63px;" class="animable"></polygon></g><path d="M278.29,214s-6.91,65.59-11.51,87.87c-5,24.4-21.17,95.78-21.17,95.78l-14.49-1.07s7.94-73.84,14.44-97.74c0-24.82,6-94.38,6-94.38Z" style="fill: rgb(38, 50, 56); transform-origin: 254.705px 301.055px;" id="elmwudcum8wi8" class="animable"></path><g id="elkscjzwt6bee"><path d="M255.2,236.17c-.13-5.13-2.91-6.78-5.65-6.72-1,12.34-2.07,27.47-2.88,41.12C251.53,262.69,255.56,250.42,255.2,236.17Z" style="opacity: 0.3; transform-origin: 250.946px 250.009px;" class="animable"></path></g><polygon points="230.69 396.68 246.21 397.83 247.99 391.98 230.12 391.8 230.69 396.68" style="fill: rgb(255, 255, 255); transform-origin: 239.055px 394.815px;" id="elphcw8c9g2hi" class="animable"></polygon><polygon points="151.71 346.65 156.7 352.82 171.63 342.05 166.63 335.89 151.71 346.65" style="fill: rgb(255, 181, 115); transform-origin: 161.67px 344.355px;" id="el7q9s64n7abu" class="animable"></polygon><path d="M157.78,352.83l-4.44-7.73a.57.57,0,0,0-.76-.24L146.25,348a1.4,1.4,0,0,0-.53,1.9c1.59,2.67,2.49,3.86,4.44,7.26,1.2,2.09,4.36,8.1,6,11s4.47,1.17,4-.2c-2-6.16-2.57-10.87-2.16-13.68A2.24,2.24,0,0,0,157.78,352.83Z" style="fill: rgb(38, 50, 56); transform-origin: 152.877px 357.268px;" id="el6q0dhkbo4g7" class="animable"></path><g id="el0ayiftwt9lz8"><polygon points="166.63 335.89 171.63 342.06 163.93 347.6 158.93 341.44 166.63 335.89" style="opacity: 0.2; transform-origin: 165.28px 341.745px;" class="animable"></polygon></g><path d="M263.84,208.36s-19.49,55.78-28.35,76.74c-9.69,22.95-67.64,63.71-67.64,63.71l-9.15-11.29s39.38-39.47,54-58.19c8.1-25.49,25.39-80.18,25.39-80.18Z" style="fill: rgb(38, 50, 56); transform-origin: 211.27px 273.98px;" id="elwmqo3u7kzor" class="animable"></path><polygon points="158.33 337.06 168.22 349.26 173.05 346.47 161.47 333.55 158.33 337.06" style="fill: rgb(255, 255, 255); transform-origin: 165.69px 341.405px;" id="el0w07rod4shdh" class="animable"></polygon><path d="M278.21,214.38l-40.16-15.23c1-3.67,6.25-14.45,10.92-29.46a202.64,202.64,0,0,0,7.68-34v0a2.49,2.49,0,0,1,2.91-2.15c.75.13,1.64.3,2.62.49,2.53.51,5.69,1.23,8.7,2.15a157.65,157.65,0,0,1,17,6.06,51.8,51.8,0,0,1,5.41,2.83,14.81,14.81,0,0,1,2.87,2.13,3,3,0,0,1,1.11,2.06C297.27,155,291.52,177.24,278.21,214.38Z" style="fill: rgb(240, 240, 240); transform-origin: 267.66px 173.941px;" id="elu8hsbsgqxio" class="animable"></path><path d="M287.08,141.87c-4.52-2.94-4.3-6.3-2.77-9.54A22.74,22.74,0,0,1,285.6,130l-4.35-7.35-3.2-5.39c-.7,5.92-2.84,16.4-7.84,18.72a22,22,0,0,0,11.13,8.2C288.72,146.48,287.08,141.87,287.08,141.87Z" style="fill: rgb(255, 181, 115); transform-origin: 278.723px 131.041px;" id="elbnrxau22kg9" class="animable"></path><polygon points="281.06 144.06 280.99 142.18 275.99 143.16 281.06 144.06" style="fill: rgb(224, 224, 224); transform-origin: 278.525px 143.12px;" id="elph84df5qa3g" class="animable"></polygon><polygon points="281.06 144.06 281.99 142.53 285.22 146.46 281.06 144.06" style="fill: rgb(224, 224, 224); transform-origin: 283.14px 144.495px;" id="elpmwrphd6etc" class="animable"></polygon><path d="M270.89,135.08a47.22,47.22,0,0,0,10.1,7.1c-2,1.23-3.9,4.47-4.62,7.15-1.62-1.13-8.1-11.79-9-14.72Z" style="fill: rgb(255, 255, 255); transform-origin: 274.18px 141.97px;" id="elmjwmbadp4f" class="animable"></path><path d="M286.14,140.73a8,8,0,0,1-4.16,1.8c1.07,1.57,2,5.64,2,8,1.87-1.22,4.76-5.48,5.22-7.41Z" style="fill: rgb(255, 255, 255); transform-origin: 285.59px 145.63px;" id="el8e7uzvuujyy" class="animable"></path><g id="el8ypatyo3v4l"><path d="M286.3,140.59s4.37,2.1,8.23,4.48a8.57,8.57,0,0,1,3.76,9.59c-4.77,16.86-11.21,33.23-13.88,42.34-2.83,9.71-6.77,21.89-6.77,21.89l-6.81,1.61S287.9,155.21,286.3,140.59Z" style="opacity: 0.3; transform-origin: 284.716px 180.545px;" class="animable"></path></g><g id="el6435qubfk3l"><path d="M270.79,134.32s-5.87-.77-11-1a7.83,7.83,0,0,0-7.94,5.89c-2.6,10.28-4.52,29.94-7.15,37.59C241.43,186.36,237,205,237,205l23.26,13.44S283.76,146.25,270.79,134.32Z" style="opacity: 0.3; transform-origin: 255.847px 175.876px;" class="animable"></path></g><path d="M270.79,134.32s-5.87-.77-11-1a7.83,7.83,0,0,0-7.94,5.89c-2.6,10.28-6.14,29.48-8.78,37.14-3.29,9.56-10.27,25.81-10.27,25.81l29.34,13.76S283.76,146.25,270.79,134.32Z" style="fill: rgb(98, 54, 148); transform-origin: 253.867px 174.616px;" id="el7z3vwpi9cra" class="animable"></path><g id="el0q5r211kw67"><path d="M270.79,134.32s-5.87-.77-11-1a7.83,7.83,0,0,0-7.94,5.89c-2.6,10.28-6.14,29.48-8.78,37.14-3.29,9.56-10.27,25.81-10.27,25.81l29.34,13.76S283.76,146.25,270.79,134.32Z" style="opacity: 0.2; transform-origin: 253.867px 174.616px;" class="animable"></path></g><path d="M286.3,140.59s4.37,2.1,8.23,4.48a8.57,8.57,0,0,1,3.76,9.59c-4.77,16.86-8.54,34.53-10.44,43.83-2,9.9-4.09,18.91-4.09,18.91l-11,1.49S287.9,155.21,286.3,140.59Z" style="fill: rgb(98, 54, 148); transform-origin: 285.681px 179.74px;" id="elubisw3zhvyk" class="animable"></path><g id="elig3ee0qchn"><path d="M286.3,140.59s4.37,2.1,8.23,4.48a8.57,8.57,0,0,1,3.76,9.59c-4.77,16.86-8.54,34.53-10.44,43.83-2,9.9-4.09,18.91-4.09,18.91l-11,1.49S287.9,155.21,286.3,140.59Z" style="opacity: 0.2; transform-origin: 285.681px 179.74px;" class="animable"></path></g><g id="el623gp3i5aoc"><path d="M285.6,130a22.74,22.74,0,0,0-1.29,2.36c-2.14-1.29-4.34-4.85-3.82-7.32a11.24,11.24,0,0,1,.76-2.39Z" style="opacity: 0.2; transform-origin: 283.006px 127.505px;" class="animable"></path></g><path d="M291.77,99.68c5.32.69,7.27,7.87,4.33,12.61C291.28,105.3,291.77,99.68,291.77,99.68Z" style="fill: rgb(38, 50, 56); transform-origin: 294.613px 105.985px;" id="elitil6i9h31k" class="animable"></path><path d="M275.21,112.92c1.8,7.69,2.45,12.27,7.06,15.72A10.26,10.26,0,0,0,298.76,121c.5-7.19-2.52-18.56-10.67-20.62A10.38,10.38,0,0,0,275.21,112.92Z" style="fill: rgb(255, 181, 115); transform-origin: 286.852px 115.374px;" id="elbpnujy3291" class="animable"></path><path d="M277.58,119.77c4.63.13,3.91-7.54,1.89-10.44,6.42,1,17.06-4.67,18.13-10.61,1.55-8.61-11.58-8.61-15.83-5.87,1.83.13,2.76,1.68,2.32,2.48,0,0-6.34-1.92-10.44.31,1.79.66,3.69,3.24-3.12,4.06-6.48.78-4.52,7.3-1.25,7.18-1.74,2.67-3.83,8.74.09,11.32s6.6,5.94,5.75,7.32C276.49,125.47,279.4,123.82,277.58,119.77Z" style="fill: rgb(38, 50, 56); transform-origin: 281.985px 108.375px;" id="ell3nuvct4qmk" class="animable"></path><path d="M270.21,106.28c-3.1.3-4.88,2.72-5,6A24,24,0,0,1,270.21,106.28Z" style="fill: rgb(38, 50, 56); transform-origin: 267.71px 109.28px;" id="elfus0nxunapl" class="animable"></path><path d="M273.36,119.87a7,7,0,0,0,3.8,3.42c2.17.79,3.31-1.13,2.75-3.27-.51-1.94-2.25-4.67-4.45-4.53S272.4,117.91,273.36,119.87Z" style="fill: rgb(255, 181, 115); transform-origin: 276.511px 119.478px;" id="elxwr3ml66ezp" class="animable"></path><path d="M287.4,113.51c.1.63.53,1.09.94,1s.66-.61.56-1.24-.53-1.1-.95-1S287.29,112.88,287.4,113.51Z" style="fill: rgb(38, 50, 56); transform-origin: 288.148px 113.389px;" id="el3qh6hngf8e2" class="animable"></path><path d="M294.57,112.55c.1.63.52,1.09.94,1s.66-.61.56-1.25-.53-1.09-.95-1S294.46,111.91,294.57,112.55Z" style="fill: rgb(38, 50, 56); transform-origin: 295.318px 112.425px;" id="elvtf6pbltpb" class="animable"></path><path d="M292.34,113.17a24.21,24.21,0,0,0,3.94,5c-.94,1.19-2.93,1-2.93,1Z" style="fill: rgb(237, 137, 62); transform-origin: 294.31px 116.176px;" id="ellimyzj2n3t8" class="animable"></path><path d="M291.05,121.18a5.46,5.46,0,0,1-4-1.59.19.19,0,0,1,0-.26.19.19,0,0,1,.27,0,5.22,5.22,0,0,0,4.43,1.41.19.19,0,1,1,.05.37A4.81,4.81,0,0,1,291.05,121.18Z" style="fill: rgb(38, 50, 56); transform-origin: 289.499px 120.228px;" id="elxid4jyl73yg" class="animable"></path><path d="M289.05,123.26a5.46,5.46,0,0,1-2.18-3.73.19.19,0,0,1,.17-.2.18.18,0,0,1,.2.17,5.33,5.33,0,0,0,2.62,3.85.18.18,0,0,1,.07.25.19.19,0,0,1-.26.07A7.4,7.4,0,0,1,289.05,123.26Z" style="fill: rgb(38, 50, 56); transform-origin: 288.412px 121.512px;" id="eljk22bm8hupm" class="animable"></path><path d="M284.79,111.5a.37.37,0,0,1-.18,0,.37.37,0,0,1-.16-.51,3.64,3.64,0,0,1,2.78-2,.37.37,0,0,1,.4.35.37.37,0,0,1-.35.4,2.9,2.9,0,0,0-2.17,1.55A.35.35,0,0,1,284.79,111.5Z" style="fill: rgb(38, 50, 56); transform-origin: 286.018px 110.25px;" id="el083hwx9j7qz4" class="animable"></path><path d="M297.23,109.68a.36.36,0,0,1-.31-.16,3.14,3.14,0,0,0-2.4-1.4.38.38,0,0,1,0-.75h0a3.86,3.86,0,0,1,3,1.72.37.37,0,0,1-.09.52A.33.33,0,0,1,297.23,109.68Z" style="fill: rgb(38, 50, 56); transform-origin: 295.895px 108.525px;" id="ell1e2bnk4qqe" class="animable"></path><path d="M261.94,146.26c-2,1.63-4.11,3.44-6.12,5.21s-4.06,3.59-6,5.45A117.1,117.1,0,0,0,239,168.38l-1.14,1.48-.14.19a1.09,1.09,0,0,0,.08-.14,2.17,2.17,0,0,0,.15-.35,1.86,1.86,0,0,0,.12-.63c0-.34-.06-.34,0-.18a3.25,3.25,0,0,0,.26.89,14.4,14.4,0,0,0,1.5,2.68,35.22,35.22,0,0,0,2.22,2.92c1.61,2,3.41,3.91,5.3,5.8s3.89,3.8,5.8,5.55l.13.11a4.49,4.49,0,0,1-5.47,7.09,90.11,90.11,0,0,1-14-10.95c-1.09-1.09-2.16-2.23-3.21-3.49a28.27,28.27,0,0,1-3-4.39,16.53,16.53,0,0,1-1.27-3,11.21,11.21,0,0,1-.46-4.33,9.9,9.9,0,0,1,.62-2.67,10.13,10.13,0,0,1,.61-1.29l.36-.59.16-.24,1.3-1.93a108.8,108.8,0,0,1,11.53-13.59c2-2.08,4.1-4.11,6.23-6.07s4.24-3.85,6.59-5.77A7,7,0,0,1,262,146.23Z" style="fill: rgb(98, 54, 148); transform-origin: 244.831px 164.516px;" id="el3dfreu8ummw" class="animable"></path><g id="el3h2cxkwrl2p"><path d="M261.94,146.26c-2,1.63-4.11,3.44-6.12,5.21s-4.06,3.59-6,5.45A117.1,117.1,0,0,0,239,168.38l-1.14,1.48-.14.19a1.09,1.09,0,0,0,.08-.14,2.17,2.17,0,0,0,.15-.35,1.86,1.86,0,0,0,.12-.63c0-.34-.06-.34,0-.18a3.25,3.25,0,0,0,.26.89,14.4,14.4,0,0,0,1.5,2.68,35.22,35.22,0,0,0,2.22,2.92c1.61,2,3.41,3.91,5.3,5.8s3.89,3.8,5.8,5.55l.13.11a4.49,4.49,0,0,1-5.47,7.09,90.11,90.11,0,0,1-14-10.95c-1.09-1.09-2.16-2.23-3.21-3.49a28.27,28.27,0,0,1-3-4.39,16.53,16.53,0,0,1-1.27-3,11.21,11.21,0,0,1-.46-4.33,9.9,9.9,0,0,1,.62-2.67,10.13,10.13,0,0,1,.61-1.29l.36-.59.16-.24,1.3-1.93a108.8,108.8,0,0,1,11.53-13.59c2-2.08,4.1-4.11,6.23-6.07s4.24-3.85,6.59-5.77A7,7,0,0,1,262,146.23Z" style="opacity: 0.2; transform-origin: 244.831px 164.516px;" class="animable"></path></g><path d="M254.67,188.24l6.8,4.16-8.69,4.95s-5.78-4.32-3.31-7.11l2.9-2A2.11,2.11,0,0,1,254.67,188.24Z" style="fill: rgb(255, 181, 115); transform-origin: 255.163px 192.625px;" id="ele6at05h9ipt" class="animable"></path><path d="M261.84,200l-3.74,2.2a2.25,2.25,0,0,1-3.12-.84l-2.2-4,8.69-4.95,1.4,5A2.28,2.28,0,0,1,261.84,200Z" style="fill: rgb(255, 181, 115); transform-origin: 257.869px 197.464px;" id="elpbjakondbsn" class="animable"></path></g><g id="freepik--Megaphone--inject-39" class="animable animator-active" style="transform-origin: 374.985px 110.027px;"><path d="M326.89,129.38l9.21-1.81c-2.53,4.46,1.19,8.73,4.53,11.41,1.59,1.28.47,3.57-2,4l-6,1.18C325.39,145.62,326.89,129.38,326.89,129.38Z" style="fill: rgb(98, 54, 148); transform-origin: 334.065px 135.911px;" id="elykrzjzz25k" class="animable"></path><path d="M323.23,130.09,344.35,126a12.72,12.72,0,0,0,10-14.9h0a12.74,12.74,0,0,0-14.9-10l-21.11,4.14a12.75,12.75,0,0,0-10,14.91h0A12.73,12.73,0,0,0,323.23,130.09Z" style="fill: rgb(98, 54, 148); transform-origin: 331.347px 115.596px;" id="elrsfc965fp4" class="animable"></path><g id="elpvjwdtcum7"><path d="M323.23,130.09,344.35,126a12.72,12.72,0,0,0,10-14.9h0a12.74,12.74,0,0,0-14.9-10l-21.11,4.14a12.75,12.75,0,0,0-10,14.91h0A12.73,12.73,0,0,0,323.23,130.09Z" style="fill: rgb(255, 255, 255); opacity: 0.3; transform-origin: 331.347px 115.596px;" class="animable"></path></g><path d="M380.71,134.4l-36-.48c-3.12.61-11-39.79-7.92-40.4l33.14-14Z" style="fill: rgb(98, 54, 148); transform-origin: 358.399px 106.96px;" id="eloqnnv32dqdn" class="animable"></path><path d="M372.45,107.51c3,15.16,6.67,27.2,8.26,26.89s.47-12.86-2.51-28-6.67-27.2-8.26-26.89S369.48,92.34,372.45,107.51Z" style="fill: rgb(98, 54, 148); transform-origin: 375.326px 106.955px;" id="eln9izks1o2a" class="animable"></path><g id="elm7czrlwv7w"><path d="M372.45,107.51c3,15.16,6.67,27.2,8.26,26.89s.47-12.86-2.51-28-6.67-27.2-8.26-26.89S369.48,92.34,372.45,107.51Z" style="opacity: 0.3; transform-origin: 375.326px 106.955px;" class="animable"></path></g><path d="M386,105.64c-.73-3.71-9-5.22-10.75-4.87s-2.6,3.63-1.88,7.34,2.75,6.43,4.51,6.09S386.7,109.34,386,105.64Z" style="fill: rgb(98, 54, 148); transform-origin: 379.581px 107.475px;" id="eljrb5hd78cs" class="animable"></path><g id="ela42luc071gi"><rect x="394.63" y="99.81" width="47.45" height="1.07" style="fill: rgb(98, 54, 148); transform-origin: 418.355px 100.345px; transform: rotate(-9.19deg);" class="animable"></rect></g><g id="el9tzhxxwxk3g"><rect x="387.77" y="83.86" width="25.24" height="1.07" style="fill: rgb(98, 54, 148); transform-origin: 400.39px 84.395px; transform: rotate(-40.45deg);" class="animable"></rect></g><g id="elt89ywjghksk"><rect x="421.95" y="124.44" width="1.07" height="7.47" style="fill: rgb(98, 54, 148); transform-origin: 422.485px 128.175px; transform: rotate(-70.56deg);" class="animable"></rect></g><g id="elclkajvqpws"><rect x="401.82" y="111.83" width="1.07" height="18.8" style="fill: rgb(98, 54, 148); transform-origin: 402.355px 121.23px; transform: rotate(-71.46deg);" class="animable"></rect></g></g><defs>     <filter id="active" height="200%">         <feMorphology in="SourceAlpha" result="DILATED" operator="dilate" radius="2"></feMorphology>                <feFlood flood-color="#32DFEC" flood-opacity="1" result="PINK"></feFlood>        <feComposite in="PINK" in2="DILATED" operator="in" result="OUTLINE"></feComposite>        <feMerge>            <feMergeNode in="OUTLINE"></feMergeNode>            <feMergeNode in="SourceGraphic"></feMergeNode>        </feMerge>    </filter>    <filter id="hover" height="200%">        <feMorphology in="SourceAlpha" result="DILATED" operator="dilate" radius="2"></feMorphology>                <feFlood flood-color="#ff0000" flood-opacity="0.5" result="PINK"></feFlood>        <feComposite in="PINK" in2="DILATED" operator="in" result="OUTLINE"></feComposite>        <feMerge>            <feMergeNode in="OUTLINE"></feMergeNode>            <feMergeNode in="SourceGraphic"></feMergeNode>        </feMerge>            <feColorMatrix type="matrix" values="0   0   0   0   0                0   1   0   0   0                0   0   0   0   0                0   0   0   1   0 "></feColorMatrix>    </filter></defs></svg>