<svg class="animated" id="success_steps" xmlns="http://www.w3.org/2000/svg" viewBox="0 0 500 500" version="1.1" xmlns:xlink="http://www.w3.org/1999/xlink"><style>svg#success_steps:not(.animated) .animable {opacity: 0;}svg#success_steps.animated #freepik--Plant--inject-135 {animation: 1s 1 forwards cubic-bezier(.36,-0.01,.5,1.38) fadeIn,6s Infinite  linear wind;animation-delay: 0s,1s;}svg#success_steps.animated #freepik--Character--inject-135 {animation: 1.6s 1 forwards cubic-bezier(.36,-0.01,.5,1.38) slideLeft,6s Infinite  linear floating;animation-delay: 0.6s,2.2s;opacity: 0}svg#success_steps.animated #freepik--Levels--inject-135 {animation: 1s 1 forwards cubic-bezier(.36,-0.01,.5,1.38) slideUp;animation-delay: 0s;}            @keyframes fadeIn {                0% {                    opacity: 0;                }                100% {                    opacity: 1;                }            }                    @keyframes wind {                0% {                    transform: rotate( 0deg );                }                25% {                    transform: rotate( 1deg );                }                75% {                    transform: rotate( -1deg );                }            }                    @keyframes slideLeft {                0% {                    opacity: 0;                    transform: translateX(-30px);                }                100% {                    opacity: 1;                    transform: translateX(0);                }            }                    @keyframes floating {                0% {                    opacity: 1;                    transform: translateY(0px);                }                50% {                    transform: translateY(-10px);                }                100% {                    opacity: 1;                    transform: translateY(0px);                }            }                    @keyframes slideUp {                0% {                    opacity: 0;                    transform: translateY(30px);                }                100% {                    opacity: 1;                    transform: inherit;                }            }        </style><g id="freepik--background-complete--inject-135" class="animable animator-active" style="transform-origin: 243.99px 264.63px;"><path d="M38.47,385.91A33.46,33.46,0,0,0,24.15,381c-2.34-.24-4.9-.18-6.77,1.24a1.4,1.4,0,0,0-.7,1.24,1.47,1.47,0,0,0,.66.84c5.83,4.45,14.64,5,21.13,1.61" style="fill: rgb(224, 224, 224); transform-origin: 27.5749px 384.506px;" id="eloxk0qc3hnqg" class="animable"></path><path d="M38.1,385.5a70.27,70.27,0,0,1-9.25-8.14,23.43,23.43,0,0,1-5.8-10.72,4.34,4.34,0,0,1,.46-3.59c7.37,5.76,13.16,13.21,14.59,22.45" style="fill: rgb(224, 224, 224); transform-origin: 30.4764px 374.275px;" id="el4j47f6iyf5f" class="animable"></path><path d="M38.39,385.85a33.68,33.68,0,0,1,.17-12.14,16.44,16.44,0,0,1,6.47-10c1.27,3,.73,6.41-.17,9.52a46.28,46.28,0,0,1-6.41,13.5" style="fill: rgb(224, 224, 224); transform-origin: 41.85px 375.22px;" id="ellbocxucip9" class="animable"></path><path d="M45.62,398.8c-4.39.53-8.21,2.84-11.49,5.81a21.71,21.71,0,0,0-6.56,11.28c4.3-.27,8-3.3,10.6-6.71s4.48-7.13,7.39-10.31" style="fill: rgb(224, 224, 224); transform-origin: 36.595px 407.345px;" id="el5kd6yioebgg" class="animable"></path><path d="M47.19,400.87a28.29,28.29,0,0,1,3.27-26.79C53,383,52,393,47.19,400.87" style="fill: rgb(224, 224, 224); transform-origin: 48.5153px 387.475px;" id="el2lwxcemtkdp" class="animable"></path><path d="M56.74,412.24a20.49,20.49,0,0,0-19.59,11.27,1.54,1.54,0,0,0-.13,1.54,1.45,1.45,0,0,0,1.3.38c3.86-.25,7.28-2.57,10.1-5.22s5.28-5.69,8.4-8" style="fill: rgb(224, 224, 224); transform-origin: 46.8462px 418.83px;" id="elh6qivxi5ce" class="animable"></path><path d="M56.43,411.62a36.47,36.47,0,0,1-.36-20.37c.72-2.62,1.92-5.39,4.35-6.61a.82.82,0,0,1,.66-.12.85.85,0,0,1,.42.49,12.26,12.26,0,0,1,1,5.84,37.18,37.18,0,0,1-.92,5.92c-.76,3.61-1.17,7.5-3.15,10.62a21,21,0,0,0-1.26,2.33c-.38.79-.38,1.07-.73,1.7" style="fill: rgb(224, 224, 224); transform-origin: 58.6635px 398.058px;" id="elocbrwmzouln" class="animable"></path><path d="M81.71,415.39c-1.87-7.13.11-15.76,4.6-21.6.33-.43.77-.89,1.31-.84.83.07,1,1.18,1,2a39,39,0,0,1-6.91,20.43" style="fill: rgb(224, 224, 224); transform-origin: 84.8141px 404.168px;" id="elyo6mbygyiyi" class="animable"></path><path d="M84,416.94a31.38,31.38,0,0,0,25.78-5.24,20.88,20.88,0,0,0-14-1.71c-4.66,1.06-8.92,3.15-11.82,6.95" style="fill: rgb(224, 224, 224); transform-origin: 96.87px 413.627px;" id="elm71pqu6w1mh" class="animable"></path><path d="M85.91,412.2c4.85-7.9,14.14-13.06,23.4-13.53-1.07,3.77-4.17,6.69-7.66,8.46s-7.39,2.54-11.23,3.29c-1.49.29-3.54.61-4.51,1.78" style="fill: rgb(224, 224, 224); transform-origin: 97.61px 405.435px;" id="elwwvta1u39g" class="animable"></path><path d="M82.19,389.19a68.24,68.24,0,0,0,3-13.71c.36-4.67-.3-9.54-2.73-13.55-4.52,8.76-5,19-.4,27.73" style="fill: rgb(224, 224, 224); transform-origin: 82.0568px 375.795px;" id="eltu01fc4p27" class="animable"></path><path d="M97.43,381.48c5.3-9.62,16.1-17.31,27-18.38-4.22,10.5-15.72,18.61-27,18.38" style="fill: rgb(224, 224, 224); transform-origin: 110.93px 372.292px;" id="el2dqskki4y8c" class="animable"></path><path d="M94.1,383.37c7.9,1.2,14.62,6.24,22,9.3a9.72,9.72,0,0,0,5,.95,3.89,3.89,0,0,0,2.44-6.88,10.74,10.74,0,0,0-3.62-2.2c-8-3.34-16.65-3.42-25.12-1.4" style="fill: rgb(224, 224, 224); transform-origin: 109.521px 387.72px;" id="el0577k0gzamfd" class="animable"></path><path d="M89.53,388.91c1.79.51,2.4,1.43,3.82,2.64A41.11,41.11,0,0,0,110,400.12c.64.16,1.47.22,1.79-.35s-.07-1.12-.43-1.56a23,23,0,0,0-10.08-6.84c-3.85-1.44-7.18-3.16-11.78-2.79" style="fill: rgb(224, 224, 224); transform-origin: 100.704px 394.38px;" id="ela0mwmbouisd" class="animable"></path><path d="M84.38,355.46a31.55,31.55,0,0,0,24.2,8.23,1.65,1.65,0,0,0,1.11-.39c.61-.66-.13-1.69-.84-2.24-7.11-5.55-15.73-7.85-24.47-5.6" style="fill: rgb(224, 224, 224); transform-origin: 97.1481px 359.21px;" id="eld47inunzmce" class="animable"></path><path d="M90.49,353.22a33.75,33.75,0,0,1,30.21-5,24.05,24.05,0,0,1-14.4,6.32,45.6,45.6,0,0,1-15.81-1.34" style="fill: rgb(224, 224, 224); transform-origin: 105.595px 350.685px;" id="elwpqvxorgi" class="animable"></path><path d="M88.06,337.85c-.7-7.1-.25-12.71-.74-19.85,0-.57-.16-1.25-.69-1.46-.75-.29-1.37.63-1.61,1.39a22.71,22.71,0,0,0,3,19.76" style="fill: rgb(224, 224, 224); transform-origin: 86.016px 327.168px;" id="elvmubjlowrt" class="animable"></path><path d="M87.55,338.64A41.89,41.89,0,0,0,99.32,327.2c2.32-3.18,4.28-7,3.75-10.89a11.26,11.26,0,0,0-8.49,4.21,23.66,23.66,0,0,0-4.32,8.71c-1,3.12-1.61,6.33-2.71,9.41" style="fill: rgb(224, 224, 224); transform-origin: 95.3537px 327.475px;" id="ele4yu99zt6e5" class="animable"></path><path d="M99.11,335.42a94.74,94.74,0,0,0,29-17.07c-3.46-1.4-7.42-.56-10.88.83A34.3,34.3,0,0,0,99,335.35" style="fill: rgb(224, 224, 224); transform-origin: 113.555px 326.525px;" id="eltfioe8bu4lb" class="animable"></path><path d="M90.8,342.52c5.35.59,10.78,1,16.08.08s10.14-2.94,15-5a1.72,1.72,0,0,0,1-.77,1.19,1.19,0,0,0-.36-1.29,3.21,3.21,0,0,0-1.28-.6c-5.3-1.48-11-.78-16.23,1a75.71,75.71,0,0,0-14.24,6.6" style="fill: rgb(224, 224, 224); transform-origin: 106.856px 338.639px;" id="elwphbmpa62d" class="animable"></path><path d="M60.27,355.7c-3.64-7.36-3.41-15.95-.26-23.54,2.22,3.38,2.49,7.68,2.09,11.7s-1.63,8.17-1.71,12.21" style="fill: rgb(224, 224, 224); transform-origin: 59.9241px 344.115px;" id="eljiffas9ac99" class="animable"></path><path d="M45.7,348.35a32.87,32.87,0,0,0-24.4,10.4,22.81,22.81,0,0,0,13.36-2.48,67.86,67.86,0,0,0,11.45-7.66" style="fill: rgb(224, 224, 224); transform-origin: 33.705px 353.629px;" id="el6p00xs5420c" class="animable"></path><path d="M35.91,345.08c-4.46-.36-8.75-.92-13,.4A15.64,15.64,0,0,0,13,353.89a23.53,23.53,0,0,0,12.21-2.3,70.56,70.56,0,0,0,10.75-6.51" style="fill: rgb(224, 224, 224); transform-origin: 24.48px 349.308px;" id="elxzdib43q3u" class="animable"></path><path d="M50.41,345.23c-4-2.63-8.12-5.3-12.79-6.39s-10.07-.29-13.33,3.23c3.78,2.22,8.36,2.48,12.74,2.48s9.75-.06,13.88,1.4" style="fill: rgb(224, 224, 224); transform-origin: 37.6px 342.168px;" id="eltpt16dcvo2c" class="animable"></path><path d="M50.43,345.44c-6.85-6.73-9.44-18.82-6.69-28a42.61,42.61,0,0,1,6.69,28" style="fill: rgb(224, 224, 224); transform-origin: 46.6732px 331.44px;" id="elutckynvehtk" class="animable"></path><path d="M69.27,326.38c1.3-3,2.21-6.16,3.36-9.22a26.21,26.21,0,0,1,4.8-8.49,12.58,12.58,0,0,1,8.48-4.4,34.12,34.12,0,0,1-16.47,22.15" style="fill: rgb(224, 224, 224); transform-origin: 77.59px 315.345px;" id="el3x7h80jy4b" class="animable"></path><path d="M65.86,330.35c-2.13-3-4.6-6.94-7.5-9.14s-6.68-3.52-10.22-2.68a23.81,23.81,0,0,0,17.72,11.82" style="fill: rgb(224, 224, 224); transform-origin: 57px 324.312px;" id="elnwsixetv889" class="animable"></path><path d="M66.55,326.62a50.45,50.45,0,0,1-3.38-10.95,17,17,0,0,1,1.71-11.13c3.76,7.11,5,14.74,1.86,22.16" style="fill: rgb(224, 224, 224); transform-origin: 65.7025px 315.62px;" id="elbxqqy2ouj9q" class="animable"></path><path d="M69.31,304.54c2.13-7,8.58-12.23,15.55-14.61a5.84,5.84,0,0,1,2.73-.41,2.39,2.39,0,0,1,2,1.67c.25,1.2-.74,2.28-1.67,3.07a52.94,52.94,0,0,1-18.62,10.28" style="fill: rgb(224, 224, 224); transform-origin: 79.4646px 297.018px;" id="elck5inmlydxq" class="animable"></path><path d="M69.39,298.78c.27-4.54.55-9.15,2-13.46s4.32-8.34,8.47-10.23c.7,4.59-1.32,9.16-3.76,13.11s-5.39,7.67-6.86,12.08" style="fill: rgb(224, 224, 224); transform-origin: 74.6202px 287.685px;" id="el0u0xp2iu5d8b" class="animable"></path><path d="M69.27,301.91c-1.76-5.14-1.94-11.66-5-16.14-2.15-3.12-5.6-5.26-7.45-8.57a13.07,13.07,0,0,0,.43,9.73,28.37,28.37,0,0,0,5.69,8.15c2.28,2.43,4.23,4.26,6.34,6.83" style="fill: rgb(224, 224, 224); transform-origin: 62.681px 289.555px;" id="elzucagecqqid" class="animable"></path><path d="M69.31,453.17c-.14,0-.26-34.27-.27-76.52s.1-76.53.23-76.53.26,34.26.27,76.53S69.45,453.17,69.31,453.17Z" style="fill: rgb(224, 224, 224); transform-origin: 69.29px 376.645px;" id="elqsg7theoodj" class="animable"></path><path d="M99.25,350.53A7.83,7.83,0,0,1,98,351l-3.54,1.2c-3,1-7.1,2.49-11.56,4.32S74.29,360,71.92,362a8.2,8.2,0,0,0-2.2,2.91c-.34.81-.4,1.3-.45,1.29a1.22,1.22,0,0,1,0-.36,5.94,5.94,0,0,1,.25-1,7.79,7.79,0,0,1,2.15-3.1,19.46,19.46,0,0,1,4.75-2.95c1.9-.88,4-1.81,6.24-2.73,4.47-1.83,8.61-3.26,11.63-4.19,1.51-.47,2.74-.82,3.6-1.05A8,8,0,0,1,99.25,350.53Z" style="fill: rgb(224, 224, 224); transform-origin: 84.2533px 358.365px;" id="elaybbshr12f" class="animable"></path><path d="M109.07,326.42a2.14,2.14,0,0,1-.36.39c-.3.27-.66.61-1.1,1l-4.11,3.73L89.84,343.73c-5.33,4.75-9.94,9.29-13.14,12.7-1.6,1.71-2.85,3.12-3.71,4.11-.41.45-.73.83-1,1.13s-.35.39-.37.38a2.43,2.43,0,0,1,.3-.44c.2-.28.51-.69.92-1.2.81-1,2-2.47,3.61-4.22a174.08,174.08,0,0,1,13.06-12.83c5.35-4.73,10.22-9,13.76-12.05l4.21-3.61,1.16-1A2.27,2.27,0,0,1,109.07,326.42Z" style="fill: rgb(224, 224, 224); transform-origin: 90.345px 344.235px;" id="elfn86t2lwizs" class="animable"></path><path d="M84.08,348.56c-.14-.06,1-2.63,2.09-5.89s1.64-6,1.79-6a20.18,20.18,0,0,1-1.32,6.13A41.35,41.35,0,0,1,85,347,6.33,6.33,0,0,1,84.08,348.56Z" style="fill: rgb(224, 224, 224); transform-origin: 86.0141px 342.615px;" id="elhx9rongxyro" class="animable"></path><path d="M69.34,369.3a5.9,5.9,0,0,1-.82-.95l-2.11-2.7c-1.77-2.29-4.21-5.44-6.95-8.9S54.2,350.2,52.37,348l-2.15-2.66a7.18,7.18,0,0,1-.74-1,6.44,6.44,0,0,1,.89.89c.55.6,1.33,1.47,2.27,2.57,1.9,2.18,4.46,5.25,7.21,8.7s5.14,6.66,6.84,9c.85,1.17,1.53,2.12,2,2.79A5.82,5.82,0,0,1,69.34,369.3Z" style="fill: rgb(224, 224, 224); transform-origin: 59.41px 356.82px;" id="el06nec0vv6vnl" class="animable"></path><path d="M62.77,360.87A12.07,12.07,0,0,1,60,355.72a14.92,14.92,0,0,1-.62-5.19l.22,0q-.15.6-.21.6s0-.23,0-.64l.22,0a23.59,23.59,0,0,0,.88,5.05A38.74,38.74,0,0,0,62.77,360.87Z" style="fill: rgb(224, 224, 224); transform-origin: 61.0628px 355.68px;" id="el4xz584dv3mk" class="animable"></path><path d="M54.3,350.21a9.45,9.45,0,0,0-1.92-1.12,13,13,0,0,0-5.33-.42,32.52,32.52,0,0,0-5.37.87,17.75,17.75,0,0,1-2.21.53,7.63,7.63,0,0,1,2.11-.87,24.35,24.35,0,0,1,5.43-1,11.62,11.62,0,0,1,5.5.59A3.44,3.44,0,0,1,54.3,350.21Z" style="fill: rgb(224, 224, 224); transform-origin: 46.885px 349.153px;" id="elxdfhiyaib8" class="animable"></path><path d="M52.29,347.63c0,.07-1.12-.45-2.94-1.08A30.81,30.81,0,0,0,42,345a30.47,30.47,0,0,0-7.49.38c-1.9.34-3,.7-3.07.62a2.69,2.69,0,0,1,.78-.34,19.42,19.42,0,0,1,2.22-.62,26.16,26.16,0,0,1,15,1.15,17.37,17.37,0,0,1,2.1.95A2.9,2.9,0,0,1,52.29,347.63Z" style="fill: rgb(224, 224, 224); transform-origin: 41.865px 346.037px;" id="el03m0fuvc4kcx" class="animable"></path><path d="M69.27,336.7a61.62,61.62,0,0,1-2.14-7.45,62.69,62.69,0,0,1-1.67-7.58,58.47,58.47,0,0,1,2.15,7.45A59.27,59.27,0,0,1,69.27,336.7Z" style="fill: rgb(224, 224, 224); transform-origin: 67.365px 329.185px;" id="eln3iubhaiey" class="animable"></path><path d="M69.41,336.7A35.58,35.58,0,0,0,67,332.24a19.85,19.85,0,0,0-3.5-3.62,3.38,3.38,0,0,1,1.35.7A10.9,10.9,0,0,1,67.44,332,9.94,9.94,0,0,1,69.41,336.7Z" style="fill: rgb(224, 224, 224); transform-origin: 66.455px 332.66px;" id="el8yj2de3bd3" class="animable"></path><path d="M69.31,434.9s-.16-.82-.54-2.28a32.58,32.58,0,0,0-2.29-5.93c-2.37-4.84-6.68-11-12.15-17.11-2.71-3.1-5.34-6-7.58-8.82a63.64,63.64,0,0,1-5.42-7.82,37.47,37.47,0,0,1-2.73-5.8c-.25-.71-.44-1.27-.54-1.66a3,3,0,0,1-.14-.59s.3.79.86,2.18a41,41,0,0,0,2.86,5.69,64.91,64.91,0,0,0,5.47,7.71c2.24,2.77,4.88,5.68,7.59,8.78,5.49,6.16,9.79,12.37,12.09,17.29a29.8,29.8,0,0,1,2.17,6c.15.74.26,1.32.3,1.72A2.46,2.46,0,0,1,69.31,434.9Z" style="fill: rgb(224, 224, 224); transform-origin: 53.6167px 409.895px;" id="elyvtaxqgjffm" class="animable"></path><path d="M96.37,404.34a13.55,13.55,0,0,1-1.42.8,31.31,31.31,0,0,0-3.68,2.43A41.91,41.91,0,0,0,86.44,412c-1.7,1.79-3.44,3.87-5.23,6.09-3.56,4.48-6.89,8.43-8.89,11.59-1,1.57-1.75,2.89-2.23,3.82a13.58,13.58,0,0,1-.78,1.42s0-.14.13-.4.25-.64.48-1.11A35,35,0,0,1,72,429.47c1.93-3.23,5.24-7.24,8.8-11.71,1.78-2.23,3.55-4.31,5.28-6.1a39.08,39.08,0,0,1,5-4.37,25.19,25.19,0,0,1,3.8-2.32c.47-.24.85-.38,1.11-.49A1.38,1.38,0,0,1,96.37,404.34Z" style="fill: rgb(224, 224, 224); transform-origin: 82.84px 419.63px;" id="elxs90vdhk81g" class="animable"></path><path d="M96.9,414.26a21.24,21.24,0,0,1-3,.43,39.83,39.83,0,0,0-7.11,1.4,21.61,21.61,0,0,0-6.36,3.34c-1.47,1.14-2.16,2.07-2.23,2s.12-.27.44-.69a11.72,11.72,0,0,1,1.56-1.6,19.33,19.33,0,0,1,6.44-3.54,32.24,32.24,0,0,1,7.22-1.28A16.14,16.14,0,0,1,96.9,414.26Z" style="fill: rgb(224, 224, 224); transform-origin: 87.5428px 417.824px;" id="elb03kuegnsxh" class="animable"></path><path d="M79.07,420.36c-.15-.09,1.2-2.15,2.24-4.93s1.22-5.25,1.39-5.23a4.34,4.34,0,0,1,0,1.61,16.74,16.74,0,0,1-.87,3.79A18.06,18.06,0,0,1,80,419.08,4.76,4.76,0,0,1,79.07,420.36Z" style="fill: rgb(224, 224, 224); transform-origin: 80.9169px 415.28px;" id="elx4a3uv8hxwb" class="animable"></path><path d="M105.13,377.72a2,2,0,0,1-.48.26l-1.41.64c-.62.26-1.37.6-2.21,1s-1.83.89-2.86,1.51l-1.64.93c-.56.33-1.13.71-1.72,1.09-1.21.73-2.42,1.63-3.7,2.55a68.83,68.83,0,0,0-7.73,6.79,70.23,70.23,0,0,0-6.53,8c-.88,1.32-1.74,2.56-2.42,3.79-.36.61-.73,1.18-1,1.76l-.88,1.66c-.58,1.05-1,2.06-1.4,2.92s-.73,1.62-1,2.24-.44,1.05-.59,1.43a2.05,2.05,0,0,1-.24.49,1.78,1.78,0,0,1,.14-.52c.14-.39.3-.87.51-1.47s.5-1.41.89-2.28.79-1.9,1.35-3l.85-1.69c.3-.59.66-1.17,1-1.79.68-1.25,1.53-2.5,2.4-3.84a66.32,66.32,0,0,1,6.55-8,67.61,67.61,0,0,1,7.81-6.82c1.31-.92,2.53-1.81,3.76-2.53.6-.37,1.17-.75,1.75-1.07l1.66-.91c1-.6,2-1,2.91-1.45s1.62-.73,2.25-1l1.45-.55A2.49,2.49,0,0,1,105.13,377.72Z" style="fill: rgb(224, 224, 224); transform-origin: 87.225px 396.25px;" id="el32wnnjfh8vu" class="animable"></path><path d="M83.71,392.07a3.53,3.53,0,0,1,1.18-1.75,7.46,7.46,0,0,1,4.75-1.82,12.86,12.86,0,0,1,5,1,7.27,7.27,0,0,1,1.89.92,11.2,11.2,0,0,1-2-.59,15.15,15.15,0,0,0-4.86-.81,7.77,7.77,0,0,0-4.53,1.59A14.69,14.69,0,0,0,83.71,392.07Z" style="fill: rgb(224, 224, 224); transform-origin: 90.12px 390.285px;" id="elw0arrscqlrn" class="animable"></path><path d="M80.51,395.37A17,17,0,0,0,81.86,391a17.65,17.65,0,0,0-.3-4.57,3,3,0,0,1,.56,1.27,9.15,9.15,0,0,1,.23,3.36,8.81,8.81,0,0,1-1,3.21C80.93,395,80.56,395.41,80.51,395.37Z" style="fill: rgb(224, 224, 224); transform-origin: 81.4611px 390.901px;" id="elx5gschjxv3" class="animable"></path><path d="M45.64,439.81c.74,13.1,4.69,26.41,10.76,39.88H82.79c5.79-13.33,9.46-26.63,10.11-39.88Z" style="fill: rgb(224, 224, 224); transform-origin: 69.27px 459.75px;" id="elcjheeqi4p3d" class="animable"></path><path d="M88.63,461c0,.14-8.69.25-19.41.25s-19.41-.11-19.41-.25,8.69-.25,19.41-.25S88.63,460.86,88.63,461Z" style="fill: rgb(250, 250, 250); transform-origin: 69.22px 461px;" id="elsmly5z4n20p" class="animable"></path><path d="M88,465.75c0,.13-8.15.24-18.2.24s-18.19-.11-18.19-.24,8.14-.25,18.19-.25S88,465.61,88,465.75Z" style="fill: rgb(250, 250, 250); transform-origin: 69.805px 465.745px;" id="el2ony76rmuib" class="animable"></path><path d="M56.82,448.41a74.06,74.06,0,0,1,0,12.16,77.13,77.13,0,0,1,0-12.16Z" style="fill: rgb(250, 250, 250); transform-origin: 56.825px 454.49px;" id="el40bxbqudxtx" class="animable"></path><path d="M71,448.41A79.38,79.38,0,0,1,71,461a82.68,82.68,0,0,1,0-12.59Z" style="fill: rgb(250, 250, 250); transform-origin: 71.005px 454.705px;" id="elxzlek7ooix" class="animable"></path><path d="M84.24,448.3a82.69,82.69,0,0,1,0,12.85,82.69,82.69,0,0,1,0-12.85Z" style="fill: rgb(250, 250, 250); transform-origin: 84.24px 454.725px;" id="elhbaz7wysc4" class="animable"></path><path d="M92.07,448.41c0,.14-10.2.25-22.77.25s-22.76-.11-22.76-.25,10.19-.25,22.76-.25S92.07,448.27,92.07,448.41Z" style="fill: rgb(250, 250, 250); transform-origin: 69.305px 448.41px;" id="elg9pbc0cgccj" class="animable"></path><rect x="53.23" y="122.97" width="73.65" height="76.77" style="fill: rgb(224, 224, 224); transform-origin: 90.055px 161.355px;" id="ela7ygpbz0dmf" class="animable"></rect><rect x="48.24" y="122.97" width="73.65" height="76.77" style="fill: rgb(250, 250, 250); transform-origin: 85.065px 161.355px;" id="elsd4hlh41j3e" class="animable"></rect><path d="M121.91,199.77H48.22V123h73.69Zm-73.65-.05h73.61V123H48.26Z" style="fill: rgb(224, 224, 224); transform-origin: 85.065px 161.385px;" id="elp0cxio8j19g" class="animable"></path><rect x="58.14" y="133.29" width="53.85" height="56.13" style="fill: rgb(250, 250, 250); transform-origin: 85.065px 161.355px;" id="ela7sk1vc77iv" class="animable"></rect><path d="M58.14,189.8a9.21,9.21,0,0,1-1.33,1.54c-.86.91-2.07,2.14-3.42,3.47s-2.6,2.52-3.52,3.37a8.82,8.82,0,0,1-1.55,1.29,8.45,8.45,0,0,1,1.32-1.53c.86-.91,2.07-2.14,3.43-3.48s2.6-2.53,3.52-3.37A7.79,7.79,0,0,1,58.14,189.8Z" style="fill: rgb(224, 224, 224); transform-origin: 53.23px 194.635px;" id="elpu6y5fsoeq" class="animable"></path><path d="M112,189.66a8.46,8.46,0,0,1,1.55,1.33c.9.86,2.13,2.06,3.47,3.42s2.52,2.6,3.36,3.52a8.66,8.66,0,0,1,1.3,1.55,8.27,8.27,0,0,1-1.54-1.32c-.91-.86-2.14-2.07-3.48-3.43s-2.53-2.61-3.37-3.52A8.82,8.82,0,0,1,112,189.66Z" style="fill: rgb(224, 224, 224); transform-origin: 116.84px 194.57px;" id="eloykh4hnih4d" class="animable"></path><path d="M111.84,133.44a9,9,0,0,1,1.33-1.55c.86-.9,2.07-2.13,3.42-3.47s2.6-2.52,3.52-3.36a8.1,8.1,0,0,1,1.56-1.3,8.27,8.27,0,0,1-1.32,1.54c-.86.91-2.07,2.14-3.43,3.48s-2.61,2.53-3.53,3.37A8.41,8.41,0,0,1,111.84,133.44Z" style="fill: rgb(224, 224, 224); transform-origin: 116.755px 128.6px;" id="el0vpbcb1j0kz" class="animable"></path><path d="M58,133.58a9.21,9.21,0,0,1-1.54-1.33c-.91-.86-2.14-2.07-3.47-3.43s-2.52-2.59-3.37-3.51a8.24,8.24,0,0,1-1.29-1.56,8.45,8.45,0,0,1,1.53,1.32c.91.86,2.14,2.07,3.48,3.43s2.53,2.61,3.37,3.53A7.92,7.92,0,0,1,58,133.58Z" style="fill: rgb(224, 224, 224); transform-origin: 53.165px 128.665px;" id="elj0y08o5pc5" class="animable"></path><path d="M111.84,189.42s0-.09,0-.27,0-.45,0-.78c0-.71,0-1.72,0-3,0-2.66,0-6.53-.06-11.44,0-9.84-.06-23.84-.1-40.61l.2.21-53.69,0h0l.24-.24c0,20.6,0,39.88,0,56.13l-.21-.2,38.88.1,10.93.06,2.89,0h1s-.07,0-.23,0l-.73,0-2.85,0-10.87.05-39,.11h-.2v-.21c0-16.25,0-35.53,0-56.13v-.24h.25l53.69,0h.21v.21c0,16.82-.08,30.87-.1,40.74,0,4.89,0,8.74-.06,11.39,0,1.3,0,2.3,0,3,0,.33,0,.58,0,.76A.87.87,0,0,1,111.84,189.42Z" style="fill: rgb(224, 224, 224); transform-origin: 85.115px 161.25px;" id="eldmrcc0gbffu" class="animable"></path><rect x="76.08" y="152.37" width="17.97" height="17.97" style="fill: rgb(235, 235, 235); transform-origin: 85.065px 161.355px;" id="elkcml717c6xf" class="animable"></rect><rect x="132.98" y="49.57" width="61.37" height="63.98" style="fill: rgb(224, 224, 224); transform-origin: 163.665px 81.56px;" id="el24vv6nh0jk3i" class="animable"></rect><rect x="128.83" y="49.57" width="61.37" height="63.98" style="fill: rgb(250, 250, 250); transform-origin: 159.515px 81.56px;" id="eljuirg7w1sg" class="animable"></rect><path d="M190.22,113.57H128.81v-64h61.41Zm-61.38,0h61.34V49.59H128.84Z" style="fill: rgb(224, 224, 224); transform-origin: 159.515px 81.57px;" id="elcesuo6l3qc8" class="animable"></path><rect x="137.08" y="58.17" width="44.87" height="46.78" style="fill: rgb(250, 250, 250); transform-origin: 159.515px 81.56px;" id="elc8yskxidsg8" class="animable"></rect><path d="M137.08,105.26a8.43,8.43,0,0,1-1.11,1.29c-.72.75-1.73,1.78-2.85,2.89s-2.17,2.1-2.94,2.8a6.62,6.62,0,0,1-1.29,1.08A7,7,0,0,1,130,112c.72-.75,1.72-1.78,2.86-2.9s2.17-2.1,2.93-2.81A7,7,0,0,1,137.08,105.26Z" style="fill: rgb(224, 224, 224); transform-origin: 132.985px 109.29px;" id="eluyp0592gfp" class="animable"></path><path d="M182,105.14a7.76,7.76,0,0,1,1.29,1.11c.75.72,1.78,1.72,2.89,2.85s2.1,2.17,2.8,2.93a6.82,6.82,0,0,1,1.08,1.3,7,7,0,0,1-1.28-1.1c-.75-.72-1.78-1.73-2.9-2.86s-2.1-2.17-2.81-2.94A6.75,6.75,0,0,1,182,105.14Z" style="fill: rgb(224, 224, 224); transform-origin: 186.03px 109.235px;" id="el3q36bb00j9d" class="animable"></path><path d="M181.83,58.3a6.58,6.58,0,0,1,1.1-1.29c.72-.76,1.73-1.78,2.86-2.89S188,52,188.72,51.31A7.55,7.55,0,0,1,190,50.23a6.62,6.62,0,0,1-1.1,1.28c-.71.76-1.72,1.78-2.86,2.9s-2.17,2.11-2.93,2.81A8,8,0,0,1,181.83,58.3Z" style="fill: rgb(224, 224, 224); transform-origin: 185.915px 54.265px;" id="elsthx5c7a07" class="animable"></path><path d="M137,58.41a7,7,0,0,1-1.28-1.11c-.76-.71-1.78-1.72-2.9-2.85s-2.1-2.17-2.8-2.93a6.82,6.82,0,0,1-1.08-1.3,7.55,7.55,0,0,1,1.28,1.1c.76.72,1.78,1.73,2.9,2.86s2.1,2.17,2.81,2.94A7.14,7.14,0,0,1,137,58.41Z" style="fill: rgb(224, 224, 224); transform-origin: 132.97px 54.315px;" id="eliphvqfxinkk" class="animable"></path><path d="M181.83,105a.88.88,0,0,1,0-.23c0-.16,0-.37,0-.65,0-.59,0-1.43,0-2.53,0-2.21,0-5.44,0-9.53,0-8.19-.05-19.86-.09-33.84l.18.17-44.75,0h0l.19-.2c0,17.17,0,33.23,0,46.78l-.17-.17,32.4.08,9.1,0,2.41,0h0l-2.37,0-9.06,0-32.51.09h-.18V105c0-13.55,0-29.61,0-46.78V58h.2l44.75,0H182v.17c0,14-.07,25.73-.09,34,0,4.08,0,7.29,0,9.49,0,1.08,0,1.92,0,2.5,0,.27,0,.47,0,.63S181.83,105,181.83,105Z" style="fill: rgb(224, 224, 224); transform-origin: 159.49px 81.5px;" id="el6idg9s2ftzf" class="animable"></path><rect x="152.03" y="74.07" width="14.97" height="14.97" style="fill: rgb(235, 235, 235); transform-origin: 159.515px 81.555px;" id="elpqxxrdsjxg" class="animable"></rect><circle cx="443.41" cy="279.38" r="8.72" style="fill: rgb(224, 224, 224); transform-origin: 443.41px 279.38px;" id="elo7asn8g50ba" class="animable"></circle><circle cx="417.53" cy="279.38" r="9.29" style="fill: rgb(224, 224, 224); transform-origin: 417.53px 279.38px;" id="elxw0vbtj16t" class="animable"></circle><g id="el7qyhufsfkg4"><circle cx="397.63" cy="262.95" r="9.86" style="fill: rgb(224, 224, 224); transform-origin: 397.63px 262.95px; transform: rotate(-76.77deg);" class="animable"></circle></g><circle cx="393.59" cy="237.69" r="10.3" style="fill: rgb(224, 224, 224); transform-origin: 393.59px 237.69px;" id="eljjtj1y54lu" class="animable"></circle><g id="el2fmc0gc4gln"><circle cx="406.2" cy="215.57" r="10.64" style="fill: rgb(224, 224, 224); transform-origin: 406.2px 215.57px; transform: rotate(-81.9509deg);" class="animable"></circle></g><path d="M442,206.83a11.6,11.6,0,1,1-11.6-11.59A11.6,11.6,0,0,1,442,206.83Z" style="fill: rgb(224, 224, 224); transform-origin: 430.4px 206.84px;" id="elby9l3dq5w2c" class="animable"></path><g id="elka6lhvcvzw"><circle cx="462.65" cy="262.74" r="8.42" style="fill: rgb(224, 224, 224); transform-origin: 462.65px 262.74px; transform: rotate(-76.77deg);" class="animable"></circle></g><circle cx="467.16" cy="237.4" r="7.82" style="fill: rgb(224, 224, 224); transform-origin: 467.16px 237.4px;" id="elwfuxx4qor1" class="animable"></circle><path d="M461.3,215.28a7.14,7.14,0,1,1-7.14-7.14A7.14,7.14,0,0,1,461.3,215.28Z" style="fill: rgb(224, 224, 224); transform-origin: 454.16px 215.28px;" id="elrwqfdx2fue" class="animable"></path></g><g id="freepik--Plant--inject-135" class="animable" style="transform-origin: 402.941px 88.3404px;"><path d="M385,133.69a3,3,0,0,1,.06-.35c.05-.25.12-.59.22-1l.86-3.92c.77-3.41,1.89-8.32,3.26-14.39,2.79-12.17,6.65-29,10.92-47.58l.19-.84.19.84c.08.33.16.69.24,1,4.25,18.88,8.1,36,10.89,48.35l3.25,14.66c.38,1.72.67,3.06.87,4l.21,1a3,3,0,0,1,.06.36s0-.12-.1-.35l-.25-1c-.22-.93-.53-2.27-.94-4l-3.37-14.63c-2.82-12.38-6.71-29.45-11-48.32-.08-.36-.16-.72-.24-1.06h.38c-4.31,18.61-8.21,35.4-11,47.56-1.43,6.06-2.58,11-3.38,14.37-.4,1.68-.72,3-.94,3.9-.11.43-.19.76-.25,1S385,133.69,385,133.69Z" style="fill: rgb(38, 50, 56); transform-origin: 400.61px 100.715px;" id="el5t3ouwnw1gk" class="animable"></path><path d="M385,147.82V135.88h31.87v11.94a13.9,13.9,0,0,1-13.9,13.91h-4.06A13.91,13.91,0,0,1,385,147.82Z" style="fill: rgb(69, 90, 100); transform-origin: 400.935px 148.805px;" id="elfglqazxptuf" class="animable"></path><path d="M385,135.88a2.81,2.81,0,0,1,.36.5l1,1.48,3.51,5.48,11.46,18.16.08.12H401c4.33-7.12,8.25-13.56,11.12-18.26l3.4-5.5c.39-.63.71-1.12.94-1.49a3.26,3.26,0,0,1,.35-.5,2.69,2.69,0,0,1-.28.54l-.88,1.52-3.3,5.57c-2.83,4.72-6.72,11.18-11,18.32l-.16.27-.17-.27-.08-.13-11.37-18.22-3.4-5.54c-.38-.64-.69-1.14-.91-1.52A4.27,4.27,0,0,1,385,135.88Z" style="fill: rgb(38, 50, 56); transform-origin: 400.905px 148.98px;" id="ellga28gfveib" class="animable"></path><path d="M404.06,66.32a3.48,3.48,0,1,1-3.48-3.48A3.48,3.48,0,0,1,404.06,66.32Z" style="fill: rgb(38, 50, 56); transform-origin: 400.58px 66.32px;" id="el5nhrfaqb68m" class="animable"></path><path d="M400.58,7.08c.11,0,.2,13.41.2,30S400.69,67,400.58,67s-.19-13.4-.19-29.94S400.47,7.08,400.58,7.08Z" style="fill: rgb(38, 50, 56); transform-origin: 400.585px 37.04px;" id="eleyn44aq29nv" class="animable"></path><path d="M402.39,163a1.49,1.49,0,1,1-1.49-1.49A1.49,1.49,0,0,1,402.39,163Z" style="fill: rgb(38, 50, 56); transform-origin: 400.9px 163px;" id="eltcbacwd0a5g" class="animable"></path><path d="M400.24,163.58l.24-.12a3.33,3.33,0,0,0-1.51,2.47,8.79,8.79,0,0,0,.26,3c.06.31.23.69.54.67s.42-.35.47-.63a6.32,6.32,0,0,0,.05-1.79,3.12,3.12,0,0,0,.69,2.11c.09.11.23.23.37.19s.19-.19.23-.33a6.57,6.57,0,0,0,.22-1.53,2.37,2.37,0,0,0,.48,1.25.82.82,0,0,0,1.19.07,1.17,1.17,0,0,0,.12-.87,10.27,10.27,0,0,0-2.08-4.89" style="fill: rgb(38, 50, 56); transform-origin: 401.282px 166.39px;" id="elzf2bnd0boz" class="animable"></path><path d="M387,135.88s-14.32-16.51-12.73-17.11,14.32,8.55,14.32,8.55-10.94-24.46-8.75-26.25,13.72,21.68,13.72,21.68-1.79-34.21,0-34.6,8.35,34.2,8.35,34.2,9.75-31.62,12.53-31.62-3,30.43-3,30.43,11.53-19.49,13.32-16.9-8.15,23.66-8.15,23.66,14.52-12.13,15.11-10.54S416,135.88,416,135.88Z" style="fill: rgb(247, 107, 28); transform-origin: 402.941px 112.013px;" id="elgq1bvyc40fv" class="animable"></path><path d="M385,111c.1,0,2.64,5.4,5.67,12.16s5.42,12.27,5.32,12.32-2.64-5.4-5.68-12.16S384.87,111.06,385,111Z" style="fill: rgb(38, 50, 56); transform-origin: 390.494px 123.24px;" id="el63dm790edsl" class="animable"></path><path d="M396.54,114.06c.11,0,.53,4.79.94,10.72s.66,10.74.55,10.74-.53-4.79-.94-10.72S396.43,114.07,396.54,114.06Z" style="fill: rgb(38, 50, 56); transform-origin: 397.285px 124.79px;" id="elrx6cte09wb" class="animable"></path><path d="M412.49,98.74s0,.14-.08.39l-.32,1.09c-.3,1-.7,2.34-1.19,4-1,3.36-2.37,8-3.75,13.2s-2.53,9.9-3.33,13.32l-.95,4.05c-.1.44-.19.8-.26,1.1a2.25,2.25,0,0,1-.12.38s0-.14,0-.4.12-.67.19-1.11c.18-1,.46-2.37.83-4.08.73-3.44,1.84-8.18,3.22-13.36s2.78-9.84,3.86-13.18c.54-1.68,1-3,1.32-4l.38-1.07A2.6,2.6,0,0,1,412.49,98.74Z" style="fill: rgb(38, 50, 56); transform-origin: 407.49px 117.505px;" id="el2yaayfat342" class="animable"></path><path d="M419.39,116.37c.09.06-2.7,4.23-6.24,9.31s-6.48,9.14-6.56,9.08,2.7-4.23,6.24-9.31S419.3,116.31,419.39,116.37Z" style="fill: rgb(38, 50, 56); transform-origin: 412.99px 125.565px;" id="el5aig2k0fmvw" class="animable"></path><path d="M391.8,135.53a5.69,5.69,0,0,1-1.25-.9,35.75,35.75,0,0,1-2.73-2.51,34.16,34.16,0,0,1-2.44-2.79,5.44,5.44,0,0,1-.87-1.28c.09-.07,1.58,1.73,3.59,3.79S391.87,135.44,391.8,135.53Z" style="fill: rgb(38, 50, 56); transform-origin: 388.156px 131.789px;" id="elbxjocy80vj9" class="animable"></path><path d="M400.5,129a15.11,15.11,0,0,1,.5,3.4,14.68,14.68,0,0,1,.12,3.44,15.44,15.44,0,0,1-.51-3.4A15,15,0,0,1,400.5,129Z" style="fill: rgb(38, 50, 56); transform-origin: 400.809px 132.42px;" id="elft0d50c02s" class="animable"></path><path d="M416.83,143.32a6.35,6.35,0,0,1-1.23.25c-.79.15-2,.33-3.38.52a112,112,0,0,1-11.27,1,72.22,72.22,0,0,1-11.3-.48c-1.44-.18-2.59-.37-3.38-.54a8.66,8.66,0,0,1-1.23-.29,6.67,6.67,0,0,1,1.25.14c.8.12,2,.27,3.39.42a84.29,84.29,0,0,0,11.26.35c4.4-.15,8.37-.56,11.24-.88l3.4-.4A7.22,7.22,0,0,1,416.83,143.32Z" style="fill: rgb(255, 255, 255); transform-origin: 400.935px 144.228px;" id="elkugzq2hhfpi" class="animable"></path><path d="M416.83,146.88a9.15,9.15,0,0,1-1.23.25c-.79.14-2,.32-3.38.52a109.49,109.49,0,0,1-11.27,1,71.16,71.16,0,0,1-11.3-.47c-1.44-.19-2.59-.37-3.38-.54a7.69,7.69,0,0,1-1.23-.3,9.89,9.89,0,0,1,1.25.14c.8.13,2,.27,3.39.42a82.42,82.42,0,0,0,11.26.36c4.4-.15,8.37-.56,11.24-.89l3.4-.39A7.22,7.22,0,0,1,416.83,146.88Z" style="fill: rgb(255, 255, 255); transform-origin: 400.935px 147.791px;" id="elkm1qkdc2l2k" class="animable"></path></g><g id="freepik--Character--inject-135" class="animable" style="transform-origin: 241.725px 228.291px;"><path d="M182.47,178.34,179,186.7a29.81,29.81,0,0,1,1.81,5.91c.17,1.93-1.4,10.14-1.4,10.14a2.08,2.08,0,0,1-2.13-1.57,33.37,33.37,0,0,1,.32-4.81h0a2.06,2.06,0,0,0-3.48.35c-1,2-2.14,4.36-2.34,4.63s.14,3.32.46,5.56A1.38,1.38,0,0,1,169.8,208a.64.64,0,0,1-.15-.35s-1.31,1.92-2.6-1.61c0,0-2.6-1.32-2.66-3.48,0,0-2.37-2.66-2.69-4.25s5.11-11.2,5.11-11.2l6.68-13.8Z" style="fill: rgb(255, 190, 157); transform-origin: 172.078px 190.915px;" id="elixe6iguimeq" class="animable"></path><path d="M170.84,195.53a6,6,0,0,0-1.18,1.51,10,10,0,0,0-1.71,4.32,9.21,9.21,0,0,0,.91,4.56,6.05,6.05,0,0,0,.91,1.68,10,10,0,0,0-.59-1.81,10.33,10.33,0,0,1-.74-4.38,11.6,11.6,0,0,1,1.52-4.19A9.05,9.05,0,0,0,170.84,195.53Z" style="fill: rgb(235, 153, 110); transform-origin: 169.387px 201.565px;" id="eldi4x395trcv" class="animable"></path><path d="M168.19,194.94c-.05,0-.57.41-1.15,1.33a13.34,13.34,0,0,0-.9,1.68,6,6,0,0,0-.58,2.31,10.32,10.32,0,0,0,.38,2.31c.17.63.33,1.24.48,1.82A6.17,6.17,0,0,0,167,206a6.65,6.65,0,0,0-.23-1.73c-.09-.52-.22-1.15-.37-1.84a11.85,11.85,0,0,1-.34-2.22,6.28,6.28,0,0,1,.51-2.13c.26-.64.54-1.21.78-1.68C167.83,195.51,168.24,195,168.19,194.94Z" style="fill: rgb(235, 153, 110); transform-origin: 166.877px 200.47px;" id="elph539z2degh" class="animable"></path><path d="M165.08,194.52c-.18-.09-1,1.68-1.82,3.88a1.93,1.93,0,0,0-.09,1c0,.29.08.56.13.82a8.1,8.1,0,0,0,.41,1.33c.3.73.63,1.12.68,1.08a6.6,6.6,0,0,0-.35-1.2,11.77,11.77,0,0,1-.29-1.3c0-.24-.08-.5-.1-.77a1.62,1.62,0,0,1,.07-.74c.43-1.11.77-2.11,1-2.85A5.42,5.42,0,0,0,165.08,194.52Z" style="fill: rgb(235, 153, 110); transform-origin: 164.111px 198.575px;" id="el5nis3a4yo7c" class="animable"></path><path d="M322.84,157.89l3.49-3.56a1.77,1.77,0,0,1,.92-.61c.66-.11,1.23.56,1.26,1.22a3.14,3.14,0,0,1-.69,1.83,4.68,4.68,0,0,0-.87,1.76" style="fill: rgb(255, 190, 157); transform-origin: 325.675px 156.119px;" id="el6pw74g6h36o" class="animable"></path><path d="M356.73,128.13l-18.43,32-34.47.25h0a3.08,3.08,0,0,1,2.8-3.22l30.16-.61,15.67-26.87c1.1-1.89,2.22-2.29,4.27-1.53Z" style="fill: rgb(38, 50, 56); transform-origin: 330.278px 144.084px;" id="el6457855r4kv" class="animable"></path><path d="M325.81,160.19c.17,0-10.89,0-10.27.17.06.12.11.24.16.36l1.44,6.32c2.49,0,9.66-1.89,9.66-1.89a16.74,16.74,0,0,0,3.47-2.7v-2.28Z" style="fill: rgb(255, 190, 157); transform-origin: 322.892px 163.605px;" id="el40epayzy9ap" class="animable"></path><path d="M316.06,160.22l-26.22-1.09-12.12-28.58L264.84,149l10.37,18.65a13.29,13.29,0,0,0,12.2,6.81l30.56-3.5Z" style="fill: rgb(247, 107, 28); transform-origin: 291.405px 152.512px;" id="el9z2ok2ujhto" class="animable"></path><path d="M320.08,293.7l2,18.45S341.32,315,342,318.34l-35.42,6.53-4.33-28.62Z" style="fill: rgb(247, 107, 28); transform-origin: 322.125px 309.285px;" id="el83gk42z9r" class="animable"></path><g id="eldfqrq6va24o"><g style="opacity: 0.6; transform-origin: 311.39px 313.503px;" class="animable"><path d="M310.86,312.22a1.47,1.47,0,0,0-.77,1.8,1.42,1.42,0,0,0,1.79.78,1.56,1.56,0,0,0,.8-1.92,1.47,1.47,0,0,0-1.95-.6" style="fill: rgb(255, 255, 255); transform-origin: 311.39px 313.503px;" id="elgep3gbj0wkn" class="animable"></path></g></g><g id="elwa5pis2mx4s"><g style="opacity: 0.6; transform-origin: 324.215px 320.87px;" class="animable"><path d="M306.61,324.87l-.44-2.88,34.42-5.12a2.5,2.5,0,0,1,1.67,1.69Z" style="fill: rgb(255, 255, 255); transform-origin: 324.215px 320.87px;" id="elg790xi9jxb" class="animable"></path></g></g><path d="M322.66,311.89c0,.17-.84.38-1.62,1.06s-1.12,1.48-1.29,1.44-.06-1.09.89-1.9S322.67,311.72,322.66,311.89Z" style="fill: rgb(38, 50, 56); transform-origin: 321.172px 313.091px;" id="elejiyn536o8" class="animable"></path><path d="M326.62,312.89c.06.16-.65.57-1.13,1.39s-.54,1.62-.72,1.64-.42-.95.2-2S326.59,312.72,326.62,312.89Z" style="fill: rgb(38, 50, 56); transform-origin: 325.597px 314.375px;" id="elckxmbrax98v" class="animable"></path><path d="M329.4,317.05c-.16.06-.53-.77-.22-1.79s1.07-1.52,1.16-1.38-.33.71-.57,1.55S329.57,317,329.4,317.05Z" style="fill: rgb(38, 50, 56); transform-origin: 329.706px 315.455px;" id="elk8ctzxox8rh" class="animable"></path><path d="M321.73,307.73c-.05.17-.88,0-1.86.26s-1.69.63-1.81.5.54-.87,1.69-1.1S321.79,307.58,321.73,307.73Z" style="fill: rgb(38, 50, 56); transform-origin: 319.889px 307.92px;" id="els5qqu9kwh1" class="animable"></path><g id="elztrk14qnboq"><g style="opacity: 0.3; transform-origin: 311.805px 300.2px;" class="animable"><polygon points="320.48 297.36 320.84 300.64 303.31 303.04 302.77 299.59 320.48 297.36" id="elkx4osr0buj" class="animable" style="transform-origin: 311.805px 300.2px;"></polygon></g></g><path d="M321.25,304a3.38,3.38,0,0,1-1.78.25,8.43,8.43,0,0,1-2-.3,7.33,7.33,0,0,1-1.1-.4,2.19,2.19,0,0,1-.6-.34.76.76,0,0,1-.22-.91,1,1,0,0,1,.71-.51,2.23,2.23,0,0,1,.68,0,7.13,7.13,0,0,1,1.17.22,6.41,6.41,0,0,1,1.8.84c.94.65,1.32,1.26,1.26,1.3s-.55-.42-1.48-.93a7.19,7.19,0,0,0-1.73-.66,6.84,6.84,0,0,0-1.07-.17c-.39,0-.71,0-.78.18s0,.1.07.2a1.6,1.6,0,0,0,.44.25,8.6,8.6,0,0,0,1,.4,9.83,9.83,0,0,0,1.82.41A10.67,10.67,0,0,1,321.25,304Z" style="fill: rgb(38, 50, 56); transform-origin: 318.366px 303.021px;" id="elonpaj8de8cq" class="animable"></path><path d="M321.06,304.3c-.06,0-.49-.54-.72-1.66a5.91,5.91,0,0,1,0-2,5.7,5.7,0,0,1,.29-1.15,1.49,1.49,0,0,1,1-1.06.84.84,0,0,1,.82.39,2.39,2.39,0,0,1,.28.62,4,4,0,0,1,.17,1.21,4.15,4.15,0,0,1-.49,1.95c-.56,1-1.26,1.34-1.28,1.28a13.52,13.52,0,0,0,.89-1.47,4.07,4.07,0,0,0,.32-1.76,3.71,3.71,0,0,0-.18-1c-.11-.37-.3-.66-.44-.6s-.43.35-.54.68a6.67,6.67,0,0,0-.3,1,6.47,6.47,0,0,0-.08,1.83C320.87,303.64,321.15,304.26,321.06,304.3Z" style="fill: rgb(38, 50, 56); transform-origin: 321.578px 301.362px;" id="el6364s3rv7ev" class="animable"></path><path d="M172.67,304l-17.24,6.89s2.45,19.27-.61,20.85L139,299.37l26.41-11.84Z" style="fill: rgb(247, 107, 28); transform-origin: 155.835px 309.635px;" id="eld6ze2e0jq9" class="animable"></path><g id="elwqdw7caxleq"><g style="opacity: 0.6; transform-origin: 151.19px 300.914px;" class="animable"><path d="M152.36,300.07a1.48,1.48,0,0,0-2-.25,1.41,1.41,0,0,0-.26,1.93,1.55,1.55,0,0,0,2.06.26,1.48,1.48,0,0,0,0-2" style="fill: rgb(255, 255, 255); transform-origin: 151.19px 300.914px;" id="eljqn20ag7dx" class="animable"></path></g></g><g id="elq7945jn6n49"><g style="opacity: 0.6; transform-origin: 147.425px 315.09px;" class="animable"><path d="M139,299.37l2.66-1.19L155.85,330a2.5,2.5,0,0,1-1.19,2Z" style="fill: rgb(255, 255, 255); transform-origin: 147.425px 315.09px;" id="elll30f7bp7ue" class="animable"></path></g></g><path d="M155.84,311.35c-.17.07-.59-.71-1.46-1.27s-1.73-.68-1.73-.86,1-.35,2.07.35S156,311.32,155.84,311.35Z" style="fill: rgb(38, 50, 56); transform-origin: 154.269px 310.208px;" id="elqeuhsse87ng" class="animable"></path><path d="M155.94,315.44c-.14.1-.73-.47-1.65-.72s-1.71-.08-1.77-.25.8-.66,1.94-.34S156.09,315.37,155.94,315.44Z" style="fill: rgb(38, 50, 56); transform-origin: 154.242px 314.738px;" id="elum2r4rye96" class="animable"></path><path d="M152.67,319.23c-.1-.13.6-.71,1.67-.69s1.74.62,1.64.75-.78-.13-1.65-.14S152.75,319.38,152.67,319.23Z" style="fill: rgb(38, 50, 56); transform-origin: 154.325px 318.933px;" id="eltwkr06llioq" class="animable"></path><path d="M159.59,309.34c-.18,0-.28-.83-.74-1.72s-1.07-1.46-1-1.6,1,.28,1.51,1.32S159.75,309.37,159.59,309.34Z" style="fill: rgb(38, 50, 56); transform-origin: 158.786px 307.667px;" id="el52oenobhxs9" class="animable"></path><g id="eldlezpfkli3d"><g style="opacity: 0.3; transform-origin: 164.21px 297.85px;" class="animable"><polygon points="169.25 305.36 166.18 306.59 159.17 290.34 161.89 289.11 169.25 305.36" id="eldqr6j7lcjjk" class="animable" style="transform-origin: 164.21px 297.85px;"></polygon></g></g><path d="M163,307.89a3.51,3.51,0,0,1-.72-1.65,8.57,8.57,0,0,1-.23-2,9.46,9.46,0,0,1,.08-1.17,2.13,2.13,0,0,1,.17-.67.76.76,0,0,1,.82-.46,1,1,0,0,1,.68.55,2,2,0,0,1,.19.65,7,7,0,0,1,.1,1.18,6.54,6.54,0,0,1-.32,2,3.09,3.09,0,0,1-.91,1.56c-.09-.05.25-.64.49-1.68a7.31,7.31,0,0,0,.18-1.84,5.68,5.68,0,0,0-.13-1.07c-.06-.39-.19-.69-.38-.71s-.1,0-.17.11a1.83,1.83,0,0,0-.12.5,8.44,8.44,0,0,0-.12,1.09,9.7,9.7,0,0,0,.1,1.86A12.07,12.07,0,0,1,163,307.89Z" style="fill: rgb(38, 50, 56); transform-origin: 163.07px 304.91px;" id="elz3cv5pc2qfm" class="animable"></path><path d="M162.72,307.78c-.05,0,.38-.62,1.4-1.14a6,6,0,0,1,1.91-.57,5.13,5.13,0,0,1,1.18,0,1.5,1.5,0,0,1,1.3.68.85.85,0,0,1-.15.89,2.52,2.52,0,0,1-.53.44,4,4,0,0,1-1.11.49,4.1,4.1,0,0,1-2,.05c-1.14-.27-1.63-.85-1.58-.89a16.34,16.34,0,0,0,1.65.46,4.05,4.05,0,0,0,1.79-.16,3.68,3.68,0,0,0,.94-.45c.32-.21.55-.46.45-.58a1,1,0,0,0-.79-.34,5.58,5.58,0,0,0-1.08,0,6.57,6.57,0,0,0-1.78.41C163.31,307.42,162.78,307.86,162.72,307.78Z" style="fill: rgb(38, 50, 56); transform-origin: 165.645px 307.378px;" id="eljxd2luhg5de" class="animable"></path><path d="M290.51,69.16c-2.7-1.67-6.46.16-9.32-1.23-1.74-.84-2.73-2.67-4.13-4a9.69,9.69,0,0,0-8.29-2.52C266,62,264,63,262.93,65.63c-1.93-1.9-6.46,0-8.47,2.37S252,73.35,252,76.49a41.69,41.69,0,0,0,2.92,15.85c.18.45.51,1,1,.89s.52-.4.65-.7a34.59,34.59,0,0,0,2-8.21,20.9,20.9,0,0,1,2.64-8c1.54-2.37,4.19-4.2,7-4a9,9,0,0,1,5.47,2.77c1.5,1.45,2.7,3.18,4.08,4.74a11.48,11.48,0,0,0,5,3.62,5.47,5.47,0,0,0,5.75-1.36c1.34-1.6,1.06-4.45-.81-5.39a4.1,4.1,0,0,0,2.83-7.53Z" style="fill: rgb(38, 50, 56); transform-origin: 272.234px 77.2586px;" id="elnparnwionw" class="animable"></path><path d="M269,114.06l1.25-5.91s8.08.55,9.93-7.23c.9-3.76,2.12-11.65,3.14-18.8a14.92,14.92,0,0,0-11.48-16.65l-.75-.17c-8.23-1.36-14,4.87-15.11,13.13l-6.34,31.65a9.88,9.88,0,0,0,7.69,11.61l-.22,3C262.46,125.78,267.89,119.39,269,114.06Z" style="fill: rgb(255, 190, 157); transform-origin: 266.458px 94.9628px;" id="ellwjosgmw65" class="animable"></path><path d="M270.28,108.15a18.58,18.58,0,0,1-9.52-5.19s1.13,6.16,9.08,7.21Z" style="fill: rgb(235, 153, 110); transform-origin: 265.52px 106.565px;" id="el13rws55seyjs" class="animable"></path><path d="M280.46,87.67a1.15,1.15,0,0,1-1.33.88,1.1,1.1,0,0,1-.92-1.27,1.15,1.15,0,0,1,1.33-.88A1.1,1.1,0,0,1,280.46,87.67Z" style="fill: rgb(38, 50, 56); transform-origin: 279.335px 87.475px;" id="el5z17nvopfxx" class="animable"></path><path d="M280.8,85.55c-.17.12-.88-.7-2.08-1s-2.21.13-2.31,0,.15-.31.6-.5a3.16,3.16,0,0,1,1.89-.15,3,3,0,0,1,1.61,1C280.82,85.21,280.88,85.5,280.8,85.55Z" style="fill: rgb(38, 50, 56); transform-origin: 278.61px 84.691px;" id="elhrhyn0llyw" class="animable"></path><path d="M268.88,85.26a1.13,1.13,0,0,1-1.32.88,1.1,1.1,0,0,1-.93-1.26A1.15,1.15,0,0,1,268,84,1.1,1.1,0,0,1,268.88,85.26Z" style="fill: rgb(38, 50, 56); transform-origin: 267.756px 85.0669px;" id="elxzkjggk59k9" class="animable"></path><path d="M269,83.12c-.17.11-.88-.7-2.08-1s-2.21.13-2.31,0,.15-.31.6-.51a3.18,3.18,0,0,1,1.89-.14,3,3,0,0,1,1.61,1C269,82.78,269,83.07,269,83.12Z" style="fill: rgb(38, 50, 56); transform-origin: 266.794px 82.2587px;" id="el37rz5k54rs7" class="animable"></path><path d="M271.3,93a8.09,8.09,0,0,1,2,.09c.32,0,.62,0,.72-.15a1.62,1.62,0,0,0,0-1c-.12-.8-.25-1.65-.38-2.53a41.87,41.87,0,0,1-.66-6.56,40.12,40.12,0,0,1,1.19,6.49c.11.88.23,1.73.33,2.54a1.81,1.81,0,0,1-.11,1.24.79.79,0,0,1-.6.33,2.2,2.2,0,0,1-.54,0A7.89,7.89,0,0,1,271.3,93Z" style="fill: rgb(38, 50, 56); transform-origin: 272.931px 88.1583px;" id="el3qsnflgjwnn" class="animable"></path><path d="M267.59,93c.2,0-.1,1.33.81,2.51s2.32,1.34,2.29,1.53-.36.18-.95.06a3.3,3.3,0,0,1-1.93-1.2,2.89,2.89,0,0,1-.6-2.09C267.28,93.29,267.5,93,267.59,93Z" style="fill: rgb(38, 50, 56); transform-origin: 268.942px 95.0935px;" id="elmdkctzmgyd" class="animable"></path><path d="M270.47,77c-.2.3-1.36-.13-2.8-.27s-2.67,0-2.79-.36c-.06-.16.21-.42.74-.63a4.9,4.9,0,0,1,4.26.48C270.35,76.54,270.55,76.86,270.47,77Z" style="fill: rgb(38, 50, 56); transform-origin: 267.679px 76.2813px;" id="eluew5pk7gttn" class="animable"></path><path d="M281.14,82c-.27.23-1-.24-2-.48s-1.88-.23-2-.56c-.05-.16.14-.4.57-.57a3,3,0,0,1,3.24.84C281.21,81.57,281.26,81.87,281.14,82Z" style="fill: rgb(38, 50, 56); transform-origin: 279.167px 81.1409px;" id="elc58k4wgcht" class="animable"></path><path d="M255.34,84.35c-.13-.08-5-2.79-6,2.58s4.57,5.31,4.61,5.15S255.34,84.35,255.34,84.35Z" style="fill: rgb(255, 190, 157); transform-origin: 252.28px 87.8617px;" id="el8jzg4nztrt9" class="animable"></path><path d="M252.66,89.73s-.11,0-.28.09a.94.94,0,0,1-.7-.12,2.35,2.35,0,0,1-.67-2.28,3.05,3.05,0,0,1,.52-1.29,1.09,1.09,0,0,1,.84-.59.47.47,0,0,1,.5.37c0,.16,0,.26,0,.28s.13-.07.13-.3a.6.6,0,0,0-.15-.38.7.7,0,0,0-.49-.24,1.35,1.35,0,0,0-1.14.65,3.26,3.26,0,0,0-.61,1.43,2.5,2.5,0,0,0,.92,2.59,1,1,0,0,0,.88,0C252.63,89.86,252.68,89.74,252.66,89.73Z" style="fill: rgb(235, 153, 110); transform-origin: 251.769px 87.656px;" id="elo73x2vayeik" class="animable"></path><path d="M285.36,80.85a11.57,11.57,0,0,1-9.51-4.51c-1.53-2-2.47-4.68-4.69-6a6.46,6.46,0,0,0-5-.43,12.58,12.58,0,0,0-4.44,2.55c.61,4.3-1.4,8.5-3.36,12.39a2.2,2.2,0,0,1-.9,1.09c-.74.34-1.6-.25-2-.95a6.77,6.77,0,0,1-.66-3.81,22.38,22.38,0,0,1,2-8.64A15.33,15.33,0,0,1,262.6,66a14.57,14.57,0,0,1,10.78-1.51,17.83,17.83,0,0,1,9.27,5.88,10.53,10.53,0,0,1,2.42,4.52" style="fill: rgb(38, 50, 56); transform-origin: 270.056px 75.0493px;" id="el3vqx6k6xr01" class="animable"></path><path d="M292.33,71.55a1.3,1.3,0,0,1-.15.45,2.22,2.22,0,0,1-1,.93,3.43,3.43,0,0,1-2.14.22,6.39,6.39,0,0,1-1.31-.38,2.94,2.94,0,0,1-1.21-.94,1.93,1.93,0,0,1-.33-1.66,1.69,1.69,0,0,1,1.44-1.1,2.11,2.11,0,0,1,1,.09,1.78,1.78,0,0,1,.82.62,2.48,2.48,0,0,1,.37,2,2.83,2.83,0,0,1-1.28,1.77,4.35,4.35,0,0,1-2.18.66,7.18,7.18,0,0,1-4.45-1.52,20.81,20.81,0,0,1-3.41-3.27,25.57,25.57,0,0,0-3.06-3.09A8.11,8.11,0,0,0,272,64.65a7.78,7.78,0,0,0-3.38.1,9.75,9.75,0,0,0-4.27,2.42,12,12,0,0,0-.93,1c-.2.23-.31.36-.31.35s0,0,.06-.1a2.17,2.17,0,0,1,.21-.29,11.28,11.28,0,0,1,.9-1,9.6,9.6,0,0,1,4.29-2.53,8,8,0,0,1,3.47-.13,8.41,8.41,0,0,1,3.58,1.74,26.79,26.79,0,0,1,3.1,3.11,20.68,20.68,0,0,0,3.37,3.23A7.06,7.06,0,0,0,286.34,74a4.11,4.11,0,0,0,2.05-.62,2.59,2.59,0,0,0,1.18-1.6,2.25,2.25,0,0,0-.32-1.85,1.67,1.67,0,0,0-1.59-.63,1.48,1.48,0,0,0-1.27.95,1.76,1.76,0,0,0,.28,1.48,2.69,2.69,0,0,0,1.13.89,5.94,5.94,0,0,0,1.27.39,3.47,3.47,0,0,0,2.07-.16,2.24,2.24,0,0,0,1-.87C292.29,71.71,292.31,71.54,292.33,71.55Z" style="fill: rgb(69, 90, 100); transform-origin: 277.72px 69.2745px;" id="el7r2vu8gb7e" class="animable"></path><path d="M252.47,72.38a9.59,9.59,0,0,0,1.54.8,4.71,4.71,0,0,0,1.83.21,8,8,0,0,0,2.22-.51,6.41,6.41,0,0,0,3.09-2.64,13.81,13.81,0,0,0,.73-1.57,1.51,1.51,0,0,1-.08.47,5.35,5.35,0,0,1-.48,1.2,6.21,6.21,0,0,1-3.17,2.79,7.36,7.36,0,0,1-2.3.51,4.84,4.84,0,0,1-1.91-.28,4.46,4.46,0,0,1-1.12-.65C252.58,72.52,252.46,72.4,252.47,72.38Z" style="fill: rgb(69, 90, 100); transform-origin: 257.175px 71.1587px;" id="elwfp9f54h7gm" class="animable"></path><path d="M251.84,76.3s.61.23,1.63.4A7.48,7.48,0,0,0,260.62,74c.65-.8.91-1.4.95-1.38s0,.16-.15.43a7.26,7.26,0,0,1-.65,1.07,7.24,7.24,0,0,1-7.34,2.78,6.07,6.07,0,0,1-1.19-.37A1.38,1.38,0,0,1,251.84,76.3Z" style="fill: rgb(69, 90, 100); transform-origin: 256.712px 74.8399px;" id="elmi5fpjgcsjn" class="animable"></path><path d="M263.82,87.32a.15.15,0,0,1,0-.3.13.13,0,0,1,.13.15A.15.15,0,0,1,263.82,87.32Z" style="fill: rgb(235, 153, 110); transform-origin: 263.811px 87.17px;" id="eluzgt8b707h" class="animable"></path><path d="M266.23,87.31c-.07,0-.13-.08-.13-.17a.17.17,0,0,1,.14-.17.16.16,0,0,1,.13.18C266.37,87.24,266.31,87.32,266.23,87.31Z" style="fill: rgb(235, 153, 110); transform-origin: 266.236px 87.1404px;" id="elctpex3n44z9" class="animable"></path><path d="M267.78,87.62c-.07,0-.12-.11-.11-.23s.08-.21.16-.21.12.11.11.24S267.86,87.63,267.78,87.62Z" style="fill: rgb(235, 153, 110); transform-origin: 267.805px 87.4004px;" id="eldd93tvx66vg" class="animable"></path><path d="M264.63,89c-.08,0-.13-.07-.12-.12s.08-.07.15,0,.13.07.12.11S264.7,89,264.63,89Z" style="fill: rgb(235, 153, 110); transform-origin: 264.645px 88.9227px;" id="elaxbis8ru4ok" class="animable"></path><path d="M266.84,89a.15.15,0,0,1-.12-.17c0-.09.08-.15.16-.14a.15.15,0,0,1,.11.17A.14.14,0,0,1,266.84,89Z" style="fill: rgb(235, 153, 110); transform-origin: 266.855px 88.8446px;" id="el7uxllmqpusl" class="animable"></path><path d="M278.07,90.16a.14.14,0,0,1-.13-.16.15.15,0,0,1,.14-.15.15.15,0,0,1,.13.16A.15.15,0,0,1,278.07,90.16Z" style="fill: rgb(235, 153, 110); transform-origin: 278.074px 90.005px;" id="el14ywdikv8bjj" class="animable"></path><path d="M279.66,90.37a.16.16,0,0,1-.11-.19c0-.09.08-.16.15-.15a.16.16,0,0,1,.12.19A.16.16,0,0,1,279.66,90.37Z" style="fill: rgb(235, 153, 110); transform-origin: 279.685px 90.1995px;" id="el1xuxjyk8de5" class="animable"></path><path d="M276.68,89.89a.14.14,0,0,1-.13-.13.13.13,0,0,1,.14-.11.12.12,0,0,1,.13.12A.13.13,0,0,1,276.68,89.89Z" style="fill: rgb(235, 153, 110); transform-origin: 276.685px 89.77px;" id="elr8k49icqotb" class="animable"></path><path d="M277.49,91.71a.15.15,0,0,1-.17-.13.16.16,0,0,1,.11-.18.15.15,0,0,1,.16.13A.15.15,0,0,1,277.49,91.71Z" style="fill: rgb(235, 153, 110); transform-origin: 277.456px 91.5555px;" id="elu3uuq3wfdjm" class="animable"></path><path d="M278.88,91.74a.12.12,0,0,1-.07-.16.14.14,0,0,1,.24.13A.12.12,0,0,1,278.88,91.74Z" style="fill: rgb(235, 153, 110); transform-origin: 278.928px 91.6477px;" id="elltdi44v5cg" class="animable"></path><polygon points="220.73 216.27 205.8 265.4 161.58 287.53 171.12 309.74 233.46 286.41 252.92 226.6 220.73 216.27" style="fill: rgb(38, 50, 56); transform-origin: 207.25px 263.005px;" id="elbuivvseiid" class="animable"></polygon><path d="M226.52,109.47l-40.46,25.68a10,10,0,0,0-4.16,5.38l-12.69,39.15,13.95,4.93L197.88,148l36.43-15.09Z" style="fill: rgb(247, 107, 28); transform-origin: 201.76px 147.04px;" id="ela9a8hz45y5b" class="animable"></path><path d="M270,121.49l1.16-1.6-2.11-6.09-5.72,8.67-1.53-4.73-11.48-13.67-5,3.65-18.83,1.75.11.52L223,137.78l-2.19,29.85-4.39,14.62-1.85,2a4.89,4.89,0,0,0-1.18,4.47l.13.52,46.22,15,3.58-5.59,14.37-68.07Z" style="fill: rgb(247, 107, 28); transform-origin: 245.473px 154.155px;" id="elmpdcq0fewjs" class="animable"></path><path d="M315.62,236.09a22.89,22.89,0,0,0-15.93-19.44L260,204.15l-46.45-14.92a41,41,0,0,0-3.46,18.86c.56,9.21,10.62,18,20.68,20.59l57.7,14.55,10.88,57,22.91-1.83Z" style="fill: rgb(38, 50, 56); transform-origin: 266.144px 244.73px;" id="el3tkzhy0vwyi" class="animable"></path><path d="M288.74,243.57a3.45,3.45,0,0,1-.75-.12l-2.11-.47c-1.83-.42-4.47-1.07-7.71-1.91-6.5-1.67-15.41-4.21-25.38-6.55a213,213,0,0,1-25.07-7.72c-3.14-1.19-5.64-2.25-7.36-3-.86-.37-1.52-.69-2-.9a4.74,4.74,0,0,1-.67-.34,4,4,0,0,1,.71.25l2,.81c1.74.7,4.26,1.7,7.41,2.85A240.84,240.84,0,0,0,252.91,234c10,2.33,18.88,4.93,25.35,6.69l7.67,2.07,2.09.56A5.11,5.11,0,0,1,288.74,243.57Z" style="fill: rgb(69, 90, 100); transform-origin: 253.215px 233.065px;" id="el8ncof2b43nr" class="animable"></path><path d="M294.37,236.73a9.58,9.58,0,0,1-2.38,3.85,9.47,9.47,0,0,1-3.59,2.75c-.09-.13,1.57-1.27,3.21-3.1S294.23,236.66,294.37,236.73Z" style="fill: rgb(69, 90, 100); transform-origin: 291.383px 240.029px;" id="elo6ysmhsajsb" class="animable"></path><path d="M297.8,242a11.22,11.22,0,0,1-4.57,1.43,11.35,11.35,0,0,1-4.79-.08c0-.16,2.14-.06,4.71-.43S297.75,241.8,297.8,242Z" style="fill: rgb(69, 90, 100); transform-origin: 293.12px 242.807px;" id="el9y40moieuw" class="animable"></path><path d="M233.42,195.77c0-.13,14,4.13,31.08,9.53s31,9.88,30.92,10-14-4.13-31.08-9.53S233.38,195.91,233.42,195.77Z" style="fill: rgb(69, 90, 100); transform-origin: 264.42px 205.535px;" id="elvik382csyoc" class="animable"></path><path d="M234.3,130.07a13.06,13.06,0,0,0,1.65-3.26,17.18,17.18,0,0,0,.76-3.89,16,16,0,0,0-.29-4.82,11.38,11.38,0,0,0-2.1-4.3,11.15,11.15,0,0,0-2.95-2.59A24.85,24.85,0,0,0,228,109.7a3.6,3.6,0,0,1,1,.17,11.06,11.06,0,0,1,2.54,1,10.65,10.65,0,0,1,3.15,2.61,11.43,11.43,0,0,1,2.22,4.48,15.22,15.22,0,0,1,.27,5,15.74,15.74,0,0,1-.9,4,8.64,8.64,0,0,1-1.29,2.42C234.61,129.87,234.32,130.09,234.3,130.07Z" style="fill: rgb(38, 50, 56); transform-origin: 232.637px 119.886px;" id="elhw13d899y0g" class="animable"></path><g id="elgkdjx9g6x3s"><g style="opacity: 0.3; transform-origin: 226.16px 147.99px;" class="animable"><path d="M223,137.78c2.65-.69,8.12-3.65,8.12-3.65-3.29,8.65-6.83,19-9.92,27.72.9-8.06.9-16,1.8-24.07" id="el0vrefp75hb1b" class="animable" style="transform-origin: 226.16px 147.99px;"></path></g></g><path d="M192.61,143.12a8.29,8.29,0,0,1,3.1,2.25,8.18,8.18,0,0,1,2.17,3.16c-.13.08-1.09-1.31-2.54-2.79S192.52,143.25,192.61,143.12Z" style="fill: rgb(38, 50, 56); transform-origin: 195.243px 145.827px;" id="ellxm86retnvk" class="animable"></path><path d="M195.87,137.7a13.89,13.89,0,0,1,2.38,10.46,49.5,49.5,0,0,0-.64-5.35A49.32,49.32,0,0,0,195.87,137.7Z" style="fill: rgb(38, 50, 56); transform-origin: 197.163px 142.93px;" id="elrxijv0i4dbs" class="animable"></path><path d="M216.1,161.55c0,.15,0,.27-.1.27s-.09-.12-.09-.27,0-.26.09-.26S216.1,161.41,216.1,161.55Z" style="fill: rgb(38, 50, 56); transform-origin: 216.005px 161.555px;" id="eltgx332z29l" class="animable"></path><path d="M263.35,198.62a2.46,2.46,0,0,1,.08-.6l.34-1.7c.33-1.54.77-3.65,1.32-6.23l4.32-20.55c1.69-8,3.21-15.24,4.33-20.56.56-2.57,1-4.68,1.35-6.22l.39-1.69a4.55,4.55,0,0,1,.17-.58,2.24,2.24,0,0,1-.06.6c-.08.45-.18,1-.3,1.71-.29,1.55-.7,3.67-1.19,6.26-1,5.27-2.49,12.56-4.18,20.59s-3.27,15.28-4.47,20.52c-.61,2.62-1.11,4.74-1.48,6.2-.18.68-.32,1.24-.43,1.67A2.64,2.64,0,0,1,263.35,198.62Z" style="fill: rgb(38, 50, 56); transform-origin: 269.501px 169.555px;" id="el112zm92tgp5n" class="animable"></path><path d="M286.13,166.75a7.93,7.93,0,0,1,1.05-4.26,8.07,8.07,0,0,1,2.78-3.41c.12.12-1.26,1.51-2.31,3.64S286.29,166.78,286.13,166.75Z" style="fill: rgb(38, 50, 56); transform-origin: 288.046px 162.915px;" id="eluo9tygu9z4" class="animable"></path><path d="M288.47,169.18A13.22,13.22,0,0,1,290,159c.15.07-.87,2.19-1.27,5A49.67,49.67,0,0,0,288.47,169.18Z" style="fill: rgb(38, 50, 56); transform-origin: 289.036px 164.09px;" id="el4csrr0rs9u9" class="animable"></path><polygon points="336.79 160.11 329.16 160.18 330.11 162.6 336.73 161.04 336.79 160.11" style="fill: rgb(255, 190, 157); transform-origin: 332.975px 161.355px;" id="el5svgi36ug46" class="animable"></polygon><g id="elzbbqoymjug"><g style="opacity: 0.3; transform-origin: 274.092px 157.147px;" class="animable"><path d="M271.51,160.91s5.08,8.88,5,8.65c.34-8.48.31-16.57-1.65-24.83" id="elfazpqzpgzd" class="animable" style="transform-origin: 274.092px 157.147px;"></path></g></g><path d="M261.82,118c0,.05-.69.67-1.85,1.8s-2.75,2.79-4.83,4.51l-.23.19-.14-.26-2.3-4.26c-1.87-3.39-3.64-6.41-4.93-8.59L246,108.76a4.38,4.38,0,0,1-.5-1,4.48,4.48,0,0,1,.68.87c.4.58,1,1.43,1.66,2.5,1.38,2.14,3.2,5.14,5.07,8.54.83,1.5,1.6,3,2.28,4.28l-.37-.08c2.07-1.66,3.7-3.3,4.94-4.35A11.25,11.25,0,0,1,261.82,118Z" style="fill: rgb(38, 50, 56); transform-origin: 253.66px 116.13px;" id="elpnmeb6yd21" class="animable"></path><path d="M270.91,120.36a3.33,3.33,0,0,1-.64,1c-.44.63-1.15,1.48-1.88,2.51l-.28.38-.14-.44c-.29-.9-.59-1.87-.92-2.89l-.59-2,.44.09a33.55,33.55,0,0,1-3.55,4,33.2,33.2,0,0,1,3.15-4.33l.29-.37.15.46.61,1.93q.45,1.52.87,2.88l-.42-.06c.8-1,1.54-1.83,2.05-2.41S270.86,120.33,270.91,120.36Z" style="fill: rgb(38, 50, 56); transform-origin: 267.13px 121.28px;" id="elfl6t1oxrxyh" class="animable"></path><path d="M263.35,122.91a5.21,5.21,0,0,1-1-2.53,11.36,11.36,0,0,1-.51-2.64,5.25,5.25,0,0,1,1,2.52A12.05,12.05,0,0,1,263.35,122.91Z" style="fill: rgb(38, 50, 56); transform-origin: 262.595px 120.325px;" id="elm7h2v9orgk" class="animable"></path><path d="M255.56,193.75s.56.32,1,1.23a4.32,4.32,0,0,1-3.08,6.07,2.26,2.26,0,0,1-1.57-.07c0-.08.6,0,1.48-.28a4.23,4.23,0,0,0,2.83-5.58C255.9,194.25,255.49,193.81,255.56,193.75Z" style="fill: rgb(38, 50, 56); transform-origin: 254.439px 197.454px;" id="elwq9fiqlcvec" class="animable"></path><path d="M264.64,124.25a3.47,3.47,0,0,1,0,.71c0,.52,0,1.2-.07,2-.06,1.77-.21,4.33-.45,7.49-.46,6.32-1.35,15-2.83,24.61s-3.28,18.14-4.76,24.3c-.73,3.09-1.37,5.57-1.84,7.28l-.55,2a3.31,3.31,0,0,1-.23.68,5,5,0,0,1,.13-.7c.11-.51.27-1.17.45-2,.42-1.72,1-4.22,1.69-7.31,1.38-6.18,3.11-14.76,4.6-24.3s2.42-18.25,3-24.56c.28-3.15.48-5.71.61-7.47.07-.84.12-1.52.17-2A3.27,3.27,0,0,1,264.64,124.25Z" style="fill: rgb(38, 50, 56); transform-origin: 259.284px 158.785px;" id="elt8o92h9491" class="animable"></path><path d="M259.89,193.29a8.5,8.5,0,0,1-2.45.52,24.56,24.56,0,0,1-6,0,25.15,25.15,0,0,1-5.86-1.44,8.62,8.62,0,0,1-2.24-1.1,47.4,47.4,0,0,0,8.16,2A46.8,46.8,0,0,0,259.89,193.29Z" style="fill: rgb(38, 50, 56); transform-origin: 251.615px 192.632px;" id="el0e9ioh9uxmwv" class="animable"></path><path d="M227.39,187.62a29.64,29.64,0,0,1-11-5.25c.08-.13,2.42,1.29,5.46,2.73S227.44,187.48,227.39,187.62Z" style="fill: rgb(38, 50, 56); transform-origin: 221.89px 184.991px;" id="elvmpaicilyij" class="animable"></path><path d="M208.18,174.78c0,.15-.05.26-.12.26s-.11-.11-.11-.26.05-.26.11-.26S208.18,174.64,208.18,174.78Z" style="fill: rgb(38, 50, 56); transform-origin: 208.065px 174.78px;" id="elu1u8edlglhj" class="animable"></path><path d="M206.27,132.81a14.31,14.31,0,0,1,.33-3.78,14.2,14.2,0,0,1,.85-3.7,13.35,13.35,0,0,1-.33,3.78A14.2,14.2,0,0,1,206.27,132.81Z" style="fill: rgb(255, 255, 255); transform-origin: 206.863px 129.07px;" id="el398hldle0b3" class="animable"></path><path d="M223.56,129.9a11.69,11.69,0,0,1-2.15-1.59c-1.15-.89-2.16-1.53-2.09-1.67a5.19,5.19,0,0,1,2.41,1.26C222.93,128.82,223.66,129.81,223.56,129.9Z" style="fill: rgb(255, 255, 255); transform-origin: 221.443px 128.27px;" id="el6q7rfsormhd" class="animable"></path><path d="M192.12,138.59a5.35,5.35,0,0,1-2.1-.92c-1.09-.64-1.91-1.25-1.84-1.38a5.29,5.29,0,0,1,2.1.93C191.37,137.85,192.19,138.46,192.12,138.59Z" style="fill: rgb(255, 255, 255); transform-origin: 190.15px 137.44px;" id="el1985qvp87ez" class="animable"></path><path d="M189.89,151.25a13.48,13.48,0,0,1-3.47,1.37,13.32,13.32,0,0,1-3.62.86,14.14,14.14,0,0,1,3.47-1.36A13.58,13.58,0,0,1,189.89,151.25Z" style="fill: rgb(255, 255, 255); transform-origin: 186.345px 152.365px;" id="elk2503q5j1u" class="animable"></path><path d="M181.54,172.77a13.31,13.31,0,0,1-1-6.79,17.91,17.91,0,0,1,.57,3.38A18,18,0,0,1,181.54,172.77Z" style="fill: rgb(255, 255, 255); transform-origin: 180.996px 169.375px;" id="eliszakbmayir" class="animable"></path><path d="M216.35,138.26a23.29,23.29,0,0,1-3.6,1.23,22.94,22.94,0,0,1-3.63,1.14,15.59,15.59,0,0,1,7.23-2.37Z" style="fill: rgb(255, 255, 255); transform-origin: 212.735px 139.445px;" id="el0q4ilkv1ujl" class="animable"></path><path d="M230.05,117.11a20.33,20.33,0,0,1-4.56-.59,20.75,20.75,0,0,1-4.47-1.11,20.14,20.14,0,0,1,4.57.6A20.7,20.7,0,0,1,230.05,117.11Z" style="fill: rgb(255, 255, 255); transform-origin: 225.535px 116.26px;" id="eljk2flb0yv2m" class="animable"></path><path d="M240.73,117.61a10.71,10.71,0,0,1,.81-3.26,10.72,10.72,0,0,1,1.3-3.1,11.08,11.08,0,0,1-.81,3.26A11.06,11.06,0,0,1,240.73,117.61Z" style="fill: rgb(255, 255, 255); transform-origin: 241.785px 114.43px;" id="elkdgojifko8p" class="animable"></path><path d="M250.15,129.34a15,15,0,0,1-4.38-5.52,17.72,17.72,0,0,1,2.27,2.7A16.94,16.94,0,0,1,250.15,129.34Z" style="fill: rgb(255, 255, 255); transform-origin: 247.96px 126.58px;" id="elqtf946s5uam" class="animable"></path><path d="M240,139.52a11.54,11.54,0,0,1-.54-3.37,11.74,11.74,0,0,1,0-3.42,11,11,0,0,1,.54,3.38A10.87,10.87,0,0,1,240,139.52Z" style="fill: rgb(255, 255, 255); transform-origin: 239.735px 136.125px;" id="elf0jf6bgad5p" class="animable"></path><path d="M229.07,145.18c-.09.11-1-.53-1.94-1.43s-1.69-1.72-1.59-1.82,1,.54,1.94,1.43S229.17,145.08,229.07,145.18Z" style="fill: rgb(255, 255, 255); transform-origin: 227.305px 143.556px;" id="ela3nqhiif5o9" class="animable"></path><path d="M234.58,152.65a9.17,9.17,0,0,1-5.36,1.49,12,12,0,0,1,2.66-.84A11,11,0,0,1,234.58,152.65Z" style="fill: rgb(255, 255, 255); transform-origin: 231.9px 153.398px;" id="elj4jtlpfeckh" class="animable"></path><path d="M253.83,146.74a12.51,12.51,0,0,1-.85-6.51,16,16,0,0,1,.51,3.24A16.14,16.14,0,0,1,253.83,146.74Z" style="fill: rgb(255, 255, 255); transform-origin: 253.348px 143.485px;" id="el4jxw83xzlph" class="animable"></path><path d="M249.7,161a9.63,9.63,0,0,1-1.66-2.7,9.89,9.89,0,0,1-1.2-2.94,9.63,9.63,0,0,1,1.66,2.7A9.89,9.89,0,0,1,249.7,161Z" style="fill: rgb(255, 255, 255); transform-origin: 248.27px 158.18px;" id="elis2j9mav51" class="animable"></path><path d="M234.71,170.64a15.05,15.05,0,0,1,1-3.76,14.36,14.36,0,0,1,1.54-3.59,15.05,15.05,0,0,1-1,3.76A14.36,14.36,0,0,1,234.71,170.64Z" style="fill: rgb(255, 255, 255); transform-origin: 235.98px 166.965px;" id="el0q1me9rlhka" class="animable"></path><path d="M228.43,178.74a6.52,6.52,0,0,1-1.07-2.26,6,6,0,0,1-.58-2.43,6.29,6.29,0,0,1,1.07,2.26A6,6,0,0,1,228.43,178.74Z" style="fill: rgb(255, 255, 255); transform-origin: 227.605px 176.395px;" id="eldvtnzet6u9" class="animable"></path><path d="M250.42,177.27a13.06,13.06,0,0,1-3.14,1.91,13.23,13.23,0,0,1-3.39,1.44,13.52,13.52,0,0,1,3.15-1.91A13.24,13.24,0,0,1,250.42,177.27Z" style="fill: rgb(255, 255, 255); transform-origin: 247.155px 178.945px;" id="el49w98zboyji" class="animable"></path><path d="M236.39,189.46a4.55,4.55,0,0,1-.46-2.09c-.11-1.18-.09-2.14.06-2.15a4.57,4.57,0,0,1,.46,2.1C236.56,188.49,236.54,189.45,236.39,189.46Z" style="fill: rgb(255, 255, 255); transform-origin: 236.19px 187.34px;" id="elor5zei961k" class="animable"></path><path d="M220.17,189.74c-.11.08-.78-.78-1.07-2.06a3.36,3.36,0,0,1,.05-2.32,12.48,12.48,0,0,1,.46,2.2A12.88,12.88,0,0,1,220.17,189.74Z" style="fill: rgb(255, 255, 255); transform-origin: 219.544px 187.553px;" id="elgrb1fujeaim" class="animable"></path><path d="M248,195.67a7.45,7.45,0,0,1-2.54,1.1,7.75,7.75,0,0,1-2.69.61,7.34,7.34,0,0,1,2.53-1.1A7.78,7.78,0,0,1,248,195.67Z" style="fill: rgb(255, 255, 255); transform-origin: 245.385px 196.525px;" id="elb8cay0kei2e" class="animable"></path><path d="M260.05,199.79c-.14,0-.41-.78-.6-1.79s-.24-1.86-.1-1.89.41.77.61,1.79S260.2,199.76,260.05,199.79Z" style="fill: rgb(255, 255, 255); transform-origin: 259.705px 197.95px;" id="eltp9l5sudo0m" class="animable"></path><path d="M261.6,185.79a6.18,6.18,0,0,1-1.26-2.15,6.11,6.11,0,0,1-.78-2.35,6.2,6.2,0,0,1,1.26,2.14A6.13,6.13,0,0,1,261.6,185.79Z" style="fill: rgb(255, 255, 255); transform-origin: 260.58px 183.54px;" id="el0vbji42fak5m" class="animable"></path><path d="M266.28,170.51c.08.12-.85.82-2.06,1.56a6.4,6.4,0,0,1-2.33,1.12,6.76,6.76,0,0,1,2.06-1.56A6.48,6.48,0,0,1,266.28,170.51Z" style="fill: rgb(255, 255, 255); transform-origin: 264.087px 171.85px;" id="el9sfnvkyl4d" class="animable"></path><path d="M266.55,161.74a4.82,4.82,0,0,1-1.06-2.3,4.69,4.69,0,0,1-.21-2.52,9.52,9.52,0,0,1,.71,2.39A8.9,8.9,0,0,1,266.55,161.74Z" style="fill: rgb(255, 255, 255); transform-origin: 265.873px 159.33px;" id="el8g43ty41kst" class="animable"></path><path d="M271.34,141.6a10.81,10.81,0,0,1-2.46,2.12,10.54,10.54,0,0,1-2.77,1.71,10.43,10.43,0,0,1,2.46-2.13A9.88,9.88,0,0,1,271.34,141.6Z" style="fill: rgb(255, 255, 255); transform-origin: 268.725px 143.515px;" id="ellkkkifr4u5d" class="animable"></path><path d="M272.21,135.29c-.08.11-1-.45-1.83-1.52a3.6,3.6,0,0,1-1-2.17c.14-.06.63.86,1.39,1.85S272.3,135.17,272.21,135.29Z" style="fill: rgb(255, 255, 255); transform-origin: 270.799px 133.45px;" id="elp081wcnpom" class="animable"></path><path d="M279.54,149.14a10,10,0,0,1,.31-3.16,10.1,10.1,0,0,1,.81-3.07,9.79,9.79,0,0,1-.3,3.16A9.93,9.93,0,0,1,279.54,149.14Z" style="fill: rgb(255, 255, 255); transform-origin: 280.102px 146.025px;" id="eleph8lraboqg" class="animable"></path><path d="M284.09,158.5a7.71,7.71,0,0,1-2.71-.74,7.53,7.53,0,0,1-2.52-1.23,8,8,0,0,1,2.71.74A7.85,7.85,0,0,1,284.09,158.5Z" style="fill: rgb(255, 255, 255); transform-origin: 281.475px 157.515px;" id="elm1tttdmz2mo" class="animable"></path><path d="M282.92,172.23a7.11,7.11,0,0,1-1.34-2.31,6.87,6.87,0,0,1-.87-2.53,13.77,13.77,0,0,1,2.21,4.84Z" style="fill: rgb(255, 255, 255); transform-origin: 281.815px 169.81px;" id="elv0uqd9oown" class="animable"></path><path d="M298,164.57a20.79,20.79,0,0,1-2.37,2.71,20.86,20.86,0,0,1-2.46,2.65,9.41,9.41,0,0,1,2.07-3A9.24,9.24,0,0,1,298,164.57Z" style="fill: rgb(255, 255, 255); transform-origin: 295.585px 167.25px;" id="elzcjvo6pe79m" class="animable"></path><path d="M307.29,166.7a8.91,8.91,0,0,1-2.18-2,8.75,8.75,0,0,1-1.8-2.37,17.3,17.3,0,0,1,4,4.38Z" style="fill: rgb(255, 255, 255); transform-origin: 305.31px 164.52px;" id="el4fg4430gpmq" class="animable"></path><polygon points="326.68 141.05 326.68 135.4 323.71 135.4 328.27 129.01 332.83 135.4 329.97 135.4 329.97 141.05 326.68 141.05" style="fill: rgb(247, 107, 28); transform-origin: 328.27px 135.03px;" id="el1pxubjva12o" class="animable"></polygon><polygon points="320.6 145.87 320.6 141.92 318.52 141.92 321.72 137.45 324.91 141.92 322.91 141.92 322.91 145.87 320.6 145.87" style="fill: rgb(247, 107, 28); transform-origin: 321.715px 141.66px;" id="elk1a4u9amxxf" class="animable"></polygon><path d="M282.43,298.88a4.49,4.49,0,0,1-.49.08l-1.47.19c-.65.06-1.45.17-2.39.34s-2,.32-3.24.6A69,69,0,0,0,243.21,316a66.31,66.31,0,0,0-11.07,12.81,68.64,68.64,0,0,0-11.38,37.1v.88l-.47-.74a40.76,40.76,0,0,0-9.64-10.29c-12.6-9.45-28.43-12.92-41.82-10.64l-2.48.52a7.19,7.19,0,0,0-1.21.32l-1.19.38c-.78.27-1.59.46-2.33.79l-2.24,1a21.63,21.63,0,0,0-2.16,1.06l-2.09,1.11-2,1.24a20.46,20.46,0,0,0-1.9,1.29,55,55,0,0,0-11.91,11.84,66,66,0,0,0-7,12l-1.17,2.73c-.35.88-.65,1.75-.95,2.58-.64,1.64-1,3.2-1.48,4.57-.76,2.79-1.28,5-1.54,6.48-.14.73-.25,1.3-.33,1.7s-.13.58-.13.58a5.24,5.24,0,0,1,.08-.59c.06-.4.16-1,.28-1.71a66.64,66.64,0,0,1,1.45-6.51c.42-1.39.8-3,1.43-4.61.3-.82.59-1.7.94-2.59l1.16-2.75a65.73,65.73,0,0,1,7-12.1,54.87,54.87,0,0,1,12-12,20.71,20.71,0,0,1,1.91-1.3l2-1.27,2.11-1.12a19.14,19.14,0,0,1,2.18-1.07l2.26-1c.75-.34,1.57-.53,2.36-.81l1.2-.38a7.44,7.44,0,0,1,1.23-.33l2.51-.53c13.54-2.33,29.48,1.15,42.21,10.7a41.13,41.13,0,0,1,9.76,10.43l-.47.13a68.83,68.83,0,0,1,11.51-37.35,66.15,66.15,0,0,1,11.17-12.86,69.89,69.89,0,0,1,12-8.52,67.8,67.8,0,0,1,19.82-7.3c1.22-.27,2.31-.42,3.26-.56s1.75-.25,2.4-.3l1.47-.14C282.26,298.88,282.43,298.88,282.43,298.88Z" style="fill: rgb(38, 50, 56); transform-origin: 204.575px 347.09px;" id="elzwnk09e6s6n" class="animable"></path></g><g id="freepik--Levels--inject-135" class="animable" style="transform-origin: 256.255px 394.26px;"><rect x="373.71" y="307.6" width="68.25" height="172.67" style="fill: rgb(247, 107, 28); transform-origin: 407.835px 393.935px;" id="eluvcgf3gm4w" class="animable"></rect><g id="elj0jdc4guv8h"><g style="opacity: 0.3; transform-origin: 407.835px 393.935px;" class="animable"><rect x="373.71" y="307.6" width="68.25" height="172.67" id="el6bkhxkbhdz4" class="animable" style="transform-origin: 407.835px 393.935px;"></rect></g></g><rect x="357.03" y="307.6" width="68.25" height="172.67" style="fill: rgb(247, 107, 28); transform-origin: 391.155px 393.935px;" id="el37qgpyh772s" class="animable"></rect><g id="el1juuhhsofq"><g style="opacity: 0.4; transform-origin: 392.08px 380.79px;" class="animable"><path d="M388.43,376.71v9.55h-1.82l-4.76-5.8v5.8h-2.18v-9.55h1.83l4.75,5.8v-5.8Z" style="fill: rgb(255, 255, 255); transform-origin: 384.05px 381.485px;" id="el2zc8ibbg5nt" class="animable"></path><path d="M389.89,378.28a2.61,2.61,0,1,1,2.59,2.26A2.36,2.36,0,0,1,389.89,378.28Zm3.72,0a1.14,1.14,0,0,0-2.28,0,1.14,1.14,0,0,0,2.28,0Z" style="fill: rgb(255, 255, 255); transform-origin: 392.476px 377.936px;" id="el02b0leekesig" class="animable"></path><path d="M404.49,384.25h-1.55v2h-2.16v-2h-5.14v-1.49l4.5-6.05h2.32l-4.17,5.74h2.56v-1.79h2.09v1.79h1.55Z" style="fill: rgb(255, 255, 255); transform-origin: 400.065px 381.48px;" id="el2zeddzxiu5v" class="animable"></path></g></g><path d="M442,315.52a4.81,4.81,0,0,1-.56,1l-1.69,2.66c-1.44,2.24-3.46,5.3-5.73,8.67s-4.35,6.4-5.88,8.57a25.87,25.87,0,0,1-2.61,3.43,1.36,1.36,0,0,1,.14-.26l.45-.73c.47-.72,1-1.6,1.71-2.65,1.46-2.22,3.49-5.29,5.76-8.65s4.34-6.4,5.86-8.58l1.82-2.57A4.8,4.8,0,0,1,442,315.52Z" style="fill: rgb(247, 107, 28); transform-origin: 433.765px 327.685px;" id="elyjx5umg8a5" class="animable"></path><path d="M442,346.62a4.81,4.81,0,0,1-.56,1l-1.69,2.66c-1.44,2.24-3.46,5.3-5.73,8.67s-4.35,6.39-5.88,8.57a25.87,25.87,0,0,1-2.61,3.43,1.6,1.6,0,0,1,.14-.27c.14-.22.29-.45.45-.73.47-.71,1-1.6,1.71-2.64,1.46-2.23,3.49-5.29,5.76-8.65s4.34-6.4,5.86-8.58l1.82-2.57A4.8,4.8,0,0,1,442,346.62Z" style="fill: rgb(247, 107, 28); transform-origin: 433.765px 358.785px;" id="elwxxpiwqm6an" class="animable"></path><path d="M442,377.71a5,5,0,0,1-.56,1l-1.69,2.66c-1.44,2.23-3.46,5.3-5.73,8.67s-4.35,6.39-5.88,8.56a25.64,25.64,0,0,1-2.61,3.44,1.6,1.6,0,0,1,.14-.27l.45-.73,1.71-2.64c1.46-2.23,3.49-5.29,5.76-8.66s4.34-6.39,5.86-8.58l1.82-2.56A5.17,5.17,0,0,1,442,377.71Z" style="fill: rgb(247, 107, 28); transform-origin: 433.765px 389.875px;" id="elxwoxphba0te" class="animable"></path><path d="M442,408.81a5,5,0,0,1-.56,1l-1.69,2.66c-1.44,2.23-3.46,5.3-5.73,8.66s-4.35,6.4-5.88,8.57a25,25,0,0,1-2.61,3.43,2.93,2.93,0,0,1,.14-.26c.14-.22.29-.46.45-.73l1.71-2.64c1.46-2.23,3.49-5.29,5.76-8.66s4.34-6.4,5.86-8.58l1.82-2.57A4.8,4.8,0,0,1,442,408.81Z" style="fill: rgb(247, 107, 28); transform-origin: 433.765px 420.97px;" id="eli5ifkslc9g" class="animable"></path><path d="M442,439.91a4.81,4.81,0,0,1-.56,1l-1.69,2.67c-1.44,2.23-3.46,5.3-5.73,8.66s-4.35,6.4-5.88,8.57a25.87,25.87,0,0,1-2.61,3.43,2.93,2.93,0,0,1,.14-.26l.45-.73c.47-.72,1-1.6,1.71-2.65,1.46-2.22,3.49-5.28,5.76-8.65s4.34-6.4,5.86-8.58l1.82-2.57A4.8,4.8,0,0,1,442,439.91Z" style="fill: rgb(247, 107, 28); transform-origin: 433.765px 452.075px;" id="el9ghjc8dfkw8" class="animable"></path><path d="M442,471a34.26,34.26,0,0,1-3.11,5.1,34.82,34.82,0,0,1-3.55,4.81,34.31,34.31,0,0,1,3.12-5.1A33.6,33.6,0,0,1,442,471Z" style="fill: rgb(247, 107, 28); transform-origin: 438.67px 475.955px;" id="elqukt66z2uwk" class="animable"></path><rect x="278.54" y="339.86" width="68.25" height="140.41" style="fill: rgb(247, 107, 28); transform-origin: 312.665px 410.065px;" id="el7mhmzli7l9c" class="animable"></rect><g id="eli2o3iaw1kw8"><g style="opacity: 0.3; transform-origin: 312.665px 410.065px;" class="animable"><rect x="278.54" y="339.86" width="68.25" height="140.41" id="eled9fgjdigvk" class="animable" style="transform-origin: 312.665px 410.065px;"></rect></g></g><rect x="261.86" y="339.86" width="68.25" height="140.41" style="fill: rgb(247, 107, 28); transform-origin: 295.985px 410.065px;" id="eliw2tys1mhs" class="animable"></rect><g id="el05tgvq3ktuze"><g style="opacity: 0.4; transform-origin: 296.21px 399.451px;" class="animable"><path d="M293.32,395.22v9.63h-1.81L286.75,399v5.85h-2.18v-9.63h1.82l4.75,5.85v-5.85Z" style="fill: rgb(255, 255, 255); transform-origin: 288.945px 400.035px;" id="el9fm76i8kug6" class="animable"></path><path d="M294.78,396.8a2.6,2.6,0,1,1,2.59,2.29A2.36,2.36,0,0,1,294.78,396.8Zm3.73,0a1.14,1.14,0,0,0-2.28,0,1.14,1.14,0,1,0,2.28,0Z" style="fill: rgb(255, 255, 255); transform-origin: 297.361px 396.496px;" id="elg042rf6976k" class="animable"></path><path d="M307.85,401.9c0,1.63-1.24,3.11-4,3.11a6.54,6.54,0,0,1-3.64-1l.86-1.7a4.6,4.6,0,0,0,2.73.86c1.1,0,1.78-.45,1.78-1.24s-.53-1.18-1.78-1.18h-1v-1.47l2-2.24h-4.06v-1.79h6.68v1.45l-2.15,2.47A2.73,2.73,0,0,1,307.85,401.9Z" style="fill: rgb(255, 255, 255); transform-origin: 304.03px 400.131px;" id="elxqk7qci1smf" class="animable"></path></g></g><path d="M346.79,345.48a5,5,0,0,1-.56,1l-1.69,2.68c-1.44,2.25-3.46,5.35-5.73,8.74s-4.35,6.45-5.88,8.64a26.67,26.67,0,0,1-2.61,3.47,1,1,0,0,1,.14-.27c.14-.22.28-.46.45-.74l1.71-2.66c1.46-2.25,3.49-5.33,5.76-8.73s4.33-6.45,5.86-8.65l1.82-2.59A4.71,4.71,0,0,1,346.79,345.48Z" style="fill: rgb(247, 107, 28); transform-origin: 338.555px 357.745px;" id="ela1qrqnyoi5" class="animable"></path><path d="M346.79,376.84a5,5,0,0,1-.56,1l-1.69,2.68c-1.44,2.26-3.46,5.35-5.73,8.74s-4.35,6.45-5.88,8.64a25.79,25.79,0,0,1-2.61,3.47,1,1,0,0,1,.14-.27l.45-.73c.46-.73,1-1.62,1.71-2.67,1.46-2.25,3.49-5.33,5.76-8.73s4.33-6.45,5.86-8.65l1.82-2.59A4.71,4.71,0,0,1,346.79,376.84Z" style="fill: rgb(247, 107, 28); transform-origin: 338.555px 389.105px;" id="ellx2083veax" class="animable"></path><path d="M346.79,408.2a5,5,0,0,1-.56,1l-1.69,2.69c-1.44,2.25-3.46,5.34-5.73,8.73s-4.35,6.45-5.88,8.65a26,26,0,0,1-2.61,3.46,1,1,0,0,1,.14-.27l.45-.73c.46-.73,1-1.62,1.71-2.67,1.46-2.24,3.49-5.33,5.76-8.73s4.33-6.45,5.86-8.65l1.82-2.59A5.17,5.17,0,0,1,346.79,408.2Z" style="fill: rgb(247, 107, 28); transform-origin: 338.555px 420.465px;" id="el5u3l3lqbwsq" class="animable"></path><path d="M346.79,439.56a5,5,0,0,1-.56,1l-1.69,2.69c-1.44,2.25-3.46,5.34-5.73,8.74s-4.35,6.45-5.88,8.64a26,26,0,0,1-2.61,3.46,1,1,0,0,1,.14-.27l.45-.73c.46-.72,1-1.61,1.71-2.67,1.46-2.24,3.49-5.33,5.76-8.72s4.33-6.46,5.86-8.66l1.82-2.59A5.17,5.17,0,0,1,346.79,439.56Z" style="fill: rgb(247, 107, 28); transform-origin: 338.555px 451.825px;" id="elhwkzrkckase" class="animable"></path><path d="M346.79,470.92a34.54,34.54,0,0,1-3.11,5.14,35.09,35.09,0,0,1-3.55,4.86,34.54,34.54,0,0,1,3.11-5.14A35.09,35.09,0,0,1,346.79,470.92Z" style="fill: rgb(247, 107, 28); transform-origin: 343.46px 475.92px;" id="eltzrvn13j7l9" class="animable"></path><rect x="182.87" y="376.84" width="68.25" height="103.43" style="fill: rgb(247, 107, 28); transform-origin: 216.995px 428.555px;" id="ell87txc6xbwl" class="animable"></rect><g id="elbb2l1kvzekd"><g style="opacity: 0.3; transform-origin: 216.995px 428.555px;" class="animable"><rect x="182.87" y="376.84" width="68.25" height="103.43" id="el6snc7a1hw0d" class="animable" style="transform-origin: 216.995px 428.555px;"></rect></g></g><rect x="166.19" y="376.84" width="68.25" height="103.43" style="fill: rgb(247, 107, 28); transform-origin: 200.315px 428.555px;" id="ela5r82fibot" class="animable"></rect><g id="eld5hcxjvjpge"><g style="opacity: 0.4; transform-origin: 200.715px 421.91px;" class="animable"><path d="M197.65,417.78v9.62h-1.82l-4.76-5.84v5.84h-2.18v-9.62h1.83l4.75,5.84v-5.84Z" style="fill: rgb(255, 255, 255); transform-origin: 193.27px 422.59px;" id="elahrk9jk7f8d" class="animable"></path><path d="M199.11,419.36a2.61,2.61,0,1,1,2.59,2.28A2.36,2.36,0,0,1,199.11,419.36Zm3.72,0a1.14,1.14,0,0,0-2.28,0,1.14,1.14,0,1,0,2.28,0Z" style="fill: rgb(255, 255, 255); transform-origin: 201.699px 419.036px;" id="el1wcaptv1axt" class="animable"></path><path d="M212.54,425.59v1.81h-7.22V426l3.69-3.51c.84-.81,1-1.3,1-1.77,0-.76-.52-1.2-1.53-1.2a2.32,2.32,0,0,0-2,1l-1.61-1.05a4.4,4.4,0,0,1,3.79-1.79c2.13,0,3.55,1.1,3.55,2.85,0,.93-.26,1.79-1.6,3l-2.2,2.09Z" style="fill: rgb(255, 255, 255); transform-origin: 208.705px 422.537px;" id="el1fy9eearfcl" class="animable"></path></g></g><path d="M251.11,376.84a5,5,0,0,1-.56,1c-.45.73-1,1.62-1.68,2.68-1.45,2.26-3.47,5.35-5.74,8.74s-4.35,6.45-5.88,8.64a25.33,25.33,0,0,1-2.6,3.47s0-.1.14-.27l.45-.73q.69-1.09,1.71-2.67c1.45-2.25,3.48-5.33,5.75-8.73s4.34-6.45,5.86-8.65l1.83-2.59A5,5,0,0,1,251.11,376.84Z" style="fill: rgb(247, 107, 28); transform-origin: 242.88px 389.105px;" id="elrszxqmgb5e9" class="animable"></path><path d="M251.11,408.2a5,5,0,0,1-.56,1l-1.68,2.69c-1.45,2.25-3.47,5.34-5.74,8.73s-4.35,6.45-5.88,8.65a25.55,25.55,0,0,1-2.6,3.46s0-.1.14-.27l.45-.73q.69-1.1,1.71-2.67c1.45-2.24,3.48-5.33,5.75-8.73s4.34-6.45,5.86-8.65l1.83-2.59A5.5,5.5,0,0,1,251.11,408.2Z" style="fill: rgb(247, 107, 28); transform-origin: 242.88px 420.465px;" id="elnezs08ryoj" class="animable"></path><path d="M251.11,439.56a5,5,0,0,1-.56,1l-1.68,2.69c-1.45,2.25-3.47,5.34-5.74,8.74s-4.35,6.45-5.88,8.64a25.55,25.55,0,0,1-2.6,3.46s0-.1.14-.27l.45-.73,1.71-2.67c1.45-2.24,3.48-5.33,5.75-8.72s4.34-6.46,5.86-8.66l1.83-2.59A5.5,5.5,0,0,1,251.11,439.56Z" style="fill: rgb(247, 107, 28); transform-origin: 242.88px 451.825px;" id="elt0l1dvp1ln" class="animable"></path><path d="M251.11,470.92a34.54,34.54,0,0,1-3.11,5.14,35.55,35.55,0,0,1-3.54,4.86,34.54,34.54,0,0,1,3.11-5.14A35.55,35.55,0,0,1,251.11,470.92Z" style="fill: rgb(247, 107, 28); transform-origin: 247.785px 475.92px;" id="elebe06314yb9" class="animable"></path><rect x="87.19" y="408.2" width="68.25" height="72.07" style="fill: rgb(247, 107, 28); transform-origin: 121.315px 444.235px;" id="elami4honj00d" class="animable"></rect><g id="elvakvqpu3vti"><g style="opacity: 0.3; transform-origin: 121.315px 444.235px;" class="animable"><rect x="87.19" y="408.2" width="68.25" height="72.07" id="el00jo4590g3gqs" class="animable" style="transform-origin: 121.315px 444.235px;"></rect></g></g><rect x="70.51" y="408.2" width="68.25" height="72.07" style="fill: rgb(247, 107, 28); transform-origin: 104.635px 444.235px;" id="el2t48600c049" class="animable"></rect><g id="elgqv3pa4njjn"><g style="opacity: 0.4; transform-origin: 103.345px 442.87px;" class="animable"><path d="M102,438.74v9.62h-1.81l-4.76-5.84v5.84H93.22v-9.62H95l4.75,5.84v-5.84Z" style="fill: rgb(255, 255, 255); transform-origin: 97.61px 443.55px;" id="el6of7owadq14" class="animable"></path><path d="M103.43,440.32A2.61,2.61,0,1,1,106,442.6,2.36,2.36,0,0,1,103.43,440.32Zm3.72,0a1.14,1.14,0,1,0-1.13,1.14A1.07,1.07,0,0,0,107.15,440.32Z" style="fill: rgb(255, 255, 255); transform-origin: 106.019px 439.995px;" id="ely68dst3w63c" class="animable"></path><path d="M113.47,438.74v9.62h-2.21v-7.84h-1.91v-1.78Z" style="fill: rgb(255, 255, 255); transform-origin: 111.41px 443.55px;" id="ellpv8j6p1ln" class="animable"></path></g></g><path d="M155.44,408.2a5,5,0,0,1-.56,1l-1.69,2.69c-1.44,2.25-3.47,5.34-5.73,8.73s-4.35,6.45-5.88,8.65a26,26,0,0,1-2.61,3.46,1,1,0,0,1,.14-.27l.45-.73c.46-.73,1-1.62,1.71-2.67,1.46-2.24,3.49-5.33,5.75-8.73s4.34-6.45,5.87-8.65l1.82-2.59A5.17,5.17,0,0,1,155.44,408.2Z" style="fill: rgb(247, 107, 28); transform-origin: 147.205px 420.465px;" id="elrkszchhopuj" class="animable"></path><path d="M155.44,439.56a5,5,0,0,1-.56,1l-1.69,2.69c-1.44,2.25-3.47,5.34-5.73,8.74s-4.35,6.45-5.88,8.64a26,26,0,0,1-2.61,3.46,1,1,0,0,1,.14-.27l.45-.73c.46-.72,1-1.61,1.71-2.67,1.46-2.24,3.49-5.33,5.75-8.72s4.34-6.46,5.87-8.66l1.82-2.59A5.17,5.17,0,0,1,155.44,439.56Z" style="fill: rgb(247, 107, 28); transform-origin: 147.205px 451.825px;" id="elneofym9m5m" class="animable"></path><path d="M155.44,470.92a35.61,35.61,0,0,1-3.11,5.14,35.09,35.09,0,0,1-3.55,4.86,34.54,34.54,0,0,1,3.11-5.14A35.09,35.09,0,0,1,155.44,470.92Z" style="fill: rgb(247, 107, 28); transform-origin: 152.11px 475.92px;" id="elv77v6ugf4e9" class="animable"></path></g><g id="freepik--Floor--inject-135" class="animable" style="transform-origin: 250px 480.27px;"><path d="M474.12,480.28c0,.14-100.35.26-224.11.26s-224.13-.12-224.13-.26S126.21,480,250,480,474.12,480.13,474.12,480.28Z" style="fill: rgb(38, 50, 56); transform-origin: 250px 480.27px;" id="elaqdr89d2n6" class="animable"></path></g><defs>     <filter id="active" height="200%">         <feMorphology in="SourceAlpha" result="DILATED" operator="dilate" radius="2"></feMorphology>                <feFlood flood-color="#32DFEC" flood-opacity="1" result="PINK"></feFlood>        <feComposite in="PINK" in2="DILATED" operator="in" result="OUTLINE"></feComposite>        <feMerge>            <feMergeNode in="OUTLINE"></feMergeNode>            <feMergeNode in="SourceGraphic"></feMergeNode>        </feMerge>    </filter>    <filter id="hover" height="200%">        <feMorphology in="SourceAlpha" result="DILATED" operator="dilate" radius="2"></feMorphology>                <feFlood flood-color="#ff0000" flood-opacity="0.5" result="PINK"></feFlood>        <feComposite in="PINK" in2="DILATED" operator="in" result="OUTLINE"></feComposite>        <feMerge>            <feMergeNode in="OUTLINE"></feMergeNode>            <feMergeNode in="SourceGraphic"></feMergeNode>        </feMerge>            <feColorMatrix type="matrix" values="0   0   0   0   0                0   1   0   0   0                0   0   0   0   0                0   0   0   1   0 "></feColorMatrix>    </filter></defs></svg>